<?xml version="1.0" encoding="UTF-8"?>
<svg id="Calque_2" data-name="Calque 2" xmlns="http://www.w3.org/2000/svg" width="297.75" height="252.13" viewBox="0 0 297.75 252.13">
  <defs>
    <style>
      .cls-1 {
        fill: #66c1bf;
      }

      .cls-1, .cls-2, .cls-3 {
        stroke-width: 0px;
      }

      .cls-2 {
        fill: #345273;
      }

      .cls-3 {
        fill: #fff;
      }
    </style>
  </defs>
  <g id="Calque_1-2" data-name="Calque 1">
    <g>
      <g>
        <path class="cls-1" d="m220.99,81.48c-3.93-2.21-11.19-1.5-15.03,1.69s-7.17,6.72-11.44,8.62c-3.85,1.71-8.14,1.04-12.3.35-8.02-1.32-16.03-2.65-24.05-3.97-7.71-1.27-15.46-2.59-22.81-5.31-7.21-2.67-12.62-7.83-1.59-9.76,14.75-2.58,29.72-3.86,44.7-3.83,13.44.03,29.39-.45,41.72,4.98l.81,7.23Z"/>
        <path class="cls-1" d="m226.65,75.03c4.04-2.01,7.54-8.4,7.06-13.38-.48-4.98-1.52-9.71-.69-14.31.75-4.15,3.72-7.31,6.63-10.37,5.61-5.88,11.21-11.76,16.82-17.65,5.39-5.65,10.84-11.32,17.23-15.87,6.27-4.46,13.57-6.03,8.96,4.18-6.16,13.65-13.53,26.74-21.98,39.1-7.59,11.1-16.16,24.55-27.59,31.69l-6.43-3.4Z"/>
        <path class="cls-1" d="m235.01,84.95c1.17,4.36,6.74,9.06,11.72,9.57,4.97.51,9.82.43,14.16,2.16,3.92,1.56,6.43,5.09,8.85,8.55,4.65,6.66,9.31,13.32,13.96,19.98,4.47,6.4,8.95,12.87,12.14,20.03,3.13,7.03,3.22,14.5-5.87,7.96-12.15-8.75-23.53-18.57-33.97-29.3-9.37-9.64-20.86-20.71-25.59-33.33l4.61-5.63Z"/>
        <path class="cls-3" d="m247.81,240.93c-3.87,3.03-8.43,4.96-13.28,4.26-.3-41.98-2.06-108.23-2.95-151.51,4.75-1.53,8.19-5.98,8.19-11.24,0-6.52-5.29-11.81-11.81-11.81s-11.81,5.29-11.81,11.81c0,4.82,2.89,8.96,7.03,10.8-1.8,40.53-1.81,103.72-1.78,146.39-2.06-.56-4.19-.88-6.37-.97-7.27-.3-14.23,1.9-20.24,5.92-6.24,4.17,3.4,5.48,6.87,3.15,6.89-4.61,13.2-1.73,19.75,1.08v.09c.69.34,1.4.62,2.14.81,3.56,1.45,7.22,2.64,11.1,2.39,8.29-.53,15.64-4.44,22.06-9.46,4.93-3.85-6.14-3.86-8.9-1.71Z"/>
      </g>
      <g>
        <path class="cls-1" d="m78.88,60.54c-2.14-1.78-6.62-2.16-9.31-.64-2.69,1.51-5.1,3.28-7.9,3.96-2.53.61-5.05-.27-7.5-1.15-4.72-1.69-9.43-3.39-14.15-5.08-4.53-1.63-9.09-3.29-13.25-5.76-4.08-2.42-6.79-6.15.12-6.1,9.23.07,18.46.96,27.54,2.64,8.15,1.51,17.88,2.99,24.76,7.66l-.31,4.47Z"/>
        <path class="cls-1" d="m83.03,57.26c2.67-.77,5.51-4.26,5.77-7.33s.15-6.06,1.17-8.76c.92-2.43,3.07-4.02,5.17-5.55,4.05-2.95,8.11-5.89,12.16-8.84,3.9-2.83,7.83-5.67,12.21-7.71s8.9-2.15,4.97,3.53c-5.25,7.59-11.18,14.72-17.68,21.28-5.83,5.89-12.53,13.1-20.26,16.16l-3.52-2.78Z"/>
        <path class="cls-1" d="m87,64.21c.23,2.77,3.08,6.24,6.04,7.11,2.96.86,5.91,1.35,8.35,2.88,2.2,1.38,3.33,3.8,4.42,6.17,2.08,4.56,4.17,9.11,6.25,13.67,2,4.38,4,8.8,5.14,13.5,1.12,4.61.34,9.15-4.45,4.17-6.4-6.65-12.21-13.88-17.35-21.55-4.62-6.89-10.35-14.88-11.82-23.06l3.42-2.9Z"/>
        <path class="cls-3" d="m73.74,153.46c1.44.07,2.82.4,4.15.84-.01-24.71-.01-60.65.91-85.68-1.46-.57-2.77-1.59-3.69-3.01-2.32-3.6-1.29-8.4,2.31-10.72,3.6-2.32,8.4-1.29,10.72,2.31,2.32,3.6,1.29,8.4-2.31,10.72-.5.32-1.03.58-1.57.77.57,26.51,1.54,64.14,1.72,88.61,2.49.59,4.97.45,7.58-1.57,1.81-1.4,5.55-3.07,7.88-2.11,1.83.76,3.14,2.18,1.02,3.82-4.76,3.68-10.05,6.44-16.13,7.04-2.86.28-5.66.06-8.36-.96-4.36-1.64-8.15-5.67-13.14-2.4l8.9-7.67Z"/>
      </g>
      <g>
        <path class="cls-1" d="m64.2,140h90.94c.69,0,1.25.56,1.25,1.25v39.12H62.95v-39.12c0-.69.56-1.25,1.25-1.25Z"/>
        <path class="cls-3" d="m197.62,171.71l-20.81,38.17c-.33.6-.96.98-1.65.98H26.55c-.65,0-1.25-.34-1.59-.9L.29,169.72c-.78-1.28.12-2.94,1.61-2.94h6.78v-14.88c0-1.67,1.32-3.01,2.95-3.01h7.06v-18.28h-1.53c-1.1,0-1.98-.91-1.98-2.02v-2.87c0-1.12.88-2.02,1.98-2.02h29.33c1.09,0,1.98.9,1.98,2.02v2.87c0,1.11-.89,2.02-1.98,2.02h-1.7c.04.21.06.42.06.64v35.53h6.89c.67,0,1.31.38,1.64.98l6.43,11.63c.34.6.96.98,1.65.98h96.66c.62,0,1.21-.32,1.55-.84l6.51-9.82c.36-.53.93-.85,1.57-.85h28.23c1.44,0,2.35,1.58,1.65,2.86Z"/>
        <path class="cls-2" d="m127.92,148.82c-5.69-.43-11.45-.59-17.18-.47-.13,0-.26.06-.33.14-7.11,8.31-13.52,16.84-19.18,25.54-.14.22.11.45.43.4,5.35-.81,10.95-1.04,16.43-.68.3.02.46.27.29.45-7.98,8.72-14.55,17.89-19.6,27.36-.16.3.38.54.67.3l41.02-33.6c.22-.18.06-.47-.27-.49-5.21-.24-10.45-.29-15.68-.16-.32,0-.51-.25-.32-.45,5.69-5.85,10.59-11.98,14.62-18.31l-.91-.04Z"/>
        <rect class="cls-2" x="21.37" y="134.96" width="17.92" height="8.46"/>
      </g>
    </g>
  </g>
</svg>