<?xml version="1.0" encoding="UTF-8"?>
<svg id="Calque_2" data-name="Calque 2" xmlns="http://www.w3.org/2000/svg" width="218.28" height="217.97" viewBox="0 0 218.28 217.97">
  <defs>
    <style>
      .cls-1 {
        fill: #66c1bf;
      }

      .cls-1, .cls-2, .cls-3 {
        stroke-width: 0px;
      }

      .cls-2 {
        fill: #fff;
      }

      .cls-3 {
        fill: #335572;
      }
    </style>
  </defs>
  <g id="Label">
    <g>
      <path class="cls-3" d="m218.28,108.98c0,17.26-4.02,33.59-11.18,48.09-17.79,36.07-54.98,60.89-97.97,60.89-22.95,0-44.25-7.07-61.83-19.16-19.46-13.38-34.35-32.9-41.88-55.76-3.53-10.72-5.44-22.17-5.44-34.06,0-9.16,1.13-18.06,3.26-26.56,5.38-21.46,17.13-40.4,33.13-54.68C55.7,10.49,81.2,0,109.14,0s53.42,10.48,72.72,27.72c16.26,14.51,28.13,33.82,33.4,55.69,1.63,6.78,2.63,13.8,2.93,21.01.06,1.51.1,3.03.1,4.57Z"/>
      <path class="cls-1" d="m148.86,141.02c-.55,5.64-6.59,10.08-12.13,8.91-.29,6.18-7.25,11.07-13.16,9.27-.81,3.29-4.38,5.31-7.77,5.39-3.38.08-6.61-1.38-9.62-2.97-3.14-1.66-6.19-3.49-9.15-5.46,1.07-1.64,1.81-3.43,1.96-5.38.36-4.41-3.79-9.21-8-7.87,1.56-2.55,1.42-6.04-.33-8.46-1.75-2.42-5.01-3.66-7.92-2.99,1.09-3.15-.1-6.96-2.8-8.93-2.7-1.96-6.68-1.94-9.34.07,1.93-2.9.24-7.24-2.89-8.77-3.12-1.53-7.02-.68-9.84,1.36-1.07.77-2.34,1.88-3.51,3.15-3.69-4.88-8.09-13.25-9.46-19.24,7.14-7.61,12.92-15.6,18.69-24.3,1.54-2.31,4.64-4.86,6.18-7.17,2.6,2.66,5.36,5.41,8.89,6.56,4.78,1.55,9.96-.12,14.96.23,3.06.22,5.88,1.15,8.52,2.53-1.98,1.7-3.96,3.39-5.94,5.09-1.07.92-2.18,1.89-2.8,3.16-.64,1.33-.7,2.86-.73,4.34l-.43,17.39c-.01.65-.02,1.34.28,1.92.48.93,1.6,1.31,2.65,1.39,3.15.21,6.13-1.79,7.99-4.35,1.87-2.55,2.83-5.64,3.82-8.64.34-1.03.71-2.1,1.5-2.83,2.4-2.25,6.21.04,8.62,2.28,10.02,9.28,20.16,18.42,30.41,27.43.93.81,1.91,1.65,3.11,1.89,1.19.24,2.36-.15,3.42-.78.05.05.1.1.14.15,1.06,1.21,2.13,2.48,2.63,4.01,1.66,4.92-3.11,9.74-7.94,11.63Z"/>
      <path class="cls-2" d="m171.47,105.02c-.09.65-1.46,2-1.83,2.54-4.11,5.96-8.32,12.02-13.98,16.53-.51.4-1.05.8-1.63,1.12-1.06.62-2.23,1.02-3.42.78-1.2-.24-2.18-1.08-3.11-1.89-10.25-9-20.39-18.15-30.41-27.43-2.41-2.24-6.22-4.53-8.62-2.28-.79.73-1.16,1.8-1.5,2.83-.99,3-1.95,6.09-3.82,8.64-1.86,2.56-4.83,4.56-7.99,4.35-1.05-.08-2.17-.46-2.65-1.39-.31-.58-.29-1.27-.28-1.92l.43-17.39c.03-1.48.09-3.01.73-4.34.62-1.28,1.74-2.25,2.8-3.16,1.98-1.69,3.96-3.38,5.94-5.09,2.39-2.03,4.77-4.07,7.15-6.11.71-.6,1.43-1.21,2.29-1.54.98-.37,2.07-.33,3.13-.26,5.97.35,11.92,1.18,17.76,2.47,4.51.99,9.27,2.24,13.92,1.76,4.16-.43,6.79-3.77,9.61-.27,3.15,3.92,4.87,10.66,6.96,15.26,2.32,5.07,8.63,15.99,8.51,16.78Z"/>
      <path class="cls-2" d="m99.01,150.77c-.15,1.95-.89,3.74-1.96,5.38-1.32,2.06-3.15,3.87-5.02,5.47-.82.7-1.67,1.4-2.67,1.79-2.64,1.05-5.83-.34-7.43-2.71-1.59-2.36-1.81-5.42-1.27-8.22-2.12,1.91-5.59,2.13-7.93.49-2.36-1.64-3.35-4.97-2.29-7.62-2.77,1.51-6.53.97-8.76-1.25-2.25-2.24-2.8-5.98-1.31-8.76-1.56,2.91-9.64-6.9-9.87-8.74-.34-2.68,1.62-5.81,3.87-8.26,1.18-1.28,2.44-2.38,3.51-3.15,2.83-2.04,6.72-2.89,9.84-1.36,3.13,1.54,4.82,5.87,2.89,8.77,2.66-2.01,6.65-2.03,9.34-.07,2.71,1.96,3.9,5.77,2.8,8.93,2.91-.67,6.18.57,7.92,2.99,1.75,2.42,1.89,5.9.33,8.46,4.21-1.34,8.36,3.46,8,7.87Z"/>
      <path class="cls-1" d="m215.26,83.41l-37.43,24.55c-1.93,1.27-4.6.84-5.97-.95l-1.35-1.77-24.4-31.95h0s-1.14-1.49-1.14-1.49c-1.15-1.51-1.05-3.57.26-4.97l36.64-39.11c16.26,14.51,28.13,33.82,33.4,55.69Z"/>
      <path class="cls-2" d="m70.49,68.37s-.02.02-.03.03l-13.05,17.01h0s-4.98,6.49-4.98,6.49l-7.59,9.89-.32.42-1.29,1.67c-1.32,1.71-3.87,2.12-5.73.91L3.26,82.42c5.38-21.46,17.13-40.4,33.13-54.68l1.62,1.72,32.2,34.2c1.25,1.33,1.36,3.27.28,4.71Z"/>
      <path class="cls-1" d="m47.32,198.81c-19.46-13.38-34.35-32.9-41.88-55.76,4.06,1.67,7.75,3.67,9.61,5.33,4.02,3.58,5.77,8.78,8.33,13.38,2.9,5.21,6.98,9.84,11.92,13.49.63.46,1.26.92,1.91,1.35,2.99,1.99,6.4,3.78,8.1,6.82,1.21,2.17,1.37,4.7,1.52,7.15.16,2.75.32,5.49.48,8.24Z"/>
      <path class="cls-1" d="m218.28,108.98c0,17.26-4.02,33.59-11.18,48.09-5.08-3.04-10.22-5.98-14.12-10.15-7.7-8.22-9.07-20.78-3.29-30.19,2.15-3.5,5.35-6.64,9.44-8.12.39-.15.8-.28,1.21-.39,2.74-.74,5.66-.7,8.49-1.06,3.27-.4,6.45-1.34,9.36-2.75.06,1.51.1,3.03.1,4.57Z"/>
    </g>
  </g>
</svg>