<?xml version="1.0" encoding="UTF-8"?>
<svg id="Calque_2" data-name="Calque 2" xmlns="http://www.w3.org/2000/svg" width="1611.27" height="1232.09" viewBox="0 0 1611.27 1232.09">
  <defs>
    <style>
      .cls-1 {
        fill: #951e3c;
      }

      .cls-1, .cls-2, .cls-3, .cls-4, .cls-5, .cls-6, .cls-7, .cls-8, .cls-9, .cls-10, .cls-11, .cls-12, .cls-13, .cls-14, .cls-15, .cls-16, .cls-17 {
        stroke-width: 0px;
      }

      .cls-2 {
        fill: #251b17;
      }

      .cls-3 {
        fill: #c92f51;
      }

      .cls-4, .cls-15 {
        fill: #66c1bf;
      }

      .cls-6 {
        fill: #ec6d81;
      }

      .cls-7, .cls-9 {
        fill: #fff;
      }

      .cls-8 {
        fill: #951c3b;
      }

      .cls-9, .cls-15 {
        fill-rule: evenodd;
      }

      .cls-10 {
        fill: #f8aeb0;
      }

      .cls-11 {
        fill: #335572;
      }

      .cls-12 {
        fill: #941c3a;
      }

      .cls-13 {
        fill: #c83b58;
      }

      .cls-14 {
        fill: #9d2542;
      }

      .cls-16 {
        fill: #f7989c;
      }

      .cls-17 {
        fill: #7fa08b;
      }
    </style>
  </defs>
  <g id="Calque_1-2" data-name="Calque 1">
    <g>
      <g>
        <path class="cls-9" d="m740.37,0c284.51,0,515.5,230.99,515.5,515.5s-230.99,515.5-515.5,515.5S224.87,800,224.87,515.5,455.86,0,740.37,0Zm0,159.93c196.24,0,355.57,159.33,355.57,355.57s-159.33,355.57-355.57,355.57-355.57-159.33-355.57-355.57,159.33-355.57,355.57-355.57Z"/>
        <circle class="cls-4" cx="740.37" cy="81.7" r="23.01"/>
        <circle class="cls-4" cx="740.37" cy="949.29" r="23.01"/>
        <path class="cls-15" d="m1063.38,192.48c8.98,8.98,8.98,23.56,0,32.55s-23.56,8.98-32.55,0-8.98-23.56,0-32.55,23.56-8.98,32.55,0Z"/>
        <path class="cls-15" d="m449.9,805.97c8.98,8.98,8.98,23.56,0,32.55s-23.56,8.98-32.55,0-8.98-23.56,0-32.55c8.98-8.98,23.56-8.98,32.55,0Z"/>
        <path class="cls-15" d="m1197.18,515.5c0,12.7-10.31,23.01-23.01,23.01s-23.01-10.31-23.01-23.01,10.31-23.01,23.01-23.01,23.01,10.31,23.01,23.01Z"/>
        <path class="cls-15" d="m329.58,515.5c0,12.7-10.31,23.01-23.01,23.01s-23.01-10.31-23.01-23.01,10.31-23.01,23.01-23.01,23.01,10.31,23.01,23.01Z"/>
        <path class="cls-15" d="m1063.38,838.51c-8.98,8.98-23.56,8.98-32.55,0-8.98-8.98-8.98-23.56,0-32.55,8.98-8.98,23.56-8.98,32.55,0,8.98,8.98,8.98,23.56,0,32.55Z"/>
        <path class="cls-15" d="m449.9,225.03c-8.98,8.98-23.56,8.98-32.55,0s-8.98-23.56,0-32.55,23.56-8.98,32.55,0,8.98,23.56,0,32.55Z"/>
      </g>
      <g>
        <path class="cls-8" d="m852.56,1050.16c.07-.7.09-1.43.04-2.18,0,0,0,0,0,0,.05.76.03,1.49-.04,2.19Z"/>
        <path class="cls-14" d="m1129.27,1131.42c.54.43,1.08.86,1.63,1.29-.55-.43-1.09-.85-1.63-1.29Z"/>
        <path class="cls-1" d="m852.56,1050.16c.07-.7.09-1.43.04-2.18,0,0,0,0,0,0,.05.76.03,1.49-.04,2.19Z"/>
        <path class="cls-3" d="m1130.91,1132.7c-.55-.42-1.09-.85-1.63-1.29.54.43,1.08.86,1.63,1.29Z"/>
        <path class="cls-13" d="m1130.91,1132.7c-.55-.42-1.09-.85-1.63-1.29.54.43,1.08.86,1.63,1.29Z"/>
        <path class="cls-13" d="m1204.24,40.59c-.04.14-.08.29-.12.43-.2-.01-.4-.02-.59-.04.24-.13.48-.26.72-.39Z"/>
        <path class="cls-17" d="m444.91,1060.72l-.54.14s-.39-.37-.38-.37c.01,0,.52-.17.52-.17l.4.4Z"/>
        <path class="cls-3" d="m466.43,1090.32c.37-.62.74-1.24,1.1-1.86.26.27.53.53.79.8-.62.37-1.24.73-1.86,1.1,0,0-.04-.04-.04-.04Z"/>
        <path class="cls-3" d="m1136.25,1156.75c.96-.48,1.54-.98,2.14-1.01,1-.04,2.05.38,1.54,1.65-.17.43-1.25.74-1.87.69-.53-.05-1.01-.7-1.82-1.33Z"/>
        <path class="cls-14" d="m1119.82,1122.68c1.54,1.59,3.07,3.18,4.61,4.77-3.28.09-4.61-1.7-4.61-4.77Z"/>
        <path class="cls-14" d="m1116.79,1118.31c.92,1.05,1.85,2.1,2.77,3.15-1.51-.54-2.54-1.48-2.77-3.15Z"/>
        <path class="cls-5" d="m391.33,1009.39c-.52.9-1.04.9-1.56,0,.52-.21,1.04-.22,1.56,0Z"/>
        <path class="cls-11" d="m920.58,1013.35c-.08.41-.16.83-.25,1.24-1.43,6.83-3.7,13.6-5.52,20.33-1.43,5.29-3.94,8.81-6.6,13.41-2.35,4.07-4.76,8.12-7.39,12.02-5.21,7.72-11.25,13.94-17.97,20.33-6.27,5.96-12.02,11.89-18.7,17.51-13.04,10.97-26.41,21.74-35.17,36.59-14.96,25.36-13.8,52.18-5.34,79.27,1.76,5.62,2.83,11.5,7.17,18.03-9.57-3.45-14.03-10.18-18.49-16.26-25.27-34.53-21.75-76.17-.7-110.27,6-9.72,13.09-18.69,20.27-27.56,17.79-21.98,41.63-46,39.01-76.95-.36-4.3-1.07-8.58-1.63-12.87-6.83-17.39-19.65-28.61-36.72-35.31-11.3-4.44-22.97-7.6-34.99-9.48-20.12-3.15-40.1-6.95-59.24-14.17-40.69-15.35-71.44-41.27-88.16-82.37-14.37-35.31-15.12-71.67-9.26-108.67,4.4-27.82,13.56-54.4,21.01-81.42,3.2-5.09,3.72-11.09,5.46-16.65,12.26-39.21,22.87-78.83,28.5-119.63.82-.94,1.1-1.99.64-3.19.23-1.45.45-2.9.68-4.35,2.01-6.99,3.07-14.12,3.12-21.4,3.45-11.65,4.94-23.69,6.26-35.67,1.98-17.89,3.65-35.85,4.46-53.83.45-9.87,3.52-20.73-1.88-29.58-5.07-8.32-2.7-14.71,1.34-21.42,4.35-7.23,11.45-9.33,19.45-8.24,9.39,1.27,15.58,7.58,21.17,14.48,13.57,16.72,36.33,20.51,41.59,40.99,5.83,22.71,15.42,52.5,17.02,76.02,1.93,28.24-10.38,64.57-13.05,92.47-1.51,15.85-16.54,32.3-18.86,48.08-5.08,20.71-10.16,41.42-15.24,62.13-9.41,29.12-19.79,57.99-24.53,88.37-3.45,22.16-3.69,44.27,5.75,65.26,10.57,23.49,30.99,35.69,53.53,45.15,19.46,8.17,39.82,13.96,59.13,22.57,43.84,19.55,73.61,66.32,64.1,115.01Z"/>
        <path class="cls-4" d="m1369.56,517.04c-11.03.18-15.44,7.06-18.14,16.7-1.48,5.28-4.93,10.03-7.56,14.98-1.4,2.64-1.34,5.38-.86,8.19-5.52-1.23-10.92-2.36-16.61-.15-16.44,6.38-30.67,32.4-23.68,49.6-2.14-.03-3.84.85-5.46,2.26-8.62,7.46-17.29,14.86-26,22.22-2.13,1.8-3.02,3.99-2.91,6.69-15.41-11.99-29.46-4.63-43.15,3.43-11.44,6.73-16.96,16.66-13.82,30.29-2.55-2.98-5.41-3.08-8.98-1.64-4.99,2.02-10.1,4.03-15.35,5.03-6.44,1.22-9.58,4.14-8.38,10.85-1.83-1.23-2.75-2.97-2.94-5.16-.4-4.68-3.47-7.02-7.39-9.01-19.97-10.12-44.09-4.85-58.68,12.93-.6.73-1.74,1.02-2.63,1.52-16.94.46-33.84-.22-50.66-2.34-.62-.1-1.25-.19-1.87-.29-.86-.19-1.71-.37-2.57-.56-1.58-.04-3.17-.09-4.75-.13-1.93-6.9-5.89-12.54-11.67-16.55-19.02-13.21-38.81-16.49-59.5-3.66-8.65-3.98-17.72-6.94-26.19-11.42-13.91-7.38-27.41-15.35-40.16-24.58-1.41-1.02-2.74-2.74-4.75-1.68-1.96,1.03-1.61,3.14-1.47,4.85.32,3.84.9,7.65,1.38,11.48.52,16.81,3.72,33.2,7.73,49.46,10.36,41.99,30.59,77.37,68.02,101.16,12.38,7.87,24.99,15.4,37.26,23.43,49.42,32.34,67.13,75.51,60.93,132.91-1.86,17.2-7.25,33.66-9.8,50.69-6.34,19.91-10.17,40.39-13.61,60.94-1.49-10.07-.41-20.18-.44-30.27.19-.46.22-.93.08-1.4,1.91-7.15,2.29-14.5,2.66-21.84,4.48-25.76,7.06-51.63,3.55-77.72-4.85-36.05-18.97-67.14-47.99-90.55-17.41-14.04-37.12-24.23-56.55-34.84-40.9-22.34-66.77-55.85-77.05-101.3-4.57-20.22-6.09-40.76-6.01-61.45.13-32.49,1.46-64.98.26-97.49-.13-3.59-1.81-7.4.34-11.75,1.34,1.85,2.28,3.04,3.11,4.3,15.42,23.44,33.65,44.26,56.4,60.95,41.58,30.5,87.92,49.15,139.43,51.81,81.66,4.23,152.33-21.42,208.39-82.48,40.26-43.85,56.82-96.11,52.5-155.05-4.3-58.67-31.41-106.33-72.05-147.51-23.08-23.39-49.37-44.08-64.62-74.31-.74-2.17-1.41-4.38-2.24-6.52-11.03-28.49-10.34-56.61,2.28-84.49,5.19-11.47,14.1-20.03,22-29.41,0,0-.02.04-.02.04,6.4-3.77,12.52-8.15,19.24-11.22,27.85-12.7,55.96-18.25,83.48.67,19.63,13.49,29.56,34.27,39.57,54.85-8.95-3.07-12.25-11.94-18.3-17.97-19.42-19.35-41.02-33.2-69.95-26.55-21.37,4.91-37.55,17.29-47.56,37.17-1.86,3.7-2.72,6.33,1.88,9.6,9.19,6.54,9.32,25.63.27,33.95-4.26,3.92-4.57,7.45-2.8,12.2,1.34,3.61,2.36,7.33,3.58,10.98,1.12,3.38,2.75,6.19,7.05,5.62.59,4.29,1.3,8.57,1.75,12.87,1.46,13.96,7.49,20.52,21.17,22.83,1.78,1.48,3.76,2.78,5.31,4.47,4.82,5.27,8.64,9.52,16.91,3.44,5.82-4.27,13.38-1.25,18.56,4.59-2.37.14-4.41-.64-6.58-1.64-5.7-2.63-10.44,1.18-14.95,3.52-4.35,2.25-2.57,6.92-2.52,11.07.12,9.19,7.33,13.62,11.83,19.92,4.37,6.12,10.67,5.12,16.07,3.59,4.89-1.39,8.57-5.51,8.58-11.53,0-2.82.32-5.63.49-8.44,4.24,4.3,2.41,9.08.9,13.69-3.34,10.19,3.5,19.74,14,19.34-2,4.51-9.12,5.25-8.5,11.74.44,4.57.45,9.18.93,13.74,1.82,17.19,18.39,27.89,32.43,21.03-.93,12.81,5.68,23.23,10.81,34.11-6.04,5.41-11.43,10.61-12.83,19.72-1.56,10.16,1.45,19.34,3.38,28.65,1.73,8.39,8.83,11.05,17.34,9.69,8.36-1.33,13.25-7.28,18.87-12.42,1.92-.15,3.84-.3,5.77-.44,1.66,1.22,3.21,1.14,4.64-.38,14.84-2.6,29.8-2.87,44.72-1.42,42.82,4.17,80.03,20.16,107.28,54.46,24.68,31.06,35.43,66.56,29.34,106.4-.17,1.02-.34,2.04-.5,3.07-.33.17-.44.44-.34.8-.44,1.75-.88,3.51-1.32,5.26-.68,2.07-1.37,4.15-2.05,6.22-.91,2.13-1.82,4.26-2.74,6.38-15.16,34.86-42.81,56.23-77.45,68.52-14.38,5.1-29.97,7.23-44.73,11.75-16.97,5.19-32.79,12.43-44.31,26.73-3.53,2.88-6.03,6.54-8.12,10.53-.52.99-1.05,1.98-1.57,2.97v.02c-1.78,1-2.43,2.76-2.98,4.58-1.43,1.29-2.45,2.79-2.47,4.81-.45,1.25-.91,2.5-1.36,3.76-10.85,24.61-10.66,49.28.08,73.81,11.73,26.79,43.84,45.67,69.23,39.04,2.1-.55,4.54.2,6.82.35-3.76-.24-7.49,3.12-10.84,4.38-4.27,1.61-9.11,2.21-13.64,2.45-18.34.97-34.86-7.54-48.57-19.11-5.69-4.8-10.81-10.26-15.13-16.32-8.73-12.23-13.89-26.62-15.79-41.48-3.8-29.8,3.15-57.84,21.3-82.36,10.45-14.12,24.84-22.71,41.51-27.73,10.42-1.93,20.35-5.21,29.44-10.77,6.68-.07,11.35-2.36,14.48-9.09,4.79-10.28,21.21-16.04,32.26-11.24,6.52,2.83,10.16-.74,14.66-3.52,4.57-2.83,8.61-4.85,7.11-12.29-1.96-9.74,6.34-18,17.46-19.67,5.67-.85,13.88-12.99,12.46-18.55-.23-.91-.92-1.81-1.63-2.47-12.62-11.76-12.59-25.57.51-36.47,3.2-2.67,3.74-5.27,2.57-8.72-1.41-4.14-2.97-8.24-4.46-12.35q-4.42-12.19-17.01-12.83c-16.1-.81-26.05-13.78-22.34-29.46.67-2.85.51-4.88-1.68-6.9-4.79-4.43-10.67-7.17-16.06-10.67-2.66-1.73-4.77.33-7.03,1.59-15.56,8.64-34.01,2.16-40.43-14.32-1.03-2.64-2.44-3.74-5.03-3.75-6.44-.04-12.89-.04-19.33-.09-2.89-.02-4.73,1-5.66,4.05-3.08,10.16-11.36,13.45-20.73,14.49-5.34.59-10.81,0-16.22.07-2.67.03-6.05-1.23-7.21,2.59-1.28,4.22,2.05,5.17,4.96,6.37.91.38,1.64,1.19,2.45,1.81-1.76.18-3.97,1.14-5.2.41-7.08-4.15-12.19-.62-17.2,3.82-9.31,8.26-15.86,36.01-7.36,50.27,2.28,3.82,5.4,6.01,10.01,5.94,3.07-.04,6.14.2,9.21.31Z"/>
        <path class="cls-4" d="m697.14,522.52c-5.63,40.8-18.09,78.39-30.35,117.6-1.74,5.57-2.26,11.56-5.46,16.65-.41-2.97-1.14-5.31-4.62-2.4-10.2,8.54-20.26,17.27-31.44,24.55-3.14,2.04-2.43,4.66-1.62,7.43-5.63-2.27-8.31-8.92-15.37-9.41-24.98-1.75-49.55,19.73-50.74,44.75-2.36-1.56-4.75-1.4-7.29-.34-10.41,4.37-19.64,10.88-29.51,16.21-1.74.94-2.1,2.8-2.52,4.55-8.76-5.68-19.01-7.32-27.97-3.6-19.76,8.19-34.12,27.22-24.04,51.32-5.79,7.43-7.46,16.62-10.46,25.2-1.52,4.34-.11,7.56,5.39,7.39,2.29-.07,4.61.05,6.51,1.65-3.33.01-6.67.14-9.99.01-8.24-.31-13.43,3.73-16.65,11.06-6.46,14.68-.97,27.1,7.8,38.4,8.55,11.02,20.34,11.23,32.69,7.76,5.91,4.77,12.5,8.04,20.12,9-2.23,8.31-1.17,15.3,6.17,21.19,11.69,9.38,25.16,9.91,38.69,7.85,9.52-1.45,12.65-10.32,7.78-18.42-1.46-2.42-1.28-4.86-1.1-7.41,4.56,1.4,6.02,5.47,5.59,9.15-1.05,8.89,4.38,9.92,10.98,11.01,19.61,3.24,37.9,10.16,53.44,22.69,18.46,14.88,32.18,35.25,38.06,58.28,5.53,21.68,3.52,44.79-3.51,65.93-2.5,7.51-6.48,14.32-11.34,20.53-4.29,5.49-8.57,13.02-14.15,17.16-13.34,9.88-29.01,18.1-44.78,23.33-8.55,2.84-17.01,5.93-26.11,6.34,1.85-1.17,3.68-2.35,5.51-3.52,34.38-12.42,59.17-33.95,67.26-71.16,8.31-38.21-8.91-76.79-42.76-96.36-16.93-9.79-35.24-15.71-54.2-19.92-23.13-5.14-46.52-9.21-68.48-18.73-44.69-19.37-69.14-64.66-60.55-112.69,6.86-38.38,28.35-67.36,58.64-90.57,31.31-24,67.69-39.28,101.55-58.88,32.59-18.87,62.44-40.99,85.53-71.29,16.7-21.92,32.86-67.82,42.47-93.5,1.43,0,3.11,1.41,4.54,1.42-.23,1.45-.78,22.23-2.84,24.39"/>
        <path class="cls-11" d="m1237.11,1150.96c-10.69,10.37-25.19,17.98-36.67,20.34-44.38,9.13-98.47-11.36-115.55-55.81-11.03-28.69-10.9-59.63.37-88.22,11.13-28.23,30.91-49.74,48.88-73.6,3.39-4.5,6.47-9.19,9.58-13.89,2.81-4.24,5.53-8.54,8.23-12.84,1.35-2.15,2.69-4.31,4.04-6.47,2.21-3.53,4.18-7.14,6.68-10.44,1.61-2.13,3-4.41,4.26-6.75,2.52-4.69,4.49-9.66,6.67-14.52,23.22-51.76,12.06-111.47-28.5-151.15-25.01-24.47-55.5-39.75-88.19-51.1-2.3-.8-5.38-.41-6.15-3.75.86.19,1.71.37,2.57.56.62.09,1.25.19,1.87.29,16.83,2.11,33.72,2.79,50.66,2.34.81,9.52,2.84,18.15,12.68,22.91,21.58,10.42,49.07,1.89,60.4-19.02,0,0,21.24,24.61,23.01,27.26,6.88,10.27,12.61,21.29,17.19,32.76,9.43,23.63,14,49.15,13.74,74.58-.29,28.61-7.36,56.82-19.35,82.73-7.03,15.18-16.18,29.24-26.12,42.65-7.15,9.64-14.73,19.35-22.9,28.31-3.88,4.25-8.33,8.38-12.54,12.47-4.51,4.38-8.22,9.05-12.2,13.85-4.44,5.37-8.83,10.79-12.92,16.44-7.9,10.91-14.77,22.82-17.99,36.01-2.43,9.96-2.76,20.32-.8,30.38,2.27,11.62,5.61,20.15,13.36,29.06,18.07,20.77,39.25,31.27,66.82,32.79,18.89,1.04,34.95-6.67,50.1-16.51,5.13-3.33,6.92-10.65,13.5-13.73,1.12,11.71-5.33,22.96-14.72,32.08Z"/>
        <path class="cls-3" d="m1216.17,68.91s0,.03.01.05c0,0,.02-.04.02-.04-.01,0-.02,0-.03,0Zm-675.48,498.15s.03,0,.05,0c0-.02.01-.04.02-.06l-.07.06Z"/>
        <path class="cls-13" d="m1219.85,68.37c-.26.15-.51.3-.77.45.3.03.59.07.88.09-.04-.18-.08-.36-.11-.54Z"/>
        <path class="cls-11" d="m1476.96,105.8c-14.78-2.16-27.2,4.1-39.79,10.08-20.75,9.85-43.46,4.29-57.3-13.88-5.19-6.81-8.98-14.44-13.28-21.76-8.28-14.1-17.73-27.23-31.36-36.74-24.01-16.73-51.03-21.3-79.55-19.12-47.36,3.61-91.04,35.9-107.28,80.54-17.68,48.58-8.68,93.31,22.61,133.71,16.7,21.57,37.07,40.02,53.82,61.62,20.59,26.55,36.84,55.15,42.91,88.7.53.52-5.45,4.65-4.92,5.17-.04.04,1.93,1.85,1.89,1.89.36,13.34,4.09,20.96,3.4,34.42-.35,6.93,4.02,13.95,2.52,20.77-1.83,15.08-6.28,29.41-12.54,43.21-1.03,2.28-1.52,4.95-4.04,6.29-11.02,20.2-26.94,36.02-46.46,47.52-54.87,32.33-112.1,39.02-171.48,12.9-15.36-6.76-29.47-15.78-42.39-26.57-14.43-13.25-29.43-26-38.87-43.68-7.19-3.73-9.69-11.18-13.32-17.53-10.84-18.94-19.48-38.77-26.19-59.69-6.96-21.69-12.95-43.67-20.18-65.27-.05-2.11-1.3-3.57-2.06-5.43-4.48-11.03-9.14-19.37-16.17-28.8-3.72-4.99-7.05-10.27-11.05-15.07-1.08-1.29-1.94-3.29-1.87-4.92.42-9.81-1.61-19.53-3.55-29.1-1.41-6.94-1.85-13.89-5.74-20.01-3.37-5.31-4.87-11.37-7.9-16.83-3.12-5.61-6.98-10.78-11.24-15.58-14.94-16.82-33.88-31.81-55.48-38.78-15.6-5.03-32.04-6.98-48.39-6.58-6.4.16-11.31-1.79-16.17-5.67-26.07-20.82-53.97-38.84-84.05-53.34-69.15-33.33-141.59-45.15-217.51-32.05-47.83,8.26-89.57,30.27-128.11,58.97-31.99,23.81-65.72,44.33-103.46,58.13-23.43,8.57-40.85,23.89-45.66,50.07,1.94,1.72.12,7.67.47,9.97,1.3,8.6,10.19,12.08,18.72,10.21,14.83-3.25,29.32-7.23,44.53-6.52,19.55.91,36.33,6.69,49.92,22.12,15.29,17.36,28.03,36.4,45.38,51.91,36.74,32.83,82.32,44.94,131.04,40.56,27.74-2.49,52.55-12.21,78.99-19.78,1.28-1.3,2.93-1.52,4.63-1.61,2.58-1.02,5.17-2.05,7.75-3.08,3.48-1.87,6.63-4.51,10.87-4.61.53-1.54,1.06-3.09,1.59-4.63-11.42-32.92-13.97-66.04-3.92-99.95,7.29-24.59,18.83-45.95,39.39-62.1,18.34-14.4,39.77-20.43,62.08-23.35,12.62-1.66,25.55-1.67,38.45-.42,18.62,1.81,20.61,3.52,20.26,21.86,2.04,6.1-1.07,9.08-6.43,10.88-3.76,1.27-7.75,1.89-11.42.95-25.12-6.39-50.27-6.5-75.54-1.13-3.45-.27-5.84,1.98-8.23,3.81-33.57,25.78-51.3,56.97-47.67,98.62,1.32,15.16-2.01,32.2,2.65,46.33.07.44-4.53,6.74-4.54,7.19,5.31,2.74,9.13,7.58,11.72,12.1,5.69,9.93,2.51,12.57,5.67,23.83.51,1.04,13.86,4.83,14.37,5.86,3.04,3.57,2.63,6.57,2.46,11.35.05.93-13.85-8.31-13.8-7.37,2.87,1.22,5.64,4.37,5.67,7.37.1,1.06-4.64,6.32-4.54,7.37.45,1,12.03,5.81,12.48,6.81.07,1.05,3.9,4.06,3.97,5.11,1.72,1.76,7.56,2.91,7.37,5.11.07,1.05-2.9,5.76-2.84,6.81,2.57,3.86,5.96,2.65,6.24,6.81,3.53,10.77,3.83,19.08,2.27,29.5-4.96,33.09-11.26,67.99-31.29,94.97-2.72,3.66-6.66,5.61-9.57,8.84.77,1.58-.12,1.93-1.42,1.99-2.43,9.36-10.55,14.23-16.84,20.25-8.99,8.61-18.52,16.78-29.39,23.11-4.88,5.35-11.39,8.38-17.35,12.19-9.37,4.98-17.7,11.79-27.67,15.72l-.04.02c-3.71,2.12-6.8,4.81-10.65,6.92-4.2,2.31-8.29,4.84-12.31,7.44-8.21,5.31-16.1,11.09-23.72,17.22-53.09,42.7-81.9,96.8-75.54,166.27,4.3,46.95,24.68,85.18,65.48,110.88,26.58,16.74,56.25,23.8,87.07,27.15,24.56,2.68,49.42,2.34,73.58,8.93,21.16,5.77,39.24,22.18,42.97,44.37,3.77,22.42-9.63,48.34-29.68,58.87-3.53,1.85-6.84,3.98-10.29,6.01-25.3,14.93-59.82,14.29-82.85-5.1-12.69-10.69-23.47-22.99-37.32-32.3-13.65-9.17-27.86-16.23-44.3-18.78-19.36-2.99-36.33,1.08-54.96,5.86-18.07,4.63-33.94,20.54-46.79,33.42-7.86,7.88-16.29,16.66-16.94,29.48,13.91-7.99,24.89-19.2,37.29-28.57,16.17-12.21,34.7-18.01,53.93-19.82,26.63-2.49,49.59,7.59,68.89,26.3,8.62,8.36,16.03,17.85,25.28,25.65,7.38,6.22,15.57,11.02,24.06,15.05,15.23,7.21,31.74,7.98,48.31,7.05,9.2-.52,18.6.89,27.52-2.72,1.85-1.17,3.68-2.35,5.51-3.52,34.38-12.42,59.16-33.95,67.26-71.16,8.31-38.21-8.91-76.79-42.76-96.37-16.93-9.79-35.24-15.71-54.2-19.92-23.13-5.14-46.52-9.21-68.48-18.73-44.69-19.37-69.14-64.66-60.55-112.69,6.86-38.38,28.36-67.36,58.64-90.57,31.31-24,67.69-39.28,101.55-58.88,32.59-18.87,62.44-40.99,85.53-71.29,16.7-21.92,28.89-46.19,38.5-71.87,1.84-7.35,3.23-14.85,7.41-21.38,3.45-11.65,4.94-23.69,6.26-35.67,1.98-17.89,3.65-35.85,4.46-53.83.45-9.87,3.52-20.73-1.88-29.58-5.07-8.32-2.7-14.71,1.34-21.42,4.35-7.23,8.79-8.32,16.79-7.24,9.39,1.27,13.32,7.1,18.91,13.99,13.57,16.72,17.05,35.49,22.31,55.97,5.83,22.71,17.74,46.23,19.35,69.74,1.93,28.24-.55,56.08-3.22,83.98-1.51,15.85-4.49,31.56-6.81,47.34,1.54,14.3,2.6,28.67,4.72,42.88,5.13,34.33,13.74,67.58,31.67,97.84,23.32,39.35,57.5,66.07,98.32,85.18,18.89,8.84,38.52,16.02,57.05,25.69,23.66,12.34,43.28,28.73,54.61,53.6.08,2.64,2.23,4.9,1.4,7.7-.57,1.93,2.6,8.08,3.17,10.19,1.09,4.03,2,8.12,2.65,12.25,1.24,7.91,1.39,15.49,1.08,23.46-1.12,28.87-5.49,60.39.66,88.89,2.22,10.27,4.25,20.44,7.96,30.32,3.95,10.52,8.35,21.04,10.65,31.96,3.84,18.21-5.67,33.09-20.45,43.14-5.92,4.03-12.33,7.37-17.61,12.32-1.22,1.14-2.04,2.37-1.43,4.04,3.25,8.8,36.78-12.9,40.43-15.71,7-5.39,13.6-12.49,16.46-21.01,5.42-16.14-.63-34.6-5.58-50.09-3.91-12.26-4.89-24.95-8.04-37.26-1.49-10.07-.41-20.18-.44-30.27.19-.46.22-.93.08-1.4,1.91-7.15,2.29-14.5,2.66-21.84,4.48-25.76,7.06-51.63,3.55-77.72-4.85-36.05-18.97-67.15-47.99-90.55-17.41-14.04-37.12-24.23-56.55-34.84-40.9-22.35-66.77-55.85-77.05-101.3-4.57-20.21-6.1-40.76-6.01-61.45.13-32.49,1.46-64.98.26-97.49-.13-3.59-1.81-7.4.34-11.75,1.34,1.85,2.28,3.04,3.11,4.3,15.42,23.44,33.65,44.26,56.4,60.95,41.58,30.5,87.92,49.15,139.43,51.81,81.66,4.22,152.33-21.42,208.39-82.48,40.26-43.85,56.82-96.11,52.5-155.05-4.3-58.67-31.41-106.33-72.04-147.51-23.08-23.38-49.37-44.08-64.62-74.31-5.82-2.39-7.46-8.54-8.46-13.1-3.92-17.92-5.42-35.82-1.9-54.52,2.17-11.53,5.69-22.05,10.24-32.49,3.09-7.1,9.03-12.36,13.51-18.58,1.54-2.14,3.85-2.21,6.19-1.99.52.05,1.04.11,1.55.17.26-.15.52-.3.77-.45,5.72-3.32,11.3-6.95,17.33-9.53,28.14-12.05,56.37-16.95,83.45,2.6,19.31,13.94,28.76,34.94,38.3,55.75v.04c.37.61.74,1.21,1.1,1.82l.12.17c.88.07,1.32.52,1.19,1.43,23.49,27.64,55.06,30.75,83,8.02,6.62-5.38,13.32-10.5,21.39-13.52,4.18-3.29,8.98-3.27,13.89-2.61,2.05.07,4.11.14,6.16.21,1.51-.65,3.47-.8,3.49-3.11-4.08-1.33-7.89-3.18-12.32-3.83Zm-929.06,22.98c-11.5,6.47-24.15,6.47-36.88,5.71-25.71-1.53-51.25-5.65-77.07-5.48-32.49.21-63.94,7.02-95.14,15.33-3.94,1.05-7.9,2.02-11.85,3.03,5.81-7.29,13.2-12.4,21.02-16.66,56.45-30.76,116.25-40.59,179.48-27.98,7.62,1.52,14.91,4.18,21.3,8.83,7.33,5.33,7.14,12.71-.86,17.22Zm76.78,191.49c-24.64-.45-43.27-19.95-43.12-45.15.18-29.43,22.48-51.78,51.33-51.42,26.66.33,44.63,19.29,44.52,46.99-.11,27.22-24.44,50.1-52.73,49.58Zm175.24-45.51c-2.49-2.21-4.69-4.74-7.03-7.13-9.57-11.32-16.31-23.55-12.69-39.14-1-9.75,5.55-17.4,15.02-16.91,15.4.81,24.46,10.4,31.09,23.21,6.53,12.62,6.9,25.33-.53,37.46-5.21,8.5-18.11,9.38-25.86,2.51Zm31.82,103.86c-2.27-4.82-5.69-9.11-8.64-13.61-1.5-2.28-4.53-4.76-1.55-7.26,2.6-2.18,4.44,1.18,6.33,2.69,12.62,10.08,16.39,25.1,21.47,39.26,2.56,7.14,4.16,14.69,4.25,22.47-5.65-15.37-14.95-28.86-21.85-43.56Z"/>
        <path class="cls-12" d="m540.73,567.01s-.03.03-.04.05l.07-.06s-.02,0-.03.01Z"/>
        <path class="cls-11" d="m690.8,176.29c-18.1-4.2-40.41-7.84-58.89-4.71-13.63,2.3-27.31,4.59-38.55,13.69-3.45-.27-5.84,1.98-8.23,3.81-33.57,25.78-46.53,60.12-42.9,101.77,1.32,15.16,6.79,28.93,11.44,43.06.07.44.1.89.09,1.34,5.31,2.73,6.22,8.57,8.81,13.08,5.69,9.93,12.71,19.21,15.88,30.47.51,1.04,1.02,2.07,1.52,3.11,3.04,3.57,4.82,7.61,4.65,12.38.05.93.1,1.86.14,2.8,2.87,1.21,4.05,3.49,4.09,6.49.1,1.06.19,2.12.29,3.18.45,1,.9,2,1.35,2.99.07,1.05.14,2.1.22,3.15,1.72,1.76,1.6,3.95,1.42,6.15.07,1.05.13,2.09.2,3.14,2.56,3.86,1.31,8.21,1.59,12.36,3.53,10.77.83,21.71-.73,32.13-4.96,33.09-17.83,63.18-37.86,90.16-2.72,3.66-6.66,5.61-9.57,8.84-.48.65-.95,1.3-1.43,1.94-3.02,1.39-6.14,2.59-9.03,4.21-17.23,9.69-35.72,16.16-54.81,20.77-49.61,12-99.34,8.18-149.06.46-25.71-3.99-51.3-8.89-77.61-5.39-23,3.06-43.25,11.65-59.8,28.01-22.73,22.46-31.43,50.88-33.53,81.82-1.43,21,2.56,41.64,5.39,62.3,5.04,36.73-6.23,62.84-36.71,79.71-23.06,12.76-48.12,14.66-73.65,9.45-28.83-5.89-57.73-25.32-53.22-62.5.06-.47-.25-.99-.38-1.48,1.95-10.71,5.6-20.68,12.93-30-1.34,8.19-2.86,15.48-3.67,22.85-3.43,31.15,12.29,51.91,43.24,56.93,13.65,2.21,27.27,1.59,40.56-2.58,27.64-8.67,40.45-28.9,35.32-57.48-3.45-19.25-8.64-38.19-12.37-57.39-6.38-32.81-5.45-65.37,7.62-96.53,22.42-53.44,63.55-83.45,120-93.42,32.57-5.75,64.78-1.35,96.93,3.84,42.61,6.88,85.13,9.18,127.3-2.75,9.88-2.8,19.69-5.93,29.15-9.94,4.77-2.03,9.44-4.27,13.97-6.8,9.29-5.19,18.04-11.26,26.45-17.77,3.44-2.66,6.89-5.23,10.07-8.23,3.98-3.76,7.19-8.14,10.63-12.38l-.06.11c4.22-4.53,7.58-9.62,9.83-15.41,7.62-15.1,3.33-28.23-11.89-36.03-17.99-9.21-36.73-7.54-55.11-2.33-34.02,9.64-67.98,16.66-103.69,10.5-60.03-10.36-104.62-41.27-132.08-96.16-7.77-15.53-13.23-31.86-18.27-48.4-.65-2.14-.67-5.42-3.2-5.62-3.18-.25-3.34,3.41-4.2,5.59-3.23,8.23-4.73,16.84-4.98,25.68-.8,27.92,5.86,54.24,17.65,79.29,2.96,6.3,2.16,8.77-4.82,8.83-.71,0-1.42.53-2.13.81-31.38,1.74-58.84-7.27-79.95-31.15-26.95-30.48-35.8-67.13-33.82-106.91.3-6.1.38-12.42,3.24-18.13,1.94,1.73,1.8,4.1,2.15,6.39,1.3,8.6,8.03,13.47,16.57,11.61,14.83-3.25,29.68-7.4,44.89-6.7,19.55.91,36.86,7.43,50.45,22.87,15.29,17.36,28.71,36.42,46.07,51.93,36.74,32.83,79.81,44.57,128.53,40.19,27.74-2.49,46.07-18.5,72.51-26.07,1.28-1.3,5.11-3.69,6.81-3.78,2.58-1.02,4.22-1.62,6.81-2.65,3.48-1.87,5.98-1.42,10.21-1.51.53-1.54,8.39,3.81,8.92,2.26-11.41-32.92-13.97-66.04-3.92-99.95,7.29-24.59,11.12-50.49,31.69-66.64,18.34-14.4,45.76-22.41,68.07-25.34,12.62-1.66,27.01.26,39.9,1.51,18.62,1.81,24.92,9.83,24.58,28.18Z"/>
        <path class="cls-11" d="m1268.84,390.63c.36,13.34,3.81,26.41,3.12,39.87-.35,6.93-.21,13.87-1.71,20.7-2.77.02-4.71,1.97-6.94,3.15-35.75,18.92-71.46,37.79-110.52,49.47-42.87,12.82-86.22,17-130.51,9.86-23.87-3.85-46.31-11.94-67.81-22.82-7.19-3.73-9.69-11.18-13.32-17.53-10.84-18.94-19.48-38.77-26.19-59.69-6.96-21.69-12.95-43.67-20.18-65.25.73-.44,1.46-.89,2.2-1.35,13.78,22.75,28.19,45.09,47.19,63.93,34.09,33.8,76.11,45.86,123.01,43.46,45.21-2.31,87.5-16.24,128.76-33.65,23.94-10.1,47.46-21.18,71.18-31.81.57.56,1.14,1.12,1.71,1.68Z"/>
        <path class="cls-4" d="m246.5,399.98c.71-.28,1.42-.8,2.13-.81,6.98-.07,7.79-2.53,4.82-8.83-11.79-25.05-18.46-51.37-17.65-79.29.25-8.84,1.75-17.45,4.98-25.68.86-2.18,1.01-5.84,4.2-5.59,2.53.2,2.55,3.48,3.2,5.62,5.04,16.53,10.5,32.86,18.27,48.39,27.46,54.89,72.05,85.79,132.08,96.16,35.71,6.16,69.67-.85,103.69-10.5,18.38-5.21,37.12-6.88,55.11,2.33,6.84,3.5,12.98,9.02,14.93,16.7.93,3.68.8,7.51-.02,11.19-1.01,4.54-1.98,6.74-5.58,8.7-18.65,10.18-41.59,14.61-61.77,20.87-57.3,17.79-114.04,18.99-169.15-7.89-30.91-15.08-56.65-36.51-74.1-66.69-3.96-6.85-10.16-3.02-15.15-4.68Z"/>
        <path class="cls-4" d="m1.33,785.37c.14.5.44,1.01.39,1.48-4.52,37.17,24.39,56.61,53.22,62.49,25.53,5.21,50.6,3.31,73.65-9.45,30.49-16.87,41.75-42.98,36.72-79.71-2.83-20.65-6.82-41.29-5.39-62.3,2.1-30.93,10.79-59.36,33.53-81.82,16.56-16.36,36.8-24.95,59.8-28.01,26.3-3.5,51.9,1.4,77.61,5.39,49.71,7.72,99.45,11.54,149.05-.46,19.09-4.62,37.58-11.09,54.81-20.77,2.89-1.63,6.03-2.83,9.05-4.22-2.41,9.4-10.55,14.28-16.86,20.32-8.99,8.61-18.52,16.78-29.39,23.11-4.6,0-8.96,1.27-13.39,2.29-6.36,1.46-6.97,4.87-3.96,9.9-9.37,4.98-17.7,11.79-27.67,15.72-3.5-3.12-7.9-1.46-11.85-2.16-7.08-1.25-12.93-3.89-14.8-11.53-.77-3.13-2.74-4.17-5.55-4.3-4.12-.19-8.26-.12-12.37-.43-4.43-.33-7.42.69-8.19,5.78-.79,5.27-5.06,7.84-9.54,9.15-9.91,2.9-19.91,2.42-29.64-1.09-6.86-2.47-11.42-6.95-11.45-14.8,0-2.48-.31-4.73-3.36-5.17-5.09-.74-10.19-1.49-15.3-2.14-2.5-.32-4.58.21-5.38,3.1-2.18,7.84-8.72,9.71-15.5,10.68-7.56,1.08-14.92-.35-21.9-3.44-5.84-2.59-9.97-6.73-9.85-13.49.09-5.24-2.57-6-6.83-5.44-3.06.4-6.18.79-9.25.68-6.84-.24-11.27,1.18-10.71,9.69.3,4.53-3.49,7.93-7.53,10.08-10.23,5.45-20.57,10.33-31.45,1.33-1.2-.99-2.49-.92-3.49,0-4.53,4.19-9.05,8.41-13.41,12.77-1.53,1.52-.59,3.14.35,4.88,8.06,14.87,1.11,30.12-15,33.11-.75.14-1.63.07-2.25.43-3.75,2.18-5.8,23.36-2.57,26.1,10.41,8.86,10.7,25.84.14,35.05-3.65,3.18-2.26,6.43-1.94,9.84,2.35,24.81-1.59,48.64-13.97,70.2-17.96,31.27-46.17,45.07-81.85,44.49-17.04-.28-32.98-4.05-48.05-12.54-21.17-11.95-34.38-40.76-28.69-64.81Z"/>
        <path class="cls-11" d="m1611.27,530.69c.08-26.01-6.01-52.16-17.52-75.68-14.09-28.82-36.5-52.51-62.89-70.48-37.32-25.42-79.57-34.01-124.22-32.75-14.7.41-29.1,3.07-43.6,5.01,20.89,7.04,28.01,20.8,23.55,45.46,1.92-.15,3.84-.29,5.77-.44,1.54-.13,3.09-.26,4.64-.39,14.84-2.6,29.79-2.87,44.72-1.42,42.81,4.17,80.03,20.16,107.28,54.46,11.78,14.83,20.78,31.87,25.9,50.12,2.56,9.16,4.15,18.58,4.71,28.07.29,4.96.31,9.94.05,14.91-.55,10.58-1.31,18.84-5.53,28.65-.91,2.13-1.82,4.26-2.75,6.38-15.16,34.86-42.8,56.23-77.45,68.52-14.38,5.1-29.97,7.23-44.73,11.75-10.76,3.29-21.34,7.76-30.83,13.85-24.51,15.71-38.57,46.78-38.18,75.38.18,13,3.07,26.06,8.28,37.96,11.73,26.79,43.84,45.67,69.23,39.04,2.1-.55,4.54.2,6.82.34,5.91-4.01,11.75-8.14,17.76-11.99,1.78-1.14,5.75-6.25,2.17-7.8-.79-.34-1.68-.25-2.53-.13-6.06.88-11.77,3.33-17.7,4.84-16.17,4.11-36.63,1.76-49.02-10.3-10.24-9.96-16.33-24.71-17.13-38.89-1.07-19.02,3.98-36.63,12.92-53.26,12.05-16.89,29.34-25.22,48.8-30.24,24.65-6.36,49.92-10.73,73.14-21.78,22.42-10.68,41.67-27.38,55.13-48.28,15.71-24.39,23.12-52.57,23.2-80.92Zm-200.75,179.43c.05.09.09.18.13.28-.04-.1-.08-.19-.13-.28Zm.34.96c.03.12.06.25.08.39-.02-.14-.05-.27-.08-.39Z"/>
        <polygon class="cls-1" points="1581.24 563.97 1581.24 563.98 1581.24 563.97 1581.24 563.97"/>
        <path class="cls-13" d="m1219.07,68.81c-.46.27-.93.53-1.39.79-.07-.33-.12-.65-.16-.96.52.05,1.04.11,1.55.17Z"/>
        <path class="cls-14" d="m1398.59,703.06h0s.05.03.08.04c-.03-.01-.05-.02-.08-.04Z"/>
        <path class="cls-7" d="m1363.05,356.8c20.89,7.04,28.02,20.8,23.55,45.46-5.62,5.14-10.5,11.09-18.87,12.42-8.51,1.36-15.61-1.3-17.34-9.69-1.92-9.32-4.94-18.49-3.38-28.65,1.4-9.11,6.79-14.32,12.83-19.72,1.07.06,2.13.13,3.2.19Zm4.29,18.51c-2.9,8.13-.25,14.76.46,21.43.14,1.29.87,2.63,2.46,2.12.75-.24,1.65-1.39,1.71-2.19.53-7.08,1.17-14.24-4.63-21.36Z"/>
        <path class="cls-7" d="m1349.03,322.5c-14.04,6.86-30.61-3.84-32.43-21.03-.48-4.56-.49-9.17-.93-13.74-.63-6.49,6.5-7.23,8.5-11.74,2.49-1.79,5.4-1.88,8.15-1.42,12.57,2.11,18.28,11.39,22.2,22.13,3.5,9.59,3.33,18.69-5.49,25.8Zm-6.3-18.1c-.72-4.94-3.3-9.28-6.83-13.08-.89-.95-2.24-1.27-3.53-.63-1.39.68-1.69,2-1.13,3.23,2,4.39,4.03,8.77,6.31,13.01.65,1.21,2.03,2.58,3.78,1.83,1.77-.75,1.24-2.56,1.41-4.35Z"/>
        <path class="cls-7" d="m1308.42,243.27c.96,2.67.35,5.23.35,8.13-.01,6.02-3.69,10.14-8.58,11.53-5.4,1.53-11.69,2.53-16.07-3.59-4.5-6.3-11.71-10.73-11.83-19.92-.06-4.15-1.83-8.82,2.52-11.07,4.51-2.34,9.24-6.14,14.95-3.52,8.31,3.82,13.66,8.93,18.14,17.27.21.39.38.78.52,1.17Z"/>
        <path class="cls-7" d="m1255.57,213.96c-13.68-2.31-19.71-8.87-21.17-22.83-.4-3.87-1.72-7.89-1.37-11.78-.03.29,5.67-1.91,6-1.98,7.27-1.53,13.81,4.53,17.48,10.19,4.41,6.8,4.09,14.91.62,22.04-.67,1.38-1.05,2.9-1.57,4.35Zm-6.16-15.07c-1.5-3.51-4.21-6.57-8.02-8.32-1.39-.64-2.39,1.28-1.84,2.46,1.77,3.8,2.96,8.35,7.63,9.63,1.63.45,2.37-1.55,2.22-3.76Z"/>
        <path class="cls-10" d="m1358.48,113.3c.38.6.77,1.19,1.15,1.79-.38-.6-.76-1.19-1.15-1.79Z"/>
        <path class="cls-10" d="m1308.67,240.41c-.45-.54-.9-1.09-1.35-1.63.45.54.9,1.09,1.35,1.63Z"/>
        <path class="cls-10" d="m1248.66,179.85c-.62-.35-1.24-.69-1.86-1.03.62.35,1.24.69,1.86,1.03Z"/>
        <path class="cls-10" d="m1246.43,178.55c-.44-.22-.81-.53-1.11-.91.37.31.74.61,1.11.91Z"/>
        <path class="cls-6" d="m447.68,639.63c-.59.38-1.19.76-1.78,1.14.59-.38,1.19-.76,1.78-1.14Z"/>
        <path class="cls-6" d="m449.45,638.35c-.59.43-1.19.86-1.78,1.29.59-.43,1.19-.86,1.78-1.29Z"/>
        <path class="cls-7" d="m1178.92,689.84c-11.33,20.91-38.82,29.44-60.4,19.02-9.84-4.75-11.87-13.38-12.68-22.9.89-.5,2.03-.78,2.63-1.52,14.59-17.78,38.7-23.06,58.68-12.93,3.92,1.99,6.99,4.33,7.39,9.01.19,2.19,1.1,3.93,2.94,5.16.48,1.39.96,2.78,1.45,4.17Zm-40.42,6.88c3.18-.19,6.3-.14,9.33-.64,2.69-.44,4.96-1.96,4.77-5.13-.22-3.62-3.11-3.74-5.71-3.57-3.07.2-6.13.75-9.17,1.26-4.04.68-11.22-1.52-11.14,3.47.11,6.67,7.62,3.54,11.92,4.6Z"/>
        <path class="cls-7" d="m1208.18,672.04c-3.15-13.63,2.37-23.55,13.82-30.29,13.69-8.06,27.73-15.42,43.15-3.43,7.13,16.83,3.86,26.78-11.76,37.04-7.94,5.22-16.43,8.78-25.94,8.68-5.63-.06-11.32-1.2-15.02-6.37-.21-1.8-1.2-2.99-2.82-3.7,0,0-.02-.05-.02-.05-.4-.52-.81-1.04-1.21-1.57l-.18-.31Zm25.56-4.24c4.99-1.49,10.13-4.78,14.89-8.62,1.44-1.16,1.58-3.32.61-5.02-1.17-2.03-3.06-1.29-4.81-.84-5.34,1.38-9.77,4.53-14.39,7.33-1.83,1.11-3.62,2.43-2.7,4.88.9,2.4,3.26,2.08,6.4,2.27Z"/>
        <path class="cls-7" d="m1299.52,607.16c-6.99-17.2,7.24-43.22,23.68-49.6,5.69-2.21,11.09-1.08,16.61.15.51.29,1.01.59,1.51.87.18.26.4.48.66.67,1.23,1.29,2.67,2.44,3.65,3.9,6.11,9.11,3.94,23.78-5.19,35.71-10.33,13.51-21.35,18.27-33.27,14.38-.59-.36-1.18-.73-1.77-1.1-.95-.58-1.9-1.16-2.85-1.75-.25-1.74-1.26-2.77-2.96-3.16l-.07-.09Zm31.97-29.49c.11-1.24-.55-2.26-2.7-1.59-2.6.81-10.99,13.51-10.73,16.2.24,2.54,1.15,4.2,3.85,2.32,5.62-3.92,8.12-9.75,9.58-16.92Z"/>
        <path class="cls-7" d="m1366.15,516.96c-2.61.57-5.49.53-9,.57-4.61.06-7.73-2.12-10.01-5.94-8.5-14.27-1.94-42.01,7.36-50.27,5.01-4.45,10.12-7.97,17.2-3.82,1.23.72,3.44-.23,5.2-.41,0,0,.01.03.01.04,2.14,7.75,8.9,11.53,9.19,20.36.19,5.57-1.31,11.05-2.97,16.37-1.93,6.22-4.27,12.71-8.57,17.73-2.81,3.28-5.44,4.73-8.43,5.38Zm4.48-36.45c0-.65.05-2.19-.02-3.73-.06-1.31-.3-2.74-1.83-2.98-1.38-.21-2.71.72-2.99,1.95-1.4,6.2-4.85,11.92-4.37,18.56.11,1.54.14,3.3,1.94,3.8,2.13.59,3.34-.95,4.2-2.58,2.34-4.41,3.35-9.14,3.06-15.02Z"/>
        <path class="cls-10" d="m1299.58,607.25c1.7.39,2.7,1.42,2.96,3.16-1.8-.29-2.84-1.29-2.96-3.16Z"/>
        <path class="cls-10" d="m1209.6,673.96c1.62.71,2.62,1.91,2.82,3.7-1.52-.79-2.59-1.93-2.82-3.7Z"/>
        <path class="cls-10" d="m1305.39,612.16c.59.37,1.18.73,1.77,1.1-.59-.37-1.18-.73-1.77-1.1Z"/>
        <path class="cls-10" d="m1208.36,672.35c.4.52.81,1.04,1.21,1.57-.4-.52-.81-1.04-1.21-1.57Z"/>
        <path class="cls-10" d="m1378.53,458.55c-.54-.48-1.08-.95-1.61-1.43.54.48,1.08.95,1.61,1.43Z"/>
        <path class="cls-10" d="m1341.97,559.26c-.26-.19-.48-.41-.66-.67,0,0,.53.14.53.14l.13.53Z"/>
        <path class="cls-4" d="m777.64,614.85c1.54,14.3,2.6,28.67,4.72,42.88,5.13,34.33,13.74,67.58,31.67,97.84,23.32,39.35,57.5,66.07,98.32,85.18,18.89,8.84,38.52,16.02,57.05,25.69,23.66,12.34,43.28,28.73,54.61,53.6.08,2.64,2.23,4.9,1.4,7.69-12.53-11.43-24.6-23.24-40.07-31.14-19.41-9.92-40.2-15.87-60.61-22.87-41.34-14.17-78.73-34.62-108.79-66.84-14.68-15.73-25.66-33.96-33.69-54.06-8.83-22.09-15.83-44.47-16.15-68.51-.04-3.05-1.3-5.47-3.69-7.32,5.08-20.71,10.16-41.42,15.24-62.14Z"/>
        <path class="cls-4" d="m1050.74,682.57c.77,3.34,3.85,2.95,6.15,3.75,32.69,11.35,63.18,26.63,88.19,51.1,40.56,39.68,51.73,99.39,28.5,151.15-3.76,8.38-6.91,17.14-13.27,24.1,3.37-13.69,8.48-26.88,10.01-41.12,6.1-56.79-15.69-100.4-61.84-132.66-19.58-13.69-41.15-23.38-63.97-30.36-2.7-.82-5.27-2.04-7.9-3.07-1.24-1.3-2.76-1.66-4.49-1.33-.5-.06-.98-.21-1.42-.45,1.2-1.81,3.35-2.2,4.96-3.35,6.12-4.36,11.84-9.1,10.32-17.91,1.58.04,3.17.09,4.75.13Z"/>
        <path class="cls-7" d="m1045.98,682.44c1.51,8.81-4.21,13.55-10.32,17.91-1.61,1.15-3.76,1.54-4.96,3.35-13.81.5-27.15-1.24-39.93-7.03-7.5-3.4-12.33-9.98-18.98-14.29,3.13-1.13,2.92-3.79,2.93-6.37.01-4.59.06-9.19.09-13.78,20.7-12.83,40.48-9.55,59.5,3.66,5.78,4.01,9.74,9.65,11.67,16.55Zm-29.37,4.77c3.02-.88,7.59,1.01,8.43-3.5.82-4.41-3.61-5.17-6.66-5.99-5.94-1.61-12.01-2.74-18.04-4-1.96-.41-4.45-1.38-5.62.81-1.29,2.42.59,4.66,2.4,5.93,5.79,4.08,12.58,5.49,19.49,6.75Z"/>
        <path class="cls-11" d="m974.8,662.22c-.03,4.59-.08,9.19-.09,13.78,0,2.58.2,5.23-2.93,6.37-22.37-8.96-42.62-21.45-61.35-36.53-2.19-1.76-4.54-3.32-6.82-4.98-.48-3.83-1.07-7.64-1.38-11.48-.14-1.71-.49-3.82,1.47-4.85,2.01-1.06,3.34.66,4.75,1.68,12.75,9.24,26.26,17.21,40.16,24.58,8.46,4.49,17.53,7.45,26.19,11.42Z"/>
        <path class="cls-4" d="m1199.18,192.08c-5.82-2.39-12.49-11.29-13.48-15.84-3.92-17.92-5.42-35.82-1.9-54.52,2.17-11.53,5.7-22.05,10.24-32.49,3.09-7.11,9.03-12.36,13.51-18.58,2.08-2.9,13.24-5.06,16.31-4.78-7.9,9.38-21.75,22.57-26.95,34.04-12.62,27.88-12.17,52.92-1.13,81.41.83,2.14,2.66,8.6,3.4,10.78Z"/>
        <path class="cls-13" d="m1398.67,703.1s-.05-.02-.08-.03h0s.05.02.08.03Z"/>
        <polygon class="cls-1" points="1581.24 563.97 1581.24 563.98 1581.24 563.97 1581.24 563.97"/>
        <path class="cls-6" d="m1053.17,684.22c-.62-.1-1.25-.2-1.87-.29.62.1,1.25.2,1.87.29Z"/>
        <path class="cls-7" d="m556.73,721.69c1.19-25.02,25.76-46.5,50.74-44.75,7.06.49,9.74,7.14,15.37,9.41,3.82,9.05,2.65,17.64-2.94,25.5-11.14,15.67-26.33,24.03-45.69,23.86-9.77-.08-14.85-4.54-17.48-14.02Zm49.29-20.14c-.91-4.07-3.15-4.37-6.18-2.62-6.41,3.71-12.84,7.39-19.16,11.24-2.22,1.35-4.38,3.3-2.84,6.26,1.45,2.79,4.39,2.72,6.78,1.75,7.43-2.99,14-7.37,19.33-13.43.82-.93,1.37-2.1,2.07-3.2Z"/>
        <path class="cls-7" d="m463.39,789.83c-10.08-24.1,4.28-43.13,24.04-51.32,8.97-3.72,19.22-2.08,27.97,3.6,1.31,1.92,2.62,3.85,3.93,5.77-1.08,5.81,1.41,11.65-.18,17.45-1.18,15.2-21.95,29.78-36.44,30.73-7.34.48-13.69-1.65-19.32-6.23Zm20.51-9.82c5.89-.29,19.33-13.94,19.27-19.67-.03-3.01-1.94-4.9-4.4-2.91-6.38,5.17-13.02,10.12-18.34,16.49-1.03,1.23-1.61,2.7-.54,4.24.96,1.37,2.36,1.93,4.01,1.86Z"/>
        <path class="cls-7" d="m478.68,881.3c-12.34,3.47-24.14,3.25-32.69-7.76-8.77-11.31-14.26-23.73-7.8-38.4,3.22-7.32,8.41-11.37,16.65-11.06,16.03.6,27.07,9.2,30.87,25.61,1.28,5.54,1.37,11.37.14,16.93-.69,3.1-3.56,13.67-7.17,14.68Zm-7.65-22.81c-1.15-5.32-2.64-11.54-6.9-16.7-1.46-1.77-3.35-2.44-5.52-1.67-1.94.69-2.96,2.32-2.42,4.28,1.8,6.44,3.47,12.97,7.92,18.26,1.17,1.38,2.57,2.9,4.57,2.14,2.34-.88,2.27-3.17,2.33-6.31Z"/>
        <path class="cls-7" d="m550.33,893.52c-.18,2.55-.36,4.99,1.1,7.41,4.87,8.1,1.74,16.97-7.78,18.42-13.53,2.06-27,1.53-38.69-7.85-7.34-5.89-8.4-12.88-6.17-21.19.72-.93,1.44-1.86,2.15-2.79.39-.4.78-.8,1.17-1.21,1.02-.58,2.04-1.15,3.06-1.73.69.44,1.11.19,1.34-.53,1.1-3.5,13.3-2.69,15.89-2.41,5.83.64,11.21,3.23,16.46,5.66.77.35,11.22,6.39,11.34,6.31,0,0,.12-.09.12-.09Zm-15.31,10.76c1.98-.02,4.36.36,5.17-2.13.74-2.28-.57-3.99-2.53-5.04-5.77-3.08-12.11-4.02-18.5-4.59-1.54-.14-3.14.52-3.63,2.25-.41,1.43.54,2.35,1.71,3.07,5.48,3.35,11.13,6.24,17.78,6.45Z"/>
        <path class="cls-10" d="m506.52,884.05c-.23.73-.65.98-1.34.54.42-.26.86-.44,1.34-.54Z"/>
        <path class="cls-10" d="m502.12,886.31c-.39.4-.78.8-1.17,1.21.39-.4.78-.8,1.17-1.21Z"/>
        <path class="cls-10" d="m550.2,893.61c-.53-.51-1.07-1.03-1.6-1.54.53.51,1.07,1.03,1.6,1.54Z"/>
        <path class="cls-16" d="m1032.12,704.15c1.73-.33,3.25.03,4.49,1.33-1.7.23-3.3.15-4.49-1.33Z"/>
        <path class="cls-4" d="m954.48,490.85c21.5,10.88,43.94,18.97,67.81,22.82,44.29,7.14,87.64,2.96,130.51-9.86,39.05-11.68,74.77-30.54,110.52-49.47,2.23-1.18,4.16-3.13,6.94-3.15-1.83,15.08-6.28,29.41-12.54,43.2-1.03,2.28-1.52,4.95-4.04,6.29-1.67-1.81-3.11-.73-4.74.21-4.91,2.82-9.85,5.61-14.87,8.22-74.59,38.8-152.16,51.18-233.91,26.29-2.22-.68-4.43-1.4-6.81-.87-14.43-13.25-29.43-26-38.87-43.69Z"/>
        <path class="cls-4" d="m326.78,147.38c5.81-7.29,13.21-12.4,21.02-16.66,56.45-30.76,116.25-40.6,179.49-27.98,7.62,1.52,14.91,4.18,21.3,8.83,7.33,5.33,7.14,12.71-.86,17.22-11.5,6.48-24.16,6.47-36.88,5.72-25.71-1.53-51.25-5.65-77.07-5.49-32.49.21-63.94,7.02-95.13,15.34-3.94,1.05-7.9,2.02-11.85,3.03Z"/>
        <path class="cls-4" d="m677.43,270.69c-.11,27.22-24.44,50.1-52.73,49.58-24.64-.45-43.27-19.95-43.12-45.15.18-29.43,22.48-51.78,51.33-51.42,26.67.33,44.62,19.29,44.52,46.99Zm-71.35-.79c-.07,15.32,11.34,27.21,26.35,27.45,17.12.28,31.24-12.95,31.35-29.36.11-15.76-12.62-27.39-30-27.4-15.04,0-27.63,13.31-27.7,29.31Z"/>
        <path class="cls-2" d="m792.92,267.64c-9.57-11.32-16.31-23.55-12.69-39.14,8.47-6.55,15.71-7.42,23.37-2.43,7.71,5.03,12.35,12.17,13.95,21.31,1.34,7.61.05,14.53-5.82,19.79-5.93,5.31-12.46,3.33-18.81.47Z"/>
        <path class="cls-4" d="m792.92,267.64c6.35,2.86,12.88,4.83,18.81-.47,5.88-5.26,7.16-12.18,5.82-19.79-1.61-9.14-6.25-16.28-13.95-21.31-7.66-5-14.9-4.12-23.37,2.43-1-9.75,5.55-17.4,15.02-16.91,15.4.81,24.46,10.4,31.09,23.21,6.53,12.62,6.9,25.33-.53,37.46-5.21,8.5-18.11,9.38-25.87,2.51-2.49-2.21-4.69-4.74-7.03-7.13Z"/>
        <path class="cls-4" d="m593.56,184.67c11.23-9.11,24.92-11.39,38.55-13.7,18.49-3.12,36.73-1.21,54.84,2.99,2.03,6.1-1.07,9.08-6.43,10.88-3.76,1.27-7.75,1.89-11.42.95-25.12-6.39-50.27-6.5-75.54-1.13Z"/>
        <path class="cls-4" d="m853.59,422.18c-5.65-15.37-14.95-28.86-21.85-43.56-2.27-4.82-5.69-9.11-8.64-13.6-1.5-2.28-4.53-4.77-1.55-7.26,2.6-2.18,4.44,1.18,6.33,2.69,12.62,10.08,16.39,25.1,21.47,39.26,2.56,7.14,4.16,14.69,4.25,22.47Z"/>
        <path class="cls-4" d="m1367.34,375.3c5.8,7.13,5.16,14.28,4.63,21.36-.06.8-.96,1.94-1.71,2.19-1.58.51-2.32-.84-2.46-2.12-.71-6.67-3.36-13.29-.46-21.43Z"/>
        <path class="cls-4" d="m1342.74,304.4c-.16,1.79.36,3.6-1.41,4.35-1.75.74-3.13-.62-3.78-1.83-2.28-4.24-4.31-8.62-6.31-13.01-.56-1.22-.26-2.55,1.13-3.23,1.29-.63,2.65-.32,3.53.63,3.54,3.8,6.11,8.13,6.83,13.08Z"/>
        <path class="cls-4" d="m1249.41,198.9c.15,2.2-.59,4.21-2.22,3.76-4.67-1.27-5.86-5.83-7.63-9.63-.55-1.17.45-3.09,1.84-2.46,3.81,1.75,6.52,4.81,8.02,8.32Z"/>
        <path class="cls-4" d="m1136.5,697.33c-4.3-1.06-11.81,2.07-11.92-4.6-.08-4.99,7.11-2.79,11.14-3.47,3.04-.51,6.1-1.06,9.17-1.26,2.6-.17,5.5-.05,5.71,3.57.19,3.17-2.08,4.69-4.77,5.13-3.03.5-6.15.45-9.33.64Z"/>
        <path class="cls-4" d="m1233.74,667.8c-3.14-.19-5.5.13-6.4-2.27-.92-2.45.87-3.77,2.7-4.88,4.61-2.8,9.05-5.94,14.39-7.33,1.76-.46,3.65-1.2,4.81.84.98,1.7.83,3.86-.61,5.02-4.76,3.84-9.9,7.13-14.89,8.62Z"/>
        <path class="cls-4" d="m1331.49,577.67c-1.47,7.17-3.96,13.01-9.58,16.92-2.71,1.89-3.61.23-3.85-2.32-.26-2.69,8.14-15.39,10.73-16.2,2.15-.67,2.81.35,2.7,1.59Z"/>
        <path class="cls-4" d="m1370.63,480.51c.29,5.88-.73,10.61-3.06,15.02-.86,1.63-2.07,3.16-4.2,2.58-1.81-.5-1.83-2.27-1.94-3.8-.48-6.63,2.97-12.36,4.37-18.56.28-1.23,1.61-2.16,2.99-1.95,1.53.24,1.77,1.67,1.83,2.98.07,1.54.02,3.08.02,3.73Z"/>
        <path class="cls-4" d="m1016.61,687.21c-6.91-1.26-13.7-2.67-19.49-6.75-1.81-1.27-3.69-3.51-2.4-5.93,1.17-2.19,3.66-1.22,5.62-.81,6.03,1.26,12.1,2.39,18.04,4,3.05.82,7.48,1.58,6.66,5.99-.84,4.51-5.42,2.62-8.43,3.5Z"/>
        <path class="cls-4" d="m604.02,701.55c-.7,1.1-1.25,2.27-2.07,3.2-5.33,6.06-11.9,10.44-19.33,13.43-2.4.97-5.33,1.04-6.78-1.75-1.54-2.96.62-4.9,2.84-6.26,6.32-3.85,12.75-7.53,19.16-11.24,3.03-1.75,5.27-1.45,6.18,2.62Z"/>
        <path class="cls-4" d="m483.9,780.02c-1.65.07-3.05-.49-4.01-1.86-1.07-1.54-.49-3,.54-4.24,5.32-6.37,11.96-11.32,18.34-16.49,2.46-1.99,4.37-.1,4.4,2.91.06,5.74-13.38,19.39-19.27,19.68Z"/>
        <path class="cls-4" d="m471.02,858.49c-.06,3.14,0,5.43-2.33,6.31-2,.76-3.41-.76-4.57-2.14-4.45-5.29-6.12-11.82-7.92-18.26-.55-1.95.48-3.59,2.42-4.28,2.17-.77,4.06-.1,5.52,1.67,4.26,5.15,5.75,11.38,6.9,16.7Z"/>
        <path class="cls-4" d="m535.01,904.28c-6.65-.21-12.3-3.1-17.78-6.45-1.17-.72-2.12-1.64-1.71-3.07.49-1.72,2.08-2.38,3.63-2.25,6.39.57,12.73,1.51,18.5,4.59,1.96,1.05,3.27,2.76,2.53,5.04-.81,2.5-3.18,2.11-5.17,2.13Z"/>
        <path class="cls-2" d="m606.08,269.9c.07-16,12.66-29.32,27.7-29.31,17.38,0,30.11,11.63,30,27.4-.11,16.41-14.24,29.64-31.35,29.36-15.01-.24-26.42-12.13-26.35-27.45Z"/>
      </g>
    </g>
  </g>
</svg>