<?xml version="1.0" encoding="UTF-8"?>
<svg id="Calque_2" data-name="Calque 2" xmlns="http://www.w3.org/2000/svg" width="287.21" height="293" xmlns:xlink="http://www.w3.org/1999/xlink" viewBox="0 0 287.21 293">
  <defs>
    <style>
      .cls-1 {
        fill: #66c1bf;
      }

      .cls-1, .cls-2, .cls-3, .cls-4 {
        stroke-width: 0px;
      }

      .cls-2 {
        fill: none;
      }

      .cls-5 {
        clip-path: url(#clippath-1);
      }

      .cls-3 {
        fill: #fff;
      }

      .cls-6 {
        clip-path: url(#clippath);
      }

      .cls-4 {
        fill: #335472;
      }
    </style>
    <clipPath id="clippath">
      <rect class="cls-2" width="287.21" height="293" rx="25" ry="25"/>
    </clipPath>
    <clipPath id="clippath-1">
      <rect class="cls-2" x="4.88" y="17.26" width="260.65" height="304.25"/>
    </clipPath>
  </defs>
  <g id="Calque_1-2" data-name="Calque 1">
    <g class="cls-6">
      <g id="Groupe_29" data-name="Groupe 29">
        <g class="cls-5">
          <g id="Groupe_28" data-name="Groupe 28">
            <g id="Tracé_46" data-name="Tracé 46">
              <path class="cls-3" d="m185.71,145.13c4.25-29.42,40.84-79.65,42.44-89.48,2.58-15.87-21.4-40.96-41.32-35.42-10.55,2.93-31.65,18.25-38.94,20.73-6.43,2.19-8.77,8.07,6.11,9.2,3.38.29,6.78.32,10.16.1,0,0-29.25,44.86-8.11,92.5l29.67,2.38Z"/>
            </g>
            <g id="Tracé_47" data-name="Tracé 47">
              <path class="cls-4" d="m185.46,148.19l-29.67-2.38c-1.12-.09-2.1-.79-2.56-1.81-11.29-25.43-8.42-50.01-4.03-66.16,2.96-10.89,6.93-19.4,9.57-24.38-1.68-.02-3.36-.1-5.01-.24-8.71-.66-13.38-3.05-13.9-7.12-.42-3.34,2.27-6.42,7.04-8.04,2.8-.95,8.45-4.36,14.42-7.97,8.55-5.16,18.24-11.02,24.68-12.81,9.76-2.71,21.49.96,31.38,9.82,9.82,8.8,15.23,20.2,13.79,29.05-.64,3.93-4.77,11.15-12.64,24.65-11.46,19.66-27.16,46.59-29.79,64.78-.22,1.52-1.52,2.63-3.03,2.63-.08,0-.17,0-.25,0Zm2.18-125.01c-5.63,1.56-14.94,7.19-23.15,12.15-6.54,3.95-12.19,7.36-15.62,8.53-1.35.46-2.21,1.04-2.64,1.44.77.48,2.88,1.41,8.02,1.79,3.22.27,6.48.3,9.7.1,1.15-.07,2.26.51,2.85,1.51.59,1,.56,2.25-.08,3.22-.07.11-7.18,11.16-11.65,27.72-3.99,14.78-6.63,37.08,3.05,60.2l25.04,2.01c3.84-19.16,18.92-45.02,30.07-64.15,5.86-10.06,11.4-19.55,11.89-22.54,1.08-6.63-3.79-16.29-11.83-23.5-6.61-5.92-14.01-9.14-20.65-9.14-1.72,0-3.4.22-4.99.66Z"/>
            </g>
            <g id="Tracé_48" data-name="Tracé 48">
              <path class="cls-4" d="m175.62,46.13c.87,0,1.73-.37,2.34-1.08l1.85-2.18c1.1-1.29.94-3.23-.35-4.32-1.29-1.1-3.23-.94-4.32.35l-1.85,2.18c-1.1,1.29-.94,3.23.35,4.32.58.49,1.28.73,1.98.73Z"/>
            </g>
            <g id="Tracé_49" data-name="Tracé 49">
              <path class="cls-1" d="m214.09,290.39c5.25-28.86,57.32-112.24,34.77-135.68-20.97-21.8-162.21-30.9-193.79,5.03-36.49,41.53,1.61,85.18,1.61,85.18l157.42,45.48Z"/>
            </g>
            <g id="Tracé_50" data-name="Tracé 50">
              <path class="cls-3" d="m89.7,108.57c7.88-16.1,17.81-31.11,29.56-44.65.85-1.09,1.88-2.03,3.05-2.77.9-.47,1.87-.79,2.87-.97,12.17-2.52,25.63,4.98,29.89,16.65.38,1.03.67,2.23.12,3.17-1.16,1.96-4.17.71-5.95-.72-3.63-2.92-7.25-5.86-10.87-8.8,2.73,3.95,5.34,8.1,6.49,12.76,1.16,4.66.66,9.95-2.36,13.69-6.85-4.87-10.38-13.06-13.58-20.83,3.95,8.01,6.72,16.55,8.22,25.36.15.87.26,1.85-.25,2.58-.96,1.37-3.11.72-4.52-.18-5.26-3.41-9.22-8.5-11.24-14.43,7.34,13.01,1.78,27.02-3.44,41.02"/>
            </g>
            <g id="Tracé_51" data-name="Tracé 51">
              <path class="cls-4" d="m117.7,133.5c1.24,0,2.42-.76,2.88-2l.42-1.13c3.22-8.62,6.5-17.42,6.74-26.14.94.79,1.94,1.52,2.97,2.19,3.36,2.16,6.93,1.9,8.7-.63,1.27-1.81.92-3.86.76-4.85-.13-.75-.26-1.5-.41-2.25.32.25.64.49.97.72,1.32.94,3.14.69,4.16-.57,3.36-4.16,4.46-10.27,2.95-16.35-.04-.18-.09-.35-.14-.53,1.18.87,3.87,2.52,6.64,2.02,1.48-.27,2.72-1.13,3.49-2.42,1.39-2.34.44-4.93.12-5.79-4.78-13.06-19.73-21.4-33.35-18.61-1.29.23-2.54.65-3.7,1.25-.08.04-.16.09-.23.13-1.45.92-2.71,2.06-3.77,3.41-11.89,13.72-21.97,28.94-29.95,45.25-.74,1.52-.11,3.36,1.41,4.1,1.52.74,3.36.11,4.1-1.41,7.76-15.85,17.56-30.65,29.12-43.99.04-.04.07-.08.1-.13.6-.78,1.33-1.44,2.15-1.98.59-.29,1.22-.5,1.87-.61.03,0,.06-.01.09-.02,10.64-2.2,22.3,4.2,26.24,14.3-.28-.15-.58-.35-.88-.59-3.63-2.92-7.24-5.85-10.85-8.79-1.19-.96-2.9-.91-4.02.13-1.12,1.04-1.31,2.74-.44,4,2.36,3.41,4.96,7.42,6.04,11.75.73,2.95.63,5.84-.23,8.23-2.75-2.74-4.86-6.22-6.61-9.77-1.01-2.61-2.14-5.17-3.38-7.69-.73-1.48-2.51-2.12-4.01-1.44-1.51.68-2.2,2.44-1.57,3.96,1,2.43,2.09,5.06,3.37,7.69,2.02,5.27,3.54,10.71,4.54,16.28-3.27-2.13-5.99-5.02-7.94-8.38-.58-1.66-1.32-3.31-2.25-4.95-.78-1.38-2.48-1.94-3.92-1.29-1.45.65-2.16,2.29-1.65,3.79.58,1.7,1.31,3.34,2.17,4.91,3.32,10.22-.81,21.29-5.15,32.91l-.42,1.13c-.59,1.59.22,3.35,1.8,3.95.35.13.71.19,1.07.19Z"/>
            </g>
            <g id="Tracé_52" data-name="Tracé 52">
              <path class="cls-1" d="m133.97,114.14l-44.92-14.8S-7.13,206.63,20.21,232.53c27.34,25.9,68.82,9.25,76.11-8.32,7.29-17.57,37.65-110.07,37.65-110.07"/>
            </g>
            <g id="Tracé_53" data-name="Tracé 53">
              <path class="cls-4" d="m54.23,248.97c4.01,0,8.1-.43,12.21-1.3,15.4-3.27,28.54-12.23,32.71-22.29,7.25-17.48,36.49-106.51,37.73-110.29.53-1.61-.35-3.34-1.96-3.87-1.61-.53-3.34.35-3.87,1.96-.3.92-30.41,92.58-37.57,109.85-3.38,8.14-15.03,15.81-28.32,18.64-9.41,2-27.48,3.19-42.84-11.36-1.23-1.16-3.17-1.11-4.34.12-1.17,1.23-1.11,3.17.12,4.34,9.81,9.29,22.54,14.21,36.13,14.21Z"/>
            </g>
            <g id="Tracé_54" data-name="Tracé 54">
              <path class="cls-3" d="m84.73,244.52l-26.13-25.81c-3.85-3.8-7.87-7.72-12.67-9.65-.88,8.43,3.74,18.12,11.18,23.48-6.51.97-13.64-2.36-19.67-6.66-6.03-4.29-11.46-9.61-17.65-13.61-2.37,4.77-.26,11.53,3.6,16.33,3.86,4.81,9.14,8.1,14.27,11.27l-30.58-13.93c.59,7.13,6.02,13.9,12.28,17.95s13.31,5.91,20.2,7.69c-8.91-2.61-17.91-5.23-26.84-5.86.1,3.43,3.54,6.25,6.71,7.9,6.93,3.6,14.41,4.95,21.73,6.01,15.58,2.24,31.11,3.33,46.62,4.43"/>
            </g>
            <g id="Tracé_55" data-name="Tracé 55">
              <path class="cls-4" d="m87.76,267.14c1.6,0,2.94-1.24,3.06-2.85.12-1.69-1.15-3.16-2.84-3.28-15.2-1.07-30.92-2.18-46.4-4.4-6.85-.98-14.09-2.23-20.75-5.69-.83-.43-1.58-.9-2.24-1.39,3.62.59,7.27,1.45,10.91,2.41,3.17,1.05,6.31,1.86,9.28,2.63,1.62.42,3.28-.54,3.73-2.15.45-1.61-.49-3.29-2.1-3.76-3.05-.89-6.13-1.79-9.24-2.62-3.52-1.18-6.97-2.64-10.15-4.7-4.03-2.61-7.26-6.14-9.13-9.81l24.49,11.16c1.48.67,3.22.08,3.98-1.35.76-1.43.28-3.2-1.1-4.05-4.87-3-9.9-6.11-13.49-10.58-2.32-2.89-3.7-6.29-3.89-9.19,1.96,1.48,3.89,3.06,5.89,4.71,2.53,2.08,5.15,4.23,7.88,6.18,8.07,5.74,15.44,8.16,21.91,7.19,1.23-.18,2.23-1.1,2.53-2.31s-.18-2.48-1.19-3.21c-5.06-3.64-8.7-9.7-9.72-15.65,2.61,1.88,5.03,4.28,7.26,6.48l26.13,25.81c1.2,1.19,3.15,1.18,4.34-.03,1.19-1.21,1.18-3.15-.03-4.34l-26.13-25.81c-3.85-3.8-8.22-8.11-13.68-10.31-.89-.36-1.9-.28-2.73.22-.82.5-1.37,1.35-1.47,2.31-.69,6.66,1.62,13.97,5.93,19.8-3.54-1.22-6.93-3.26-9.59-5.16-2.56-1.82-5.09-3.9-7.54-5.92-3.25-2.67-6.6-5.43-10.23-7.77-.73-.47-1.63-.61-2.48-.38-.84.23-1.55.81-1.93,1.59-2.68,5.38-.95,12.12,2.26,17.24l-10.95-4.99c-.99-.45-2.15-.34-3.04.28-.89.63-1.38,1.68-1.29,2.76.54,6.56,4.38,12.31,8.82,16.47-.85-.03-1.64.27-2.25.85-.62.6-.97,1.44-.94,2.3.12,3.99,3.16,7.83,8.36,10.53,7.51,3.9,15.66,5.31,22.7,6.32,15.7,2.25,31.53,3.37,46.84,4.45.07,0,.15,0,.22,0Z"/>
            </g>
            <g id="Tracé_56" data-name="Tracé 56">
              <path class="cls-1" d="m248.86,154.71c33.42,24.97,7.21,168.04-60.13,164.54-56.79-2.95-120.39-52.5-120.39-52.5l18.08-31.46s93.45,17.54,105.82,16.62c12.37-.92,22.71-59.16,22.71-59.16"/>
            </g>
            <g id="Tracé_57" data-name="Tracé 57">
              <path class="cls-4" d="m191.12,322.38c26.87,0,50.24-22.21,64.41-61.41,7.4-20.48,11.35-43.82,10.83-64.04-.56-21.68-6.12-37.55-15.67-44.68-1.36-1.01-3.28-.74-4.29.62-1.01,1.36-.74,3.28.62,4.29,16.57,12.38,17.85,59.92,2.74,101.72-6.45,17.84-25.3,59.15-60.88,57.3-49.44-2.57-105.08-41.8-116.54-50.26l15.64-27.22c13.97,2.6,88.23,16.3,103.27,16.3.45,0,.85-.01,1.2-.04,4.24-.32,10.79-3.99,18.72-32.15,4.12-14.65,6.76-29.38,6.78-29.53.3-1.67-.82-3.26-2.48-3.56-1.66-.3-3.26.82-3.56,2.48-.03.14-2.61,14.61-6.66,28.97-7.46,26.48-12.69,27.62-13.26,27.66-9.83.74-79.14-11.71-105.02-16.57-1.28-.24-2.58.36-3.23,1.49l-18.08,31.46c-.76,1.33-.43,3.01.77,3.95.16.13,16.35,12.68,39.3,25.4,21.27,11.8,52.9,26.18,82.82,27.74.85.04,1.71.07,2.55.07Z"/>
            </g>
            <g id="Tracé_58" data-name="Tracé 58">
              <path class="cls-4" d="m147.92,84c13.35,0,26.46-6.88,33.81-18.14.93-1.42.53-3.32-.89-4.25-1.42-.93-3.32-.53-4.25.89-6.96,10.66-20.62,16.84-33.21,15.04-1.68-.24-3.23.93-3.47,2.6-.24,1.68.92,3.23,2.6,3.47,1.8.26,3.61.38,5.42.38Z"/>
            </g>
            <g id="Tracé_59" data-name="Tracé 59">
              <path class="cls-4" d="m188.94,20.52c-2.36,8.69-1.18,24.64,10.16,36.63,3.75-1.48,6.29-7.83,11.65-3.39,5.36,4.44,1.88,17.46-3.37,20.71-5.25,3.24-8.18-1.34-9.33-4.01-1.97,7.62-4.73,20.66-4.36,28.52.11,2.34,24.3,4.92,30.85,4.3.12-14.29,7.21-34.23,6.72-48.51-.13-6.35-2.73-12.41-7.25-16.87-5.14-5.01-14.63-19.38-35.07-17.39"/>
            </g>
          </g>
        </g>
      </g>
    </g>
  </g>
</svg>