<?xml version="1.0" encoding="UTF-8"?>
<svg id="Calque_2" data-name="Calque 2" xmlns="http://www.w3.org/2000/svg" width="864.25" height="329.27" viewBox="0 0 864.25 329.27">
  <defs>
    <style>
      .cls-1 {
        fill: #335572;
      }

      .cls-1, .cls-2 {
        fill-rule: evenodd;
        stroke-width: 0px;
      }

      .cls-2 {
        fill: #66c1bf;
      }
    </style>
  </defs>
  <g id="Calque_1-2" data-name="Calque 1">
    <g>
      <path class="cls-2" d="m399.5,37.32c-1.36,0-2.69.14-3.95.41-.64-8.5-9.33-15.23-19.96-15.23-4.17,0-8.05,1.04-11.25,2.81,3.64,6.59,5.66,13.9,5.66,21.59,0,.1,0,.2,0,.3h14.24s8.41,0,8.41,0h22.11c-1.58-5.66-7.81-9.88-15.26-9.88h0Z"/>
      <polygon class="cls-2" points="864.25 227.47 0 227.47 0 329.27 864.25 329.27 864.25 227.47 864.25 227.47"/>
      <polygon class="cls-2" points="220.58 39.38 206.63 39.38 206.63 70.37 223.37 70.37 220.58 39.38 220.58 39.38"/>
      <polygon class="cls-1" points="223.37 70.37 206.63 70.37 206.63 101.36 226.17 101.36 223.37 70.37 223.37 70.37"/>
      <polygon class="cls-2" points="226.17 101.36 206.63 101.36 206.63 132.35 228.96 132.35 226.17 101.36 226.17 101.36"/>
      <polygon class="cls-1" points="228.96 132.35 206.63 132.35 206.63 163.34 231.75 163.34 228.96 132.35 228.96 132.35"/>
      <polygon class="cls-2" points="231.75 163.34 206.63 163.34 206.63 194.33 234.54 194.33 231.75 163.34 231.75 163.34"/>
      <polygon class="cls-2" points="192.67 39.38 206.63 39.38 206.63 70.37 189.88 70.37 192.67 39.38 192.67 39.38"/>
      <polygon class="cls-1" points="189.88 70.37 206.63 70.37 206.63 101.36 187.08 101.36 189.88 70.37 189.88 70.37"/>
      <polygon class="cls-2" points="187.08 101.36 206.63 101.36 206.63 132.35 184.29 132.35 187.08 101.36 187.08 101.36"/>
      <polygon class="cls-1" points="184.29 132.35 206.63 132.35 206.63 163.34 181.5 163.34 184.29 132.35 184.29 132.35"/>
      <polygon class="cls-2" points="181.5 163.34 206.63 163.34 206.63 194.33 178.71 194.33 181.5 163.34 181.5 163.34"/>
      <polygon class="cls-1" points="226.71 34.75 186.54 34.75 186.54 39.38 226.71 39.38 226.71 34.75 226.71 34.75"/>
      <polygon class="cls-2" points="220.58 34.75 206.98 34.75 206.98 20.41 220.58 20.41 220.58 34.75 220.58 34.75"/>
      <polygon class="cls-2" points="206.98 34.75 193.38 34.75 193.38 20.41 206.98 20.41 206.98 34.75 206.98 34.75"/>
      <path class="cls-1" d="m206.98,20.41h13.6c0-6.1-6.09-11.04-13.6-11.04-7.51,0-13.6,4.94-13.6,11.04h13.6Z"/>
      <path class="cls-1" d="m207.91,11.85h-1.85V.75c0-.41.42-.75.92-.75h0c.51,0,.93.34.93.75v11.1h0Z"/>
      <path class="cls-1" d="m216.28,31.41h-4.98v-5.64c0-1.11,1.12-2.02,2.49-2.02h0c1.37,0,2.49.91,2.49,2.02v5.64h0Z"/>
      <path class="cls-1" d="m217.49,58.7h-4.98v-5.64c0-1.11,1.12-2.02,2.49-2.02h0c1.37,0,2.49.91,2.49,2.02v5.64h0Z"/>
      <path class="cls-1" d="m220.28,120.69h-4.98v-5.64c0-1.11,1.12-2.02,2.49-2.02h0c1.37,0,2.49.91,2.49,2.02v5.64h0Z"/>
      <path class="cls-1" d="m224.99,190.8h-8.82v-7.03c0-1.97,1.98-3.58,4.41-3.58h0c2.43,0,4.41,1.61,4.41,3.58v7.03h0Z"/>
      <path class="cls-1" d="m328.64,227.47c-22.41-22.03-66.28-37-116.74-37-50.46,0-94.33,14.97-116.74,37.01h233.48Z"/>
      <path class="cls-1" d="m370.85,227.47c-9.91-9.74-29.31-16.36-51.62-16.36-22.31,0-41.71,6.62-51.62,16.36h103.25Z"/>
      <path class="cls-1" d="m156.64,227.47c-9.91-9.74-29.31-16.36-51.62-16.36s-41.71,6.62-51.62,16.36h103.25Z"/>
      <path class="cls-1" d="m304.94,2.38c-30.28,0-54.83,19.93-54.83,44.52,0,24.59,24.55,44.52,54.83,44.52,30.28,0,54.83-19.93,54.83-44.52,0-24.59-24.55-44.52-54.83-44.52h0Z"/>
      <path class="cls-2" d="m122.06,116.52c-1.37,0-2.69.14-3.95.41-.64-8.5-9.33-15.23-19.96-15.23-8.82,0-16.31,4.64-18.96,11.07-2.98-1.43-6.45-2.25-10.16-2.25-10.9,0-19.76,7.08-19.99,15.88h32.05s7.93,0,7.93,0h17.78s8.41,0,8.41,0h22.11c-1.58-5.66-7.81-9.88-15.26-9.88h0Z"/>
      <path class="cls-1" d="m733.43,329.27c-29.45-27.84-85.57-46.65-149.97-46.65s-120.52,18.81-149.97,46.65h299.94Z"/>
      <path class="cls-1" d="m482.31,329.27c-17.67-16.27-50.76-27.23-88.67-27.23-37.91,0-71,10.95-88.67,27.23h177.34Z"/>
      <path class="cls-1" d="m362.34,329.27c-25.34-23.81-73.44-39.88-128.61-39.88-55.17,0-103.26,16.07-128.61,39.88h257.22Z"/>
      <path class="cls-1" d="m246.15,329.27c-25.34-23.81-73.44-39.88-128.61-39.88-47.96,0-90.57,12.15-117.54,30.97v8.92s246.15,0,246.15,0h0Z"/>
      <path class="cls-2" d="m573.85,134.59c-1.37,0-2.69.14-3.95.41-.64-8.5-9.33-15.23-19.96-15.23-8.82,0-16.31,4.64-18.96,11.07-2.98-1.43-6.45-2.25-10.16-2.25-10.9,0-19.76,7.08-19.99,15.88h32.05s7.93,0,7.93,0h17.78s8.41,0,8.41,0h22.11c-1.58-5.66-7.81-9.88-15.26-9.88h0Z"/>
      <path class="cls-2" d="m759.22,15.43c-1.27,0-2.49.13-3.67.38-.59-7.88-8.65-14.13-18.51-14.13-8.18,0-15.12,4.3-17.59,10.27-2.76-1.33-5.98-2.09-9.42-2.09-10.11,0-18.33,6.57-18.54,14.73h29.73s7.35,0,7.35,0h16.49s7.8,0,7.8,0h20.5c-1.47-5.25-7.25-9.17-14.15-9.17h0Z"/>
      <path class="cls-2" d="m313.97,84.01c4.78-3.17,10.79-4.36,18.05-3.55-8.17-3.81-14.62-3.14-19.34,2-4.72-5.08-11.15-5.72-19.28-1.93,7.2-.8,13.18.37,17.94,3.49h2.63s0,0,0,0h0Z"/>
      <path class="cls-2" d="m347.33,100.26c3.53-2.34,7.97-3.22,13.33-2.62-6.03-2.81-10.8-2.32-14.29,1.48-3.49-3.75-8.23-4.23-14.24-1.42,5.32-.59,9.74.27,13.25,2.57h1.94s0,0,0,0h0Z"/>
      <path class="cls-2" d="m364.92,121.41c3.53-2.34,7.97-3.22,13.33-2.63-6.03-2.81-10.8-2.32-14.29,1.48-3.49-3.75-8.23-4.23-14.24-1.42,5.32-.59,9.74.27,13.25,2.57h1.94s0,0,0,0h0Z"/>
      <path class="cls-1" d="m605.92,250.01c50.5,2.37,78.16,3.6,78.16,3.6l-3.36,4.91c-50.31-.16-69.84-.24-69.84-.24-3.3-5.52-4.95-8.28-4.95-8.28h0Z"/>
      <path class="cls-1" d="m678.19,238.41c-29.14,2.52-43.71,3.79-43.71,3.79,5.6-9.2,6.76-34.28,3.5-75.23,11.1,32.06,24.51,55.87,40.21,71.45h0Z"/>
      <path class="cls-1" d="m609.64,248.35c21.56-.47,32.34-.71,32.34-.71-3.94-11.84-5.88-33.05-5.83-63.64-17.68,42.9-26.51,64.35-26.51,64.35h0Z"/>
      <path class="cls-1" d="m840.12,329.27c-14.43-13.09-41.17-21.88-71.79-21.88-30.62,0-57.36,8.79-71.79,21.88h143.58Z"/>
      <path class="cls-2" d="m288.89,100.26c3.53-2.34,7.97-3.22,13.33-2.62-6.03-2.81-10.8-2.32-14.29,1.48-3.49-3.75-8.23-4.23-14.24-1.42,5.32-.59,9.74.27,13.25,2.57h1.94s0,0,0,0h0Z"/>
      <path class="cls-2" d="m270,121.41c3.53-2.34,7.97-3.22,13.33-2.63-6.03-2.81-10.8-2.32-14.29,1.48-3.49-3.75-8.23-4.23-14.24-1.42,5.32-.59,9.74.27,13.25,2.57h1.94s0,0,0,0h0Z"/>
      <path class="cls-1" d="m864.25,307.62c-2.84-.16-5.72-.24-8.64-.24-30.62,0-57.36,8.79-71.79,21.88h80.43s0-21.64,0-21.64h0Z"/>
      <path class="cls-1" d="m66.25,329.27C51.15,315.07,27.95,303.63,0,296.7v32.56s66.25,0,66.25,0h0Z"/>
      <path class="cls-2" d="m794.86,168.96c-1.14,0-2.23.12-3.28.34-.53-7.06-7.75-12.66-16.58-12.66-7.33,0-13.55,3.85-15.76,9.2-2.47-1.19-5.36-1.87-8.44-1.87-9.06,0-16.42,5.88-16.61,13.2h26.63s6.59,0,6.59,0h14.77s6.99,0,6.99,0h18.37c-1.31-4.7-6.49-8.21-12.68-8.21h0Z"/>
      <path class="cls-1" d="m781.1,329.27c-14.43-18.64-41.17-31.17-71.79-31.17s-57.36,12.52-71.79,31.17h143.58Z"/>
    </g>
  </g>
</svg>