<?xml version="1.0" encoding="UTF-8"?>
<svg id="Calque_2" data-name="Calque 2" xmlns="http://www.w3.org/2000/svg" width="499.72" height="363.78" xmlns:xlink="http://www.w3.org/1999/xlink" viewBox="0 0 499.72 363.78">
  <defs>
    <style>
      .cls-1 {
        fill: #951e3c;
      }

      .cls-1, .cls-2, .cls-3, .cls-4, .cls-5, .cls-6, .cls-7, .cls-8, .cls-9, .cls-10, .cls-11, .cls-12, .cls-13 {
        stroke-width: 0px;
      }

      .cls-2 {
        fill: #251b17;
      }

      .cls-3 {
        fill: #c92f51;
      }

      .cls-4 {
        fill: #66c1bf;
      }

      .cls-5 {
        fill: none;
      }

      .cls-6 {
        fill: #ec6d81;
      }

      .cls-7 {
        fill: #fff;
      }

      .cls-8 {
        fill: #f8aeb0;
      }

      .cls-14 {
        clip-path: url(#clippath);
      }

      .cls-9 {
        fill: #335572;
      }

      .cls-10 {
        fill: #941c3a;
      }

      .cls-11 {
        fill: #c83b58;
      }

      .cls-12 {
        fill: #9d2542;
      }

      .cls-13 {
        fill: #f7989c;
      }
    </style>
    <clipPath id="clippath">
      <rect class="cls-5" width="499.72" height="363.78" rx="25" ry="25"/>
    </clipPath>
  </defs>
  <g id="Calque_1-2" data-name="Calque 1">
    <g class="cls-14">
      <g>
        <path class="cls-11" d="m340.47,20.64c-.01.05-.03.11-.04.16-.07,0-.15,0-.22-.01.09-.05.17-.09.26-.14Z"/>
        <path class="cls-9" d="m236.6,376.83c-.03.15-.06.3-.09.45-.52,2.5-1.36,4.98-2.02,7.44-.52,1.94-1.44,3.22-2.42,4.91-.86,1.49-1.74,2.97-2.71,4.4-1.91,2.83-4.12,5.1-6.58,7.45-2.29,2.18-4.4,4.35-6.85,6.41-4.77,4.02-9.67,7.96-12.88,13.4-5.48,9.29-5.05,19.11-1.95,29.03.64,2.06,1.04,4.21,2.63,6.6-3.51-1.26-5.14-3.73-6.77-5.95-9.25-12.64-7.96-27.89-.26-40.38,2.2-3.56,4.79-6.84,7.42-10.09,6.51-8.05,15.24-16.84,14.29-28.18-.13-1.58-.39-3.14-.6-4.71-2.5-6.37-7.2-10.47-13.44-12.93-4.14-1.62-8.41-2.78-12.81-3.47-7.37-1.15-14.68-2.55-21.69-5.19-14.9-5.62-26.16-15.11-32.28-30.16-5.26-12.93-5.54-26.24-3.39-39.79,1.61-10.19,4.96-19.92,7.69-29.81,1.17-1.86,1.36-4.06,2-6.1,4.49-14.36,8.37-28.86,10.44-43.8.3-.34.4-.73.23-1.17.08-.53.17-1.06.25-1.59.73-2.56,1.13-5.17,1.14-7.83,1.26-4.27,1.81-8.67,2.29-13.06.73-6.55,1.34-13.13,1.63-19.71.16-3.62,1.29-7.59-.69-10.83-1.86-3.05-.99-5.39.49-7.84,1.59-2.65,4.19-3.41,7.12-3.02,3.44.47,5.7,2.78,7.75,5.3,4.97,6.12,13.3,7.51,15.23,15.01,2.14,8.32,5.64,19.22,6.23,27.83.7,10.34-3.8,23.64-4.78,33.86-.55,5.8-6.06,11.83-6.9,17.61-1.86,7.58-3.72,15.17-5.58,22.75-3.45,10.66-7.25,21.23-8.98,32.36-1.27,8.12-1.35,16.21,2.11,23.9,3.87,8.6,11.35,13.07,19.6,16.53,7.13,2.99,14.58,5.11,21.65,8.26,16.05,7.16,26.95,24.28,23.47,42.11Z"/>
        <path class="cls-4" d="m401.01,195.1c-4.04.06-5.65,2.59-6.64,6.12-.54,1.94-1.8,3.67-2.77,5.48-.51.97-.49,1.97-.31,3-2.02-.45-4-.86-6.08-.05-6.02,2.34-11.23,11.86-8.67,18.16-.79-.01-1.41.31-2,.83-3.16,2.73-6.33,5.44-9.52,8.13-.78.66-1.11,1.46-1.06,2.45-5.64-4.39-10.79-1.7-15.8,1.25-4.19,2.47-6.21,6.1-5.06,11.09-.94-1.09-1.98-1.13-3.29-.6-1.83.74-3.7,1.48-5.62,1.84-2.36.45-3.51,1.51-3.07,3.97-.67-.45-1.01-1.09-1.08-1.89-.15-1.71-1.27-2.57-2.71-3.3-7.31-3.71-16.14-1.78-21.48,4.74-.22.27-.64.37-.96.56-6.2.17-12.39-.08-18.55-.86-.23-.04-.46-.07-.69-.11-.31-.07-.63-.14-.94-.2-.58-.02-1.16-.03-1.74-.05-.71-2.53-2.16-4.59-4.27-6.06-6.97-4.84-14.21-6.04-21.79-1.34-3.17-1.46-6.49-2.54-9.59-4.18-5.09-2.7-10.04-5.62-14.71-9-.51-.37-1-1-1.74-.61-.72.38-.59,1.15-.54,1.78.12,1.4.33,2.8.51,4.2.19,6.15,1.36,12.16,2.83,18.11,3.79,15.38,11.2,28.33,24.91,37.04,4.53,2.88,9.15,5.64,13.64,8.58,18.1,11.84,24.58,27.65,22.31,48.67-.68,6.3-2.65,12.32-3.59,18.56-2.32,7.29-3.72,14.79-4.98,22.32-.55-3.69-.15-7.39-.16-11.08.07-.17.08-.34.03-.51.7-2.62.84-5.31.97-8,1.64-9.43,2.59-18.9,1.3-28.46-1.78-13.2-6.94-24.59-17.57-33.16-6.38-5.14-13.59-8.87-20.71-12.76-14.98-8.18-24.45-20.45-28.21-37.09-1.67-7.4-2.23-14.93-2.2-22.5.05-11.9.54-23.8.09-35.7-.05-1.32-.66-2.71.12-4.3.49.68.83,1.11,1.14,1.57,5.65,8.58,12.32,16.21,20.65,22.32,15.22,11.17,32.2,18,51.06,18.97,29.9,1.55,55.78-7.84,76.31-30.2,14.74-16.05,20.8-35.19,19.22-56.77-1.57-21.48-11.5-38.94-26.38-54.01-8.45-8.56-18.08-16.14-23.66-27.21-.27-.8-.52-1.6-.82-2.39-4.04-10.43-3.79-20.73.84-30.94,1.9-4.2,5.16-7.34,8.06-10.77,0,0,0,.02,0,.02,2.34-1.38,4.58-2.99,7.05-4.11,10.2-4.65,20.49-6.68,30.57.25,7.19,4.94,10.82,12.55,14.49,20.08-3.28-1.12-4.48-4.37-6.7-6.58-7.11-7.09-15.02-12.16-25.61-9.72-7.82,1.8-13.75,6.33-17.41,13.61-.68,1.35-.99,2.32.69,3.52,3.36,2.4,3.41,9.39.1,12.43-1.56,1.43-1.67,2.73-1.03,4.47.49,1.32.87,2.68,1.31,4.02.41,1.24,1.01,2.27,2.58,2.06.22,1.57.48,3.14.64,4.71.53,5.11,2.74,7.51,7.75,8.36.65.54,1.38,1.02,1.94,1.64,1.77,1.93,3.16,3.48,6.19,1.26,2.13-1.56,4.9-.46,6.8,1.68-.87.05-1.61-.23-2.41-.6-2.09-.96-3.82.43-5.47,1.29-1.59.82-.94,2.54-.92,4.05.04,3.37,2.68,4.99,4.33,7.3,1.6,2.24,3.91,1.88,5.88,1.31,1.79-.51,3.14-2.02,3.14-4.22,0-1.03.12-2.06.18-3.09,1.55,1.57.88,3.33.33,5.01-1.22,3.73,1.28,7.23,5.13,7.08-.73,1.65-3.34,1.92-3.11,4.3.16,1.67.16,3.36.34,5.03.67,6.29,6.73,10.21,11.88,7.7-.34,4.69,2.08,8.5,3.96,12.49-2.21,1.98-4.19,3.89-4.7,7.22-.57,3.72.53,7.08,1.24,10.49.63,3.07,3.23,4.04,6.35,3.55,3.06-.49,4.85-2.67,6.91-4.55.7-.05,1.41-.11,2.11-.16.61.45,1.17.42,1.7-.14,5.43-.95,10.91-1.05,16.37-.52,15.68,1.53,29.31,7.38,39.28,19.94,9.04,11.37,12.98,24.37,10.74,38.96-.06.37-.12.75-.18,1.12-.12.06-.16.16-.12.29-.16.64-.32,1.29-.48,1.93-.25.76-.5,1.52-.75,2.28-.33.78-.67,1.56-1.01,2.34-5.55,12.77-15.67,20.59-28.36,25.09-5.27,1.87-10.97,2.65-16.38,4.3-6.21,1.9-12.01,4.55-16.23,9.79-1.29,1.05-2.21,2.4-2.97,3.86-.19.36-.38.72-.58,1.09h0c-.66.37-.89,1.02-1.09,1.68-.52.47-.9,1.02-.9,1.76-.17.46-.33.92-.5,1.38-3.97,9.01-3.9,18.05.03,27.03,4.3,9.81,16.05,16.72,25.35,14.29.77-.2,1.66.07,2.5.13-1.38-.09-2.74,1.14-3.97,1.6-1.56.59-3.34.81-5,.9-6.71.36-12.76-2.76-17.78-7-2.08-1.76-3.96-3.76-5.54-5.98-3.19-4.48-5.09-9.75-5.78-15.19-1.39-10.91,1.15-21.18,7.8-30.16,3.83-5.17,9.1-8.32,15.2-10.15,3.82-.71,7.45-1.91,10.78-3.94,2.45-.03,4.16-.86,5.3-3.33,1.75-3.77,7.77-5.87,11.81-4.11,2.39,1.04,3.72-.27,5.37-1.29,1.67-1.04,3.15-1.78,2.61-4.5-.72-3.57,2.32-6.59,6.39-7.2,2.08-.31,5.08-4.76,4.56-6.79-.09-.33-.34-.66-.6-.91-4.62-4.3-4.61-9.36.19-13.36,1.17-.98,1.37-1.93.94-3.19-.52-1.52-1.09-3.02-1.63-4.52q-1.62-4.47-6.23-4.7c-5.9-.3-9.54-5.05-8.18-10.79.25-1.05.19-1.79-.61-2.53-1.75-1.62-3.91-2.63-5.88-3.91-.97-.63-1.75.12-2.57.58-5.7,3.16-12.45.79-14.8-5.24-.38-.97-.89-1.37-1.84-1.37-2.36-.01-4.72-.02-7.08-.03-1.06,0-1.73.36-2.07,1.48-1.13,3.72-4.16,4.93-7.59,5.3-1.96.22-3.96,0-5.94.03-.98.01-2.22-.45-2.64.95-.47,1.55.75,1.89,1.82,2.33.33.14.6.44.9.66-.64.07-1.45.42-1.9.15-2.59-1.52-4.47-.23-6.3,1.4-3.41,3.03-5.81,13.18-2.7,18.41.83,1.4,1.98,2.2,3.66,2.18,1.12-.02,2.25.07,3.37.11Z"/>
        <path class="cls-4" d="m154.79,197.11c-2.06,14.94-6.62,28.7-11.11,43.06-.64,2.04-.83,4.23-2,6.1-.15-1.09-.42-1.94-1.69-.88-3.74,3.13-7.42,6.32-11.51,8.99-1.15.75-.89,1.71-.59,2.72-2.06-.83-3.04-3.27-5.63-3.45-9.15-.64-18.14,7.23-18.58,16.39-.87-.57-1.74-.51-2.67-.12-3.81,1.6-7.19,3.98-10.81,5.94-.64.34-.77,1.02-.92,1.67-3.21-2.08-6.96-2.68-10.24-1.32-7.24,3-12.49,9.97-8.8,18.79-2.12,2.72-2.73,6.08-3.83,9.23-.56,1.59-.04,2.77,1.97,2.71.84-.03,1.69.02,2.39.6-1.22,0-2.44.05-3.66,0-3.02-.11-4.92,1.37-6.1,4.05-2.36,5.37-.35,9.92,2.86,14.06,3.13,4.03,7.45,4.11,11.97,2.84,2.17,1.75,4.58,2.94,7.37,3.3-.82,3.04-.43,5.6,2.26,7.76,4.28,3.44,9.21,3.63,14.17,2.87,3.48-.53,4.63-3.78,2.85-6.74-.53-.89-.47-1.78-.4-2.71,1.67.51,2.21,2,2.05,3.35-.38,3.26,1.6,3.63,4.02,4.03,7.18,1.19,13.88,3.72,19.57,8.31,6.76,5.45,11.78,12.91,13.94,21.34,2.03,7.94,1.29,16.4-1.29,24.14-.91,2.75-2.37,5.24-4.15,7.52-1.57,2.01-3.14,4.77-5.18,6.28-4.88,3.62-10.62,6.63-16.4,8.54-3.13,1.04-6.23,2.17-9.56,2.32.68-.43,1.35-.86,2.02-1.29,12.59-4.55,21.66-12.43,24.63-26.06,3.04-13.99-3.26-28.12-15.66-35.29-6.2-3.58-12.9-5.75-19.85-7.29-8.47-1.88-17.03-3.37-25.07-6.86-16.36-7.09-25.32-23.68-22.17-41.26,2.51-14.05,10.38-24.66,21.47-33.17,11.46-8.79,24.79-14.38,37.19-21.56,11.94-6.91,22.86-15.01,31.32-26.1,6.11-8.03,12.03-24.83,15.55-34.24.52,0,1.14.52,1.66.52-.08.53-.28,8.14-1.04,8.93"/>
        <path class="cls-9" d="m352.51,427.22c-3.91,3.8-9.22,6.58-13.43,7.45-16.25,3.34-36.06-4.16-42.31-20.43-4.04-10.5-3.99-21.84.14-32.3,4.07-10.34,11.32-18.21,17.9-26.95,1.24-1.65,2.37-3.37,3.51-5.08,1.03-1.55,2.02-3.13,3.01-4.7.49-.79.99-1.58,1.48-2.37.81-1.29,1.53-2.61,2.45-3.82.59-.78,1.1-1.61,1.56-2.47.92-1.72,1.64-3.54,2.44-5.32,8.5-18.95,4.42-40.82-10.44-55.35-9.16-8.96-20.32-14.56-32.29-18.71-.84-.29-1.97-.15-2.25-1.37.31.07.63.14.94.2.23.03.46.07.69.11,6.16.77,12.35,1.02,18.55.86.3,3.49,1.04,6.65,4.64,8.39,7.9,3.82,17.97.69,22.12-6.96,0,0,7.78,9.01,8.43,9.98,2.52,3.76,4.62,7.8,6.29,12,3.45,8.65,5.13,18,5.03,27.31-.11,10.47-2.7,20.81-7.09,30.29-2.57,5.56-5.92,10.71-9.57,15.62-2.62,3.53-5.39,7.09-8.38,10.37-1.42,1.56-3.05,3.07-4.59,4.57-1.65,1.6-3.01,3.31-4.47,5.07-1.63,1.97-3.23,3.95-4.73,6.02-2.89,3.99-5.41,8.36-6.59,13.19-.89,3.65-1.01,7.44-.29,11.13.83,4.26,2.06,7.38,4.89,10.64,6.62,7.6,14.37,11.45,24.47,12.01,6.92.38,12.8-2.44,18.34-6.05,1.88-1.22,2.53-3.9,4.94-5.03.41,4.29-1.95,8.41-5.39,11.75Z"/>
        <path class="cls-3" d="m344.84,31.01s0,.01,0,.02c0,0,0-.01,0-.02,0,0,0,0-.01,0ZM97.5,213.42s.01,0,.02,0c0,0,0-.02,0-.02l-.02.02Z"/>
        <path class="cls-11" d="m346.18,30.81c-.09.06-.19.11-.28.16.11.01.22.02.32.03-.01-.07-.03-.13-.04-.2Z"/>
        <path class="cls-9" d="m440.33,44.52c-5.41-.79-9.96,1.5-14.57,3.69-7.6,3.61-15.92,1.57-20.98-5.08-1.9-2.49-3.29-5.29-4.86-7.97-3.03-5.16-6.49-9.97-11.48-13.45-8.79-6.13-18.69-7.8-29.13-7-17.34,1.32-33.34,13.15-39.28,29.49-6.47,17.79-3.18,34.17,8.28,48.96,6.12,7.9,13.58,14.65,19.71,22.56,7.54,9.72,13.49,20.19,15.71,32.48.2.19-2,1.7-1.8,1.89-.01.01.71.68.69.69.13,4.88,1.5,7.67,1.25,12.6-.13,2.54,1.47,5.11.92,7.6-.67,5.52-2.3,10.77-4.59,15.82-.38.84-.56,1.81-1.48,2.3-4.04,7.4-9.87,13.19-17.01,17.4-20.09,11.84-41.05,14.29-62.79,4.72-5.63-2.48-10.79-5.78-15.52-9.73-5.28-4.85-10.77-9.52-14.23-16-2.63-1.37-3.55-4.09-4.88-6.42-3.97-6.94-7.13-14.2-9.59-21.86-2.55-7.94-4.74-15.99-7.39-23.9-.02-.77-.48-1.31-.75-1.99-1.64-4.04-3.35-7.09-5.92-10.55-1.36-1.83-2.58-3.76-4.04-5.52-.39-.47-.71-1.21-.69-1.8.15-3.59-.59-7.15-1.3-10.65-.52-2.54-.68-5.09-2.1-7.33-1.23-1.94-1.78-4.16-2.89-6.16-1.14-2.06-2.56-3.95-4.12-5.7-5.47-6.16-12.41-11.65-20.31-14.2-5.71-1.84-11.73-2.56-17.72-2.41-2.35.06-4.14-.66-5.92-2.08-9.55-7.62-19.76-14.22-30.78-19.53-25.32-12.2-51.85-16.53-79.64-11.73-17.51,3.02-32.8,11.08-46.91,21.59-11.71,8.72-24.06,16.23-37.88,21.29-8.58,3.14-14.96,8.75-16.72,18.33.71.63.05,2.81.17,3.65.48,3.15,3.73,4.42,6.85,3.74,5.43-1.19,10.74-2.65,16.31-2.39,7.16.33,13.3,2.45,18.28,8.1,5.6,6.36,10.26,13.33,16.62,19.01,13.45,12.02,30.14,16.46,47.98,14.85,10.16-.91,19.24-4.47,28.92-7.24.47-.48,1.07-.56,1.7-.59.95-.38,1.89-.75,2.84-1.13,1.27-.69,2.43-1.65,3.98-1.69.19-.57.39-1.13.58-1.7-4.18-12.05-5.12-24.18-1.44-36.6,2.67-9,6.89-16.83,14.42-22.74,6.71-5.27,14.56-7.48,22.73-8.55,4.62-.61,9.36-.61,14.08-.15,6.82.66,7.54,1.29,7.42,8,.75,2.23-.39,3.32-2.35,3.99-1.38.46-2.84.69-4.18.35-9.2-2.34-18.41-2.38-27.66-.42-1.26-.1-2.14.72-3.01,1.4-12.29,9.44-18.78,20.86-17.45,36.11.48,5.55-.73,11.79.97,16.96.03.16-1.66,2.47-1.66,2.63,1.94,1,3.34,2.78,4.29,4.43,2.08,3.64.92,4.6,2.08,8.72.19.38,5.08,1.77,5.26,2.15,1.11,1.31.96,2.41.9,4.15.02.34-5.07-3.04-5.05-2.7,1.05.45,2.06,1.6,2.08,2.7.04.39-1.7,2.31-1.66,2.7.16.37,4.41,2.13,4.57,2.49.03.38,1.43,1.49,1.45,1.87.63.65,2.77,1.06,2.7,1.87.02.38-1.06,2.11-1.04,2.49.94,1.41,2.18.97,2.28,2.49,1.29,3.95,1.4,6.99.83,10.8-1.82,12.12-4.12,24.9-11.46,34.78-.99,1.34-2.44,2.05-3.5,3.24.28.58-.05.71-.52.73-.89,3.43-3.86,5.21-6.17,7.42-3.29,3.15-6.78,6.15-10.76,8.46-1.79,1.96-4.17,3.07-6.35,4.46-3.43,1.82-6.48,4.32-10.13,5.76h-.01c-1.36.78-2.49,1.77-3.9,2.54-1.54.85-3.04,1.77-4.51,2.73-3.01,1.94-5.9,4.06-8.68,6.3-19.44,15.64-29.99,35.44-27.66,60.88,1.57,17.19,9.04,31.19,23.98,40.6,9.73,6.13,20.6,8.71,31.88,9.94,8.99.98,18.1.86,26.94,3.27,7.75,2.11,14.37,8.12,15.73,16.25,1.38,8.21-3.53,17.7-10.87,21.55-1.29.68-2.5,1.46-3.77,2.2-9.26,5.47-21.91,5.23-30.34-1.87-4.65-3.91-8.6-8.42-13.67-11.83-5-3.36-10.2-5.94-16.22-6.88-7.09-1.1-13.3.4-20.12,2.15-6.62,1.7-12.43,7.52-17.13,12.24-2.88,2.89-5.97,6.1-6.2,10.79,5.09-2.92,9.11-7.03,13.66-10.46,5.92-4.47,12.71-6.6,19.75-7.26,9.75-.91,18.16,2.78,25.23,9.63,3.16,3.06,5.87,6.53,9.26,9.39,2.7,2.28,5.7,4.04,8.81,5.51,5.58,2.64,11.62,2.92,17.69,2.58,3.37-.19,6.81.33,10.08-1,.68-.43,1.35-.86,2.02-1.29,12.59-4.55,21.66-12.43,24.63-26.06,3.04-13.99-3.26-28.12-15.66-35.29-6.2-3.58-12.9-5.75-19.85-7.3-8.47-1.88-17.03-3.37-25.07-6.86-16.36-7.09-25.32-23.68-22.17-41.26,2.51-14.05,10.38-24.67,21.47-33.17,11.46-8.79,24.79-14.38,37.19-21.56,11.93-6.91,22.86-15.01,31.32-26.1,6.11-8.03,10.58-16.91,14.1-26.32.67-2.69,1.18-5.44,2.71-7.83,1.26-4.27,1.81-8.67,2.29-13.06.73-6.55,1.34-13.13,1.63-19.71.16-3.62,1.29-7.59-.69-10.83-1.86-3.05-.99-5.39.49-7.84,1.59-2.65,3.22-3.05,6.15-2.65,3.44.47,4.88,2.6,6.92,5.12,4.97,6.12,6.24,13,8.17,20.5,2.14,8.32,6.5,16.93,7.08,25.54.7,10.34-.2,20.53-1.18,30.75-.55,5.8-1.64,11.56-2.49,17.33.56,5.24.95,10.5,1.73,15.7,1.88,12.57,5.03,24.75,11.6,35.83,8.54,14.41,21.06,24.19,36,31.19,6.92,3.24,14.11,5.87,20.89,9.41,8.66,4.52,15.85,10.52,20,19.63.03.97.81,1.79.51,2.82-.21.71.95,2.96,1.16,3.73.4,1.48.73,2.97.97,4.49.45,2.9.51,5.67.4,8.59-.41,10.57-2.01,22.11.24,32.55.81,3.76,1.56,7.49,2.91,11.1,1.45,3.85,3.06,7.71,3.9,11.7,1.4,6.67-2.08,12.12-7.49,15.8-2.17,1.48-4.51,2.7-6.45,4.51-.45.42-.75.87-.52,1.48,1.19,3.22,13.47-4.72,14.8-5.75,2.56-1.98,4.98-4.57,6.03-7.69,1.98-5.91-.23-12.67-2.04-18.34-1.43-4.49-1.79-9.14-2.94-13.64-.55-3.69-.15-7.39-.16-11.08.07-.17.08-.34.03-.51.7-2.62.84-5.31.97-8,1.64-9.43,2.59-18.9,1.3-28.46-1.78-13.2-6.95-24.59-17.57-33.16-6.38-5.14-13.59-8.87-20.71-12.76-14.98-8.18-24.45-20.45-28.21-37.09-1.67-7.4-2.23-14.93-2.2-22.5.05-11.9.54-23.79.09-35.7-.05-1.32-.66-2.71.12-4.3.49.68.83,1.11,1.14,1.57,5.65,8.58,12.32,16.21,20.65,22.32,15.22,11.17,32.19,18,51.06,18.97,29.9,1.55,55.78-7.84,76.31-30.2,14.74-16.05,20.81-35.19,19.22-56.77-1.57-21.48-11.5-38.94-26.38-54.01-8.45-8.56-18.08-16.14-23.66-27.21-2.13-.88-2.73-3.13-3.1-4.8-1.43-6.56-1.98-13.11-.7-19.97.79-4.22,2.09-8.07,3.75-11.9,1.13-2.6,3.31-4.53,4.95-6.8.56-.78,1.41-.81,2.27-.73.19.02.38.04.57.06.09-.05.19-.11.28-.16,2.09-1.22,4.14-2.54,6.35-3.49,10.3-4.41,20.64-6.21,30.55.95,7.07,5.11,10.53,12.79,14.02,20.41v.02c.14.22.27.44.4.67l.04.06c.32.03.48.19.44.52,8.6,10.12,20.16,11.26,30.39,2.94,2.42-1.97,4.88-3.84,7.83-4.95,1.53-1.2,3.29-1.2,5.09-.96.75.03,1.5.05,2.26.08.55-.24,1.27-.29,1.28-1.14-1.49-.49-2.89-1.17-4.51-1.4Zm-340.19,8.42c-4.21,2.37-8.84,2.37-13.5,2.09-9.42-.56-18.76-2.07-28.22-2.01-11.9.08-23.41,2.57-34.84,5.61-1.44.38-2.89.74-4.34,1.11,2.13-2.67,4.83-4.54,7.7-6.1,20.67-11.26,42.57-14.86,65.72-10.25,2.79.56,5.46,1.53,7.8,3.23,2.68,1.95,2.61,4.65-.31,6.3Zm28.11,70.12c-9.02-.16-15.84-7.31-15.79-16.53.07-10.78,8.23-18.96,18.8-18.83,9.76.12,16.34,7.06,16.3,17.21-.04,9.97-8.95,18.34-19.31,18.16Zm64.17-16.66c-.91-.81-1.72-1.74-2.57-2.61-3.5-4.14-5.97-8.62-4.65-14.33-.37-3.57,2.03-6.37,5.5-6.19,5.64.3,8.96,3.81,11.38,8.5,2.39,4.62,2.53,9.27-.2,13.72-1.91,3.11-6.63,3.44-9.47.92Zm11.65,38.03c-.83-1.77-2.08-3.34-3.17-4.98-.55-.84-1.66-1.74-.57-2.66.95-.8,1.62.43,2.32.99,4.62,3.69,6,9.19,7.86,14.38.94,2.61,1.52,5.38,1.56,8.23-2.07-5.63-5.47-10.57-8-15.95Z"/>
        <path class="cls-10" d="m97.52,213.4s0,.01-.01.02l.02-.02s0,0-.01,0Z"/>
        <path class="cls-9" d="m152.47,70.33c-6.63-1.54-14.8-2.87-21.57-1.72-4.99.84-10,1.68-14.12,5.01-1.26-.1-2.14.72-3.01,1.4-12.29,9.44-17.04,22.01-15.71,37.26.48,5.55,2.48,10.59,4.19,15.77.03.16.04.32.03.49,1.95,1,2.28,3.14,3.23,4.79,2.08,3.64,4.66,7.03,5.82,11.16.19.38.37.76.56,1.14,1.11,1.31,1.77,2.78,1.7,4.53.02.34.04.68.05,1.02,1.05.44,1.48,1.28,1.5,2.38.04.39.07.78.11,1.16.16.37.33.73.49,1.1.03.38.05.77.08,1.15.63.65.59,1.45.52,2.25.02.38.05.77.07,1.15.94,1.41.48,3.01.58,4.53,1.29,3.95.3,7.95-.27,11.77-1.82,12.12-6.53,23.13-13.86,33.01-.99,1.34-2.44,2.05-3.5,3.24-.17.24-.35.47-.52.71-1.11.51-2.25.95-3.31,1.54-6.31,3.55-13.08,5.92-20.07,7.61-18.17,4.39-36.38,2.99-54.58.17-9.42-1.46-18.79-3.25-28.42-1.97-8.42,1.12-15.84,4.27-21.9,10.26-8.32,8.22-11.51,18.63-12.28,29.96-.52,7.69.94,15.25,1.97,22.81,1.85,13.45-2.28,23.01-13.44,29.19-8.44,4.67-17.62,5.37-26.97,3.46-10.56-2.15-21.14-9.27-19.49-22.88.02-.17-.09-.36-.14-.54.72-3.92,2.05-7.57,4.74-10.98-.49,3-1.05,5.67-1.34,8.37-1.26,11.41,4.5,19.01,15.83,20.85,5,.81,9.98.58,14.85-.94,10.12-3.17,14.81-10.58,12.93-21.05-1.27-7.05-3.16-13.98-4.53-21.02-2.34-12.02-2-23.94,2.79-35.35,8.21-19.57,23.27-30.56,43.94-34.21,11.93-2.11,23.72-.49,35.49,1.41,15.6,2.52,31.17,3.36,46.61-1.01,3.62-1.02,7.21-2.17,10.67-3.64,1.75-.74,3.46-1.56,5.11-2.49,3.4-1.9,6.61-4.12,9.69-6.51,1.26-.98,2.52-1.91,3.69-3.01,1.46-1.38,2.63-2.98,3.89-4.53l-.02.04c1.55-1.66,2.78-3.52,3.6-5.64,2.79-5.53,1.22-10.34-4.35-13.19-6.59-3.37-13.45-2.76-20.18-.85-12.46,3.53-24.89,6.1-37.97,3.84-21.98-3.79-38.31-15.11-48.36-35.21-2.85-5.69-4.85-11.67-6.69-17.72-.24-.78-.25-1.99-1.17-2.06-1.17-.09-1.22,1.25-1.54,2.05-1.18,3.01-1.73,6.17-1.82,9.4-.29,10.22,2.15,19.86,6.46,29.03,1.09,2.31.79,3.21-1.77,3.23-.26,0-.52.19-.78.3-11.49.64-21.55-2.66-29.27-11.41-9.87-11.16-13.11-24.58-12.38-39.15.11-2.23.14-4.55,1.19-6.64.71.63.66,1.5.79,2.34.48,3.15,2.94,4.93,6.07,4.25,5.43-1.19,10.87-2.71,16.44-2.45,7.16.33,13.5,2.72,18.47,8.37,5.6,6.36,10.51,13.34,16.87,19.02,13.45,12.02,29.22,16.32,47.06,14.72,10.16-.91,16.87-6.77,26.55-9.54.47-.48,1.87-1.35,2.49-1.38.95-.38,1.55-.59,2.49-.97,1.27-.69,2.19-.52,3.74-.55.19-.57,3.07,1.39,3.27.83-4.18-12.05-5.12-24.18-1.44-36.6,2.67-9,4.07-18.49,11.6-24.4,6.71-5.27,16.76-8.21,24.93-9.28,4.62-.61,9.89.1,14.61.55,6.82.66,9.13,3.6,9,10.32Z"/>
        <path class="cls-9" d="m364.13,148.82c.13,4.88,1.39,9.67,1.14,14.6-.13,2.54-.08,5.08-.62,7.58-1.02,0-1.72.72-2.54,1.15-13.09,6.93-26.17,13.84-40.47,18.11-15.7,4.7-31.57,6.23-47.79,3.61-8.74-1.41-16.96-4.37-24.83-8.36-2.63-1.37-3.55-4.09-4.88-6.42-3.97-6.94-7.13-14.2-9.59-21.86-2.55-7.94-4.74-15.99-7.39-23.89.27-.16.54-.33.8-.5,5.04,8.33,10.32,16.51,17.28,23.41,12.48,12.38,27.87,16.79,45.04,15.91,16.55-.85,32.04-5.95,47.15-12.32,8.76-3.7,17.38-7.75,26.06-11.65.21.21.42.41.63.62Z"/>
        <path class="cls-4" d="m-10.22,152.24c.26-.1.52-.29.78-.3,2.56-.02,2.85-.93,1.77-3.23-4.32-9.17-6.76-18.81-6.46-29.03.09-3.24.64-6.39,1.82-9.4.31-.8.37-2.14,1.54-2.05.93.07.93,1.27,1.17,2.06,1.84,6.05,3.84,12.03,6.69,17.72,10.06,20.1,26.38,31.42,48.36,35.21,13.08,2.26,25.51-.31,37.97-3.84,6.73-1.91,13.59-2.52,20.18.85,2.5,1.28,4.75,3.3,5.47,6.11.34,1.35.29,2.75,0,4.1-.37,1.66-.73,2.47-2.04,3.19-6.83,3.73-15.23,5.35-22.62,7.64-20.98,6.51-41.76,6.95-61.94-2.89-11.32-5.52-20.74-13.37-27.13-24.42-1.45-2.51-3.72-1.1-5.55-1.71Z"/>
        <path class="cls-4" d="m-100,293.35c.05.18.16.37.14.54-1.65,13.61,8.93,20.73,19.49,22.88,9.35,1.91,18.53,1.21,26.97-3.46,11.16-6.18,15.29-15.74,13.44-29.19-1.04-7.56-2.5-15.12-1.97-22.81.77-11.33,3.95-21.74,12.28-29.96,6.06-5.99,13.48-9.14,21.9-10.26,9.63-1.28,19,.51,28.42,1.97,18.2,2.83,36.41,4.23,54.58-.17,6.99-1.69,13.76-4.06,20.07-7.61,1.06-.6,2.21-1.03,3.32-1.55-.88,3.44-3.86,5.23-6.17,7.44-3.29,3.15-6.78,6.15-10.76,8.46-1.68,0-3.28.46-4.9.84-2.33.53-2.55,1.78-1.45,3.63-3.43,1.82-6.48,4.32-10.13,5.76-1.28-1.14-2.89-.54-4.34-.79-2.59-.46-4.73-1.43-5.42-4.22-.28-1.15-1-1.53-2.03-1.57-1.51-.07-3.02-.05-4.53-.16-1.62-.12-2.72.25-3,2.12-.29,1.93-1.85,2.87-3.49,3.35-3.63,1.06-7.29.89-10.85-.4-2.51-.91-4.18-2.55-4.19-5.42,0-.91-.11-1.73-1.23-1.89-1.87-.27-3.73-.55-5.6-.78-.91-.12-1.68.08-1.97,1.13-.8,2.87-3.19,3.56-5.68,3.91-2.77.39-5.46-.13-8.02-1.26-2.14-.95-3.65-2.46-3.61-4.94.03-1.92-.94-2.2-2.5-1.99-1.12.15-2.26.29-3.39.25-2.5-.09-4.13.43-3.92,3.55.11,1.66-1.28,2.9-2.76,3.69-3.75,1.99-7.53,3.78-11.51.49-.44-.36-.91-.34-1.28,0-1.66,1.53-3.31,3.08-4.91,4.68-.56.56-.22,1.15.13,1.79,2.95,5.44.41,11.03-5.49,12.12-.28.05-.6.02-.82.16-1.37.8-2.12,8.55-.94,9.56,3.81,3.24,3.92,9.46.05,12.83-1.34,1.17-.83,2.36-.71,3.6.86,9.08-.58,17.81-5.12,25.71-6.58,11.45-16.91,16.5-29.97,16.29-6.24-.1-12.08-1.48-17.59-4.59-7.75-4.37-12.59-14.93-10.51-23.73Z"/>
        <path class="cls-9" d="m489.51,200.1c.03-9.52-2.2-19.1-6.41-27.71-5.16-10.55-13.37-19.23-23.03-25.81-13.67-9.31-29.14-12.45-45.48-11.99-5.38.15-10.66,1.12-15.97,1.84,7.65,2.58,10.26,7.62,8.62,16.65.7-.05,1.41-.11,2.11-.16.57-.05,1.13-.09,1.7-.14,5.43-.95,10.91-1.05,16.37-.52,15.68,1.53,29.31,7.38,39.28,19.94,4.31,5.43,7.61,11.67,9.48,18.35.94,3.35,1.52,6.8,1.72,10.28.11,1.82.11,3.64.02,5.46-.2,3.87-.48,6.9-2.02,10.49-.33.78-.67,1.56-1.01,2.34-5.55,12.77-15.67,20.59-28.36,25.09-5.27,1.87-10.97,2.65-16.38,4.3-3.94,1.21-7.81,2.84-11.29,5.07-8.98,5.75-14.12,17.13-13.98,27.6.07,4.76,1.12,9.54,3.03,13.9,4.3,9.81,16.05,16.72,25.35,14.29.77-.2,1.66.07,2.5.13,2.16-1.47,4.3-2.98,6.5-4.39.65-.42,2.11-2.29.79-2.85-.29-.12-.62-.09-.93-.05-2.22.32-4.31,1.22-6.48,1.77-5.92,1.5-13.41.64-17.95-3.77-3.75-3.65-5.98-9.05-6.27-14.24-.39-6.96,1.46-13.41,4.73-19.5,4.41-6.19,10.74-9.24,17.87-11.07,9.03-2.33,18.28-3.93,26.78-7.98,8.21-3.91,15.26-10.03,20.19-17.68,5.75-8.93,8.46-19.25,8.5-29.63Zm-73.51,65.7s.03.07.05.1c-.02-.04-.03-.07-.05-.1Zm.12.35s.02.09.03.14c0-.05-.02-.1-.03-.14Z"/>
        <polygon class="cls-1" points="478.52 212.29 478.52 212.29 478.52 212.29 478.52 212.29"/>
        <path class="cls-11" d="m345.9,30.98c-.17.1-.34.19-.51.29-.02-.12-.04-.24-.06-.35.19.02.38.04.57.06Z"/>
        <path class="cls-12" d="m411.64,263.22h0s.02,0,.03.01c-.01,0-.02,0-.03-.01Z"/>
        <path class="cls-7" d="m398.62,136.43c7.65,2.58,10.26,7.62,8.62,16.65-2.06,1.88-3.85,4.06-6.91,4.55-3.11.5-5.71-.47-6.35-3.55-.7-3.41-1.81-6.77-1.24-10.49.51-3.34,2.49-5.24,4.7-7.22.39.02.78.05,1.17.07Zm1.57,6.78c-1.06,2.98-.09,5.4.17,7.85.05.47.32.96.9.78.28-.09.61-.51.63-.8.19-2.59.43-5.21-1.7-7.82Z"/>
        <path class="cls-7" d="m393.49,123.87c-5.14,2.51-11.21-1.41-11.88-7.7-.18-1.67-.18-3.36-.34-5.03-.23-2.38,2.38-2.65,3.11-4.3.91-.66,1.98-.69,2.99-.52,4.6.77,6.69,4.17,8.13,8.1,1.28,3.51,1.22,6.84-2.01,9.45Zm-2.31-6.63c-.27-1.81-1.21-3.4-2.5-4.79-.32-.35-.82-.46-1.29-.23-.51.25-.62.73-.41,1.18.73,1.61,1.47,3.21,2.31,4.76.24.44.74.94,1.39.67.65-.28.46-.94.52-1.59Z"/>
        <path class="cls-7" d="m378.62,94.86c.35.98.13,1.92.13,2.98,0,2.21-1.35,3.71-3.14,4.22-1.98.56-4.28.93-5.88-1.31-1.65-2.31-4.29-3.93-4.33-7.3-.02-1.52-.67-3.23.92-4.05,1.65-.86,3.38-2.25,5.48-1.29,3.04,1.4,5,3.27,6.64,6.32.08.14.14.29.19.43Z"/>
        <path class="cls-7" d="m359.27,84.13c-5.01-.85-7.22-3.25-7.75-8.36-.15-1.42-.63-2.89-.5-4.31,0,.11,2.08-.7,2.2-.73,2.66-.56,5.06,1.66,6.4,3.73,1.62,2.49,1.5,5.46.23,8.07-.25.5-.38,1.06-.57,1.59Zm-2.26-5.52c-.55-1.29-1.54-2.41-2.94-3.05-.51-.23-.87.47-.67.9.65,1.39,1.09,3.06,2.79,3.52.6.16.87-.57.81-1.38Z"/>
        <path class="cls-8" d="m396.95,47.27c.14.22.28.44.42.66-.14-.22-.28-.44-.42-.66Z"/>
        <path class="cls-8" d="m378.71,93.81c-.16-.2-.33-.4-.49-.6.16.2.33.4.49.6Z"/>
        <path class="cls-8" d="m356.74,71.64c-.23-.13-.46-.25-.68-.38.23.13.46.25.68.38Z"/>
        <path class="cls-8" d="m355.92,71.16c-.16-.08-.3-.19-.41-.33.14.11.27.22.41.33Z"/>
        <path class="cls-6" d="m63.45,239.99c-.22.14-.44.28-.65.42.22-.14.44-.28.65-.42Z"/>
        <path class="cls-6" d="m64.09,239.52c-.22.16-.43.32-.65.47.22-.16.43-.32.65-.47Z"/>
        <path class="cls-7" d="m331.2,258.38c-4.15,7.66-14.21,10.78-22.12,6.96-3.6-1.74-4.35-4.9-4.64-8.39.33-.18.74-.29.96-.56,5.34-6.51,14.17-8.44,21.48-4.74,1.44.73,2.56,1.58,2.71,3.3.07.8.4,1.44,1.08,1.89.18.51.35,1.02.53,1.53Zm-14.8,2.52c1.16-.07,2.31-.05,3.42-.24.98-.16,1.82-.72,1.75-1.88-.08-1.32-1.14-1.37-2.09-1.31-1.12.07-2.24.28-3.36.46-1.48.25-4.11-.56-4.08,1.27.04,2.44,2.79,1.3,4.37,1.68Z"/>
        <path class="cls-7" d="m341.92,251.86c-1.15-4.99.87-8.62,5.06-11.09,5.01-2.95,10.16-5.65,15.8-1.25,2.61,6.16,1.41,9.8-4.31,13.56-2.91,1.91-6.01,3.22-9.5,3.18-2.06-.02-4.14-.44-5.5-2.33-.08-.66-.44-1.09-1.03-1.36,0,0,0-.02,0-.02-.15-.19-.3-.38-.44-.57l-.07-.11Zm9.36-1.55c1.83-.55,3.71-1.75,5.45-3.16.53-.42.58-1.22.22-1.84-.43-.74-1.12-.47-1.76-.31-1.95.51-3.58,1.66-5.27,2.68-.67.41-1.32.89-.99,1.79.33.88,1.2.76,2.34.83Z"/>
        <path class="cls-7" d="m375.36,228.1c-2.56-6.3,2.65-15.83,8.67-18.16,2.08-.81,4.06-.39,6.08.05.19.11.37.22.55.32.07.09.15.18.24.25.45.47.98.89,1.34,1.43,2.24,3.34,1.44,8.71-1.9,13.08-3.78,4.95-7.82,6.69-12.18,5.26-.22-.13-.43-.27-.65-.4-.35-.21-.7-.43-1.04-.64-.09-.64-.46-1.02-1.08-1.16l-.02-.03Zm11.71-10.8c.04-.45-.2-.83-.99-.58-.95.3-4.02,4.95-3.93,5.93.09.93.42,1.54,1.41.85,2.06-1.43,2.97-3.57,3.51-6.2Z"/>
        <path class="cls-7" d="m399.76,195.07c-.96.21-2.01.19-3.3.21-1.69.02-2.83-.78-3.66-2.18-3.11-5.22-.71-15.38,2.7-18.41,1.83-1.63,3.71-2.92,6.3-1.4.45.26,1.26-.09,1.9-.15,0,0,0,.01,0,.02.78,2.84,3.26,4.22,3.37,7.46.07,2.04-.48,4.05-1.09,5.99-.71,2.28-1.56,4.65-3.14,6.49-1.03,1.2-1.99,1.73-3.09,1.97Zm1.64-13.34c0-.24.02-.8,0-1.37-.02-.48-.11-1-.67-1.09-.51-.08-.99.27-1.1.71-.51,2.27-1.78,4.37-1.6,6.79.04.56.05,1.21.71,1.39.78.21,1.22-.35,1.54-.94.86-1.61,1.23-3.35,1.12-5.5Z"/>
        <path class="cls-8" d="m375.38,228.13c.62.14.99.52,1.08,1.16-.66-.1-1.04-.47-1.08-1.16Z"/>
        <path class="cls-8" d="m342.43,252.56c.59.26.96.7,1.03,1.36-.56-.29-.95-.7-1.03-1.36Z"/>
        <path class="cls-8" d="m377.51,229.93c.22.13.43.27.65.4-.22-.13-.43-.27-.65-.4Z"/>
        <path class="cls-8" d="m341.98,251.97c.15.19.3.38.44.57-.15-.19-.3-.38-.44-.57Z"/>
        <path class="cls-8" d="m404.29,173.68c-.2-.17-.39-.35-.59-.52.2.17.39.35.59.52Z"/>
        <path class="cls-8" d="m390.9,210.56c-.1-.07-.18-.15-.24-.25,0,0,.19.05.19.05l.05.19Z"/>
        <path class="cls-4" d="m184.26,230.92c.56,5.24.95,10.5,1.73,15.7,1.88,12.57,5.03,24.75,11.6,35.83,8.54,14.41,21.06,24.19,36,31.19,6.92,3.24,14.11,5.87,20.89,9.41,8.66,4.52,15.85,10.52,20,19.63.03.97.82,1.79.51,2.82-4.59-4.19-9.01-8.51-14.67-11.4-7.11-3.63-14.72-5.81-22.19-8.37-15.14-5.19-28.83-12.68-39.84-24.47-5.37-5.76-9.39-12.43-12.34-19.8-3.23-8.09-5.8-16.29-5.91-25.09-.01-1.12-.48-2-1.35-2.68,1.86-7.58,3.72-15.17,5.58-22.75Z"/>
        <path class="cls-4" d="m284.26,255.71c.28,1.22,1.41,1.08,2.25,1.37,11.97,4.16,23.13,9.75,32.29,18.71,14.85,14.53,18.94,36.39,10.44,55.35-1.38,3.07-2.53,6.28-4.86,8.83,1.23-5.01,3.11-9.84,3.67-15.06,2.23-20.79-5.74-36.76-22.64-48.57-7.17-5.01-15.07-8.56-23.42-11.12-.99-.3-1.93-.75-2.89-1.12-.45-.48-1.01-.61-1.64-.49-.18-.02-.36-.08-.52-.16.44-.66,1.23-.81,1.81-1.23,2.24-1.6,4.33-3.33,3.78-6.56.58.02,1.16.03,1.74.05Z"/>
        <path class="cls-7" d="m282.52,255.66c.55,3.23-1.54,4.96-3.78,6.56-.59.42-1.38.56-1.81,1.23-5.06.18-9.94-.45-14.62-2.57-2.74-1.24-4.51-3.65-6.95-5.23,1.15-.41,1.07-1.39,1.07-2.33,0-1.68.02-3.36.03-5.05,7.58-4.7,14.82-3.5,21.79,1.34,2.12,1.47,3.57,3.53,4.27,6.06Zm-10.76,1.75c1.11-.32,2.78.37,3.09-1.28.3-1.61-1.32-1.89-2.44-2.19-2.18-.59-4.4-1-6.61-1.46-.72-.15-1.63-.5-2.06.3-.47.89.21,1.71.88,2.17,2.12,1.49,4.61,2.01,7.14,2.47Z"/>
        <path class="cls-9" d="m256.46,248.26c-.01,1.68-.03,3.36-.03,5.05,0,.94.07,1.92-1.07,2.33-8.19-3.28-15.61-7.85-22.47-13.37-.8-.65-1.66-1.22-2.5-1.82-.17-1.4-.39-2.8-.51-4.2-.05-.63-.18-1.4.54-1.78.74-.39,1.22.24,1.74.61,4.67,3.38,9.61,6.3,14.71,9,3.1,1.64,6.42,2.73,9.59,4.18Z"/>
        <path class="cls-4" d="m338.62,76.11c-2.13-.88-4.57-4.13-4.94-5.8-1.43-6.56-1.98-13.11-.7-19.97.79-4.22,2.09-8.07,3.75-11.9,1.13-2.6,3.31-4.53,4.95-6.8.76-1.06,4.85-1.85,5.97-1.75-2.89,3.43-7.97,8.26-9.87,12.46-4.62,10.21-4.46,19.38-.42,29.81.3.78.97,3.15,1.25,3.95Z"/>
        <path class="cls-11" d="m411.66,263.23s-.02,0-.03-.01h0s.02,0,.03.01Z"/>
        <polygon class="cls-1" points="478.52 212.29 478.52 212.29 478.52 212.29 478.52 212.29"/>
        <path class="cls-6" d="m285.16,256.32c-.23-.04-.46-.07-.69-.11.23.04.46.07.69.11Z"/>
        <path class="cls-7" d="m103.37,270.04c.44-9.16,9.43-17.03,18.58-16.39,2.58.18,3.57,2.62,5.63,3.45,1.4,3.31.97,6.46-1.08,9.34-4.08,5.74-9.64,8.8-16.73,8.74-3.58-.03-5.44-1.66-6.4-5.13Zm18.05-7.37c-.33-1.49-1.15-1.6-2.26-.96-2.35,1.36-4.7,2.71-7.01,4.12-.81.5-1.6,1.21-1.04,2.29.53,1.02,1.61,1,2.48.64,2.72-1.1,5.12-2.7,7.08-4.92.3-.34.5-.77.76-1.17Z"/>
        <path class="cls-7" d="m69.2,294.99c-3.69-8.82,1.57-15.79,8.8-18.79,3.28-1.36,7.04-.76,10.24,1.32.48.7.96,1.41,1.44,2.11-.39,2.13.52,4.27-.07,6.39-.43,5.57-8.04,10.9-13.34,11.25-2.69.18-5.01-.6-7.07-2.28Zm7.51-3.59c2.16-.1,7.08-5.1,7.06-7.2-.01-1.1-.71-1.79-1.61-1.06-2.34,1.89-4.77,3.71-6.72,6.04-.38.45-.59.99-.2,1.55.35.5.86.71,1.47.68Z"/>
        <path class="cls-7" d="m74.79,328.48c-4.52,1.27-8.84,1.19-11.97-2.84-3.21-4.14-5.22-8.69-2.86-14.06,1.18-2.68,3.08-4.16,6.1-4.05,5.87.22,9.91,3.37,11.3,9.38.47,2.03.5,4.16.05,6.2-.25,1.14-1.31,5.01-2.62,5.38Zm-2.8-8.35c-.42-1.95-.97-4.23-2.53-6.11-.53-.65-1.23-.89-2.02-.61-.71.25-1.08.85-.88,1.57.66,2.36,1.27,4.75,2.9,6.68.43.51.94,1.06,1.67.78.86-.32.83-1.16.85-2.31Z"/>
        <path class="cls-7" d="m101.03,332.96c-.06.93-.13,1.83.4,2.71,1.78,2.96.64,6.21-2.85,6.74-4.95.75-9.88.56-14.17-2.87-2.69-2.16-3.08-4.72-2.26-7.76.26-.34.53-.68.79-1.02.14-.15.28-.29.43-.44.37-.21.75-.42,1.12-.63.25.16.41.07.49-.2.4-1.28,4.87-.99,5.82-.88,2.13.23,4.1,1.18,6.03,2.07.28.13,4.11,2.34,4.15,2.31,0,0,.04-.03.04-.03Zm-5.61,3.94c.73,0,1.6.13,1.89-.78.27-.84-.21-1.46-.93-1.85-2.11-1.13-4.43-1.47-6.77-1.68-.57-.05-1.15.19-1.33.82-.15.52.2.86.63,1.12,2.01,1.23,4.08,2.29,6.51,2.36Z"/>
        <path class="cls-8" d="m84.99,329.49c-.08.27-.24.36-.49.2.15-.09.32-.16.49-.2Z"/>
        <path class="cls-8" d="m83.38,330.32c-.14.15-.29.29-.43.44.14-.15.29-.29.43-.44Z"/>
        <path class="cls-8" d="m100.98,332.99c-.2-.19-.39-.38-.59-.56.2.19.39.38.59.56Z"/>
        <path class="cls-13" d="m277.45,263.61c.63-.12,1.19.01,1.64.49-.62.08-1.21.06-1.64-.49Z"/>
        <path class="cls-4" d="m249.02,185.51c7.87,3.98,16.09,6.95,24.83,8.36,16.22,2.62,32.09,1.09,47.79-3.61,14.3-4.28,27.38-11.18,40.47-18.11.82-.43,1.52-1.15,2.54-1.15-.67,5.52-2.3,10.77-4.59,15.82-.38.84-.56,1.81-1.48,2.3-.61-.66-1.14-.27-1.74.08-1.8,1.03-3.61,2.05-5.45,3.01-27.31,14.21-55.71,18.74-85.65,9.63-.81-.25-1.62-.51-2.49-.32-5.28-4.85-10.78-9.52-14.23-16Z"/>
        <path class="cls-4" d="m19.18,59.74c2.13-2.67,4.84-4.54,7.7-6.1,20.67-11.26,42.57-14.86,65.72-10.25,2.79.56,5.46,1.53,7.8,3.23,2.68,1.95,2.61,4.65-.31,6.3-4.21,2.37-8.84,2.37-13.5,2.09-9.42-.56-18.77-2.07-28.22-2.01-11.9.08-23.41,2.57-34.84,5.62-1.44.38-2.89.74-4.34,1.11Z"/>
        <path class="cls-4" d="m147.57,104.9c-.04,9.97-8.95,18.34-19.31,18.16-9.02-.16-15.84-7.31-15.79-16.53.07-10.78,8.23-18.96,18.8-18.83,9.76.12,16.34,7.06,16.3,17.21Zm-26.13-.29c-.02,5.61,4.15,9.96,9.65,10.05,6.27.1,11.44-4.74,11.48-10.75.04-5.77-4.62-10.03-10.99-10.03-5.51,0-10.12,4.87-10.14,10.73Z"/>
        <path class="cls-2" d="m189.86,103.78c-3.5-4.14-5.97-8.62-4.65-14.33,3.1-2.4,5.75-2.72,8.56-.89,2.82,1.84,4.52,4.46,5.11,7.8.49,2.79.02,5.32-2.13,7.25-2.17,1.94-4.56,1.22-6.89.17Z"/>
        <path class="cls-4" d="m189.86,103.78c2.33,1.05,4.72,1.77,6.89-.17,2.15-1.93,2.62-4.46,2.13-7.25-.59-3.35-2.29-5.96-5.11-7.8-2.8-1.83-5.46-1.51-8.56.89-.37-3.57,2.03-6.37,5.5-6.19,5.64.3,8.96,3.81,11.38,8.5,2.39,4.62,2.53,9.27-.2,13.72-1.91,3.11-6.63,3.44-9.47.92-.91-.81-1.72-1.74-2.57-2.61Z"/>
        <path class="cls-4" d="m116.86,73.4c4.11-3.33,9.12-4.17,14.12-5.01,6.77-1.14,13.45-.44,20.08,1.1.74,2.23-.39,3.32-2.35,3.99-1.38.46-2.84.69-4.18.35-9.2-2.34-18.41-2.38-27.66-.42Z"/>
        <path class="cls-4" d="m212.07,160.37c-2.07-5.63-5.47-10.57-8-15.95-.83-1.77-2.08-3.34-3.17-4.98-.55-.84-1.66-1.74-.57-2.66.95-.8,1.62.43,2.32.99,4.62,3.69,6,9.19,7.86,14.38.94,2.61,1.52,5.38,1.56,8.23Z"/>
        <path class="cls-4" d="m400.19,143.2c2.12,2.61,1.89,5.23,1.7,7.82-.02.29-.35.71-.63.8-.58.19-.85-.31-.9-.78-.26-2.44-1.23-4.87-.17-7.85Z"/>
        <path class="cls-4" d="m391.18,117.24c-.06.66.13,1.32-.52,1.59-.64.27-1.15-.23-1.39-.67-.83-1.55-1.58-3.16-2.31-4.76-.2-.45-.09-.93.41-1.18.47-.23.97-.12,1.29.23,1.29,1.39,2.24,2.98,2.5,4.79Z"/>
        <path class="cls-4" d="m357.01,78.61c.05.81-.22,1.54-.81,1.38-1.71-.47-2.15-2.13-2.79-3.52-.2-.43.16-1.13.67-.9,1.39.64,2.39,1.76,2.94,3.05Z"/>
        <path class="cls-4" d="m315.67,261.12c-1.58-.39-4.33.76-4.37-1.68-.03-1.83,2.6-1.02,4.08-1.27,1.11-.19,2.23-.39,3.36-.46.95-.06,2.01-.02,2.09,1.31.07,1.16-.76,1.72-1.75,1.88-1.11.18-2.25.16-3.42.24Z"/>
        <path class="cls-4" d="m351.27,250.31c-1.15-.07-2.01.05-2.34-.83-.34-.9.32-1.38.99-1.79,1.69-1.02,3.31-2.18,5.27-2.68.64-.17,1.34-.44,1.76.31.36.62.3,1.41-.22,1.84-1.74,1.41-3.62,2.61-5.45,3.16Z"/>
        <path class="cls-4" d="m387.06,217.3c-.54,2.63-1.45,4.76-3.51,6.2-.99.69-1.32.08-1.41-.85-.09-.98,2.98-5.64,3.93-5.93.79-.24,1.03.13.99.58Z"/>
        <path class="cls-4" d="m401.4,181.73c.11,2.15-.27,3.88-1.12,5.5-.32.6-.76,1.16-1.54.94-.66-.18-.67-.83-.71-1.39-.18-2.43,1.09-4.52,1.6-6.79.1-.45.59-.79,1.1-.71.56.09.65.61.67,1.09.02.56,0,1.13,0,1.37Z"/>
        <path class="cls-4" d="m271.77,257.41c-2.53-.46-5.02-.98-7.14-2.47-.66-.47-1.35-1.29-.88-2.17.43-.8,1.34-.45,2.06-.3,2.21.46,4.43.88,6.61,1.46,1.12.3,2.74.58,2.44,2.19-.31,1.65-1.98.96-3.09,1.28Z"/>
        <path class="cls-4" d="m120.69,262.66c-.26.4-.46.83-.76,1.17-1.95,2.22-4.36,3.82-7.08,4.92-.88.35-1.95.38-2.48-.64-.56-1.08.23-1.8,1.04-2.29,2.31-1.41,4.67-2.76,7.01-4.12,1.11-.64,1.93-.53,2.26.96Z"/>
        <path class="cls-4" d="m76.71,291.4c-.61.02-1.12-.18-1.47-.68-.39-.56-.18-1.1.2-1.55,1.95-2.33,4.38-4.14,6.72-6.04.9-.73,1.6-.04,1.61,1.06.02,2.1-4.9,7.1-7.06,7.21Z"/>
        <path class="cls-4" d="m71.99,320.13c-.02,1.15,0,1.99-.85,2.31-.73.28-1.25-.28-1.67-.78-1.63-1.94-2.24-4.33-2.9-6.68-.2-.72.17-1.31.88-1.57.79-.28,1.49-.04,2.02.61,1.56,1.89,2.11,4.17,2.53,6.11Z"/>
        <path class="cls-4" d="m95.42,336.9c-2.44-.08-4.5-1.14-6.51-2.36-.43-.26-.78-.6-.63-1.12.18-.63.76-.87,1.33-.82,2.34.21,4.66.55,6.77,1.68.72.38,1.2,1.01.93,1.85-.3.91-1.17.77-1.89.78Z"/>
        <path class="cls-2" d="m121.44,104.61c.03-5.86,4.64-10.73,10.14-10.73,6.36,0,11.03,4.26,10.99,10.03-.04,6.01-5.21,10.85-11.48,10.75-5.5-.09-9.67-4.44-9.65-10.05Z"/>
      </g>
    </g>
  </g>
</svg>