<?xml version="1.0" encoding="UTF-8"?>
<svg id="Calque_2" data-name="Calque 2" xmlns="http://www.w3.org/2000/svg" width="362.66" height="321" xmlns:xlink="http://www.w3.org/1999/xlink" viewBox="0 0 362.66 321">
  <defs>
    <style>
      .cls-1, .cls-2 {
        stroke: #335572;
        stroke-linecap: round;
        stroke-linejoin: round;
        stroke-width: 3px;
      }

      .cls-1, .cls-3 {
        fill: none;
      }

      .cls-2 {
        fill: #fff;
      }

      .cls-4 {
        fill: #66c1bf;
      }

      .cls-4, .cls-3, .cls-5 {
        stroke-width: 0px;
      }

      .cls-6 {
        clip-path: url(#clippath);
      }

      .cls-5 {
        fill: #335572;
      }
    </style>
    <clipPath id="clippath">
      <rect class="cls-3" width="362.66" height="321"/>
    </clipPath>
  </defs>
  <g id="Calque_1-2" data-name="Calque 1">
    <g class="cls-6">
      <g>
        <g>
          <path class="cls-2" d="m59.11,131.16c1.79-4.42,11.28-18.27,4.8-20.08-6.48-1.81-8.95,7.52-8.95,7.52,0,0,3.52-18.51-1.87-18.72s-5.23,15.64-5.23,15.64c0,0-.5-13.48-7.17-11.65-6.68,1.83-.48,15.53-.48,15.53,0,0-4.97-10.2-10.23-7.4-5.26,2.8,10.97,27.85,10.97,27.85"/>
          <path class="cls-2" d="m213.59,159.68c-11.82-11.35-40.88-51.66-44.87-73.46l-9.75-.43s2.03-14.88,5.85-23.25c2.65-5.8,5.51-16.09,27.94-13.05,22.43,3.04,30.92,15.53,41.08,50.73,10.17,35.2,18.51,43.01,18.51,43.01l-38.77,16.45Z"/>
          <path class="cls-5" d="m240.41,57.81c12.37.51,18.32,11.05,16.99,17.85-1.33,6.8-7.72,14.57-16.8,12.96-9.07-1.61-13.54-9.48-12.97-15.54.9-9.61,4.71-15.61,12.78-15.27Z"/>
          <path class="cls-4" d="m97.31,205.51s81.71-27.94,102.26-47.38c20.55-19.44,144.37-115.03,203.27-109.51,58.9,5.52,150.67,91.39,150.67,91.39l-32.59,29.14s-92.71-62.02-108.1-67.09c-15.39-5.07-72.66,35.05-93.16,49.58,8.18,23.95,27.11,93.63-3.56,141.74-30.68,48.11-49.65-18.06-57.95-29.37-8.31-11.32-35.26-52.3-35.26-52.3,0,0-86.92,57.36-135.22,44.23-48.3-13.13-50.71-119.84-50.71-119.84l25.36-8.86s21.07,66.9,34.99,78.27Z"/>
          <path class="cls-5" d="m-115.24,330.36c23.83,3.75,198.69-4.97,303.47-24.95,48.68-9.28,88.7-25.06,110.4-19.92,26.52,6.28,39.07,22.86,42.95,55.19,3.28,27.32,33.02,133,33.02,133,0,0,85.9,42.3,114.59,50.31l-4.41,18.91-18.2-4.4c-4.43,21.71,13.43,59.1-6.23,59.6-19.66.5-36.49-.38-36.49-.38-2.68-11.96,4.38-16.8,14.91-16.69,10.53.11,6.03-39.95-1.66-42.83-7.69-2.89-97.23-31.88-97.23-31.88,0,0-57.48-75.69-77.91-136.27-80.91,18.82-243.39,52.24-341.75,61.06l-12.96-36.63-63.93,5.66-5.5-11.29s48.5-7.22,40.99-26.95c-7.52-19.73-40.56-14.46-40.56-14.46"/>
          <path class="cls-1" d="m238.5,115.88c-15.63,9.1-25.49,15.2-38.01,27.81"/>
          <polygon class="cls-5" points="216.76 143.51 235.43 129.1 236.46 159.27 216.76 143.51"/>
          <path class="cls-5" d="m230.81,151.87l8.17,25.04s45.66,36.09,65.4,46.87c-11.44-21.13-46.88-69.29-47.87-69.32s-25.7-2.59-25.7-2.59Z"/>
          <path class="cls-5" d="m172.9,52.06s11.25,35.86,39.36,39.28c.14-14.07,16.55-10.42,14.91,5.29-.74,7.14-7.66,6.62-7.66,6.62,0,0,3.95,6.52,17.14,5.76-2.35-10.52-11.56-48.6-29.14-55.26-17.58-6.66-26.29-6.97-34.61-1.7Z"/>
          <path class="cls-1" d="m175.15,71.75c.06,1.12.13,2.24.19,3.35"/>
          <path class="cls-2" d="m185.6,96.32c-5.55,2.66-8.08,3.99-11.03,5.2"/>
        </g>
        <path class="cls-1" d="m62.6,135.19c-8.71,4.15-17.8,7.51-27.12,10.02"/>
      </g>
    </g>
  </g>
</svg>