<?xml version="1.0" encoding="UTF-8"?>
<svg id="Calque_2" data-name="Calque 2" xmlns="http://www.w3.org/2000/svg" width="25.26" height="25.26" viewBox="0 0 25.26 25.26">
  <defs>
    <style>
      .cls-1 {
        fill: #4a4a49;
        stroke-width: 0px;
      }
    </style>
  </defs>
  <g id="Label">
    <path class="cls-1" d="m12.63,0C5.66,0,0,5.65,0,12.63s5.66,12.63,12.63,12.63,12.63-5.65,12.63-12.63S19.61,0,12.63,0Zm.09,3.17c1.02,0,1.85.83,1.85,1.85s-.83,1.85-1.85,1.85-1.85-.83-1.85-1.85.83-1.85,1.85-1.85Zm-7.86,11.44c-1.02,0-1.85-.83-1.85-1.85s.83-1.85,1.85-1.85,1.85.83,1.85,1.85-.83,1.85-1.85,1.85Zm2.46-5.43c-1.02,0-1.85-.83-1.85-1.85s.83-1.85,1.85-1.85,1.85.83,1.85,1.85-.83,1.85-1.85,1.85Zm10.66-.98l-2.85,7.54c.33.5.53,1.09.53,1.74,0,1.73-1.4,3.14-3.14,3.14s-3.14-1.4-3.14-3.14,1.4-3.14,3.14-3.14c.18,0,.35.02.52.05l2.67-7.06c.24-.63.94-.94,1.57-.71.63.24.94.94.71,1.57Zm2.5,6.53c-1.02,0-1.85-.83-1.85-1.85s.83-1.85,1.85-1.85,1.85.83,1.85,1.85-.83,1.85-1.85,1.85Z"/>
  </g>
</svg>