<?xml version="1.0" encoding="UTF-8"?>
<svg id="Calque_2" data-name="Calque 2" xmlns="http://www.w3.org/2000/svg" width="218.31" height="217.96" viewBox="0 0 218.31 217.96">
  <defs>
    <style>
      .cls-1 {
        fill: #66c1bf;
      }

      .cls-1, .cls-2, .cls-3 {
        stroke-width: 0px;
      }

      .cls-2 {
        fill: #345273;
      }

      .cls-3 {
        fill: #fff;
      }
    </style>
  </defs>
  <g id="Label">
    <g>
      <path class="cls-2" d="m218.31,108.92c0,17.26-4.02,33.58-11.18,48.08-14.91,30.21-43.45,52.52-77.61,58.95-2.61.49-5.25.89-7.93,1.19-1.83.21-3.68.37-5.55.49-1.98.12-3.96.19-5.97.21-.31,0-.61,0-.92,0-.49,0-.97,0-1.45,0-2.25-.03-4.48-.13-6.7-.29-19.82-1.46-38.17-8.2-53.64-18.82-19.85-13.62-34.95-33.63-42.34-57.05h0c-3.26-10.34-5.02-21.34-5.02-32.76,0-3.96.21-7.86.63-11.71,3.33-31.09,19.76-58.26,43.68-75.91C62.43,7.92,84.87,0,109.15,0c38.77,0,72.82,20.17,92.19,50.57,5.73,9,10.18,18.89,13.08,29.42,2.15,7.8,3.45,15.94,3.8,24.34.06,1.52.1,3.06.1,4.59Z"/>
      <path class="cls-1" d="m214.42,79.99c-1.57.62-3.08,1.59-4.34,2.53-1.21.89-2.41,1.8-3.62,2.69-2.03,1.52-4.27,3.1-7.01,3.26-3.25.21-6.24-1.79-7.68-4.2-.54-.9-.91-1.86-1.18-2.84-.59-2.2.85-4.53,3.46-5.23,2.41-.65,4.5-2.17,5.39-4.13,1.37-3.05-.36-6.84-3.84-8.41-.92-.41-1.96-.7-2.69-1.31-1.7-1.42-1.03-3.76-.26-5.65.32-.78.64-1.57.96-2.35.91-2.23,3.47-3.66,6.33-3.67.47,0,.94-.04,1.41-.12,5.73,9,10.18,18.89,13.08,29.42Z"/>
      <path class="cls-3" d="m135.96,134.52c1.92-.87,3.9-1.99,4.82-3.88.89-1.84.57-4.09-.35-5.91-.92-1.83-2.38-3.32-3.81-4.78-13.96,3.96-27.9,5.43-42.16,7.64-7.11,1.1-1.77,6.45,2.19,8.1,5.84,2.43,12.54,3.37,18.83,3.31,7.04-.07,14.07-1.55,20.48-4.48Z"/>
      <path class="cls-3" d="m139.75,90.38c1.22-7-3.35-14.1-9.55-17.58-6.2-3.48-13.67-3.95-20.75-3.34-8.3.71-17.27,3.33-21.75,10.35,8.75-1.3,17.82.32,26.32,2.78,8.5,2.47,17.31,5.11,25.74,7.79Z"/>
      <path class="cls-3" d="m170.85,117.29c-4.23-2.1-8.83-3.5-13.52-4.11,2.04-6.35,1.96-13.4-.28-19.67,1.46-.32,2.9-.83,4.28-1.4,2.72-1.13,5.79-2.99,8.39-4.74.71-.48,1.67-.29,2.14.42,2.33,3.53,7.88,14.21,1.39,28.6-.41.91-1.5,1.34-2.39.9Z"/>
      <path class="cls-1" d="m157.34,113.18c-1.23-.15-2.47-.26-3.71-.32-1.3-.07-2.64-.05-3.84.45-1.09.45-1.99,1.27-2.85,2.06-9.59,8.92-19.45,18.97-32.35,21.27-4.44.8-9,.6-13.49.03-15.13-1.92-29.45-7.97-42.76-15.4-4.9-2.73-9.83-5.78-13.15-10.31-.8-1.08-1.51-2.29-1.55-3.62-.04-1.53.77-2.93,1.64-4.2,6.96-10.24,17.8-17.34,29.28-22,10.84-4.4,22.59-6.83,34.27-6.13,11.68.71,23.29,4.66,32.41,11.99,3.34,2.69,6.58,5.93,10.8,6.7,1.67.31,3.37.19,5.03-.19,2.25,6.27,2.33,13.32.28,19.67Z"/>
      <ellipse class="cls-3" cx="59.97" cy="104.17" rx="4.86" ry="4.11"/>
      <path class="cls-3" d="m109.53,217.56c.17.11.44.24.76.39-.05,0-.11.01-.16,0h-.33c-.22.01-.44.01-.66.01-.46,0-.92,0-1.38-.01h-.33c-.09,0-.16,0-.25-.01-1.63-.02-3.25-.09-4.86-.19-.39-.02-.78-.05-1.17-.09-1.53-1.05-2.97-2.21-4.22-3.59-2.31-2.53-3.98-5.81-3.93-9.25.05-3.84,2.19-7.3,3.26-10.98.8-2.74.74-6.11-.76-8.34-.21-.31.15-.68.46-.48,4.61,3.08,7.49,8.7,7.05,14.25-.24,2.93-1.3,5.82-.93,8.74.38,2.88,2.1,5.31,4.3,7.28.97.85,2.04,1.61,3.13,2.28Z"/>
      <path class="cls-3" d="m110.31,165.17c.44,3.73,1.84,7.45,1.22,11.16-.47,2.84-2.1,5.37-2.75,8.17-1.16,4.98.85,10.08,2.38,14.96,1.23,3.93,2.09,8.39.87,12.19-.16.49.5.83.82.43,3.27-4.17,4.45-9.98,2.86-15.05-.66-2.1-1.75-4.08-2.09-6.26-.79-5.05,2.53-9.82,3.01-14.91.4-4.25-1.21-8.39-2.51-12.44-.93-2.9-1.56-5.77-1.53-8.78,0-.47-.63-.64-.88-.24-1.75,2.83-1.72,7.96-1.39,10.78Z"/>
      <path class="cls-1" d="m116.05,217.74c-1.4.09-2.82.15-4.23.19h-.32c-.35.01-.71.02-1.07.02h-.13c-.05,0-.11.01-.16,0h-.33c-.22.01-.44.01-.66.01-.46,0-.92,0-1.38-.01-.57-.83-1.04-1.72-1.38-2.67-.16-.43-.27-.86-.37-1.31-1.38-6.52,2.86-13.56.48-19.81-.79-2.08-2.27-3.89-2.84-6.05-.82-3.17.46-6.48.64-9.74.2-3.8-1.2-7.66-3.77-10.48-.26-.28.03-.73.4-.61,4.88,1.55,8.38,6.06,8.98,11.26.09.81.12,1.6.09,2.41v.02c-.02,2.78-.46,5.59.25,8.27.92,3.38,3.53,6.01,5.2,9.11.33.6.62,1.25.86,1.9,0,0,0,.01.01.01h0c1.04,2.65,1.41,5.56,1.07,8.37-.31,2.65-1.22,5.21-1.39,7.88-.02.43-.01.84.02,1.25Z"/>
      <path class="cls-1" d="m130.81,195.68c-.9,4.42,1.17,8.92.97,13.42-.12,2.37-.86,4.71-2.15,6.7-.07.1-.12.19-.19.28h-.01c-2.12.4-4.26.74-6.42,1.01-.47.07-.94.12-1.42.16-.02,0-.04,0-.07.01.6-1.05,1.05-2.17,1.28-3.35,1.07-5.4-2.27-10.95-1.2-16.35.83-4.16,4.2-7.64,4.33-11.88.17-5.18-4.61-9.78-3.78-14.91.48-3.01,2.78-5.33,4.18-8.03,1-1.93,1.56-4.09,1.6-6.25.04-1.25-.36-2.65-.26-3.91.02-.43.56-.62.87-.33,2.62,2.42,2.79,7.38,1.69,10.46-.89,2.52-2.62,4.95-2.2,7.6.27,1.82,1.54,3.33,2.61,4.82,2.49,3.52,4.19,7.92,3.24,12.13-.64,2.91-2.5,5.48-3.09,8.4Z"/>
      <circle class="cls-3" cx="82.39" cy="55.66" r="5.89"/>
      <circle class="cls-3" cx="92.69" cy="39.85" r="4.4"/>
      <path class="cls-1" d="m47.89,54.55c-4.14,10.72-18.76,14.55-28.8,21.65-8.01,5.66-13.05,13.5-18.46,21.01,3.33-31.09,19.76-58.26,43.68-75.91,1.14,3.49,2.23,7.27,2.6,9.13.93,4.7,1.4,9.36,1.7,11.67.56,4.16.81,8.47-.72,12.45Z"/>
      <path class="cls-1" d="m47.37,198.73c-19.85-13.62-34.95-33.63-42.34-57.05,4.93,1.82,9.92,4.46,12.13,6.55,3.77,3.56,5.4,8.72,7.8,13.29,2.71,5.17,6.53,9.76,11.15,13.39.58.46,1.18.91,1.79,1.34,2.79,1.97,5.98,3.75,7.57,6.78,1.14,2.16,1.29,4.66,1.43,7.1.16,2.87.31,5.73.47,8.6Z"/>
      <path class="cls-1" d="m218.31,108.92c0,17.26-4.02,33.58-11.18,48.08-5.08-3.04-10.23-5.99-14.13-10.16-7.69-8.21-9.06-20.77-3.29-30.17,2.15-3.5,5.35-6.64,9.42-8.12.39-.15.8-.28,1.21-.39,2.74-.74,5.65-.7,8.48-1.06,3.28-.4,6.48-1.35,9.39-2.77.06,1.52.1,3.06.1,4.59Z"/>
    </g>
  </g>
</svg>