<?xml version="1.0" encoding="UTF-8"?>
<svg id="Calque_2" data-name="Calque 2" xmlns="http://www.w3.org/2000/svg" width="143.18" height="42.87" viewBox="0 0 143.18 42.87">
  <defs>
    <style>
      .cls-1 {
        fill: #66c1bf;
        stroke-width: 0px;
      }
    </style>
  </defs>
  <g id="Label">
    <path class="cls-1" d="m98.82,42.87c-.34,0-.67-.11-.94-.33-.47-.38-.66-1-.5-1.57l1.52-5.36c-2.85.27-5.79.48-8.77.62-3.96,3.09-8.59,5.36-13.42,6.6-.54.14-1.11-.03-1.48-.44-.37-.41-.49-.99-.3-1.52.55-1.52,1.22-3.01,2.01-4.45-1.92-.04-3.86-.1-5.78-.2-8.29-.67-35.99-3.24-46.11-8.32-.75-.38-3.05-1.53-4.12-.89-3.14,1.9-6.46,3.67-9.68,5.38-2.96,1.57-6.41,3.19-10.04,2.47-.52-.1-.95-.47-1.12-.98-.18-.5-.07-1.06.27-1.46,3.55-4.19,7.78-7.98,12.59-11.28-4.47-2.96-8.9-6.11-12.15-10.12-.39-.49-.45-1.17-.13-1.71.32-.54.94-.83,1.55-.72,7.91,1.4,15.46,4.23,21.83,8.18.1-.02.34-.08.73-.31,7.7-4.36,15.92-7.32,25.02-8.98-1.54-.94-3.15-1.72-4.82-2.35-.58-.22-.97-.77-.97-1.39s.37-1.18.95-1.41C50.35.2,56.32.13,61.59.06c11.53-.14,23.46-.29,35.03,2.25,2.87.63,7.85,2.2,10.19,5.81,14.33,2.19,23.23,5.67,28.18,8.22.08.04,8.47,4.39,8.17,6.73,0,0,0,0,0,0-.07.5-.2,1.56-9.02,4.85-4.8,1.79-12.72,4.29-23.37,6.1-3.27,3.54-7.05,6.45-11.26,8.67-.22.12-.46.17-.7.17ZM21.73,23.81c1.87,0,3.7.92,4.65,1.4,9.89,4.96,39.19,7.54,44.96,8.01,2.72.13,5.51.21,8.24.23.55,0,1.05.31,1.31.79s.23,1.07-.07,1.53c-.69,1.04-1.31,2.12-1.85,3.22,3.48-1.25,6.77-3.09,9.67-5.41.25-.2.55-.31.87-.33,3.85-.17,7.64-.46,11.27-.86.5-.05.99.14,1.31.52.32.38.43.9.3,1.38l-1.1,3.89c2.79-1.83,5.35-4.02,7.62-6.55.23-.25.53-.42.87-.47,15.94-2.66,25.75-6.85,29.39-8.62-3.09-2.5-12.37-8.42-33.5-11.55-.48-.07-.89-.37-1.11-.79-1.14-2.2-4.26-4-8.57-4.95-11.23-2.47-22.99-2.32-34.35-2.18-3.96.05-8.02.1-11.86.94,1.7.9,3.33,1.97,4.87,3.18.47.37.68.99.52,1.57-.16.58-.64,1.01-1.24,1.1-10.35,1.47-19.14,4.39-27.66,9.22-1.46.83-2.7.93-3.69.32-4.79-2.99-10.28-5.3-16.11-6.81,3,2.67,6.56,5.01,10.03,7.29.43.28.68.75.68,1.26,0,.51-.26.98-.69,1.25-4.32,2.76-8.19,5.91-11.52,9.4,1.64-.39,3.29-1.21,4.88-2.05,3.18-1.69,6.47-3.44,9.54-5.3.75-.45,1.56-.62,2.36-.62Zm119.95-.92h0,0Z"/>
  </g>
</svg>