<?xml version="1.0" encoding="UTF-8"?>
<svg id="Calque_2" data-name="Calque 2" xmlns="http://www.w3.org/2000/svg" width="1230.01" height="66.61" viewBox="0 0 1230.01 66.61">
  <defs>
    <style>
      .cls-1 {
        fill: #fff;
        stroke-width: 0px;
      }
    </style>
  </defs>
  <g id="Label">
    <path class="cls-1" d="m444.14,66.61c-7.06,0-14.12-.56-21.14-1.86-10.8-2-21.32-5.76-31.49-9.4-12.94-4.62-26.33-9.4-40.1-10.44-17.55-1.32-35.05,3.45-51.98,8.07-12.55,3.42-25.53,6.96-38.64,8.1-20.48,1.79-40.99-2.27-60.83-6.19-16.76-3.31-34.09-6.75-51.25-6.6-18.46.15-36.94,4.42-54.82,8.54-19.72,4.55-40.11,9.26-60.68,8.52-14.11-.51-25.16-7.47-30.32-19.1C-2.26,34.65-.4,20.54,7.52,11.13,12.5,5.22,24.19-3.86,46.57,1.77c.8.2,1.29,1.02,1.09,1.82-.2.8-1.02,1.29-1.82,1.09C30.43.8,17.63,3.78,9.82,13.06,2.62,21.61.93,34.46,5.62,45.04c4.67,10.54,14.77,16.85,27.69,17.32,20.16.73,40.36-3.94,59.9-8.45,18.04-4.16,36.68-8.47,55.47-8.62,17.49-.13,34.96,3.32,51.86,6.66,19.63,3.88,39.92,7.89,59.98,6.14,12.85-1.12,25.69-4.62,38.11-8.01,17.17-4.68,34.93-9.52,52.99-8.17,14.18,1.07,27.76,5.92,40.89,10.61,10.06,3.6,20.47,7.31,31.03,9.27,27.79,5.16,56.43-1.7,84.12-8.34,28.54-6.84,58.06-13.91,86.96-8,8.58,1.75,17,4.66,25.15,7.46,11.82,4.07,24.05,8.28,36.58,8.86,17.92.84,35.3-5.72,52.12-12.06,13.71-5.17,27.9-10.51,42.6-12.06,20.24-2.12,40.52,3.02,60.13,7.99,21.3,5.4,43.32,10.98,64.8,6.91,8.3-1.57,16.48-4.61,24.39-7.54,10.53-3.91,21.43-7.95,32.88-8.67,17.02-1.07,33.21,5.21,48.87,11.28,12.8,4.97,26.04,10.1,39.63,11.17,16.51,1.29,32.96-3.44,48.88-8.02,14.16-4.08,28.81-8.29,43.73-8.42,14.28-.11,29.12,3.35,43.47,6.71,25.6,5.99,49.77,11.66,69.78-2.14.68-.47,1.62-.3,2.09.38.47.68.3,1.62-.38,2.09-21.1,14.56-47.06,8.47-72.17,2.59-14.18-3.32-28.81-6.76-42.76-6.63-14.51.12-28.96,4.28-42.93,8.3-16.17,4.65-32.89,9.47-49.94,8.13-14.02-1.1-27.47-6.32-40.48-11.36-16.06-6.23-31.24-12.12-47.6-11.09-11.02.69-21.7,4.66-32.03,8.49-8.03,2.98-16.32,6.05-24.88,7.67-22.14,4.19-44.48-1.47-66.1-6.95-19.35-4.91-39.37-9.98-59.08-7.91-14.32,1.5-28.32,6.78-41.86,11.88-17.1,6.44-34.78,13.11-53.32,12.25-12.97-.6-25.4-4.88-37.42-9.02-8.06-2.77-16.39-5.64-24.78-7.36-28.25-5.78-57.44,1.21-85.66,7.98-21.08,5.05-42.7,10.23-64.22,10.23Z"/>
  </g>
</svg>