<?xml version="1.0" encoding="UTF-8"?>
<svg id="Calque_2" data-name="Calque 2" xmlns="http://www.w3.org/2000/svg" width="20.96" height="23.96" viewBox="0 0 20.96 23.96">
  <defs>
    <style>
      .cls-1 {
        fill: #4a4a49;
        stroke-width: 0px;
      }
    </style>
  </defs>
  <g id="Label">
    <path class="cls-1" d="m20.56,16.95c-.9-.97-2.6-2.43-2.6-7.22,0-3.64-2.55-6.55-5.99-7.26v-.98c0-.83-.67-1.5-1.5-1.5s-1.5.67-1.5,1.5v.98c-3.44.71-5.99,3.62-5.99,7.26,0,4.79-1.69,6.25-2.6,7.22C.12,17.26,0,17.62,0,17.97c0,.77.61,1.5,1.5,1.5h17.96c.89,0,1.5-.73,1.5-1.5,0-.35-.12-.71-.4-1.02h0Zm-10.08,7.01c1.65,0,2.99-1.34,2.99-2.99h-5.99c0,1.65,1.34,2.99,2.99,2.99Z"/>
  </g>
</svg>