<?xml version="1.0" encoding="UTF-8"?>
<svg id="Calque_2" data-name="Calque 2" xmlns="http://www.w3.org/2000/svg" width="188.26" height="53.55" viewBox="0 0 188.26 53.55">
  <defs>
    <style>
      .cls-1 {
        fill: #66c1bf;
        stroke-width: 0px;
      }
    </style>
  </defs>
  <g id="Label">
    <path class="cls-1" d="m188.26,28.72c.03-.27-10.41-12.39-48.08-17.97-2.19-4.22-7.86-6.59-12.86-7.68C112.09-.28,96.33-.1,80.73.09c-7.31.09-14.82.21-21.62,2.9,3.96,1.49,7.68,3.62,11.01,6.23-13.04,1.85-25.47,5.6-37.86,12.62-.86.49-2.06.99-2.89.47C20.98,17.08,11.07,13.35.61,11.5c4.75,5.85,11.64,10.4,18.42,14.85-7.35,4.7-13.79,10.27-19.03,16.46,4.26.84,8.5-1.19,12.14-3.12,4.36-2.32,8.73-4.64,12.91-7.17,2.15-1.3,5.19-.03,7.47,1.12,12.41,6.22,46.46,9.78,61.12,10.97,3.85.18,7.59.29,11.21.31-1.78,2.69-3.26,5.59-4.35,8.63,6.47-1.65,12.57-4.71,17.79-8.89,5.38-.24,10.48-.64,15.26-1.16-.95,3.35-1.9,6.7-2.85,10.06,5.66-2.98,10.76-6.98,15.04-11.73,27.86-4.64,42.49-12.89,42.52-13.1Z"/>
  </g>
</svg>