<?xml version="1.0" encoding="UTF-8"?>
<svg id="Calque_2" data-name="Calque 2" xmlns="http://www.w3.org/2000/svg" width="125.19" height="74.42" viewBox="0 0 125.19 74.42">
  <defs>
    <style>
      .cls-1 {
        fill: #fff;
      }

      .cls-1, .cls-2 {
        stroke-width: 0px;
      }

      .cls-2 {
        fill: #335572;
      }
    </style>
  </defs>
  <g id="Label">
    <g>
      <path class="cls-1" d="m125.19,29.52c-16.23-10.75-36.91-14.54-55.89-10.24-12.26,2.78-24.31,8.79-36.76,7.05-5.71-.8-11.95-4.26-12.53-10-.4-4,2.24-7.84,5.7-9.88s7.61-2.55,11.62-2.63C32.26.16,25.47-.86,19.41.72S8.05,6.37,4.58,11.59C2.44,14.81.95,18.47.33,22.28c-1.77,10.82,3.77,22.08,12.52,28.69,8.75,6.61,20.38,10.15,31.15,8.06,30.69-5.94,19.79-32.3,81.19-29.51"/>
      <path class="cls-2" d="m41.89,74.42c-2.41,0-4.99-.19-7.76-.61-5.13-.78-10.11-3.93-13.33-8.44-2.91-4.08-4.07-8.76-3.27-13.16,1.45-7.94,9.46-13.88,17.47-12.96,3.27.37,6.58,2.42,8.23,5.08,1.19,1.93,1.46,4.07.75,6.03-.28.78-1.14,1.18-1.92.9-.78-.28-1.18-1.14-.9-1.92.4-1.11.24-2.27-.48-3.43-1.17-1.89-3.65-3.41-6.03-3.68-6.39-.73-13.02,4.18-14.18,10.51-.66,3.6.32,7.47,2.76,10.88,2.76,3.86,6.99,6.56,11.33,7.21,17.38,2.63,26.42-4.11,35.99-11.24,10.67-7.95,21.7-16.17,44.44-12.65.82.13,1.38.89,1.25,1.71-.13.82-.89,1.38-1.71,1.25-21.5-3.32-32.02,4.51-42.19,12.09-8.21,6.12-16.66,12.41-30.48,12.41Z"/>
    </g>
  </g>
</svg>