<?xml version="1.0" encoding="UTF-8"?>
<svg id="Calque_2" data-name="Calque 2" xmlns="http://www.w3.org/2000/svg" width="287.89" height="151.83" xmlns:xlink="http://www.w3.org/1999/xlink" viewBox="0 0 287.89 151.83">
  <defs>
    <style>
      .cls-1 {
        fill: #345273;
      }

      .cls-1, .cls-2, .cls-3, .cls-4 {
        stroke-width: 0px;
      }

      .cls-2 {
        fill: none;
      }

      .cls-3 {
        fill: #fff;
      }

      .cls-5 {
        clip-path: url(#clippath);
      }

      .cls-4 {
        fill: #335472;
      }
    </style>
    <clipPath id="clippath">
      <path class="cls-2" d="m69.68,14.3l103.36,90.93c2.42,2.13,6.03,2.15,8.48.06L287.89,14.3l-5.79-14.3L71.72.34l-2.04,13.96Z"/>
    </clipPath>
  </defs>
  <g id="Label">
    <g>
      <rect class="cls-3" x="75.64" y="11.23" width="201.53" height="140.6" rx="6.47" ry="6.47"/>
      <g class="cls-5">
        <rect class="cls-1" x="75.81" y="10.89" width="201.53" height="140.6" rx="6.47" ry="6.47"/>
      </g>
      <g id="Tracé_67" data-name="Tracé 67">
        <path class="cls-4" d="m84.54,146.75c-.74,0-1.48-.27-2.06-.82-1.21-1.14-1.26-3.03-.13-4.24,21.25-22.56,43.21-45.09,65.29-66.98,1.18-1.17,3.08-1.16,4.24.02,1.17,1.18,1.16,3.08-.02,4.24-22.02,21.84-43.94,44.33-65.14,66.84-.59.63-1.39.94-2.18.94Z"/>
      </g>
      <g id="Tracé_67-2" data-name="Tracé 67">
        <path class="cls-4" d="m268.22,146.75c-.8,0-1.59-.32-2.18-.94-21.2-22.51-43.12-44.99-65.14-66.84-1.18-1.17-1.18-3.07-.02-4.24,1.17-1.18,3.07-1.18,4.24-.02,22.07,21.89,44.04,44.43,65.29,66.98,1.14,1.21,1.08,3.1-.13,4.24-.58.55-1.32.82-2.06.82Z"/>
      </g>
      <g id="Tracé_68" data-name="Tracé 68">
        <path class="cls-4" d="m14.02,44.97c-1.58,0-2.91-1.24-2.99-2.84-.09-1.65,1.18-3.07,2.83-3.16,17-.93,34.27-1.33,51.33-1.2,1.66.01,2.99,1.37,2.98,3.02-.01,1.66-1.37,3-3.02,2.98-16.93-.13-34.08.27-50.96,1.19-.06,0-.11,0-.17,0Z"/>
      </g>
      <g id="Tracé_68-2" data-name="Tracé 68">
        <path class="cls-4" d="m46.36,108.97c-1.5,0-2.8-1.13-2.98-2.66-.19-1.65.99-3.13,2.64-3.32,8.16-.94,16.45-1.35,24.64-1.22,1.66.03,2.98,1.39,2.95,3.05-.03,1.66-1.41,2.99-3.05,2.95-7.93-.13-15.96.27-23.86,1.18-.12.01-.23.02-.35.02Z"/>
      </g>
      <g id="Tracé_68-3" data-name="Tracé 68">
        <path class="cls-4" d="m3.13,134.48c-1.58,0-2.91-1.24-2.99-2.84-.09-1.65,1.18-3.07,2.83-3.16,16.98-.93,34.22-1.33,51.25-1.2,1.66.01,2.99,1.37,2.98,3.02s-1.35,3-3.02,2.98c-16.9-.13-34.02.27-50.88,1.19-.06,0-.11,0-.17,0Z"/>
      </g>
      <g id="Tracé_68-4" data-name="Tracé 68">
        <path class="cls-4" d="m3,77.65c-1.62,0-2.96-1.29-3-2.92-.04-1.66,1.27-3.03,2.92-3.08,36.04-.93,72.65-1.33,108.81-1.2,1.66,0,3,1.35,2.99,3.01,0,1.65-1.35,2.99-3,2.99h-.01c-36.1-.13-72.65.27-108.64,1.2-.03,0-.05,0-.08,0Z"/>
      </g>
    </g>
  </g>
</svg>