<?xml version="1.0" encoding="UTF-8"?>
<svg id="Calque_2" data-name="Calque 2" xmlns="http://www.w3.org/2000/svg" width="97.06" height="97.06" viewBox="0 0 97.06 97.06">
  <defs>
    <style>
      .cls-1 {
        fill: #66c1bf;
      }

      .cls-1, .cls-2, .cls-3 {
        stroke-width: 0px;
      }

      .cls-2 {
        fill: #fff;
      }

      .cls-3 {
        fill: #335572;
      }
    </style>
  </defs>
  <g id="Label">
    <g>
      <path class="cls-3" d="m29.77,71.51c1.76,2.95,1.83,6.3.19,9.18-1.94,3.4-5.87,5.52-10.25,5.52-6.67,0-12.1-5.42-12.1-12.1h6.61c0,3.03,2.46,5.49,5.49,5.49,2.26,0,3.89-1.09,4.5-2.19.45-.8.42-1.62-.12-2.53-1-1.67-3.18-2.35-5.72-3.13-2.79-.86-5.94-1.83-7.77-4.63-2.07-3.13-2.29-6.9-.58-10.07,1.82-3.38,5.54-5.49,9.69-5.49,6.67,0,12.1,5.43,12.1,12.1h-6.61c0-3.03-2.46-5.49-5.49-5.49-1.72,0-3.2.77-3.88,2.01-.38.72-.65,1.88.29,3.3.53.81,2.39,1.39,4.2,1.94,3.18.98,7.15,2.21,9.45,6.07Z"/>
      <path class="cls-3" d="m37.79,42.13c0,1.85-1.5,3.35-3.35,3.35s-3.35-1.5-3.35-3.35,1.5-3.35,3.35-3.35,3.35,1.5,3.35,3.35Z"/>
      <path class="cls-1" d="m87.99,0H9.07C4.06,0,0,4.06,0,9.06v78.93c0,5.01,4.06,9.07,9.07,9.07h78.92c5.02,0,9.07-4.06,9.07-9.07V9.06c0-5-4.05-9.06-9.07-9.06ZM8.91,10.79h10.94c5.68,0,10.33,4.64,10.33,10.33,0,2.72-1.05,5.18-2.76,7.02,1.71,1.84,2.76,4.31,2.76,7.02,0,5.69-4.64,10.33-10.33,10.33h-10.94V10.79Zm7.21,52.72c.53.81,2.4,1.39,4.2,1.94,3.18.98,7.15,2.21,9.45,6.06,1.76,2.95,1.83,6.3.19,9.18-1.94,3.4-5.87,5.52-10.25,5.52-6.67,0-12.11-5.42-12.11-12.1h6.61c0,3.03,2.46,5.49,5.49,5.49,2.26,0,3.89-1.09,4.5-2.19.45-.8.42-1.62-.12-2.52-1-1.68-3.19-2.35-5.72-3.13-2.78-.86-5.94-1.83-7.77-4.63-2.07-3.13-2.29-6.9-.58-10.07,1.82-3.39,5.54-5.49,9.69-5.49,6.67,0,12.11,5.43,12.11,12.1h-6.61c0-3.03-2.46-5.49-5.49-5.49-1.72,0-3.2.77-3.88,2.01-.38.72-.65,1.88.29,3.3Zm14.97-21.37c0-1.85,1.5-3.35,3.35-3.35s3.35,1.5,3.35,3.35-1.5,3.35-3.35,3.35-3.35-1.5-3.35-3.35Zm23.01,16.55h-13.05v7.3c3.45-1.87,7.56-2.76,11.59-2.35.5.05.98.11,1.46.2v6.49c-.69-.17-1.38-.29-2.09-.36-4.1-.42-8.39,1.16-10.96,3.91v5.9h13.05v6.49h-19.66v-34.08h19.66v6.49Zm34.44,15.3c-1.99,1.23-4.09,2.43-6.52,3.17-.65.2-1.32.36-2,.48v8.64h-6.61v-8.57c-1.5-.21-3.04-.57-4.59-1.08-1.78-.58-3.44-1.32-5.04-2.1v11.75h-6.61v-23.25c0-6.31,5.13-11.43,11.43-11.43s11.43,5.12,11.43,11.43v8.09c.05-.02.1-.03.16-.05,2-.61,3.9-1.8,5.9-3.06.8-.49,1.61-1.01,2.46-1.48v7.46Z"/>
      <path class="cls-1" d="m73.42,63.01v8.23c-.96-.19-1.85-.43-2.61-.68-2.13-.7-4.15-1.72-6.29-2.8-.24-.11-.49-.24-.73-.37v-4.37c0-2.66,2.16-4.82,4.82-4.82s4.82,2.16,4.82,4.82Z"/>
      <path class="cls-3" d="m29.77,71.51c1.76,2.95,1.83,6.3.19,9.18-1.94,3.4-5.87,5.52-10.25,5.52-6.67,0-12.1-5.42-12.1-12.1h6.61c0,3.03,2.46,5.49,5.49,5.49,2.26,0,3.89-1.09,4.5-2.19.45-.8.42-1.62-.12-2.53-1-1.67-3.18-2.35-5.72-3.13-2.79-.86-5.94-1.83-7.77-4.63-2.07-3.13-2.29-6.9-.58-10.07,1.82-3.38,5.54-5.49,9.69-5.49,6.67,0,12.1,5.43,12.1,12.1h-6.61c0-3.03-2.46-5.49-5.49-5.49-1.72,0-3.2.77-3.88,2.01-.38.72-.65,1.88.29,3.3.53.81,2.39,1.39,4.2,1.94,3.18.98,7.15,2.21,9.45,6.07Z"/>
      <path class="cls-3" d="m41.05,58.68v7.3c3.45-1.87,7.56-2.76,11.59-2.35.49.05.98.11,1.46.2v6.49c-.69-.16-1.38-.29-2.09-.36-4.1-.42-8.39,1.16-10.96,3.91v5.9h13.05v6.49h-19.66v-34.08h19.66v6.49h-13.05Z"/>
      <g>
        <path class="cls-2" d="m30.18,21.11c0-5.68-4.64-10.33-10.33-10.33h-10.94v34.69h10.94c5.68,0,10.33-4.63,10.33-10.33,0-2.71-1.05-5.18-2.76-7.02,1.71-1.84,2.76-4.3,2.76-7.02Zm-10.33,17.75h-4.33v-7.43h4.33c2.04,0,3.71,1.67,3.71,3.71s-1.67,3.71-3.71,3.71Zm0-14.04h-4.33v-7.43h4.33c2.04,0,3.71,1.67,3.71,3.71s-1.67,3.71-3.71,3.71Z"/>
        <path class="cls-1" d="m23.57,35.15c0,2.05-1.67,3.71-3.71,3.71h-4.33v-7.43h4.33c2.04,0,3.71,1.67,3.71,3.71Z"/>
        <path class="cls-1" d="m23.57,21.11c0,2.06-1.67,3.71-3.71,3.71h-4.33v-7.43h4.33c2.04,0,3.71,1.67,3.71,3.71Z"/>
      </g>
      <path class="cls-2" d="m37.79,42.13c0,1.85-1.5,3.35-3.35,3.35s-3.35-1.5-3.35-3.35,1.5-3.35,3.35-3.35,3.35,1.5,3.35,3.35Z"/>
      <path class="cls-3" d="m86.09,68c-2,1.26-3.9,2.45-5.9,3.05-.05.02-.1.03-.16.05v-8.09c0-6.31-5.13-11.43-11.43-11.43s-11.43,5.12-11.43,11.43v23.25h6.61v-11.75c1.6.78,3.26,1.52,5.04,2.1,1.55.5,3.09.87,4.59,1.08v8.57h6.61v-8.64c.68-.12,1.34-.28,2-.48,2.43-.74,4.53-1.94,6.52-3.17v-7.46c-.84.48-1.66.99-2.46,1.48Zm-15.28,2.57c-2.13-.7-4.15-1.72-6.29-2.8-.24-.11-.49-.24-.73-.37v-4.37c0-2.66,2.16-4.82,4.82-4.82s4.82,2.16,4.82,4.82v8.23c-.96-.19-1.85-.43-2.61-.68Z"/>
    </g>
  </g>
</svg>