<?xml version="1.0" encoding="UTF-8"?>
<svg id="Calque_2" data-name="Calque 2" xmlns="http://www.w3.org/2000/svg" width="513.99" height="287.25" viewBox="0 0 513.99 287.25">
  <defs>
    <style>
      .cls-1 {
        fill: #66c1bf;
      }

      .cls-1, .cls-2 {
        stroke-width: 0px;
      }

      .cls-2 {
        fill: #345273;
      }
    </style>
  </defs>
  <g id="Label">
    <g>
      <g>
        <path class="cls-2" d="m172.29,158.44c-1.05.43-1.72,1.4-2.41,2.26-3.3,4.31-5.89,9.38-6.31,14.86-.4,5.91,2.28,11.41,2.74,17.23.68,5.08-.57,10.19.2,15.27.63,4.17,1.84,8.26,2.06,12.49.39,5.6-1.24,11.15-.66,16.76.43,4.74,3.08,8.92,3.62,13.64.59,4.19-.69,8.32-.57,12.51.1,4.52.77,9.04,2.04,13.39.34.98.62,2.26,1.73,2.65,1.35.35,2.52-1.2,1.98-2.45-1.18-4.58-2.06-9.37-1.37-14.11.4-3.7,1.76-7.24,1.9-10.97.17-2.84-.43-5.64-1.15-8.36-.89-3.3-2.36-6.51-2.31-9.99-.18-5.33,2.41-10.36,1.89-15.7-.27-3.78-2.21-7.16-2.77-10.87-.64-4.25,1.38-8.38.83-12.63-.35-3.28-1.84-6.25-2.82-9.36-1.38-4.25-1.62-8.92-.39-13.24.83-2.89,2.59-5.36,4.07-7.93.66-1.18,1.37-2.59.8-3.95-.32-1.3-1.88-1.92-3.07-1.45"/>
        <path class="cls-2" d="m154.07,183.2c-1.18.6-1.18,2.16-.67,3.22,1.81,4.23,4.07,8.47,4.24,13.18.17,5.24-2.16,10.08-3.21,15.13-1.85,7.03-2.04,14.64.41,21.56,2.52,7.95,8.04,14.58,10.19,22.68,1.78,6.09,1.01,12.49.06,18.65-.39,1.47,1.83,2.75,2.76,1.43.62-1.44.8-3.01,1.04-4.54,1.58-10.8.53-22.12-3.93-32.13-2.44-5.79-6.42-11.14-6.67-17.64-.78-7.27,3.4-13.77,3.78-20.91.49-6.33-1.49-12.55-4.28-18.15-.69-1.37-1.91-3.31-3.73-2.47"/>
        <path class="cls-2" d="m181.17,193.37c-1.69.95-1.5,3.14-1.06,4.75,1.33,5.4,3.89,10.53,4.25,16.15.27,6.31-4.41,11.52-4.5,17.78-.24,4.31,1.71,8.33,1.93,12.6.16,5.13-2.24,9.85-3.04,14.85-.97,5.96-.27,12.24,2.14,17.78.65,1.83,3.3,1.1,3.4-.69-.36-2.84-1.49-5.55-1.51-8.45-.39-6.58,3.36-12.41,4.09-18.83.95-6.11-1.18-12.17-.65-18.28.34-4.64,2.09-9.01,2.72-13.6,1.31-7.25.4-15.02-3.06-21.56-.84-1.7-2.67-3.58-4.7-2.5"/>
        <path class="cls-2" d="m144.61,221.26c-1.09.55-1.21,1.89-1.35,2.97-.6,6.18-.84,12.43-.02,18.6.52,3.28,1.56,6.63,3.82,9.14,3.16,3.43,7.4,5.95,9.58,10.22,2.48,4.18,2.55,9.22,1.75,13.88-.47,2.17,3.24,2.65,3.55.55,2.15-6.46,2.55-14.13-1.16-20.11-1.94-3.23-5.29-5.17-7.83-7.83-1.76-1.83-2.82-4.2-3.45-6.63-1.53-6.03-1.43-12.29-1.88-18.45.1-1.58-1.43-3.24-3.01-2.34"/>
        <path class="cls-2" d="m192.21,221.82c-.86.74-.73,1.95-.61,2.96.63,4.86,2.2,9.72,1.39,14.66-.59,4.32-3.1,8.13-3.57,12.47-.49,3.9,1.25,7.91-.25,11.71-1.51,4.06-2.51,8.58-1.3,12.85.2,1.43,2.39,1.6,2.81.24.27-1.46.08-2.96.34-4.42.41-2.95,2.23-5.45,2.82-8.35.59-3.28-.02-6.6.21-9.9.16-2.75,1.54-5.2,2.12-7.85,1.35-5.3,1.2-10.83.59-16.22-.4-2.59-.7-5.26-1.78-7.68-.45-1.06-1.99-1.26-2.77-.47"/>
        <path class="cls-2" d="m172.29,158.44c1.19-.47,2.75.16,3.07,1.45.57,1.36-.13,2.76-.8,3.95-1.48,2.57-3.23,5.04-4.07,7.93-1.23,4.32-.98,8.99.39,13.24.98,3.11,2.47,6.09,2.82,9.36.55,4.25-1.47,8.38-.83,12.63.56,3.71,2.5,7.1,2.77,10.87.52,5.34-2.07,10.38-1.89,15.7-.05,3.48,1.42,6.69,2.31,9.99.72,2.72,1.32,5.53,1.15,8.36-.14,3.73-1.5,7.27-1.9,10.97-.69,4.74.19,9.52,1.37,14.11.53,1.25-.63,2.8-1.98,2.45-1.11-.39-1.39-1.67-1.73-2.65-1.26-4.34-1.93-8.86-2.04-13.39-.12-4.19,1.16-8.32.57-12.51-.54-4.72-3.19-8.9-3.62-13.64-.58-5.61,1.06-11.15.66-16.76-.21-4.23-1.43-8.32-2.06-12.49-.77-5.07.48-10.19-.2-15.27-.46-5.82-3.14-11.32-2.74-17.23.42-5.48,3.01-10.55,6.31-14.86.69-.85,1.36-1.83,2.41-2.26"/>
        <path class="cls-2" d="m154.07,183.2c1.82-.84,3.04,1.1,3.73,2.47,2.79,5.6,4.76,11.83,4.28,18.15-.38,7.13-4.56,13.64-3.78,20.91.26,6.5,4.23,11.85,6.67,17.64,4.46,10.02,5.51,21.34,3.93,32.13-.24,1.53-.42,3.1-1.04,4.54-.93,1.32-3.16.03-2.76-1.43.95-6.15,1.72-12.56-.06-18.65-2.16-8.1-7.67-14.73-10.19-22.68-2.45-6.91-2.26-14.53-.41-21.56,1.05-5.04,3.38-9.89,3.21-15.13-.17-4.71-2.43-8.94-4.24-13.18-.51-1.06-.51-2.62.67-3.22"/>
        <path class="cls-2" d="m181.17,193.37c2.04-1.09,3.86.8,4.7,2.5,3.46,6.54,4.36,14.31,3.06,21.56-.62,4.59-2.38,8.96-2.72,13.6-.53,6.12,1.6,12.17.65,18.28-.72,6.42-4.48,12.25-4.09,18.83.02,2.89,1.15,5.6,1.51,8.45-.1,1.78-2.75,2.51-3.4.69-2.4-5.54-3.11-11.82-2.14-17.78.8-5,3.19-9.72,3.04-14.85-.21-4.26-2.16-8.28-1.93-12.6.09-6.26,4.77-11.47,4.5-17.78-.36-5.62-2.92-10.75-4.25-16.15-.43-1.61-.62-3.79,1.06-4.75"/>
        <path class="cls-2" d="m144.61,221.26c1.58-.91,3.12.76,3.01,2.34.44,6.16.35,12.42,1.88,18.45.63,2.43,1.69,4.8,3.45,6.63,2.55,2.67,5.9,4.6,7.83,7.83,3.71,5.98,3.3,13.65,1.16,20.11-.31,2.1-4.02,1.62-3.55-.55.81-4.66.73-9.7-1.75-13.88-2.18-4.27-6.42-6.79-9.58-10.22-2.26-2.51-3.3-5.86-3.82-9.14-.82-6.17-.58-12.43.02-18.6.14-1.07.26-2.41,1.35-2.97"/>
        <path class="cls-2" d="m192.21,221.82c.78-.8,2.32-.59,2.77.47,1.08,2.41,1.38,5.09,1.78,7.68.61,5.39.76,10.93-.59,16.22-.59,2.65-1.96,5.11-2.12,7.85-.24,3.3.37,6.63-.21,9.9-.59,2.9-2.41,5.4-2.82,8.35-.26,1.45-.07,2.96-.34,4.42-.42,1.37-2.61,1.19-2.81-.24-1.2-4.28-.21-8.79,1.3-12.85,1.5-3.8-.24-7.81.25-11.71.48-4.34,2.98-8.15,3.57-12.47.81-4.94-.75-9.8-1.39-14.66-.13-1.01-.26-2.22.61-2.96h0Z"/>
      </g>
      <g>
        <path class="cls-1" d="m19.62,207.27c9.33-3.36,19.34-.51,27.83,3.8,2.32-2.36,4.61-5.07,8.03-5.8-1.89,5.19-2.5,10.78-.01,15.9-3.55-.56-5.73-3.52-8.04-5.93-8.15,3.94-17.61,6.49-26.55,3.8-3.02-.99-6.47-2.24-7.99-5.26-.3-3.74,3.88-5.38,6.73-6.51"/>
        <path class="cls-1" d="m126.74,247.56c8.18-3.24,16.99-.3,24.61,3.08,1.95-1.94,3.91-4.1,6.76-4.62-1.57,4.24-1.93,8.72-.43,13.06-2.43-1.09-4.5-2.74-6.42-4.54-9.08,3.85-20.71,6.48-29.16-.13-2.05-3.31,1.93-5.9,4.64-6.85"/>
        <path class="cls-1" d="m87.6,271.48c6.73-4.07,14.85-1.58,21.5,1.32,1.58-1.45,3.29-2.74,5.18-3.75-.83,3.65-1.01,7.38-.13,11.05-1.79-1.05-3.41-2.34-4.91-3.74-7.2,2.95-16.26,5.24-23.06.16-2.28-1.38-.37-4.24,1.41-5.04"/>
        <path class="cls-2" d="m7.47,185.68c7.92-2.39,15.78.84,23.12,3.59,1.99-2.01,4.23-3.79,6.98-4.65-1.66,4.23-1.75,8.72-.82,13.12-2.15-1.23-3.96-2.93-5.65-4.72-6.03,2.35-12.27,4.85-18.89,4.06-4.35-.37-9.96-1.06-12.21-5.34.18-3.65,4.5-5.07,7.47-6.04"/>
        <path class="cls-2" d="m106.46,231.26c3.5-4.58,8.17-8.97,14.12-9.76-2.35,4.06-4.78,8.41-4.55,13.27-.08,4.29,2.44,7.92,4.52,11.46-5.99-.35-9.83-5.25-14.01-8.86-2.92.15-5.5,1.84-8.22,2.76-11.39,4.52-24.82,6.57-36.19.89-2.79-1.48-6.62-3.76-5.79-7.49,2.1-4.78,7.34-7.1,12.11-8.32,9.05-2.5,18.7-1.01,27.39,2.15,3.5,1.37,6.91,3.04,10.59,3.92"/>
        <path class="cls-2" d="m31.31,251.11c4.45-5.96,12.86-6.66,19.65-5.44,4.45.6,8.3,3.13,12.6,4.23,2.81-1.45,4.3-4.83,7.62-5.5-2.27,4.86-1.96,10.1-.58,15.14-2.57-1.47-4.76-3.48-6.78-5.61-8.32,4.21-18.49,5.75-27.32,2.28-2.48-.8-4.08-2.88-5.19-5.11"/>
      </g>
      <path class="cls-2" d="m401.91,13.93c1.27-4.67,2.39-9.59,5.26-13.59,1.56-.78,3.91-.23,4.21,1.72,1.4,4.06,1.98,8.47,4.33,12.15,5.92,10.03,17.6,14.57,24.13,24.09,2.84,3.84,4.28,8.45,5.58,12.99,7.71-4.67,17.05-5.71,25.85-4.36,8.94,1.26,18.3,4.01,27.18.89,4.42-1.09,8.2-4.17,12.73-4.75.7.46,2.1,1.37,2.81,1.82-2.3,5.94-6.5,10.84-10.63,15.59-6.8,7.49-15.14,13.95-24.86,17.09-8.69,2.79-17.88,3.29-26.93,3.37-5.83.01-11.94,2.36-15.41,7.23-3.24,4.54-5.28,9.76-7.38,14.88-8.65,20.6-18.19,41.11-31.94,58.86-16.3,21.46-38.91,38.34-64.49,46.92-10.53.16-21.06-.43-31.59-.51-12.05.62-24.1,1.78-36.18,2.1,1.11,1.92,2.21,3.85,3.32,5.78,16.39-1.26,32.87-.72,49.24-2.2-4.95,2.57-10.69,3.29-16.19,3.6-10.97-.26-21.91.48-32.85.84.43,3.06.87,6.13,1.38,9.19,1.7,9.51,3.86,19.01,7.94,27.8,1.51,3.85,3.84,7.62,3.79,11.87-.76,3.27-4.78,3.16-7.34,2.34-8.72-2.49-16.57-7.3-24.02-12.37-12.08-8.44-23.29-18.71-30.59-31.65-.83-1.4-1.59-2.85-2.61-4.1-2.61-1.02-5.45-1.16-8.16-1.63-11.61-1.57-22.92-4.75-34.06-8.27-19.5-5.79-37.71-15.39-54.3-27.04-13.39-9.74-25.23-21.68-34.73-35.23-2.56-3.3-3.8-7.96-7.8-9.86-4.29-2.2-8.7-4.24-12.59-7.12-1.5-1.33-.8-3.79-.55-5.52,1.24-4.85,6.45-6.71,10.72-8.07,25.01-7.14,51.15-8.56,76.99-9.81,17.95-.67,35.94-1.11,53.85.3,22.27,1.91,44.33,5.86,66.6,7.8,17.11,1.51,34.3,2.75,51.48,1.8,4.85-.46,9.83-.56,14.53-2.03,6.82-2.43,11.42-8.68,18.16-11.26,4.63-1.74,6.03,3.95,8.32,6.62,1.92.51,3.88-.15,5.78-.55,17.48-5.04,34.01-15.42,43.78-31.08,1.61-2.61,2.51-5.76,1.79-8.8-1.41-9.12-8.8-15.5-12.37-23.69-5.12-10.6-5-22.93-2.19-34.15"/>
      <path class="cls-1" d="m65.01,132.37c3.89,2.88,8.3,4.92,12.59,7.12,4,1.89,5.24,6.56,7.8,9.86,9.49,13.55,21.34,25.49,34.73,35.23,16.59,11.66,34.8,21.26,54.3,27.04,11.14,3.52,22.45,6.7,34.06,8.27,2.71.47,5.55.61,8.16,1.63,1.02,1.25,1.78,2.7,2.61,4.1-16.17-.67-32.15-3.5-47.89-7.16-25.68-6.14-50.25-17.49-70.92-34-12.27-10.42-23.44-22.55-30.69-37.05-2.3-4.74-4.52-9.69-4.74-15.04"/>
      <path class="cls-1" d="m83.46,142.46c2.76-.05,5.24,1.31,7.83,2.06,3.36,1.11,6.9,1.58,10.2,2.86,2.05,1.53,3.36,3.82,4.96,5.8,12.39,16.42,29.16,28.97,47.12,38.76,18.05,9.67,37.96,15.68,58.12,18.95,1.59,2.36,2.41,5.14,3.44,7.79-23.65-3.5-47.11-9.69-68.52-20.54-25.56-12.43-47.72-31.77-63.15-55.68"/>
      <path class="cls-1" d="m105.72,148.3c5,.7,9.95,1.73,14.93,2.54,2,.14,3.15,1.93,4.36,3.3,9.91,12.39,22.81,22.17,36.76,29.63,14.43,7.76,30.36,12.08,46.14,16.17,1.44,2.64,1.99,5.66,2.79,8.54-23.15-3.59-45.53-11.81-65.63-23.81-14.95-9.86-29.04-21.58-39.36-36.36"/>
      <path class="cls-1" d="m126.32,151.85c10.52,1.79,21.26,4.38,30.22,10.44,7.9,5.19,13.55,13.14,21.7,18.03,8.7,5.58,18.86,8.02,28.47,11.52.69,1.8.51,3.8.78,5.71-22.48-5.03-44.8-13.27-63.09-27.59-6.42-5.59-13.43-10.87-18.09-18.1"/>
      <path class="cls-1" d="m186.61,157.67c3.62-1.46,7.53,2.99,5.69,6.44-.92,2.99-5.25,3.57-7.37,1.59-2.67-2.15-1.84-7.25,1.67-8.03"/>
      <path class="cls-1" d="m255.97,202.84c10.67,1.39,21.41,2.47,32.07,4.07-7.39,1.19-14.91,1.01-22.37,1.22-3.99.27-6.73-3.18-9.7-5.28"/>
      <path class="cls-1" d="m264.58,210.42c12.08-.33,24.12-1.48,36.18-2.1,10.53.08,21.06.68,31.59.51-5.07,1.71-10.14,3.46-15.21,5.17-16.37,1.47-32.84.94-49.24,2.2-1.11-1.93-2.21-3.86-3.32-5.78"/>
      <path class="cls-1" d="m268.09,218.44c10.94-.36,21.89-1.1,32.85-.84-.65.34-1.96,1.02-2.62,1.36-9.31,2.61-18.87,4.02-28.31,5.97-.14.68-.41,2.02-.55,2.7-.51-3.06-.95-6.13-1.38-9.19"/>
      <path class="cls-1" d="m347.13,143.29c-1.24.51-2.05,1.67-2.86,2.68-3.92,5.12-7,11.14-7.49,17.65-.48,7.02,2.71,13.56,3.25,20.47.8,6.03-.68,12.11.24,18.14.75,4.96,2.19,9.81,2.44,14.84.47,6.66-1.47,13.25-.79,19.91.52,5.63,3.66,10.6,4.3,16.21.7,4.97-.81,9.89-.68,14.86.12,5.37.92,10.75,2.42,15.91.4,1.16.74,2.69,2.06,3.15,1.6.41,2.99-1.43,2.36-2.92-1.41-5.45-2.44-11.13-1.63-16.76.48-4.4,2.09-8.61,2.26-13.04.2-3.37-.51-6.7-1.37-9.94-1.06-3.92-2.8-7.74-2.75-11.87-.21-6.33,2.87-12.31,2.24-18.66-.32-4.49-2.63-8.51-3.3-12.92-.76-5.06,1.64-9.96.98-15.01-.42-3.89-2.19-7.43-3.35-11.12-1.64-5.06-1.93-10.6-.47-15.73.99-3.43,3.07-6.37,4.83-9.42.79-1.41,1.62-3.08.95-4.69-.39-1.54-2.23-2.28-3.65-1.73"/>
      <path class="cls-1" d="m325.49,172.71c-1.4.72-1.41,2.56-.8,3.82,2.15,5.03,4.84,10.06,5.04,15.66.21,6.23-2.56,11.98-3.81,17.98-2.2,8.35-2.43,17.4.49,25.61,3,9.45,9.55,17.33,12.11,26.95,2.11,7.23,1.2,14.84.07,22.16-.47,1.74,2.18,3.27,3.28,1.7.73-1.71.95-3.58,1.23-5.39,1.87-12.83.63-26.28-4.67-38.18-2.9-6.88-7.62-13.24-7.93-20.96-.93-8.64,4.04-16.37,4.49-24.84.58-7.52-1.77-14.92-5.08-21.57-.81-1.63-2.27-3.93-4.43-2.94"/>
      <path class="cls-1" d="m357.68,184.79c-2,1.13-1.78,3.73-1.26,5.64,1.59,6.42,4.63,12.52,5.06,19.2.32,7.5-5.24,13.69-5.35,21.12-.28,5.12,2.03,9.9,2.29,14.97.19,6.1-2.66,11.71-3.61,17.65-1.16,7.08-.32,14.54,2.54,21.12.77,2.17,3.92,1.31,4.04-.81-.42-3.38-1.77-6.6-1.79-10.04-.47-7.82,4-14.74,4.86-22.37,1.13-7.26-1.41-14.46-.77-21.73.4-5.51,2.49-10.71,3.23-16.16,1.55-8.62.48-17.85-3.63-25.62-1-2.01-3.17-4.26-5.59-2.97"/>
      <path class="cls-1" d="m314.24,217.93c-1.29.66-1.44,2.25-1.6,3.53-.72,7.34-1,14.77-.02,22.11.62,3.89,1.85,7.87,4.54,10.86,3.76,4.08,8.79,7.07,11.39,12.14,2.94,4.96,3.03,10.96,2.08,16.49-.55,2.57,3.85,3.15,4.22.65,2.55-7.67,3.03-16.79-1.37-23.89-2.3-3.84-6.28-6.14-9.31-9.31-2.09-2.17-3.35-4.99-4.1-7.88-1.82-7.16-1.7-14.6-2.23-21.92.12-1.87-1.7-3.86-3.58-2.78"/>
      <path class="cls-1" d="m370.81,218.6c-1.03.88-.87,2.32-.72,3.52.75,5.78,2.61,11.55,1.65,17.42-.7,5.14-3.68,9.66-4.25,14.82-.58,4.63,1.49,9.4-.29,13.91-1.8,4.83-2.98,10.19-1.55,15.27.24,1.7,2.84,1.9,3.34.28.32-1.73.09-3.52.4-5.25.49-3.51,2.66-6.48,3.35-9.92.7-3.89-.02-7.85.25-11.77.19-3.26,1.83-6.18,2.52-9.33,1.6-6.29,1.42-12.87.7-19.28-.47-3.08-.83-6.26-2.11-9.12-.53-1.26-2.37-1.5-3.3-.55"/>
      <path class="cls-1" d="m347.13,143.29c1.42-.55,3.26.19,3.65,1.73.68,1.61-.16,3.28-.95,4.69-1.76,3.05-3.84,5.99-4.83,9.42-1.46,5.13-1.17,10.68.47,15.73,1.16,3.69,2.94,7.23,3.35,11.12.66,5.05-1.75,9.96-.98,15.01.67,4.41,2.97,8.43,3.3,12.92.62,6.35-2.46,12.33-2.24,18.66-.06,4.14,1.69,7.95,2.75,11.87.86,3.23,1.57,6.57,1.37,9.94-.17,4.43-1.78,8.64-2.26,13.04-.81,5.63.22,11.32,1.63,16.76.63,1.49-.75,3.33-2.36,2.92-1.32-.46-1.65-1.98-2.06-3.15-1.5-5.16-2.29-10.53-2.42-15.91-.14-4.97,1.37-9.89.68-14.86-.64-5.6-3.79-10.58-4.3-16.21-.68-6.67,1.26-13.25.79-19.91-.25-5.03-1.7-9.89-2.44-14.84-.91-6.03.57-12.11-.24-18.14-.54-6.91-3.73-13.45-3.25-20.47.5-6.51,3.58-12.54,7.49-17.65.81-1.01,1.62-2.17,2.86-2.68"/>
      <path class="cls-1" d="m325.49,172.71c2.16-.99,3.61,1.31,4.43,2.94,3.31,6.65,5.66,14.05,5.08,21.57-.45,8.48-5.42,16.21-4.49,24.84.3,7.72,5.02,14.08,7.93,20.96,5.3,11.9,6.54,25.35,4.67,38.18-.29,1.82-.5,3.68-1.23,5.39-1.11,1.57-3.75.04-3.28-1.7,1.13-7.31,2.04-14.92-.07-22.16-2.56-9.62-9.12-17.5-12.11-26.95-2.91-8.21-2.68-17.26-.49-25.61,1.25-5.99,4.02-11.75,3.81-17.98-.2-5.6-2.89-10.63-5.04-15.66-.61-1.26-.6-3.11.8-3.82"/>
      <path class="cls-1" d="m357.68,184.79c2.42-1.29,4.59.95,5.59,2.97,4.11,7.77,5.19,17,3.63,25.62-.74,5.45-2.82,10.65-3.23,16.16-.63,7.27,1.9,14.46.77,21.73-.86,7.63-5.32,14.55-4.86,22.37.02,3.44,1.37,6.66,1.79,10.04-.12,2.12-3.26,2.98-4.04.81-2.85-6.59-3.69-14.05-2.54-21.12.95-5.94,3.79-11.55,3.61-17.65-.25-5.07-2.57-9.84-2.29-14.97.11-7.44,5.67-13.62,5.35-21.12-.43-6.68-3.47-12.78-5.06-19.2-.52-1.91-.74-4.51,1.26-5.64"/>
      <path class="cls-1" d="m314.24,217.93c1.88-1.08,3.71.91,3.58,2.78.53,7.32.42,14.76,2.23,21.92.75,2.89,2.01,5.71,4.1,7.88,3.03,3.17,7.01,5.47,9.31,9.31,4.41,7.1,3.92,16.22,1.37,23.89-.37,2.5-4.78,1.92-4.22-.65.96-5.53.86-11.53-2.08-16.49-2.59-5.07-7.63-8.07-11.39-12.14-2.69-2.98-3.92-6.96-4.54-10.86-.98-7.33-.69-14.77.02-22.11.16-1.27.31-2.87,1.6-3.53"/>
      <path class="cls-1" d="m370.81,218.6c.93-.95,2.76-.7,3.3.55,1.28,2.87,1.64,6.04,2.11,9.12.73,6.41.91,12.98-.7,19.28-.7,3.15-2.33,6.07-2.52,9.33-.28,3.92.44,7.87-.25,11.77-.7,3.45-2.86,6.42-3.35,9.92-.31,1.73-.09,3.51-.4,5.25-.5,1.62-3.1,1.42-3.34-.28-1.43-5.08-.25-10.45,1.55-15.27,1.78-4.51-.29-9.28.29-13.91.57-5.16,3.54-9.68,4.25-14.82.96-5.87-.9-11.65-1.65-17.42-.15-1.2-.3-2.64.72-3.52h0Z"/>
    </g>
  </g>
</svg>