<?xml version="1.0" encoding="UTF-8"?>
<svg id="Calque_2" data-name="Calque 2" xmlns="http://www.w3.org/2000/svg" width="47.74" height="75.79" xmlns:xlink="http://www.w3.org/1999/xlink" viewBox="0 0 47.74 75.79">
  <defs>
    <style>
      .cls-1 {
        fill: #66c1bf;
      }

      .cls-1, .cls-2, .cls-3 {
        stroke-width: 0px;
      }

      .cls-2 {
        fill: none;
      }

      .cls-4 {
        clip-path: url(#clippath);
      }

      .cls-3 {
        fill: #335472;
      }
    </style>
    <clipPath id="clippath">
      <rect class="cls-2" width="47.74" height="75.79"/>
    </clipPath>
  </defs>
  <g id="Label">
    <g>
      <path id="Tracé_5" data-name="Tracé 5" class="cls-1" d="m28.22,2.61C23.38,7.72-.06,58.17.47,61.87c.53,3.7,6.25,8.47,12.37,5.92,6.12-2.55,27.69-56.91,26.9-61.87-.79-4.96-6.68-8.42-11.52-3.3Z"/>
      <g id="Groupe_6" data-name="Groupe 6">
        <g class="cls-4">
          <g id="Groupe_5" data-name="Groupe 5">
            <path id="Tracé_6" data-name="Tracé 6" class="cls-1" d="m34.36,40.28c-1.15,0-2.08-.94-2.08-2.09,0-.3.06-.59.19-.86,0,0,8.52-18.88,8.35-20.87s-10.53-7.57-10.53-7.57c-.39-.19-.71-.48-.95-.84-.36-.57-.41-1.29-.11-1.9.46-1.05,1.69-1.52,2.74-1.06,0,0,0,0,0,0,5.12,2.84,12.72,6.34,13.51,9.85s-1.36,7.61-9.24,24.12c-.34.74-1.08,1.22-1.89,1.22"/>
            <path id="Tracé_7" data-name="Tracé 7" class="cls-1" d="m2.08,75.79c-1.15,0-2.08-.93-2.08-2.08,0-.31.07-.61.2-.89l9.15-19.37c.49-1.04,1.73-1.48,2.77-.99,1.04.49,1.48,1.73.99,2.77l-9.15,19.37c-.35.73-1.08,1.19-1.88,1.19"/>
            <path id="Tracé_8" data-name="Tracé 8" class="cls-3" d="m29.07,34.76c-.41,0-.81-.1-1.16-.3l-11.81-6.58c-1.02-.53-1.41-1.78-.88-2.8.02-.05.05-.09.08-.14.68-1.03,2.04-1.36,3.12-.75l11.81,6.58c1.02.53,1.41,1.78.88,2.8-.02.05-.05.09-.08.14-.43.66-1.17,1.06-1.96,1.05"/>
          </g>
        </g>
      </g>
    </g>
  </g>
</svg>