<?xml version="1.0" encoding="UTF-8"?>
<svg id="Calque_2" data-name="Calque 2" xmlns="http://www.w3.org/2000/svg" width="328.91" height="356.79" viewBox="0 0 328.91 356.79">
  <defs>
    <style>
      .cls-1 {
        fill: #66c1bf;
      }

      .cls-1, .cls-2 {
        stroke-width: 0px;
      }

      .cls-2 {
        fill: #335472;
      }
    </style>
  </defs>
  <g id="Label">
    <g>
      <path class="cls-1" d="m236.86,356.65c-12.61.62-24.51-2.46-36.13-7.01-8.96-3.51-17.47-7.87-25.53-13.15-6.46-4.24-12.05-9.33-16.63-15.58-4.27-5.83-8.66-11.58-13.16-17.23-3.8-4.78-7.83-9.37-11.79-14.03-7.1-8.38-14.59-16.4-22.46-24.06-2.04-1.99-3.45-4.34-4.3-7.04-1.17-3.73-.07-6.9,2.67-9.45,2.39-2.23,5.32-3.55,8.6-3.88,5.21-.53,10.25.01,15.08,2.2,6.39,2.89,12.25,6.52,17.21,11.55,4.78,4.85,9.63,9.64,14.42,14.48,1.07,1.08,2.02,2.29,3.03,3.44.55.63,1.05,1.3,1.66,1.87.61.57,1.33,1.12,2.23.69.94-.45.87-1.37.67-2.18-.26-1.08-.61-2.14-1.03-3.17-5.39-13.26-10.79-26.52-16.22-39.77-6.42-15.69-12.87-31.38-19.32-47.06-4.22-10.29-8.47-20.56-12.68-30.85-2.16-5.27-4.33-10.54-6.33-15.88-1.16-3.12-2.19-6.31-2.92-9.55-1.58-6.95,3.52-17.44,12.59-19.52,5.8-1.33,10.38.5,14.29,4.6.94.99,1.72,2.21,2.3,3.46,2.9,6.16,5.75,12.35,8.56,18.55,4.58,10.13,9.13,20.28,13.68,30.42,3.07,6.85,6.12,13.71,9.2,20.55,2.11,4.69,4.24,9.37,6.43,14.02.59,1.24,1.33,2.46,2.21,3.51,1.41,1.67,3.31,2.07,4.84,1.26,1.56-.82,2.25-2.59,1.72-4.69-.27-1.07-.74-2.1-1.1-3.14-.64-1.84-1.38-3.65-1.9-5.52-1.2-4.37-.1-8.19,2.81-11.63,4.84-5.72,14.65-8.41,21.9-3.4,2.53,1.75,4.61,4,6.44,6.48.66.89,1.28,1.84,2.07,2.61,1.73,1.69,3.69,1.33,4.74-.8.24-.5.4-1.03.59-1.56,3.36-9.38,13.63-13.31,22.52-8.59,2.61,1.39,4.9,3.16,6.48,5.74.72,1.18,1.52,2.33,2.33,3.46.49.67,1.01,1.34,1.64,1.87,1.61,1.36,3.35,1.28,4.84-.21.68-.68,1.24-1.49,1.84-2.26,3.42-4.41,7.76-5.93,13.26-4.69,5.99,1.36,10.18,5.04,13.29,9.99,1.99,3.16,3.53,6.62,5.02,10.06,3.64,8.42,7.15,16.9,10.67,25.37,6.14,14.76,12.25,29.53,18.37,44.3,1.77,4.28,2.83,8.76,3.13,13.35.35,5.27.4,10.56-.72,15.78-2,9.3-6.06,17.49-12.55,24.55-6.13,6.66-13.41,11.64-21.46,15.59-5.12,2.51-10.22,5.05-15.45,7.31-10.26,4.44-20.98,7.4-32.07,8.8-3.15.4-6.38.06-9.58.06Z"/>
      <path class="cls-2" d="m230.66,83.77c-2.02-5.36-3.73-10.86-6.16-16.03-2.68-5.72-5.67-11.35-9.12-16.63C184.19,3.22,123.68-13.15,68.1,11.14,23.22,30.75-5.13,79.76.77,127.55c6.74,54.63,43.25,95.02,93.72,103.75,4.25.74,8.9,1.98,10.26-3.91,1.53-6.67-3.78-7.04-8.23-8.04-43.17-9.65-69.68-36.51-80.49-78.95C4.6,95.55,23.75,50.48,63.62,27.01c40.54-23.85,92.4-19.12,125.4,11.68,23.65,22.07,34,49.92,34.38,81.81.05,4.58.22,9.61,5.88,8.73,2.46-.38,6-5.76,5.89-8.76,0,0-1.17-21.23-4.52-36.7Z"/>
      <path class="cls-2" d="m188,96.73c.71,8.37,1.56,16.72,2.06,25.1.28,4.71-1.5,9.27-6.89,8.08-2.37-.52-5.29-5.32-5.4-8.26-.6-17.12-4.75-32.8-16.35-45.85-17.73-19.94-45.7-23.6-72.99-9.74-22.4,11.38-33.89,35.78-28.51,60.86,3.46,16.17,10.67,30.07,24.8,39.59,3.61,2.43,7.68,4.93,4,9.98-3.71,5.09-7.82,2.59-11.8-.05-35.45-23.55-49.24-91.98,5.63-121.64,43.38-23.45,90.84-4.07,105.45,41.93Z"/>
    </g>
  </g>
</svg>