<?xml version="1.0" encoding="UTF-8"?>
<svg id="Calque_2" data-name="Calque 2" xmlns="http://www.w3.org/2000/svg" width="245.76" height="103.29" viewBox="0 0 245.76 103.29">
  <defs>
    <style>
      .cls-1 {
        fill: none;
        stroke: #335572;
        stroke-linecap: round;
        stroke-linejoin: round;
        stroke-width: 3px;
      }

      .cls-2 {
        fill: #fff;
      }

      .cls-2, .cls-3 {
        stroke-width: 0px;
      }

      .cls-3 {
        fill: #335572;
      }
    </style>
  </defs>
  <g id="Label">
    <g>
      <path class="cls-2" d="m245.76,46.8c.02-.19-7.47-8.89-34.52-12.9-1.57-3.03-5.64-4.73-9.23-5.52-10.94-2.4-22.25-2.28-33.45-2.14-5.25.06-10.64.15-15.52,2.08,2.85,1.07,5.51,2.6,7.91,4.48-9.36,1.33-18.28,4.02-27.18,9.06-.62.35-1.48.71-2.08.34-6.02-3.76-13.14-6.43-20.65-7.76,3.41,4.2,8.35,7.47,13.22,10.66-5.28,3.37-9.9,7.37-13.66,11.82,3.06.6,6.1-.85,8.71-2.24,3.13-1.67,6.27-3.33,9.27-5.15,1.54-.93,3.72-.02,5.37.8,8.91,4.47,33.36,7.02,43.89,7.87,2.76.13,5.45.2,8.05.22-1.28,1.93-2.34,4.01-3.12,6.2,4.65-1.19,9.03-3.38,12.77-6.38,3.87-.17,7.52-.46,10.96-.83-.68,2.41-1.36,4.81-2.04,7.22,4.06-2.14,7.73-5.01,10.8-8.42,20-3.33,30.51-9.26,30.53-9.4Z"/>
      <path class="cls-1" d="m135.43,16.17c.02-.14-5.31-6.33-24.55-9.18-1.12-2.16-4.01-3.36-6.57-3.92-7.78-1.71-15.83-1.62-23.79-1.52-3.73.05-7.57.11-11.04,1.48,2.02.76,3.92,1.85,5.62,3.18-6.66.94-13,2.86-19.33,6.45-.44.25-1.05.5-1.48.24-4.28-2.67-9.34-4.57-14.69-5.52,2.42,2.99,5.94,5.31,9.4,7.58-3.75,2.4-7.04,5.24-9.72,8.4,2.18.43,4.34-.61,6.2-1.59,2.23-1.19,4.46-2.37,6.59-3.66,1.1-.66,2.65-.02,3.82.57,6.34,3.18,23.73,4.99,31.21,5.6,1.97.09,3.87.15,5.72.16-.91,1.38-1.66,2.85-2.22,4.41,3.3-.84,6.42-2.41,9.08-4.54,2.75-.12,5.35-.33,7.79-.59-.48,1.71-.97,3.42-1.45,5.14,2.89-1.52,5.5-3.57,7.68-5.99,14.23-2.37,21.7-6.58,21.71-6.69Z"/>
      <g>
        <path class="cls-3" d="m123.75,56.22c-34.24-2.02-62.19-1.85-90.01,13.91-.9.51-2.16,1.03-3.02.49-8.77-5.47-19.13-9.37-30.07-11.3,4.96,6.12,12.17,10.87,19.26,15.53-7.68,4.91-14.42,10.74-19.9,17.21,4.46.88,8.89-1.24,12.69-3.26,4.56-2.43,9.13-4.86,13.5-7.5,2.25-1.36,5.42-.03,7.82,1.17,12.98,6.51,48.59,10.23,63.92,11.47,64.34,3.09,98.91-16.28,98.95-16.61s-14.92-17.68-73.13-21.11Z"/>
        <path class="cls-3" d="m147.54,61.89c-.46-6.57-7.96-9.98-14.39-11.39-15.93-3.5-32.41-3.31-48.73-3.12-7.65.09-15.49.22-22.61,3.03,8.06,3.04,15.17,8.53,20.15,15.56"/>
        <path class="cls-3" d="m111.12,92.14c-2.55,3.38-4.59,7.15-6.02,11.14,7.81-1.99,15.11-5.94,21.05-11.39"/>
        <path class="cls-3" d="m140.81,88.72c-1.38,4.86-2.75,9.72-4.13,14.57,6.1-3.21,11.6-7.54,16.16-12.71"/>
      </g>
    </g>
  </g>
</svg>