<?xml version="1.0" encoding="UTF-8"?>
<svg id="Calque_2" data-name="Calque 2" xmlns="http://www.w3.org/2000/svg" width="203.86" height="221.14" viewBox="0 0 203.86 221.14">
  <defs>
    <style>
      .cls-1 {
        fill: #66c1bf;
      }

      .cls-1, .cls-2 {
        stroke-width: 0px;
      }

      .cls-2 {
        fill: #335472;
      }
    </style>
  </defs>
  <g id="Label">
    <g>
      <path class="cls-2" d="m146.8,221.05c-7.81.38-15.19-1.53-22.4-4.34-5.56-2.17-10.83-4.88-15.82-8.15-4.01-2.63-7.47-5.78-10.31-9.66-2.65-3.61-5.37-7.18-8.16-10.68-2.36-2.96-4.86-5.81-7.3-8.7-4.4-5.19-9.04-10.17-13.92-14.91-1.27-1.23-2.14-2.69-2.67-4.36-.73-2.31-.05-4.28,1.65-5.86,1.48-1.38,3.3-2.2,5.33-2.4,3.23-.33,6.35,0,9.35,1.36,3.96,1.79,7.6,4.04,10.67,7.16,2.97,3.01,5.97,5.97,8.94,8.98.66.67,1.25,1.42,1.88,2.13.34.39.65.81,1.03,1.16.38.35.83.69,1.38.42.58-.28.54-.85.42-1.35-.16-.67-.38-1.33-.64-1.96-3.34-8.22-6.69-16.44-10.05-24.65-3.98-9.73-7.98-19.45-11.97-29.17-2.62-6.37-5.25-12.74-7.86-19.12-1.34-3.27-2.69-6.53-3.92-9.84-.72-1.93-1.35-3.91-1.81-5.92-.98-4.31,2.18-10.81,7.81-12.1,3.59-.82,6.44.31,8.86,2.85.58.61,1.06,1.37,1.43,2.14,1.8,3.82,3.56,7.65,5.3,11.5,2.84,6.28,5.66,12.57,8.48,18.85,1.9,4.24,3.79,8.49,5.7,12.74,1.31,2.91,2.63,5.81,3.99,8.69.36.77.82,1.52,1.37,2.17.87,1.04,2.05,1.29,3,.78.97-.51,1.39-1.6,1.06-2.91-.17-.66-.46-1.3-.68-1.95-.4-1.14-.86-2.26-1.18-3.42-.75-2.71-.06-5.08,1.74-7.21,3-3.55,9.08-5.21,13.57-2.11,1.57,1.09,2.86,2.48,3.99,4.02.41.55.79,1.14,1.28,1.62,1.07,1.05,2.28.82,2.94-.49.15-.31.25-.64.37-.97,2.08-5.81,8.45-8.25,13.96-5.32,1.62.86,3.04,1.96,4.01,3.56.45.73.94,1.45,1.45,2.14.3.41.63.83,1.02,1.16,1,.84,2.07.79,3-.13.42-.42.77-.93,1.14-1.4,2.12-2.73,4.81-3.68,8.22-2.9,3.71.84,6.31,3.12,8.24,6.19,1.23,1.96,2.19,4.1,3.11,6.24,2.26,5.22,4.43,10.47,6.61,15.72,3.8,9.15,7.6,18.3,11.38,27.46,1.1,2.65,1.75,5.43,1.94,8.27.21,3.26.25,6.55-.45,9.78-1.24,5.77-3.75,10.84-7.78,15.22-3.8,4.13-8.31,7.22-13.3,9.66-3.17,1.55-6.34,3.13-9.58,4.53-6.36,2.75-13,4.59-19.88,5.45-1.95.25-3.96.04-5.94.04Z"/>
      <path class="cls-1" d="m142.96,51.92c-1.25-3.32-2.31-6.73-3.82-9.94-1.66-3.54-3.52-7.03-5.65-10.31C114.16,1.99,76.66-8.15,42.21,6.9,14.39,19.06-3.18,49.43.48,79.06c4.18,33.86,26.8,58.89,58.09,64.3,2.64.46,5.52,1.23,6.36-2.42.95-4.13-2.35-4.37-5.1-4.98-26.76-5.98-43.19-22.63-49.89-48.93C2.85,59.22,14.72,31.29,39.43,16.74c25.13-14.79,57.27-11.85,77.72,7.24,14.66,13.68,21.07,30.94,21.31,50.71.03,2.84.14,5.95,3.64,5.41,1.53-.24,3.72-3.57,3.65-5.43,0,0-.73-13.16-2.8-22.75Z"/>
      <path class="cls-1" d="m116.52,59.95c.44,5.18.97,10.36,1.28,15.56.17,2.92-.93,5.75-4.27,5.01-1.47-.32-3.28-3.3-3.35-5.12-.37-10.61-2.94-20.33-10.14-28.42-10.99-12.36-28.32-14.63-45.24-6.04-13.89,7.06-21,22.18-17.67,37.72,2.15,10.02,6.61,18.64,15.37,24.54,2.24,1.51,4.76,3.05,2.48,6.19-2.3,3.16-4.85,1.61-7.31-.03-21.97-14.59-30.52-57.01,3.49-75.39,26.89-14.53,56.3-2.52,65.36,25.99Z"/>
    </g>
  </g>
</svg>