<?xml version="1.0" encoding="UTF-8"?>
<svg id="Calque_2" data-name="Calque 2" xmlns="http://www.w3.org/2000/svg" width="218.31" height="217.96" viewBox="0 0 218.31 217.96">
  <defs>
    <style>
      .cls-1 {
        fill: #66c1bf;
      }

      .cls-1, .cls-2, .cls-3 {
        stroke-width: 0px;
      }

      .cls-2 {
        fill: #345273;
      }

      .cls-3 {
        fill: #fff;
      }
    </style>
  </defs>
  <g id="Label">
    <g>
      <path class="cls-2" d="m218.31,108.98c0,17.38-4.07,33.8-11.32,48.38-17.85,35.91-54.96,60.6-97.84,60.6-22.94,0-44.22-7.06-61.79-19.13-19.84-13.63-34.95-33.64-42.34-57.06-3.27-10.34-5.03-21.36-5.03-32.78,0-2.55.09-5.08.26-7.58C2.54,68.23,19.69,39.14,45.11,20.72,63.1,7.69,85.23,0,109.15,0c38.71,0,72.72,20.12,92.1,50.46,5.68,8.89,10.11,18.67,13.02,29.07,2.19,7.82,3.54,15.99,3.92,24.41.08,1.67.12,3.35.12,5.04Z"/>
      <path class="cls-1" d="m214.28,79.54c-1.99.46-3.98,1.77-5.56,3.03-1.12.9-2.25,1.8-3.37,2.69-1.89,1.52-3.98,3.1-6.52,3.26-3.03.21-5.81-1.79-7.15-4.2-.51-.9-.85-1.86-1.1-2.84-.55-2.2.8-4.53,3.22-5.24,2.25-.65,4.19-2.17,5.02-4.13,1.27-3.06-.33-6.84-3.57-8.41-.85-.42-1.83-.7-2.51-1.31-1.58-1.42-.96-3.76-.25-5.65.3-.78.6-1.57.9-2.35.85-2.23,3.23-3.66,5.89-3.67.67,0,1.34-.09,1.98-.25,5.68,8.89,10.11,18.67,13.02,29.07Z"/>
      <path class="cls-1" d="m47.95,53.09c-3.92,11.04-17.74,14.97-27.23,22.28-8.81,6.77-13.82,16.59-20,25.38-.15.21-.3.43-.46.64C2.54,68.23,19.69,39.14,45.11,20.72c.8,2.28,1.42,4.92,1.91,7.55.88,4.84,1.33,9.63,1.61,12.01.53,4.28.76,8.72-.68,12.81Z"/>
      <path class="cls-1" d="m47.36,198.83c-19.84-13.63-34.95-33.64-42.34-57.06,4.92,1.82,9.9,4.46,12.11,6.55,3.77,3.56,5.4,8.71,7.8,13.29,2.71,5.17,6.54,9.77,11.16,13.39.58.46,1.18.91,1.79,1.34,2.8,1.98,5.99,3.75,7.58,6.78,1.13,2.16,1.28,4.66,1.42,7.1.16,2.88.31,5.75.48,8.63Z"/>
      <path class="cls-1" d="m218.31,108.98c0,17.38-4.07,33.8-11.32,48.38-5.08-3.14-10.27-6.14-14.18-10.44-7.48-8.22-8.81-20.78-3.2-30.19,2.09-3.5,5.2-6.65,9.17-8.12.38-.15.78-.28,1.18-.39,2.67-.74,5.5-.7,8.25-1.06,3.52-.44,6.93-1.55,9.99-3.22.08,1.67.12,3.35.12,5.04Z"/>
      <path class="cls-1" d="m87.88,90.45c-2.44.77-4.98,4.04-5.15,6.88s0,5.58-.88,8.09c-.79,2.26-2.74,3.77-4.64,5.23-3.67,2.8-7.33,5.6-11,8.4-3.52,2.69-7.09,5.39-11.07,7.37-3.91,1.95-8.15,2.18-4.66-3.14,4.67-7.11,9.97-13.8,15.8-19.98,5.24-5.55,11.24-12.34,18.29-15.32l3.3,2.48Z"/>
      <path class="cls-1" d="m87.41,85.6c.74-2.45-.54-6.39-2.79-8.12-2.25-1.74-4.61-3.15-6.19-5.28-1.42-1.93-1.58-4.38-1.71-6.78-.25-4.61-.51-9.21-.76-13.82-.24-4.43-.47-8.89.14-13.3.59-4.33,2.78-7.96,5.22-2.08,3.25,7.86,5.8,16,7.63,24.31,1.64,7.46,3.87,16.24,2.38,23.74l-3.91,1.34Z"/>
      <path class="cls-1" d="m94.77,86c2.26,1.21,6.37.73,8.52-1.13s4-3.9,6.4-5.02c2.17-1.01,4.61-.68,6.98-.33,4.57.67,9.13,1.33,13.7,2,4.39.64,8.81,1.3,13.01,2.77,4.12,1.44,7.25,4.31,1.01,5.52-8.35,1.63-16.84,2.51-25.34,2.66-7.63.13-16.68.58-23.75-2.38l-.54-4.09Z"/>
      <path class="cls-1" d="m142.46,115.11c-1.22-1.01-3.76-1.22-5.29-.36-1.53.86-2.89,1.86-4.49,2.25-1.44.35-2.87-.16-4.26-.65-2.68-.96-5.36-1.92-8.04-2.89-2.57-.92-5.16-1.87-7.52-3.27-2.32-1.38-3.86-3.49.07-3.46,5.24.04,10.48.54,15.64,1.5,4.63.86,10.15,1.7,14.06,4.35l-.18,2.54Z"/>
      <path class="cls-1" d="m144.81,113.24c1.52-.44,3.13-2.42,3.28-4.16s.09-3.44.66-4.97c.52-1.38,1.74-2.28,2.94-3.15,2.3-1.67,4.6-3.35,6.91-5.02,2.21-1.61,4.45-3.22,6.94-4.38s5.06-1.22,2.82,2c-2.98,4.31-6.35,8.36-10.04,12.08-3.31,3.34-7.12,7.44-11.51,9.18l-2-1.58Z"/>
      <path class="cls-1" d="m147.07,117.19c.13,1.57,1.75,3.54,3.43,4.04,1.68.49,3.36.77,4.74,1.64,1.25.78,1.89,2.16,2.51,3.5,1.18,2.59,2.37,5.18,3.55,7.76,1.14,2.49,2.27,5,2.92,7.67.63,2.62.19,5.2-2.53,2.37-3.64-3.78-6.94-7.88-9.86-12.24-2.62-3.91-5.88-8.45-6.71-13.09l1.94-1.65Z"/>
      <path class="cls-3" d="m101.2,178.76c-2.2,1.72-4.79,2.82-7.54,2.42-.17-23.84-1.17-61.46-1.68-86.04,2.7-.87,4.65-3.4,4.65-6.38,0-3.7-3-6.71-6.71-6.71s-6.71,3-6.71,6.71c0,2.74,1.64,5.09,3.99,6.13-1.02,23.02-1.03,58.9-1.01,83.13-1.17-.32-2.38-.5-3.62-.55-4.13-.17-8.08,1.08-11.5,3.36-3.54,2.37,1.93,3.11,3.9,1.79,3.91-2.62,7.49-.98,11.22.61v.05c.39.19.8.35,1.21.46,2.02.82,4.1,1.5,6.3,1.36,4.71-.3,8.88-2.52,12.53-5.37,2.8-2.19-3.49-2.19-5.05-.97Z"/>
      <path class="cls-3" d="m155.27,167.97c-1.32-.54-3.45.4-4.47,1.2-1.48,1.14-2.89,1.23-4.3.89-.1-13.9-.66-35.26-.98-50.32.31-.11.61-.25.89-.44,2.04-1.32,2.63-4.05,1.31-6.09-1.32-2.04-4.05-2.63-6.09-1.31-2.04,1.32-2.63,4.05-1.31,6.09.52.81,1.26,1.38,2.09,1.71-.52,14.21-.52,34.62-.52,48.65-.76-.25-1.54-.44-2.36-.48-3.19-.15-6.31.83-8.96,2.56-3.56,2.34,1.92,3.09,3.9,1.79,2.83-1.86,4.98.43,7.46,1.36,1.53.58,3.12.71,4.75.55,3.45-.34,6.46-1.91,9.16-4,1.2-.93.46-1.74-.58-2.17Z"/>
    </g>
  </g>
</svg>