<?xml version="1.0" encoding="UTF-8"?>
<svg id="Calque_2" data-name="Calque 2" xmlns="http://www.w3.org/2000/svg" width="462.74" height="321" xmlns:xlink="http://www.w3.org/1999/xlink" viewBox="0 0 462.74 321">
  <defs>
    <style>
      .cls-1 {
        fill: #951e3c;
      }

      .cls-1, .cls-2, .cls-3, .cls-4, .cls-5, .cls-6, .cls-7, .cls-8, .cls-9, .cls-10, .cls-11, .cls-12, .cls-13, .cls-14 {
        stroke-width: 0px;
      }

      .cls-2 {
        fill: #251b17;
      }

      .cls-3 {
        fill: #c92f51;
      }

      .cls-4 {
        fill: #66c1bf;
      }

      .cls-6 {
        fill: none;
      }

      .cls-7 {
        fill: #ec6d81;
      }

      .cls-8 {
        fill: #fff;
      }

      .cls-9 {
        fill: #f8aeb0;
      }

      .cls-15 {
        clip-path: url(#clippath);
      }

      .cls-10 {
        fill: #335572;
      }

      .cls-11 {
        fill: #941c3a;
      }

      .cls-12 {
        fill: #c83b58;
      }

      .cls-13 {
        fill: #9d2542;
      }

      .cls-14 {
        fill: #f7989c;
      }
    </style>
    <clipPath id="clippath">
      <rect class="cls-6" width="462.74" height="321"/>
    </clipPath>
  </defs>
  <g id="Calque_1-2" data-name="Calque 1">
    <g class="cls-15">
      <g>
        <path class="cls-12" d="m315.45,17.84s-.02.09-.04.13c-.06,0-.12,0-.18-.01.07-.04.15-.08.22-.12Z"/>
        <path class="cls-5" d="m64.11,317.38c-.16.28-.32.28-.48,0,.16-.07.32-.07.48,0Z"/>
        <path class="cls-10" d="m227.74,318.6c-.02.13-.05.26-.08.38-.44,2.11-1.14,4.2-1.71,6.29-.44,1.64-1.22,2.72-2.04,4.15-.73,1.26-1.47,2.51-2.29,3.72-1.61,2.39-3.48,4.31-5.56,6.29-1.94,1.84-3.72,3.67-5.78,5.41-4.03,3.39-8.17,6.72-10.87,11.31-4.62,7.84-4.27,16.13-1.65,24.51.54,1.74.87,3.55,2.22,5.57-2.96-1.07-4.34-3.15-5.72-5.03-7.81-10.68-6.72-23.55-.22-34.09,1.86-3.01,4.05-5.78,6.27-8.52,5.5-6.79,12.87-14.22,12.06-23.79-.11-1.33-.33-2.65-.5-3.98-2.11-5.38-6.08-8.84-11.35-10.92-3.49-1.37-7.1-2.35-10.82-2.93-6.22-.97-12.4-2.15-18.32-4.38-12.58-4.74-22.09-12.76-27.26-25.47-4.44-10.92-4.67-22.16-2.86-33.6,1.36-8.6,4.19-16.82,6.5-25.18.99-1.57,1.15-3.43,1.69-5.15,3.79-12.12,7.07-24.37,8.81-36.99.25-.29.34-.62.2-.99.07-.45.14-.9.21-1.34.62-2.16.95-4.37.97-6.62,1.07-3.6,1.53-7.32,1.94-11.03.61-5.53,1.13-11.09,1.38-16.64.14-3.05,1.09-6.41-.58-9.15-1.57-2.57-.83-4.55.41-6.62,1.34-2.24,3.54-2.88,6.01-2.55,2.9.39,4.82,2.34,6.55,4.48,4.19,5.17,11.23,6.34,12.86,12.67,1.8,7.02,4.77,16.23,5.26,23.5.6,8.73-3.21,19.96-4.03,28.59-.47,4.9-5.11,9.99-5.83,14.87-1.57,6.4-3.14,12.81-4.71,19.21-2.91,9-6.12,17.93-7.58,27.32-1.07,6.85-1.14,13.69,1.78,20.18,3.27,7.26,9.58,11.04,16.55,13.96,6.02,2.53,12.31,4.32,18.28,6.98,13.56,6.04,22.76,20.51,19.82,35.56Z"/>
        <path class="cls-4" d="m366.57,165.15c-3.41.05-4.77,2.18-5.61,5.16-.46,1.63-1.52,3.1-2.34,4.63-.43.82-.41,1.66-.27,2.53-1.71-.38-3.38-.73-5.14-.05-5.08,1.97-9.48,10.02-7.32,15.34-.66,0-1.19.26-1.69.7-2.67,2.31-5.35,4.59-8.04,6.87-.66.56-.93,1.23-.9,2.07-4.77-3.71-9.11-1.43-13.34,1.06-3.54,2.08-5.24,5.15-4.27,9.36-.79-.92-1.67-.95-2.78-.51-1.54.63-3.12,1.25-4.75,1.55-1.99.38-2.96,1.28-2.59,3.35-.57-.38-.85-.92-.91-1.6-.12-1.45-1.07-2.17-2.28-2.79-6.18-3.13-13.63-1.5-18.14,4-.19.23-.54.32-.81.47-5.24.14-10.46-.07-15.66-.72-.19-.03-.39-.06-.58-.09-.27-.06-.53-.12-.8-.17-.49-.01-.98-.03-1.47-.04-.6-2.13-1.82-3.88-3.61-5.12-5.88-4.08-12-5.1-18.4-1.13-2.68-1.23-5.48-2.14-8.1-3.53-4.3-2.28-8.48-4.74-12.42-7.6-.43-.32-.85-.85-1.47-.52-.61.32-.5.97-.46,1.5.1,1.19.28,2.37.43,3.55.16,5.2,1.15,10.26,2.39,15.29,3.2,12.98,9.46,23.92,21.03,31.28,3.83,2.43,7.73,4.76,11.52,7.24,15.28,10,20.76,23.35,18.84,41.09-.57,5.32-2.24,10.41-3.03,15.67-1.96,6.16-3.14,12.49-4.21,18.84-.46-3.11-.13-6.24-.14-9.36.06-.14.07-.29.03-.43.59-2.21.71-4.48.82-6.75,1.39-7.96,2.18-15.96,1.1-24.03-1.5-11.14-5.86-20.76-14.84-28-5.38-4.34-11.48-7.49-17.48-10.77-12.65-6.91-20.64-17.27-23.82-31.32-1.41-6.25-1.88-12.6-1.86-19,.04-10.05.45-20.09.08-30.14-.04-1.11-.56-2.29.11-3.63.41.57.7.94.96,1.33,4.77,7.25,10.4,13.68,17.44,18.84,12.86,9.43,27.19,15.2,43.11,16.02,25.25,1.31,47.1-6.62,64.43-25.5,12.45-13.56,17.57-29.72,16.23-47.94-1.33-18.14-9.71-32.88-22.28-45.61-7.14-7.23-15.26-13.63-19.98-22.98-.23-.67-.44-1.35-.69-2.02-3.41-8.81-3.2-17.5.71-26.12,1.61-3.55,4.36-6.19,6.8-9.09,0,0,0,.01,0,.01,1.98-1.17,3.87-2.52,5.95-3.47,8.61-3.93,17.3-5.64,25.81.21,6.07,4.17,9.14,10.6,12.24,16.96-2.77-.95-3.79-3.69-5.66-5.55-6-5.98-12.68-10.27-21.63-8.21-6.61,1.52-11.61,5.35-14.71,11.49-.58,1.14-.84,1.96.58,2.97,2.84,2.02,2.88,7.93.08,10.5-1.32,1.21-1.41,2.3-.87,3.77.41,1.11.73,2.27,1.11,3.4.35,1.05.85,1.91,2.18,1.74.18,1.33.4,2.65.54,3.98.45,4.32,2.32,6.34,6.54,7.06.55.46,1.16.86,1.64,1.38,1.49,1.63,2.67,2.94,5.23,1.07,1.8-1.32,4.14-.39,5.74,1.42-.73.04-1.36-.2-2.04-.51-1.76-.81-3.23.37-4.62,1.09-1.34.7-.8,2.14-.78,3.42.04,2.84,2.26,4.21,3.66,6.16,1.35,1.89,3.3,1.58,4.97,1.11,1.51-.43,2.65-1.7,2.65-3.57,0-.87.1-1.74.15-2.61,1.31,1.33.75,2.81.28,4.23-1.03,3.15,1.08,6.1,4.33,5.98-.62,1.39-2.82,1.62-2.63,3.63.14,1.41.14,2.84.29,4.25.56,5.31,5.69,8.62,10.03,6.5-.29,3.96,1.75,7.18,3.34,10.55-1.87,1.67-3.53,3.28-3.97,6.1-.48,3.14.45,5.98,1.04,8.86.54,2.59,2.73,3.42,5.36,3,2.59-.41,4.1-2.25,5.83-3.84.59-.05,1.19-.09,1.78-.14.51.38.99.35,1.43-.12,4.59-.8,9.21-.89,13.83-.44,13.24,1.29,24.75,6.23,33.17,16.84,7.63,9.6,10.96,20.58,9.07,32.9-.05.32-.1.63-.16.95-.1.05-.14.14-.1.25-.14.54-.27,1.09-.41,1.63-.21.64-.42,1.28-.63,1.92-.28.66-.56,1.32-.85,1.97-4.69,10.78-13.23,17.38-23.95,21.18-4.45,1.58-9.27,2.24-13.83,3.63-5.25,1.61-10.14,3.84-13.7,8.26-1.09.89-1.87,2.02-2.51,3.26-.16.31-.32.61-.49.92h0c-.56.32-.75.86-.92,1.42-.44.4-.76.86-.76,1.49-.14.39-.28.77-.42,1.16-3.35,7.61-3.3,15.24.02,22.82,3.63,8.28,13.55,14.12,21.41,12.07.65-.17,1.4.06,2.11.11-1.16-.07-2.32.96-3.35,1.35-1.32.5-2.82.68-4.22.76-5.67.3-10.78-2.33-15.02-5.91-1.76-1.48-3.34-3.17-4.68-5.05-2.7-3.78-4.3-8.23-4.88-12.82-1.18-9.21.97-17.88,6.58-25.47,3.23-4.37,7.68-7.02,12.83-8.57,3.22-.6,6.29-1.61,9.1-3.33,2.07-.02,3.51-.73,4.48-2.81,1.48-3.18,6.56-4.96,9.98-3.47,2.02.88,3.14-.23,4.53-1.09,1.41-.87,2.66-1.5,2.2-3.8-.61-3.01,1.96-5.57,5.4-6.08,1.75-.26,4.29-4.02,3.85-5.74-.07-.28-.29-.56-.5-.77-3.9-3.63-3.89-7.91.16-11.28.99-.82,1.16-1.63.8-2.7-.44-1.28-.92-2.55-1.38-3.82q-1.37-3.77-5.26-3.97c-4.98-.25-8.05-4.26-6.91-9.11.21-.88.16-1.51-.52-2.13-1.48-1.37-3.3-2.22-4.97-3.3-.82-.53-1.47.1-2.17.49-4.81,2.67-10.52.67-12.5-4.43-.32-.82-.75-1.16-1.55-1.16-1.99-.01-3.98-.01-5.98-.03-.89,0-1.46.31-1.75,1.25-.95,3.14-3.51,4.16-6.41,4.48-1.65.18-3.34,0-5.01.02-.82,0-1.87-.38-2.23.8-.39,1.31.63,1.6,1.53,1.97.28.12.51.37.76.56-.54.06-1.23.35-1.61.13-2.19-1.28-3.77-.19-5.32,1.18-2.88,2.55-4.9,11.13-2.28,15.54.7,1.18,1.67,1.86,3.09,1.84.95-.01,1.9.06,2.85.1Z"/>
        <path class="cls-4" d="m158.66,166.84c-1.74,12.61-5.59,24.24-9.39,36.36-.54,1.72-.7,3.57-1.69,5.15-.13-.92-.35-1.64-1.43-.74-3.15,2.64-6.26,5.34-9.72,7.59-.97.63-.75,1.44-.5,2.3-1.74-.7-2.57-2.76-4.75-2.91-7.72-.54-15.32,6.1-15.69,13.84-.73-.48-1.47-.43-2.25-.1-3.22,1.35-6.07,3.36-9.12,5.01-.54.29-.65.86-.78,1.41-2.71-1.76-5.88-2.26-8.65-1.11-6.11,2.53-10.55,8.42-7.43,15.87-1.79,2.3-2.31,5.14-3.23,7.79-.47,1.34-.03,2.34,1.67,2.28.71-.02,1.43.02,2.01.51-1.03,0-2.06.04-3.09,0-2.55-.1-4.15,1.15-5.15,3.42-2,4.54-.3,8.38,2.41,11.87,2.64,3.41,6.29,3.47,10.11,2.4,1.83,1.48,3.86,2.49,6.22,2.78-.69,2.57-.36,4.73,1.91,6.55,3.62,2.9,7.78,3.06,11.96,2.43,2.94-.45,3.91-3.19,2.4-5.69-.45-.75-.39-1.5-.34-2.29,1.41.43,1.86,1.69,1.73,2.83-.32,2.75,1.35,3.07,3.39,3.4,6.06,1,11.72,3.14,16.52,7.02,5.71,4.6,9.95,10.9,11.77,18.02,1.71,6.7,1.09,13.85-1.09,20.38-.77,2.32-2,4.43-3.5,6.35-1.33,1.7-2.65,4.03-4.38,5.31-4.12,3.06-8.97,5.6-13.85,7.21-2.64.88-5.26,1.83-8.07,1.96.57-.36,1.14-.73,1.7-1.09,10.63-3.84,18.29-10.5,20.8-22,2.57-11.81-2.75-23.74-13.22-29.79-5.23-3.03-10.9-4.86-16.76-6.16-7.15-1.59-14.38-2.85-21.17-5.79-13.82-5.99-21.38-19.99-18.72-34.84,2.12-11.87,8.77-20.83,18.13-28,9.68-7.42,20.93-12.14,31.4-18.21,10.08-5.83,19.3-12.67,26.44-22.04,5.16-6.78,10.16-20.97,13.13-28.91.44,0,.96.44,1.4.44-.07.45-.24,6.87-.88,7.54"/>
        <path class="cls-10" d="m325.61,361.15c-3.31,3.21-7.79,5.56-11.34,6.29-13.72,2.82-30.45-3.51-35.73-17.25-3.41-8.87-3.37-18.44.11-27.28,3.44-8.73,9.56-15.38,15.11-22.76,1.05-1.39,2-2.84,2.96-4.29.87-1.31,1.71-2.64,2.54-3.97.42-.67.83-1.33,1.25-2,.68-1.09,1.29-2.21,2.07-3.23.5-.66.93-1.36,1.32-2.09.78-1.45,1.39-2.99,2.06-4.49,7.18-16,3.73-34.47-8.81-46.73-7.73-7.57-17.16-12.29-27.27-15.8-.71-.25-1.66-.13-1.9-1.16.27.06.53.12.8.17.19.03.39.06.58.09,5.2.65,10.42.86,15.66.72.25,2.94.88,5.61,3.92,7.08,6.67,3.22,15.17.59,18.68-5.88,0,0,6.57,7.61,7.12,8.43,2.13,3.17,3.9,6.58,5.31,10.13,2.92,7.31,4.33,15.2,4.25,23.06-.09,8.84-2.28,17.57-5.98,25.58-2.17,4.69-5,9.04-8.08,13.19-2.21,2.98-4.55,5.98-7.08,8.75-1.2,1.32-2.58,2.59-3.88,3.86-1.39,1.36-2.54,2.8-3.77,4.28-1.37,1.66-2.73,3.34-4,5.08-2.44,3.37-4.57,7.06-5.56,11.13-.75,3.08-.85,6.28-.25,9.39.7,3.59,1.74,6.23,4.13,8.98,5.59,6.42,12.14,9.67,20.66,10.14,5.84.32,10.81-2.06,15.49-5.11,1.58-1.03,2.14-3.29,4.17-4.24.35,3.62-1.65,7.1-4.55,9.92Z"/>
        <path class="cls-3" d="m319.14,26.59s0,0,0,.01c0,0,0-.01,0-.01,0,0,0,0,0,0ZM110.29,180.62s.01,0,.02,0c0,0,0-.01,0-.02l-.02.02Z"/>
        <path class="cls-12" d="m320.27,26.43c-.08.05-.16.09-.24.14.09.01.18.02.27.03-.01-.06-.02-.11-.03-.17Z"/>
        <path class="cls-10" d="m399.77,38c-4.57-.67-8.41,1.27-12.3,3.12-6.42,3.04-13.44,1.33-17.72-4.29-1.6-2.11-2.78-4.46-4.11-6.73-2.56-4.36-5.48-8.42-9.7-11.36-7.42-5.17-15.78-6.58-24.6-5.91-14.64,1.12-28.15,11.1-33.17,24.9-5.47,15.02-2.68,28.85,6.99,41.34,5.16,6.67,11.46,12.37,16.64,19.05,6.37,8.21,11.39,17.05,13.27,27.42.16.16-1.68,1.44-1.52,1.6-.01.01.6.57.58.58.11,4.12,1.27,6.48,1.05,10.64-.11,2.14,1.24,4.31.78,6.42-.57,4.66-1.94,9.09-3.88,13.36-.32.71-.47,1.53-1.25,1.94-3.41,6.25-8.33,11.14-14.36,14.69-16.96,10-34.66,12.07-53.02,3.99-4.75-2.09-9.11-4.88-13.11-8.22-4.46-4.1-9.1-8.04-12.02-13.51-2.22-1.15-3-3.46-4.12-5.42-3.35-5.86-6.02-11.99-8.1-18.46-2.15-6.71-4-13.5-6.24-20.18-.02-.65-.4-1.1-.64-1.68-1.39-3.41-2.82-5.99-5-8.91-1.15-1.54-2.18-3.18-3.42-4.66-.33-.4-.6-1.02-.58-1.52.13-3.03-.5-6.04-1.1-9-.44-2.15-.57-4.29-1.77-6.19-1.04-1.64-1.51-3.52-2.44-5.2-.96-1.74-2.16-3.33-3.47-4.82-4.62-5.2-10.48-9.84-17.15-11.99-4.82-1.56-9.91-2.16-14.96-2.03-1.98.05-3.5-.55-5-1.75-8.06-6.44-16.69-12.01-25.99-16.49-21.38-10.3-43.78-13.96-67.25-9.91-14.79,2.55-27.69,9.36-39.61,18.23-9.89,7.36-20.32,13.71-31.99,17.97-7.24,2.65-12.63,7.39-14.12,15.48.6.53.04,2.37.15,3.08.4,2.66,3.15,3.73,5.79,3.16,4.59-1,9.07-2.24,13.77-2.02,6.04.28,11.23,2.07,15.44,6.84,4.73,5.37,8.67,11.25,14.03,16.05,11.36,10.15,25.45,13.89,40.52,12.54,8.58-.77,16.25-3.78,24.42-6.11.4-.4.91-.47,1.43-.5.8-.32,1.6-.63,2.4-.95,1.08-.58,2.05-1.39,3.36-1.42.16-.48.33-.95.49-1.43-3.53-10.18-4.32-20.42-1.21-30.9,2.25-7.6,5.82-14.21,12.18-19.2,5.67-4.45,12.3-6.32,19.2-7.22,3.9-.51,7.9-.52,11.89-.13,5.76.56,6.37,1.09,6.27,6.76.63,1.89-.33,2.81-1.99,3.37-1.16.39-2.4.58-3.53.29-7.77-1.98-15.54-2.01-23.36-.35-1.07-.08-1.81.61-2.54,1.18-10.38,7.97-15.86,17.61-14.74,30.49.41,4.69-.62,9.96.82,14.32.02.14-1.4,2.08-1.4,2.22,1.64.85,2.82,2.34,3.62,3.74,1.76,3.07.78,3.89,1.75,7.37.16.32,4.29,1.49,4.44,1.81.94,1.1.81,2.03.76,3.51.01.29-4.28-2.57-4.27-2.28.89.38,1.74,1.35,1.75,2.28.03.33-1.43,1.95-1.4,2.28.14.31,3.72,1.8,3.86,2.1.02.32,1.21,1.25,1.23,1.58.53.54,2.34.9,2.28,1.58.02.32-.9,1.78-.88,2.1.79,1.19,1.84.82,1.93,2.1,1.09,3.33,1.18,5.9.7,9.12-1.53,10.23-3.48,21.02-9.67,29.36-.84,1.13-2.06,1.73-2.96,2.73.24.49-.04.6-.44.62-.75,2.89-3.26,4.4-5.21,6.26-2.78,2.66-5.72,5.19-9.09,7.15-1.51,1.65-3.52,2.59-5.36,3.77-2.9,1.54-5.47,3.65-8.55,4.86h-.01c-1.15.66-2.1,1.5-3.29,2.15-1.3.71-2.56,1.5-3.81,2.3-2.54,1.64-4.98,3.43-7.33,5.32-16.41,13.2-25.32,29.93-23.36,51.41,1.33,14.52,7.63,26.34,20.25,34.28,8.22,5.18,17.39,7.36,26.92,8.4,7.59.83,15.28.72,22.75,2.76,6.54,1.78,12.13,6.86,13.29,13.72,1.17,6.93-2.98,14.95-9.18,18.2-1.09.57-2.11,1.23-3.18,1.86-7.82,4.62-18.5,4.42-25.62-1.58-3.92-3.3-7.26-7.11-11.54-9.99-4.22-2.84-8.61-5.02-13.7-5.81-5.99-.93-11.23.33-16.99,1.81-5.59,1.43-10.49,6.35-14.47,10.33-2.43,2.44-5.04,5.15-5.24,9.11,4.3-2.47,7.69-5.94,11.53-8.83,5-3.77,10.73-5.57,16.67-6.13,8.23-.77,15.33,2.35,21.3,8.13,2.67,2.59,4.96,5.52,7.82,7.93,2.28,1.92,4.81,3.41,7.44,4.65,4.71,2.23,9.81,2.47,14.94,2.18,2.84-.16,5.75.28,8.51-.84.57-.36,1.14-.73,1.7-1.09,10.63-3.84,18.29-10.5,20.8-22,2.57-11.81-2.75-23.74-13.22-29.79-5.23-3.03-10.9-4.86-16.76-6.16-7.15-1.59-14.38-2.85-21.17-5.79-13.82-5.99-21.38-19.99-18.72-34.84,2.12-11.87,8.77-20.83,18.13-28,9.68-7.42,20.93-12.14,31.4-18.21,10.08-5.83,19.3-12.67,26.44-22.04,5.16-6.78,8.93-14.28,11.9-22.22.57-2.27,1-4.59,2.29-6.61,1.07-3.6,1.53-7.32,1.94-11.03.61-5.53,1.13-11.09,1.38-16.64.14-3.05,1.09-6.41-.58-9.15-1.57-2.57-.83-4.55.41-6.62,1.34-2.24,2.72-2.57,5.19-2.24,2.9.39,4.12,2.19,5.85,4.33,4.19,5.17,5.27,10.97,6.9,17.31,1.8,7.02,5.49,14.29,5.98,21.56.6,8.73-.17,17.34-1,25.96-.47,4.9-1.39,9.76-2.11,14.64.48,4.42.8,8.86,1.46,13.26,1.59,10.61,4.25,20.9,9.79,30.25,7.21,12.17,17.78,20.43,30.4,26.34,5.84,2.73,11.91,4.95,17.64,7.94,7.31,3.82,13.38,8.88,16.88,16.57.02.82.69,1.51.43,2.38-.18.6.8,2.5.98,3.15.34,1.25.62,2.51.82,3.79.38,2.44.43,4.79.33,7.25-.35,8.93-1.7,18.67.2,27.48.69,3.18,1.31,6.32,2.46,9.37,1.22,3.25,2.58,6.51,3.29,9.88,1.19,5.63-1.75,10.23-6.32,13.34-1.83,1.25-3.81,2.28-5.44,3.81-.38.35-.63.73-.44,1.25,1,2.72,11.37-3.99,12.5-4.86,2.16-1.67,4.21-3.86,5.09-6.5,1.68-4.99-.2-10.7-1.72-15.49-1.21-3.79-1.51-7.72-2.49-11.52-.46-3.11-.13-6.24-.14-9.36.06-.14.07-.29.03-.43.59-2.21.71-4.48.82-6.75,1.39-7.96,2.18-15.96,1.1-24.03-1.5-11.14-5.86-20.76-14.84-28-5.38-4.34-11.48-7.49-17.48-10.77-12.65-6.91-20.64-17.27-23.82-31.32-1.41-6.25-1.88-12.6-1.86-19,.04-10.05.45-20.09.08-30.14-.04-1.11-.56-2.29.11-3.63.41.57.7.94.96,1.33,4.77,7.25,10.4,13.68,17.44,18.84,12.86,9.43,27.18,15.2,43.11,16.02,25.25,1.31,47.1-6.62,64.43-25.5,12.45-13.56,17.57-29.72,16.23-47.94-1.33-18.14-9.71-32.88-22.28-45.61-7.14-7.23-15.27-13.63-19.98-22.98-1.8-.74-2.31-2.64-2.61-4.05-1.21-5.54-1.68-11.07-.59-16.86.67-3.56,1.76-6.82,3.17-10.05.96-2.2,2.79-3.82,4.18-5.75.48-.66,1.19-.68,1.91-.62.16.02.32.04.48.05.08-.05.16-.09.24-.14,1.77-1.03,3.49-2.15,5.36-2.95,8.7-3.73,17.43-5.24,25.8.8,5.97,4.31,8.89,10.8,11.84,17.24h0c.11.2.23.39.34.58l.04.05c.27.02.41.16.37.44,7.26,8.55,17.02,9.51,25.66,2.48,2.05-1.66,4.12-3.25,6.61-4.18,1.29-1.02,2.78-1.01,4.3-.81.63.02,1.27.04,1.91.07.47-.2,1.07-.25,1.08-.96-1.26-.41-2.44-.98-3.81-1.18Zm-287.26,7.11c-3.56,2-7.47,2-11.4,1.77-7.95-.47-15.84-1.75-23.83-1.7-10.05.06-19.77,2.17-29.41,4.74-1.22.32-2.44.63-3.66.94,1.79-2.25,4.08-3.83,6.5-5.15,17.45-9.51,35.94-12.55,55.49-8.65,2.36.47,4.61,1.29,6.58,2.73,2.27,1.65,2.21,3.93-.27,5.32Zm23.74,59.21c-7.62-.14-13.38-6.17-13.33-13.96.06-9.1,6.95-16.01,15.87-15.9,8.24.1,13.8,5.96,13.76,14.53-.03,8.42-7.56,15.49-16.3,15.33Zm54.18-14.07c-.77-.68-1.45-1.47-2.17-2.2-2.96-3.5-5.04-7.28-3.92-12.1-.31-3.01,1.72-5.38,4.64-5.23,4.76.25,7.56,3.22,9.61,7.17,2.02,3.9,2.13,7.83-.16,11.58-1.61,2.63-5.6,2.9-8,.78Zm9.84,32.11c-.7-1.49-1.76-2.82-2.67-4.21-.46-.71-1.4-1.47-.48-2.25.8-.67,1.37.37,1.96.83,3.9,3.12,5.07,7.76,6.64,12.14.79,2.21,1.29,4.54,1.31,6.95-1.75-4.75-4.62-8.92-6.76-13.47Z"/>
        <path class="cls-11" d="m110.3,180.6s0,.01-.01.02l.02-.02s0,0,0,0Z"/>
        <path class="cls-10" d="m156.7,59.79c-5.6-1.3-12.49-2.42-18.21-1.46-4.21.71-8.45,1.42-11.92,4.23-1.07-.08-1.81.61-2.54,1.18-10.38,7.97-14.39,18.59-13.26,31.47.41,4.69,2.1,8.95,3.54,13.31.02.14.03.27.03.41,1.64.85,1.92,2.65,2.72,4.05,1.76,3.07,3.93,5.94,4.91,9.42.16.32.31.64.47.96.94,1.1,1.49,2.35,1.44,3.83.01.29.03.58.04.86.89.38,1.25,1.08,1.26,2.01.03.33.06.65.09.98.14.31.28.62.42.93.02.32.04.65.07.97.53.55.5,1.22.44,1.9.02.32.04.65.06.97.79,1.19.41,2.54.49,3.82,1.09,3.33.26,6.71-.23,9.94-1.53,10.23-5.51,19.53-11.71,27.88-.84,1.13-2.06,1.73-2.96,2.73-.15.2-.3.4-.44.6-.93.43-1.9.8-2.79,1.3-5.33,3-11.04,5-16.95,6.42-15.34,3.71-30.72,2.53-46.09.14-7.95-1.23-15.86-2.75-24-1.67-7.11.95-13.37,3.6-18.49,8.66-7.03,6.94-9.72,15.73-10.37,25.3-.44,6.49.79,12.88,1.67,19.26,1.56,11.36-1.93,19.43-11.35,24.65-7.13,3.95-14.88,4.53-22.77,2.92-8.91-1.82-17.85-7.83-16.45-19.32.02-.15-.08-.31-.12-.46.6-3.31,1.73-6.39,4-9.27-.41,2.53-.88,4.79-1.13,7.07-1.06,9.63,3.8,16.05,13.37,17.6,4.22.68,8.43.49,12.54-.8,8.55-2.68,12.51-8.94,10.92-17.77-1.07-5.95-2.67-11.81-3.83-17.75-1.97-10.15-1.69-20.21,2.36-29.85,6.93-16.52,19.65-25.8,37.1-28.88,10.07-1.78,20.03-.42,29.97,1.19,13.17,2.13,26.32,2.84,39.36-.85,3.06-.86,6.09-1.83,9.01-3.07,1.47-.63,2.92-1.32,4.32-2.1,2.87-1.61,5.58-3.48,8.18-5.49,1.06-.82,2.13-1.62,3.11-2.55,1.23-1.16,2.22-2.52,3.29-3.83l-.02.03c1.31-1.4,2.34-2.97,3.04-4.77,2.36-4.67,1.03-8.73-3.68-11.14-5.56-2.85-11.36-2.33-17.04-.72-10.52,2.98-21.02,5.15-32.06,3.25-18.56-3.2-32.35-12.76-40.84-29.73-2.4-4.8-4.09-9.85-5.65-14.96-.2-.66-.21-1.68-.99-1.74-.98-.08-1.03,1.05-1.3,1.73-1,2.55-1.46,5.21-1.54,7.94-.25,8.63,1.81,16.77,5.46,24.52.92,1.95.67,2.71-1.49,2.73-.22,0-.44.16-.66.25-9.7.54-18.19-2.25-24.72-9.63-8.33-9.42-11.07-20.76-10.46-33.06.09-1.89.12-3.84,1-5.61.6.53.56,1.27.66,1.98.4,2.66,2.48,4.17,5.12,3.59,4.59-1,9.18-2.29,13.88-2.07,6.04.28,11.4,2.3,15.6,7.07,4.73,5.37,8.88,11.26,14.24,16.06,11.36,10.15,24.68,13.78,39.74,12.43,8.58-.77,14.24-5.72,22.42-8.06.4-.4,1.58-1.14,2.1-1.17.8-.32,1.31-.5,2.1-.82,1.08-.58,1.85-.44,3.16-.47.16-.48,2.59,1.18,2.76.7-3.53-10.18-4.32-20.42-1.21-30.9,2.25-7.6,3.44-15.61,9.8-20.6,5.67-4.45,14.15-6.93,21.05-7.83,3.9-.51,8.35.08,12.34.47,5.76.56,7.71,3.04,7.6,8.71Z"/>
        <path class="cls-10" d="m335.42,126.07c.11,4.12,1.18,8.17.96,12.33-.11,2.14-.06,4.29-.53,6.4-.86,0-1.45.61-2.15.97-11.05,5.85-22.1,11.68-34.17,15.29-13.25,3.96-26.66,5.26-40.35,3.05-7.38-1.19-14.32-3.69-20.97-7.06-2.22-1.15-3-3.46-4.12-5.42-3.35-5.86-6.02-11.99-8.1-18.46-2.15-6.71-4-13.5-6.24-20.18.23-.13.45-.28.68-.42,4.26,7.03,8.72,13.94,14.59,19.76,10.54,10.45,23.53,14.18,38.03,13.44,13.98-.72,27.06-5.02,39.81-10.4,7.4-3.12,14.68-6.55,22.01-9.84.18.17.35.35.53.52Z"/>
        <path class="cls-4" d="m19.33,128.96c.22-.09.44-.25.66-.25,2.16-.02,2.41-.78,1.49-2.73-3.65-7.75-5.71-15.88-5.46-24.52.08-2.73.54-5.4,1.54-7.94.26-.67.31-1.81,1.3-1.73.78.06.79,1.08.99,1.74,1.56,5.11,3.25,10.16,5.65,14.96,8.49,16.97,22.28,26.53,40.84,29.73,11.04,1.91,21.54-.26,32.06-3.25,5.68-1.61,11.48-2.13,17.04.72,2.11,1.08,4.01,2.79,4.62,5.16.29,1.14.25,2.32,0,3.46-.31,1.4-.61,2.08-1.72,2.69-5.77,3.15-12.86,4.52-19.1,6.45-17.72,5.5-35.26,5.87-52.3-2.44-9.56-4.66-17.51-11.29-22.91-20.62-1.22-2.12-3.14-.93-4.68-1.45Z"/>
        <path class="cls-4" d="m-56.48,248.11c.04.15.14.31.12.46-1.4,11.49,7.54,17.5,16.45,19.32,7.89,1.61,15.64,1.02,22.77-2.92,9.43-5.22,12.91-13.29,11.35-24.65-.88-6.39-2.11-12.77-1.67-19.26.65-9.56,3.34-18.35,10.37-25.3,5.12-5.06,11.38-7.71,18.49-8.66,8.13-1.08,16.05.43,24,1.67,15.37,2.39,30.75,3.57,46.09-.14,5.9-1.43,11.62-3.43,16.95-6.42.89-.5,1.86-.87,2.8-1.31-.75,2.91-3.26,4.41-5.21,6.28-2.78,2.66-5.72,5.19-9.09,7.14-1.42,0-2.77.39-4.14.71-1.97.45-2.16,1.51-1.22,3.06-2.9,1.54-5.47,3.65-8.55,4.86-1.08-.96-2.44-.45-3.66-.67-2.19-.39-4-1.2-4.58-3.56-.24-.97-.85-1.29-1.71-1.33-1.27-.06-2.55-.04-3.82-.13-1.37-.1-2.29.21-2.53,1.79-.25,1.63-1.56,2.42-2.95,2.83-3.06.9-6.15.75-9.16-.34-2.12-.76-3.53-2.15-3.54-4.58,0-.77-.1-1.46-1.04-1.6-1.58-.23-3.15-.46-4.73-.66-.77-.1-1.42.06-1.66.96-.67,2.42-2.7,3-4.79,3.3-2.34.33-4.61-.11-6.77-1.06-1.81-.8-3.08-2.08-3.05-4.17.03-1.62-.8-1.86-2.11-1.68-.95.12-1.91.25-2.86.21-2.11-.08-3.48.36-3.31,3,.09,1.4-1.08,2.45-2.33,3.12-3.16,1.68-6.36,3.19-9.72.41-.37-.31-.77-.28-1.08,0-1.4,1.3-2.8,2.6-4.15,3.95-.47.47-.18.97.11,1.51,2.49,4.6.34,9.31-4.64,10.24-.23.04-.5.02-.7.13-1.16.67-1.79,7.22-.8,8.07,3.22,2.74,3.31,7.99.04,10.84-1.13.98-.7,1.99-.6,3.04.73,7.67-.49,15.04-4.32,21.71-5.55,9.67-14.28,13.94-25.31,13.76-5.27-.09-10.2-1.25-14.86-3.88-6.55-3.69-10.63-12.6-8.87-20.04Z"/>
        <path class="cls-10" d="m441.3,169.37c.02-8.04-1.86-16.13-5.42-23.4-4.36-8.91-11.29-16.24-19.44-21.79-11.54-7.86-24.6-10.51-38.41-10.13-4.55.13-9,.95-13.48,1.55,6.46,2.18,8.66,6.43,7.28,14.06.59-.05,1.19-.09,1.78-.14.48-.04.96-.08,1.43-.12,4.59-.8,9.21-.89,13.83-.44,13.24,1.29,24.75,6.23,33.17,16.84,3.64,4.58,6.43,9.85,8.01,15.5.79,2.83,1.28,5.75,1.46,8.68.09,1.53.1,3.07.02,4.61-.17,3.27-.41,5.82-1.71,8.86-.28.66-.56,1.32-.85,1.97-4.69,10.78-13.23,17.38-23.95,21.18-4.45,1.58-9.27,2.24-13.83,3.63-3.33,1.02-6.6,2.4-9.53,4.28-7.58,4.86-11.93,14.46-11.8,23.31.06,4.02.95,8.06,2.56,11.74,3.63,8.28,13.56,14.12,21.41,12.07.65-.17,1.4.06,2.11.11,1.83-1.24,3.63-2.52,5.49-3.71.55-.35,1.78-1.93.67-2.41-.24-.1-.52-.08-.78-.04-1.87.27-3.64,1.03-5.47,1.5-5,1.27-11.33.54-15.16-3.19-3.16-3.08-5.05-7.64-5.3-12.02-.33-5.88,1.23-11.33,4-16.47,3.73-5.22,9.07-7.8,15.09-9.35,7.62-1.97,15.44-3.32,22.61-6.74,6.93-3.3,12.88-8.47,17.05-14.93,4.86-7.54,7.15-16.25,7.17-25.02Zm-62.07,55.48s.03.06.04.09c-.01-.03-.03-.06-.04-.09Zm.1.3s.02.08.02.12c0-.04-.02-.08-.02-.12Z"/>
        <polygon class="cls-1" points="432.01 179.66 432.01 179.66 432.01 179.66 432.01 179.66"/>
        <path class="cls-12" d="m320.04,26.56c-.14.08-.29.16-.43.24-.02-.1-.04-.2-.05-.3.16.02.32.04.48.05Z"/>
        <path class="cls-13" d="m375.54,222.67h0s.02,0,.02.01c0,0-.02,0-.02-.01Z"/>
        <path class="cls-8" d="m364.55,115.6c6.46,2.18,8.66,6.43,7.28,14.06-1.74,1.59-3.25,3.43-5.83,3.84-2.63.42-4.83-.4-5.36-3-.6-2.88-1.53-5.72-1.04-8.86.43-2.82,2.1-4.43,3.97-6.1.33.02.66.04.99.06Zm1.33,5.72c-.9,2.51-.08,4.56.14,6.63.04.4.27.81.76.66.23-.07.51-.43.53-.68.16-2.19.36-4.4-1.43-6.61Z"/>
        <path class="cls-8" d="m360.22,105c-4.34,2.12-9.47-1.19-10.03-6.5-.15-1.41-.15-2.84-.29-4.25-.19-2.01,2.01-2.24,2.63-3.63.77-.55,1.67-.58,2.52-.44,3.89.65,5.65,3.52,6.86,6.84,1.08,2.97,1.03,5.78-1.7,7.98Zm-1.95-5.6c-.22-1.53-1.02-2.87-2.11-4.04-.27-.29-.69-.39-1.09-.2-.43.21-.52.62-.35,1,.62,1.36,1.25,2.71,1.95,4.02.2.38.63.8,1.17.57.55-.23.38-.79.44-1.35Z"/>
        <path class="cls-8" d="m347.66,80.5c.3.83.11,1.62.11,2.51,0,1.86-1.14,3.14-2.65,3.57-1.67.47-3.62.78-4.97-1.11-1.39-1.95-3.62-3.32-3.66-6.16-.02-1.28-.57-2.73.78-3.42,1.39-.72,2.86-1.9,4.62-1.09,2.57,1.18,4.22,2.76,5.61,5.34.07.12.12.24.16.36Z"/>
        <path class="cls-8" d="m331.32,71.44c-4.23-.71-6.09-2.74-6.54-7.06-.12-1.2-.53-2.44-.42-3.64,0,.09,1.75-.59,1.86-.61,2.25-.47,4.27,1.4,5.41,3.15,1.36,2.1,1.27,4.61.19,6.81-.21.43-.32.9-.48,1.35Zm-1.91-4.66c-.46-1.09-1.3-2.03-2.48-2.57-.43-.2-.74.4-.57.76.55,1.17.92,2.58,2.36,2.98.51.14.73-.48.69-1.16Z"/>
        <path class="cls-9" d="m363.14,40.32c.12.18.24.37.35.55-.12-.18-.24-.37-.35-.55Z"/>
        <path class="cls-9" d="m347.74,79.62c-.14-.17-.28-.34-.42-.5.14.17.28.34.42.5Z"/>
        <path class="cls-9" d="m329.18,60.9c-.19-.11-.38-.21-.58-.32.19.11.38.21.58.32Z"/>
        <path class="cls-9" d="m328.49,60.49c-.13-.07-.25-.16-.34-.28.11.09.23.19.34.28Z"/>
        <path class="cls-7" d="m81.53,203.05c-.18.12-.37.24-.55.35.18-.12.37-.24.55-.35Z"/>
        <path class="cls-7" d="m82.08,202.66c-.18.13-.37.27-.55.4.18-.13.37-.27.55-.4Z"/>
        <path class="cls-8" d="m307.62,218.58c-3.5,6.47-12,9.1-18.67,5.88-3.04-1.47-3.67-4.14-3.92-7.08.28-.15.63-.24.81-.47,4.51-5.5,11.97-7.13,18.14-4,1.21.61,2.16,1.34,2.28,2.79.06.68.34,1.21.91,1.6.15.43.3.86.45,1.29Zm-12.5,2.13c.98-.06,1.95-.04,2.88-.2.83-.14,1.53-.6,1.48-1.59-.07-1.12-.96-1.16-1.77-1.1-.95.06-1.89.23-2.83.39-1.25.21-3.47-.47-3.44,1.07.03,2.06,2.36,1.1,3.69,1.42Z"/>
        <path class="cls-8" d="m316.67,213.07c-.97-4.21.73-7.28,4.27-9.36,4.23-2.49,8.57-4.77,13.34-1.06,2.2,5.2,1.19,8.28-3.64,11.45-2.46,1.61-5.08,2.71-8.02,2.68-1.74-.02-3.5-.37-4.65-1.97-.06-.56-.37-.92-.87-1.14,0,0,0-.01,0-.01-.13-.16-.25-.32-.38-.48l-.06-.1Zm7.9-1.31c1.54-.46,3.13-1.48,4.6-2.66.44-.36.49-1.03.19-1.55-.36-.63-.95-.4-1.49-.26-1.65.43-3.02,1.4-4.45,2.27-.57.34-1.12.75-.83,1.51.28.74,1.01.64,1.98.7Z"/>
        <path class="cls-8" d="m344.91,193.02c-2.16-5.32,2.24-13.36,7.32-15.34,1.76-.68,3.43-.33,5.14.05.16.09.31.18.47.27.06.08.12.15.2.21.38.4.83.76,1.13,1.21,1.89,2.82,1.22,7.35-1.6,11.04-3.19,4.18-6.6,5.65-10.29,4.45-.18-.11-.37-.23-.55-.34-.29-.18-.59-.36-.88-.54-.08-.54-.39-.86-.91-.98l-.02-.03Zm9.89-9.12c.03-.38-.17-.7-.84-.49-.8.25-3.4,4.18-3.32,5.01.08.79.35,1.3,1.19.72,1.74-1.21,2.51-3.01,2.96-5.23Z"/>
        <path class="cls-8" d="m365.51,165.13c-.81.18-1.7.16-2.78.18-1.42.02-2.39-.66-3.09-1.84-2.63-4.41-.6-12.99,2.28-15.54,1.55-1.38,3.13-2.46,5.32-1.18.38.22,1.06-.07,1.61-.13,0,0,0,.01,0,.01.66,2.4,2.75,3.57,2.84,6.3.06,1.72-.41,3.42-.92,5.06-.6,1.92-1.32,3.93-2.65,5.48-.87,1.02-1.68,1.46-2.61,1.66Zm1.39-11.27c0-.2.02-.68,0-1.15-.02-.4-.09-.85-.57-.92-.43-.07-.84.22-.92.6-.43,1.92-1.5,3.69-1.35,5.74.03.47.04,1.02.6,1.18.66.18,1.03-.29,1.3-.8.72-1.36,1.04-2.83.95-4.64Z"/>
        <path class="cls-9" d="m344.93,193.04c.53.12.84.44.91.98-.56-.09-.88-.4-.91-.98Z"/>
        <path class="cls-9" d="m317.11,213.67c.5.22.81.59.87,1.14-.47-.24-.8-.6-.87-1.14Z"/>
        <path class="cls-9" d="m346.72,194.56c.18.11.37.23.55.34-.18-.11-.37-.23-.55-.34Z"/>
        <path class="cls-9" d="m316.72,213.17c.13.16.25.32.38.48-.13-.16-.25-.32-.38-.48Z"/>
        <path class="cls-9" d="m369.34,147.07c-.17-.15-.33-.29-.5-.44.17.15.33.29.5.44Z"/>
        <path class="cls-9" d="m358.03,178.2c-.08-.06-.15-.13-.2-.21,0,0,.16.04.16.04l.04.16Z"/>
        <path class="cls-4" d="m183.55,195.39c.48,4.42.8,8.86,1.46,13.26,1.59,10.61,4.25,20.9,9.79,30.25,7.21,12.17,17.78,20.43,30.4,26.34,5.84,2.73,11.91,4.95,17.64,7.94,7.31,3.82,13.38,8.88,16.88,16.57.02.82.69,1.51.43,2.38-3.88-3.53-7.61-7.19-12.39-9.63-6-3.07-12.43-4.91-18.74-7.07-12.78-4.38-24.34-10.71-33.64-20.67-4.54-4.86-7.93-10.5-10.42-16.72-2.73-6.83-4.9-13.75-4.99-21.18-.01-.94-.4-1.69-1.14-2.26,1.57-6.4,3.14-12.81,4.71-19.21Z"/>
        <path class="cls-4" d="m267.99,216.33c.24,1.03,1.19.91,1.9,1.16,10.11,3.51,19.53,8.23,27.27,15.8,12.54,12.27,15.99,30.73,8.81,46.73-1.16,2.59-2.14,5.3-4.1,7.45,1.04-4.23,2.62-8.31,3.1-12.71,1.89-17.56-4.85-31.04-19.12-41.02-6.06-4.23-12.72-7.23-19.78-9.39-.83-.25-1.63-.63-2.44-.95-.38-.4-.85-.51-1.39-.41-.16-.02-.3-.06-.44-.14.37-.56,1.03-.68,1.53-1.03,1.89-1.35,3.66-2.81,3.19-5.54.49.01.98.03,1.47.04Z"/>
        <path class="cls-8" d="m266.52,216.29c.47,2.73-1.3,4.19-3.19,5.54-.5.35-1.16.48-1.53,1.03-4.27.15-8.39-.38-12.35-2.17-2.32-1.05-3.81-3.09-5.87-4.42.97-.35.9-1.17.9-1.97,0-1.42.02-2.84.03-4.26,6.4-3.97,12.52-2.95,18.4,1.13,1.79,1.24,3.01,2.98,3.61,5.12Zm-9.08,1.48c.93-.27,2.35.31,2.61-1.08.25-1.36-1.11-1.6-2.06-1.85-1.84-.5-3.71-.85-5.58-1.24-.61-.13-1.38-.43-1.74.25-.4.75.18,1.44.74,1.83,1.79,1.26,3.89,1.7,6.03,2.09Z"/>
        <path class="cls-10" d="m244.51,210.04c0,1.42-.02,2.84-.03,4.26,0,.8.06,1.62-.9,1.97-6.92-2.77-13.18-6.63-18.97-11.29-.68-.55-1.41-1.03-2.11-1.54-.15-1.18-.33-2.36-.43-3.55-.04-.53-.15-1.18.46-1.5.62-.33,1.03.2,1.47.52,3.94,2.86,8.12,5.32,12.42,7.6,2.62,1.39,5.42,2.3,8.1,3.53Z"/>
        <path class="cls-4" d="m313.89,64.68c-1.8-.74-3.86-3.49-4.17-4.9-1.21-5.54-1.67-11.07-.59-16.86.67-3.56,1.76-6.82,3.17-10.05.96-2.2,2.79-3.82,4.18-5.75.64-.9,4.09-1.57,5.04-1.48-2.44,2.9-6.73,6.98-8.33,10.52-3.9,8.62-3.76,16.36-.35,25.17.26.66.82,2.66,1.05,3.33Z"/>
        <path class="cls-12" d="m375.57,222.68s-.02,0-.02-.01h0s.02,0,.02.01Z"/>
        <polygon class="cls-1" points="432.01 179.66 432.01 179.66 432.01 179.66 432.01 179.66"/>
        <path class="cls-7" d="m268.74,216.84c-.19-.03-.39-.06-.58-.09.19.03.39.06.58.09Z"/>
        <path class="cls-8" d="m115.25,228.43c.37-7.74,7.97-14.38,15.69-13.84,2.18.15,3.01,2.21,4.75,2.91,1.18,2.8.82,5.45-.91,7.88-3.44,4.84-8.14,7.43-14.13,7.38-3.02-.03-4.59-1.4-5.4-4.33Zm15.24-6.23c-.28-1.26-.97-1.35-1.91-.81-1.98,1.15-3.97,2.28-5.92,3.48-.69.42-1.35,1.02-.88,1.93.45.86,1.36.84,2.1.54,2.3-.93,4.33-2.28,5.98-4.15.25-.29.42-.65.64-.99Z"/>
        <path class="cls-8" d="m86.39,249.49c-3.12-7.45,1.32-13.33,7.43-15.87,2.77-1.15,5.94-.64,8.65,1.11.4.59.81,1.19,1.21,1.78-.33,1.8.44,3.6-.06,5.4-.37,4.7-6.79,9.21-11.27,9.5-2.27.15-4.23-.51-5.97-1.93Zm6.34-3.04c1.82-.09,5.98-4.31,5.96-6.08,0-.93-.6-1.51-1.36-.9-1.97,1.6-4.03,3.13-5.67,5.1-.32.38-.5.83-.17,1.31.3.42.73.6,1.24.57Z"/>
        <path class="cls-8" d="m91.11,277.78c-3.82,1.07-7.46,1.01-10.11-2.4-2.71-3.5-4.41-7.34-2.41-11.87,1-2.26,2.6-3.51,5.15-3.42,4.96.18,8.37,2.84,9.54,7.92.4,1.71.42,3.52.04,5.23-.21.96-1.1,4.23-2.22,4.54Zm-2.37-7.05c-.35-1.64-.82-3.57-2.13-5.16-.45-.55-1.04-.75-1.71-.52-.6.21-.92.72-.75,1.32.56,1.99,1.07,4.01,2.45,5.64.36.43.79.9,1.41.66.72-.27.7-.98.72-1.95Z"/>
        <path class="cls-8" d="m113.27,281.55c-.05.79-.11,1.54.34,2.29,1.51,2.5.54,5.25-2.4,5.69-4.18.64-8.35.47-11.96-2.43-2.27-1.82-2.6-3.98-1.91-6.55.22-.29.44-.58.67-.86.12-.12.24-.25.36-.37.32-.18.63-.36.95-.53.21.14.34.06.41-.17.34-1.08,4.11-.83,4.91-.75,1.8.2,3.46,1,5.09,1.75.24.11,3.47,1.98,3.5,1.95,0,0,.04-.03.04-.03Zm-4.73,3.33c.61,0,1.35.11,1.6-.66.23-.71-.18-1.23-.78-1.56-1.78-.95-3.74-1.24-5.72-1.42-.48-.04-.97.16-1.12.69-.13.44.17.73.53.95,1.7,1.04,3.44,1.93,5.5,2Z"/>
        <path class="cls-9" d="m99.72,278.62c-.07.22-.2.3-.41.17.13-.08.27-.14.41-.17Z"/>
        <path class="cls-9" d="m98.36,279.32c-.12.12-.24.25-.36.37.12-.12.24-.25.36-.37Z"/>
        <path class="cls-9" d="m113.23,281.58c-.16-.16-.33-.32-.49-.48.16.16.33.32.49.48Z"/>
        <path class="cls-14" d="m262.23,223c.53-.1,1,.01,1.39.41-.52.07-1.02.05-1.39-.41Z"/>
        <path class="cls-4" d="m238.23,157.05c6.65,3.36,13.59,5.87,20.97,7.06,13.69,2.21,27.1.92,40.35-3.05,12.07-3.61,23.12-9.44,34.17-15.29.69-.37,1.29-.97,2.15-.97-.57,4.66-1.94,9.09-3.88,13.36-.32.71-.47,1.53-1.25,1.94-.52-.56-.96-.23-1.47.07-1.52.87-3.04,1.73-4.6,2.54-23.06,12-47.04,15.82-72.32,8.13-.69-.21-1.37-.43-2.1-.27-4.46-4.1-9.1-8.04-12.02-13.51Z"/>
        <path class="cls-4" d="m44.15,50.85c1.8-2.25,4.08-3.83,6.5-5.15,17.45-9.51,35.94-12.55,55.49-8.65,2.36.47,4.61,1.29,6.58,2.73,2.27,1.65,2.21,3.93-.27,5.32-3.56,2-7.47,2-11.4,1.77-7.95-.47-15.85-1.75-23.83-1.7-10.05.06-19.77,2.17-29.41,4.74-1.22.32-2.44.63-3.66.94Z"/>
        <path class="cls-4" d="m152.57,88.98c-.03,8.42-7.56,15.49-16.3,15.33-7.62-.14-13.38-6.17-13.33-13.96.06-9.1,6.95-16.01,15.87-15.9,8.24.1,13.8,5.96,13.76,14.53Zm-22.06-.25c-.02,4.74,3.51,8.41,8.15,8.49,5.29.09,9.66-4,9.69-9.08.03-4.87-3.9-8.47-9.28-8.47-4.65,0-8.54,4.12-8.57,9.06Z"/>
        <path class="cls-2" d="m188.27,88.04c-2.96-3.5-5.04-7.28-3.92-12.1,2.62-2.02,4.86-2.3,7.23-.75,2.38,1.55,3.82,3.76,4.31,6.59.41,2.35.02,4.49-1.8,6.12-1.83,1.64-3.85,1.03-5.82.15Z"/>
        <path class="cls-4" d="m188.27,88.04c1.96.88,3.98,1.49,5.82-.15,1.82-1.63,2.21-3.77,1.8-6.12-.5-2.83-1.93-5.03-4.31-6.59-2.37-1.54-4.61-1.27-7.23.75-.31-3.01,1.72-5.38,4.64-5.23,4.76.25,7.56,3.22,9.61,7.18,2.02,3.9,2.13,7.83-.17,11.58-1.61,2.63-5.6,2.9-8,.78-.77-.68-1.45-1.47-2.17-2.2Z"/>
        <path class="cls-4" d="m126.63,62.38c3.47-2.82,7.7-3.52,11.92-4.23,5.72-.97,11.36-.37,16.96.93.63,1.89-.33,2.81-1.99,3.37-1.16.39-2.4.58-3.53.29-7.77-1.98-15.54-2.01-23.36-.35Z"/>
        <path class="cls-4" d="m207.03,135.82c-1.75-4.75-4.62-8.92-6.76-13.47-.7-1.49-1.76-2.82-2.67-4.21-.46-.71-1.4-1.47-.48-2.25.8-.67,1.37.37,1.96.83,3.9,3.12,5.07,7.76,6.64,12.14.79,2.21,1.29,4.54,1.31,6.95Z"/>
        <path class="cls-4" d="m365.88,121.33c1.79,2.2,1.6,4.42,1.43,6.61-.02.25-.3.6-.53.68-.49.16-.72-.26-.76-.66-.22-2.06-1.04-4.11-.14-6.63Z"/>
        <path class="cls-4" d="m358.27,99.4c-.05.55.11,1.11-.44,1.35-.54.23-.97-.19-1.17-.57-.7-1.31-1.33-2.67-1.95-4.02-.17-.38-.08-.79.35-1,.4-.2.82-.1,1.09.2,1.09,1.17,1.89,2.51,2.11,4.04Z"/>
        <path class="cls-4" d="m329.41,66.78c.05.68-.18,1.3-.69,1.16-1.44-.39-1.81-1.8-2.36-2.98-.17-.36.14-.96.57-.76,1.18.54,2.01,1.49,2.48,2.57Z"/>
        <path class="cls-4" d="m294.5,220.89c-1.33-.33-3.65.64-3.69-1.42-.03-1.54,2.2-.86,3.44-1.07.94-.16,1.89-.33,2.83-.39.8-.05,1.7-.02,1.77,1.1.06.98-.64,1.45-1.48,1.59-.94.15-1.9.14-2.88.2Z"/>
        <path class="cls-4" d="m324.57,211.76c-.97-.06-1.7.04-1.98-.7-.29-.76.27-1.17.83-1.51,1.43-.86,2.8-1.84,4.45-2.27.54-.14,1.13-.37,1.49.26.3.53.26,1.19-.19,1.55-1.47,1.19-3.06,2.2-4.6,2.66Z"/>
        <path class="cls-4" d="m354.79,183.9c-.45,2.22-1.22,4.02-2.96,5.23-.84.58-1.12.07-1.19-.72-.08-.83,2.52-4.76,3.32-5.01.66-.21.87.11.84.49Z"/>
        <path class="cls-4" d="m366.89,153.86c.09,1.82-.22,3.28-.95,4.64-.27.5-.64.98-1.3.8-.56-.15-.57-.7-.6-1.18-.15-2.05.92-3.82,1.35-5.74.09-.38.5-.67.92-.6.47.07.55.52.57.92.02.48,0,.95,0,1.15Z"/>
        <path class="cls-4" d="m257.44,217.77c-2.14-.39-4.24-.83-6.03-2.09-.56-.39-1.14-1.09-.74-1.83.36-.68,1.13-.38,1.74-.25,1.86.39,3.74.74,5.58,1.24.94.25,2.31.49,2.06,1.85-.26,1.4-1.67.81-2.61,1.08Z"/>
        <path class="cls-4" d="m129.87,222.2c-.22.34-.39.7-.64.99-1.65,1.87-3.68,3.23-5.98,4.15-.74.3-1.65.32-2.1-.54-.48-.91.19-1.52.88-1.93,1.95-1.19,3.94-2.33,5.92-3.48.94-.54,1.63-.45,1.91.81Z"/>
        <path class="cls-4" d="m92.73,246.46c-.51.02-.94-.15-1.24-.58-.33-.47-.15-.93.17-1.31,1.65-1.97,3.7-3.5,5.67-5.1.76-.62,1.35-.03,1.36.9.02,1.77-4.14,5.99-5.96,6.08Z"/>
        <path class="cls-4" d="m88.75,270.72c-.02.97,0,1.68-.72,1.95-.62.23-1.05-.23-1.41-.66-1.38-1.63-1.89-3.65-2.45-5.64-.17-.6.15-1.11.75-1.32.67-.24,1.25-.03,1.71.52,1.32,1.59,1.78,3.52,2.13,5.16Z"/>
        <path class="cls-4" d="m108.53,284.88c-2.06-.07-3.8-.96-5.5-2-.36-.22-.66-.51-.53-.95.15-.53.64-.74,1.12-.69,1.98.18,3.94.47,5.72,1.42.61.32,1.01.85.78,1.56-.25.77-.98.65-1.6.66Z"/>
        <path class="cls-2" d="m130.5,88.74c.02-4.95,3.91-9.06,8.57-9.06,5.37,0,9.31,3.6,9.28,8.47-.04,5.08-4.4,9.16-9.69,9.08-4.64-.08-8.17-3.75-8.15-8.49Z"/>
      </g>
    </g>
  </g>
</svg>