<?xml version="1.0" encoding="UTF-8"?>
<svg id="Calque_2" data-name="Calque 2" xmlns="http://www.w3.org/2000/svg" width="218.31" height="217.96" viewBox="0 0 218.31 217.96">
  <defs>
    <style>
      .cls-1 {
        fill: #66c1bf;
      }

      .cls-1, .cls-2, .cls-3 {
        stroke-width: 0px;
      }

      .cls-2 {
        fill: #345273;
      }

      .cls-3 {
        fill: #fff;
      }
    </style>
  </defs>
  <g id="Label">
    <g>
      <path class="cls-2" d="m218.31,108.98c0,17.31-4.04,33.68-11.24,48.22-17.82,36-54.97,60.76-97.91,60.76-22.9,0-44.16-7.04-61.72-19.08-19.86-13.61-34.98-33.62-42.39-57.04-3.28-10.37-5.05-21.41-5.05-32.86,0-2.43.08-4.84.24-7.23C2.41,68.69,19.34,39.65,44.52,21.15,62.62,7.86,84.97,0,109.16,0c38.74,0,72.77,20.15,92.14,50.53h0c5.7,8.93,10.13,18.75,13.03,29.2,2.19,7.84,3.52,16.04,3.88,24.48.07,1.58.1,3.17.1,4.77Z"/>
      <path class="cls-1" d="m214.33,79.73c-1.81.57-3.59,1.72-5.03,2.84-1.16.9-2.32,1.8-3.48,2.7-1.95,1.52-4.11,3.1-6.73,3.26-3.12.21-5.99-1.79-7.38-4.2-.52-.91-.88-1.86-1.13-2.85-.56-2.2.82-4.53,3.33-5.24,2.32-.65,4.32-2.17,5.17-4.13,1.31-3.06-.34-6.84-3.68-8.41-.88-.42-1.89-.7-2.59-1.31-1.63-1.42-.99-3.76-.26-5.65.31-.78.62-1.57.93-2.35.88-2.23,3.34-3.66,6.08-3.67.59,0,1.17-.06,1.74-.18,5.7,8.93,10.13,18.75,13.03,29.2Z"/>
      <path class="cls-1" d="m91.42,132.11c-4.41-2.57-7.12-7.52-7.73-12.58s.68-10.21,2.84-14.84c4.28-9.18,12.11-16.65,21.47-20.52,4.37-1.8,9.06-2.85,13.23-5.08,2.61-1.39,5.05-3.4,6.63-5.85.93-1.46,3.19-1.12,3.72.53,3.76,11.72,4.5,24.62-.7,35.64-3.35,7.1-9.03,13.02-15.83,16.95-6.79,3.93-14.66,5.91-22.51,5.99l-1.12-.25Z"/>
      <path class="cls-3" d="m117.68,94.22c-5.18,6.44-13.13,9.84-18.27,16.34-5.18,6.55-8.04,14.46-9.78,22.55-.98,4.57-1.63,9.21-2.23,13.85-.28,2.16,4.53,1.4,4.78-.48,1.03-7.95,2.17-16.04,5-23.59,1.4-3.74,3.25-7.35,5.62-10.57,2.37-3.21,5.42-5.7,8.59-8.07,3.62-2.71,7.33-5.39,10.19-8.94,1.82-2.27-2.71-2.57-3.89-1.1h0Z"/>
      <g>
        <path class="cls-3" d="m97.78,50.85c-3.7,4.15-7.4,8.31-11.09,12.46-1.04,1.17.89,1.67,1.68,1.73,1.46.12,3.22-.61,4.18-1.69,4.6-5.17,9.2-10.34,13.81-15.51.48-.54.22-1.25-.4-1.5-5.17-2.13-10.39-4.14-15.65-6.04-1.82-.66-7.56,2.06-5.06,2.96,3.59,1.3,7.16,2.65,10.7,4.05-36.58,8.6-60.79,45.24-50.46,82.78.71,2.56,7.03.87,6.33-1.69-9.38-34.08,11.2-70.43,45.97-77.55Z"/>
        <path class="cls-3" d="m180.4,126.56c-1.11-.2-2.48.2-3.35.9-3.22,2.56-6.41,5.14-9.59,7.74,4.97-12.4,6.64-26.28,3.97-39.41-1.47-7.21-4.3-14.11-8.48-20.17-4.36-6.31-9.91-11.65-15.91-16.39-6.73-5.31-14.14-10.97-22.84-12.23-1.05-.15-2.52.25-3.35.9-.74.58-.62,1.07.32,1.21,7.6,1.1,14.21,6.25,20.13,10.8,5.87,4.51,11.4,9.55,15.84,15.49,8.58,11.5,11.8,26.17,10.54,40.33-.45,5.02-1.46,9.99-2.97,14.8-.13-.66-.25-1.33-.38-1.99-.37-1.81-.76-3.61-1.18-5.41-.2-.83-.4-1.66-.61-2.48-.05-.21-.42-1.31-.6-1.99.16-.17.27-.35.28-.55.12-2.32-5.04-1.13-5.11.93-.03,1.05.53,2.27.79,3.29.31,1.24.6,2.48.89,3.73,1.09,4.85,1.97,9.74,2.63,14.66.09.64,1.34.62,1.72.59.87-.06,1.85-.35,2.53-.92,5-4.17,10.05-8.28,15.15-12.34.76-.61.51-1.36-.41-1.52Z"/>
        <path class="cls-3" d="m153.88,151.57c-12.27,14.64-30.73,22.98-49.92,20.41-15.28-2.05-29.26-10.24-38.92-22.11,2.54.67,5.07,1.39,7.58,2.16,1.16.35,2.57.09,3.35-.9.66-.84.46-2.11-.66-2.45-5.37-1.64-10.8-3.07-16.28-4.28-1.06-.24-3.25.59-3.21,1.97,0,.13.01.25.02.38-.27.23-.39.45-.29.61.11.16.22.31.33.47.24,5.28.85,10.53,1.84,15.73.23,1.18,1.91,1.34,2.84,1.1,1.05-.28,2.14-1.17,1.91-2.37-.49-2.56-.88-5.13-1.18-7.72,25.99,28.17,73.14,26.65,98.32-3.39,1.32-1.57-4.72-.81-5.74.41Z"/>
      </g>
      <path class="cls-1" d="m47.95,54.58c-3.91,10.73-17.69,14.56-27.15,21.66-8.78,6.58-13.78,16.13-19.95,24.68-.2.28-.4.56-.61.83C2.41,68.69,19.34,39.65,44.52,21.15c1.01,2.99,2.05,6.88,2.51,9.3.88,4.7,1.32,9.36,1.6,11.68.53,4.16.76,8.48-.68,12.45Z"/>
      <path class="cls-1" d="m47.44,198.88c-19.86-13.61-34.98-33.62-42.39-57.04,4.86,1.77,9.73,4.29,11.91,6.3,3.79,3.47,5.43,8.52,7.85,12.98,2.73,5.05,6.58,9.54,11.22,13.08.59.45,1.19.89,1.8,1.31,2.81,1.93,6.02,3.67,7.62,6.62,1.14,2.11,1.29,4.56,1.43,6.94.19,3.27.37,6.54.56,9.82Z"/>
      <path class="cls-1" d="m218.31,108.98c0,17.31-4.04,33.68-11.24,48.22-5.08-3.08-10.24-6.05-14.16-10.28-7.6-8.22-8.96-20.78-3.25-30.19,2.12-3.5,5.29-6.64,9.32-8.12.38-.15.79-.28,1.2-.39,2.71-.74,5.59-.7,8.38-1.06,3.38-.42,6.66-1.43,9.64-2.96.07,1.58.1,3.17.1,4.77Z"/>
    </g>
  </g>
</svg>