<?xml version="1.0" encoding="UTF-8"?>
<svg id="Calque_2" data-name="Calque 2" xmlns="http://www.w3.org/2000/svg" width="519.32" height="654.13" xmlns:xlink="http://www.w3.org/1999/xlink" viewBox="0 0 519.32 654.13">
  <defs>
    <style>
      .cls-1 {
        fill: #66c1bf;
      }

      .cls-1, .cls-2, .cls-3, .cls-4 {
        stroke-width: 0px;
      }

      .cls-2 {
        fill: none;
      }

      .cls-3 {
        fill: #fff;
      }

      .cls-5 {
        clip-path: url(#clippath);
      }

      .cls-4 {
        fill: #335572;
      }
    </style>
    <clipPath id="clippath">
      <rect class="cls-2" width="519.32" height="654.13"/>
    </clipPath>
  </defs>
  <g id="Calque_1-2" data-name="Calque 1">
    <g class="cls-5">
      <g>
        <path class="cls-1" d="m340.24,372.77c6.61-3.02,13.46-6.86,16.63-13.4,3.08-6.36,1.97-14.12-1.22-20.43-3.19-6.31-8.21-11.47-13.16-16.52-48.21,13.67-96.35,18.77-145.57,26.39-24.56,3.8-6.13,22.28,7.56,27.98,20.16,8.4,43.31,11.66,65.03,11.45,24.3-.24,48.59-5.36,70.72-15.46Z"/>
        <path class="cls-1" d="m353.32,220.27c4.22-24.2-11.57-48.7-32.99-60.72-21.42-12.02-47.19-13.65-71.66-11.55-28.64,2.45-59.63,11.51-75.1,35.75,30.21-4.49,61.53,1.09,90.86,9.62,29.33,8.53,59.78,17.66,88.89,26.91Z"/>
        <path class="cls-1" d="m460.73,313.25c-14.62-7.25-30.48-12.08-46.67-14.22,7.05-21.93,6.78-46.28-.98-67.95,5.05-1.09,10.03-2.86,14.77-4.82,9.41-3.89,19.99-10.34,28.95-16.39,2.45-1.65,5.75-1.01,7.38,1.46,8.05,12.19,27.19,49.08,4.81,98.82-1.42,3.15-5.17,4.64-8.26,3.1Z"/>
        <path class="cls-4" d="m414.06,299.03c-4.26-.53-8.52-.9-12.81-1.09-4.48-.23-9.12-.19-13.27,1.54-3.77,1.55-6.86,4.37-9.84,7.12-33.13,30.83-67.16,65.54-111.7,73.49-15.34,2.75-31.09,2.07-46.58.11-52.23-6.63-101.68-27.55-147.65-53.21-16.92-9.42-33.96-19.97-45.41-35.61-2.75-3.73-5.2-7.91-5.35-12.51-.15-5.28,2.68-10.14,5.65-14.51,24.04-35.39,61.47-59.92,101.11-76.01,37.42-15.19,78.01-23.59,118.33-21.18,40.33,2.45,80.42,16.09,111.89,41.42,11.53,9.31,22.73,20.5,37.27,23.14,5.77,1.06,11.64.64,17.37-.64,7.76,21.67,8.03,46.01.98,67.95Z"/>
        <ellipse class="cls-3" cx="77.87" cy="267.9" rx="16.77" ry="14.19"/>
        <path class="cls-4" d="m249,659.65c.6.38,1.51.83,2.64,1.36-.19,0-.38.04-.56,0h-1.13c-.75.04-1.51.04-2.26.04-1.58,0-3.17,0-4.75-.04h-1.13c-.3,0-.57,0-.87-.04-5.62-.08-11.23-.3-16.77-.64-1.36-.08-2.68-.19-4.03-.3-5.28-3.62-10.25-7.65-14.59-12.4-7.99-8.74-13.76-20.09-13.57-31.96.19-13.27,7.57-25.21,11.27-37.95,2.75-9.46,2.56-21.1-2.64-28.83-.72-1.06.53-2.34,1.58-1.66,15.9,10.63,25.85,30.07,24.35,49.22-.83,10.14-4.48,20.12-3.2,30.19,1.32,9.95,7.24,18.35,14.85,25.14,3.35,2.94,7.05,5.58,10.82,7.88Z"/>
        <path class="cls-4" d="m251.7,478.67c1.51,12.9,6.36,25.73,4.23,38.55-1.63,9.81-7.24,18.55-9.48,28.24-3.99,17.22,2.93,34.82,8.2,51.69,4.24,13.58,7.21,29,3,42.1-.54,1.68,1.73,2.88,2.82,1.49,11.29-14.41,15.36-34.47,9.87-52.01-2.28-7.27-6.03-14.11-7.21-21.63-2.73-17.44,8.75-33.94,10.38-51.51,1.37-14.67-4.17-28.97-8.68-43-3.22-10.02-5.38-19.95-5.28-30.34.02-1.63-2.18-2.23-3.04-.84-6.05,9.76-5.94,27.49-4.8,37.25Z"/>
        <path class="cls-1" d="m271.5,660.29c-4.82.3-9.72.53-14.62.64h-1.09c-1.21.04-2.45.07-3.69.07h-.45c-.19,0-.38.04-.56,0h-1.13c-.75.04-1.51.04-2.26.04-1.58,0-3.17,0-4.75-.04-1.96-2.86-3.58-5.95-4.75-9.23-.56-1.47-.94-2.98-1.28-4.52-4.75-22.54,9.87-46.84,1.66-68.44-2.71-7.2-7.84-13.45-9.8-20.92-2.83-10.97,1.58-22.39,2.22-33.65.68-13.11-4.14-26.46-13-36.22-.9-.98.11-2.52,1.39-2.11,16.85,5.35,28.94,20.95,31.02,38.89.3,2.79.41,5.54.3,8.33v.08c-.07,9.61-1.58,19.3.87,28.57,3.17,11.68,12.17,20.77,17.94,31.47,1.13,2.07,2.15,4.33,2.98,6.56,0,0,0,.04.04.04v.04c3.58,9.12,4.86,19.18,3.69,28.87-1.06,9.16-4.22,18.01-4.79,27.21-.07,1.47-.04,2.9.08,4.33Z"/>
        <path class="cls-1" d="m322.45,584.05c-3.09,15.26,4.03,30.83,3.35,46.35-.41,8.18-2.98,16.28-7.42,23.14-.23.34-.41.64-.64.98h-.04c-7.31,1.39-14.7,2.56-22.16,3.51-1.62.23-3.24.41-4.9.56-.08,0-.15,0-.23.04,2.07-3.62,3.62-7.5,4.41-11.57,3.69-18.65-7.84-37.84-4.15-56.49,2.86-14.36,14.51-26.38,14.96-41.04.6-17.9-15.9-33.81-13.04-51.52,1.66-10.4,9.61-18.43,14.43-27.74,3.47-6.67,5.39-14.13,5.54-21.59.15-4.33-1.24-9.16-.91-13.49.08-1.47,1.92-2.15,3.02-1.13,9.04,8.37,9.65,25.51,5.84,36.14-3.09,8.71-9.04,17.11-7.61,26.27.94,6.29,5.31,11.49,9.01,16.66,8.59,12.17,14.47,27.36,11.19,41.91-2.22,10.06-8.63,18.92-10.67,29.02Z"/>
        <circle class="cls-1" cx="155.28" cy="100.32" r="20.35"/>
        <circle class="cls-4" cx="190.83" cy="45.7" r="15.21"/>
      </g>
    </g>
  </g>
</svg>