<?xml version="1.0" encoding="UTF-8"?>
<svg id="Calque_2" data-name="Calque 2" xmlns="http://www.w3.org/2000/svg" width="999.99" height="591.31" viewBox="0 0 999.99 591.31">
  <defs>
    <style>
      .cls-1 {
        fill: #66c1bf;
      }

      .cls-1, .cls-2, .cls-3 {
        stroke-width: 0px;
      }

      .cls-2 {
        fill: #fff;
      }

      .cls-3 {
        fill: #335572;
      }
    </style>
  </defs>
  <g id="Calque_1-2" data-name="Calque 1">
    <g>
      <path class="cls-1" d="m205,427.33c-38.94-1.06-76.28,8.11-113.51,17.88-4.7,1.23-11.03,1.58-11.79,7.43-.75,5.77,6.45,6.46,10.61,11.06-30.48,6.82-61.35,7.36-90.31,17.97,38.29,10.55,77.97,1.74,117.76,10.17-8.9,9.97-23.49,7.24-32.09,17.32,12.87,7.16,26.13,3.52,38.52,5.54,6.71,1.09,17.74.29,18.06,6.91.37,7.46-10.83,5.14-16.86,7.25-5.51,1.93-11.42,2.7-17.37,5.31,12.09,1.33,20.36,10.91,32.21,12.62,54.48,7.85,109.07,13.1,164.21,9.53,7.96-.51,16-.28,23.96.18,4.09.24,10.5-.83,10.5,5.33,0,5.37-5.95,3.94-9.61,4.34-13.4,1.48-26.82,2.67-40.22,4.16-2.84.31-5.58,1.42-10.39,2.69,9.25,6.31,18.03,6.56,26.58,6.62,52.97.33,105.86-2.16,158.78-4.15,38.93-1.46,77.94-.7,116.92-.88,4-.02,7.97.44,12.7,4.51-20.8,6.45-41.55,1.81-61.53,4.71.58,7.58,5.82,5.45,9.06,5.81,38.57,4.29,76.81-.72,115.06-4.56,22.84-2.29,45.62-5.17,68.42-7.89,3.82-.46,9.34-.39,9.34-5.28,0-5.21-5.95-4.43-9.52-5.1-20.81-3.89-41.82-2.04-62.79-1.76-16.3.22-32.8,2.02-49.98-3.74,5.51-7.78,12.75-7.4,19.25-7.63,23.47-.84,46.99-2.35,70.43-1.54,91.99,3.18,183.85,1.15,275.65-5.06,7.32-.5,14.58-1.84,22.94-2.93-4.77-7.76-13.21-4.02-17.71-8.7-27.01-3.17-53.9-2.33-80.65,2.46-8.19,2.89-16.72,2.17-25.16,2.18-32.9.04-65.8.12-98.69-.1-4.63-.03-10.11,2.28-13.73-2.98-2.4-4.63-6.57-4.87-11.01-4.47-5.73,1.21-11.43,2.34-15.19-4.18,4.18-4.26,9.89-3.77,14.79-5.48,10.9-4.48,22.36-6.88,33.84-9.23,11-6.74,24.08-10.48,31.85-21.94-.45-7.21-5.57-7.14-10.78-6.95-14.58,4.64-29.42.83-44.13,1.2-11.39.29-22.73.02-33.6,4.18-13.98,7.54-29.6,3.26-44.24,6.07-17.01,3.46-34.45,1.29-51.53,3.81-21.51,2.21-43,4.32-64.39-1.16-4.97.3-9.73,1.94-14.82,1.76-45.98-1.66-91.8,3.11-137.75,3.28-24,.09-47.15-1.14-70.42-9.8-46.24-17.2-95.63-19.82-144.11-26.31-2.97-.4-5.99-.19-8.54-1.99-4.7-6.81.53-11.86,2.97-17.49,2.98-6.88,10.52-12.04,8.02-21.01Z"/>
      <path class="cls-2" d="m724.09,433.05c-.61-1.12-1.22-2.23-1.83-3.35-4.97-2.8-10.25-3.7-15.85-2.64-40.6,7.66-76.28-7.56-111.44-24.41-8.01-3.84-15.24-9.32-23.26-13.44-16.77-8.61-17.71-24.05-2.66-35.38,2.36-1.78,5.67-3.39,4.55-6.85-1-3.09-4.46-3.61-7.42-4.09-7.56-1.2-14.85.83-22.26,1.78-64.41,8.25-127.33,3.6-187.73-22.15-10.67-4.55-20.81-9.87-26.99-20.34-3.33-5.64-3.46-11.94,3.93-12.76,19.21-2.14,38.36-6.42,57.89-3.85,3.53.47,6.17,3.17,9.25,4.78,7.7,1.36,14.23,13.93,23.32,2.5,1.85-8.81,4.2-17.69-3.31-25.26-32.16-8.43-63.96-13.83-97.07-2.35-27.85,9.65-51.66,23.36-67.38,48.98-1.04,1.7-1.88,3.96-3.45,4.84-35.84,20.26-33.07,57.08-38.86,90.21,6.68,2.34,10.01-3.07,14-6.38,11.21-9.28,22.99-17.53,36.52-23.16,18.06-7.51,35.93-6.94,53.71.87,11.24,6.62,9.47,17.37,8.21,27.52-1.03,8.31-4.84,15.99-7.18,24.02-1.64,5.6-4.22,11.26-.23,16.98,12.83,3.49,24.89,9.59,38.2,11.49,13.79-6.51,25.78-16.07,40.19-21.89,22.26-9,22.08-9.84,33.26,12.13,1.41,2.78,3.18,5.05,6.25,6.1,8.7,2.48,16.96-1.03,25.42-1.82,14.34-3.39,25.26-13.6,33.06-24.02,18.77-25.06,41.57-24.45,67.22-16.2,12.82,1.89,23.97,8.6,36.09,12.52,10.56.96,20.64,4.29,31,6.21,19.15,1.96,38.35,3.4,53.28,18.24,4.64,4.61,10.15,6.6,13.3-2.56,1.82-5.3,7.65-5.65,12.11-7.52,5.01-3.62,14.84,1.61,16.18-8.75Z"/>
      <path class="cls-2" d="m402.71,289.56c-3.02-5.01-5.16-10.15-13.16-9.39-18.28,1.75-36.75,1.66-54.97,3.79-15.76,1.84-17.67,7.13-9.41,20.58,3.7,6.03,8.4,11.43,14.7,14.59,33.15,16.67,67.97,27.1,105.21,30.46,38.3,3.45,76.28,4.81,114.17-3.13,3.76-.79,7.82-.11,12.29-.11-3.74,8.76-15.69,2.86-18.12,11.99-2.05,7.69,1.53,14.69,2.62,22,.73,4.94,3.94,7.96,7.84,10.36,36.29,22.35,75.63,37.09,117.42,44.57,13.57,2.43,26.84-6.7,40.97-5.58-12.12-37.04-30.55-70.34-59.12-97.28-11.56-10.9-27.15-14.44-41.83-18.75-9.19-2.7-16.9-6.52-24.93-11.92-21.04-14.15-44.94-20.18-70.53-18.18-4.5,4.26-8.12,9.72-8.05,15.57.16,13.32-7.67,13.36-17.54,13.19-25.85-.46-51.73-.7-77.56.11-10.51.33-17.83-.41-16.08-13.67.44-3.38-.74-6.93-3.92-9.2Z"/>
      <path class="cls-3" d="m706.04,438.98c-4.71,4.98-20.8-1.89-14.73,15.75-16.31-19.16-37.52-23.63-60.18-24.28,6.06,20.65,17.45,37.82,36.63,47.75,12.72,6.59,27.14,9.82,40.5,15.35,7.3,3.02,14.54,2.15,21.8-.05,19.89-4.05,39.86-4.49,59.98-1.84,6.32.83,12.56-.45,18.01-4.23-5.24-5.45-12.17-4.25-18.37-3.78-12.65.94-22.68-1.74-27.91-14.64-1.07-2.63-3.59-4.54-4.89-5.23,5.98,4.92,14.75,6.69,23.49,7.75,18.87,2.3,37.6,4.91,55.64,11.33,4.72,1.68,10.37,2.91,13.88-1.8,4.08-5.48-.25-10.22-3.04-14.91-5.94-9.98-19.32-12.52-23.8-23.92-29.93-4.05-59.89-7.53-90.19-5.94-.5,3.75-1.5,4.36-4.2,3.25-7.43-3.07-15.04-2.03-22.63-.55Z"/>
      <path class="cls-3" d="m319.26,376.67c-40.79-16.93-71.1,2.71-99.69,28.51-1.79,1.62-4.03,2.74-6.06,4.09-3.26,5.82-2.2,13.68-8.52,18.06-4.92,13.68-19.88,23.02-17.28,39.96,3.85,1.54,7.77,1.76,11.62.18,28.58-11.76,58.98-12.82,89.16-15.12,2.99-.23,5.93-.64,8.72-1.8,3.73-1.8,6.52-4.75,7.76-8.54,6.43-19.64,11.77-39.59,15.93-59.83.4-1.97-.49-3.85-1.65-5.51Z"/>
      <path class="cls-2" d="m501.87,184.51c-5.3-20.81-2.01-42.02-2.88-63.03-23.02-1.94-46.07-4.94-68.76,2.39-2.44,19.36-4.74,38.73-2.83,58.31,1.25,1.55,2.5,3.77,4.26,4.04,23.48,3.5,47,6.44,70.21-1.7Z"/>
      <path class="cls-3" d="m900.54,541.73c23.89-4.07,48-3.65,72.09-3.59,3.46,0,6.95.05,9.65-2.69-7.15-10.94-20.29-9.98-30.29-15.24-12.07,7.85-24.41,5.77-37.66,2.83-11.02-2.44-22.93-1.83-34.22.66-15.52,3.42-28.71,2-36.95-13.88-1.79-3.46-4.79-6.39-8.58-8.11-2.46-.66-4.31.36-5.88,2.13-1.26,10.55-5.45,20.12-16.5,22.02-11.42,1.97-19.16-5.89-25.16-14.97-12.45.61-24.55,2.51-35.22,9.62-1.31.6-2.75,1-3.94,1.76-3.63,2.33-11.51,1.23-9.62,8.01,1.36,4.89,6.76,7.62,12.71,5.02,4.17.35,8.7-.94,12.17,2.65,5.76,5.68,13.32,3.45,19.89,3.73,39.16,1.71,78.34,1.83,117.51.05Z"/>
      <path class="cls-3" d="m831.89,502.33c3.2,3.78,7.52,7.08,9.39,11.43,7.7,17.88,21.95,16.96,37.41,14.51,16.71-2.64,33.55-5.19,49.73,2.73,12.24,5.99,17.06-4.25,23.57-10.78.06-4.76-.93-8.34-6.49-9.98-12.85-3.79-25.85-8.63-39.14-4.96-14.06,3.89-24.79-1.17-35.31-9.01-4.67-6.57-12.84-8.6-18.36-14.11-5.46.66-10.89.48-16.35.41-5.37-.06-12.09.16-13.57,6.55-1.51,6.53,2.46,11.27,9.11,13.2Z"/>
      <path class="cls-2" d="m504.6,254.03c2.56-12.44-3.45-24.28-2.6-36.6-1.68-1.91-3.78-3.4-6.26-3.54-23.93-1.38-47.87-2.85-71.77.53-1.25,13.19-4.66,26.24-2.6,39.64,27.75,8.25,55.5,11.99,83.24-.03Z"/>
      <path class="cls-1" d="m504.6,254.03c-27.74,3.87-55.49.95-83.24.03-.36,4.51-.71,9.02-1.07,13.53.3,9.23.59,18.46.89,27.69,9,7.98,18.25,9.43,27.88,1.11,2.3-3.43,2.63-7.43,3.02-11.38.57-5.71,2.99-9.33,9.35-9.19,6.21.13,8.67,3.73,9.48,9.36.7,4.88.98,10.09,6.36,12.74,5.72,2.24,11.65,2.37,17.55,1.6,10.14-1.32,15.89-5.72,10.85-16.9-.36-9.53-.72-19.05-1.07-28.58Z"/>
      <path class="cls-3" d="m447.84,295.28c-8.89,5.9-17.78.49-26.67,0-8.26,4.88-10.21-10.59-18.47-5.72.18,9.21.36,18.41.54,27.61,8.72-.29,17.45-1.01,26.15-.78,29.2.75,58.46-1.75,87.6,1.5,3.84.43,6.9-1.29,5.19-4.37-6.18-11.18,4.41-19.79,3.67-29.95-6.73-.32-13.47-.65-20.2-.97.91,9.96-3.62,13.99-13.51,13.05-5.74-.55-11.57-.2-17.36-.25-8.98-1.92-17.96-2.05-26.95-.12Z"/>
      <path class="cls-1" d="m423.96,214.41c20.32,6.09,41.1,3.92,61.79,3.39,5.42-.14,10.83-.25,16.25-.38,8.74-11.01-3.38-21.93-.13-32.92-24.78-2.16-49.74,1.46-74.47-2.34-1.15,10.75-2.29,21.49-3.44,32.24Z"/>
      <path class="cls-3" d="m831.89,502.33c-9.79-14.77-9.54-15.53,8.1-17.7,5.36-.66,10.87-.05,16.31-.02,13.48,4.57,15.85,3.42,18.12-8.81-3.98-11.15-11.66-17.09-23.34-20.28-9.82-2.68-18.73-8.74-28.04-13.3-2.36.33-4.73.67-8.43,1.19,10.45,10.41,23.47,15.81,31.05,27.14,1.75,2.62,5.07,5.83,2.12,9.28-2.13,2.49-5.68,1.63-8.45.53-18.18-7.22-37.07-10.56-56.53-12.09-12.7-.99-24.59-5.69-35.71-12.75,6.37,9.08,14.07,16.73,18.13,26.91,2.11,5.28,6.87,4.92,11.41,4.92,10.47,0,20.95.05,31.43.08,3.96.11,8.48-.67,8.69,5.44,1.72,6.56,5.9,10.65,12.42,12.4.91-.98,1.81-1.96,2.72-2.94Z"/>
      <path class="cls-1" d="m493.02,47.01c2.76-12.87-5.89-20.61-13.17-28.89-1.24-1.41-3.41-2.95-5.08-2.88-10.2.42-6.13-21.6-12.86-13.42-11.04,13.41-29.21,22.87-31.12,42.96-.07.7,3.15,1.72,4.83,2.59,19.17,6.13,38.3,5.77,57.4-.36Z"/>
      <path class="cls-2" d="m493.02,47.01c-19.13.12-38.27.24-57.4.36.06,11.55.11,23.1.16,34.65,18.19,7.28,36.36,7.48,54.51-.18.61-11.63-3.39-23.63,2.73-34.83Z"/>
      <path class="cls-1" d="m430.23,123.87c22.9-1.51,46.03,3.85,68.76-2.39-1.95-6.61,6.89-8.67,6.22-14.74-1.96-1.97-3.67-4.25-6.39-5.32-2.68-1.02-5.47-1.37-8.31-1.54-1.41-.14-2.83-.16-4.24-.15-2.83-.03-5.66-.02-8.5-.04-2.14-.09-4.28-.08-6.41-.07-3.57,0-7.13.02-10.7,0-2.13-.06-4.25-.02-6.38.04-3.51.07-7.02.14-10.53.29-2.12.07-4.2.35-6.27.8-1.38.27-2.74.66-4.08,1.09-4.07,2.45-12.58.75-9.44,10,3.75,3.15,5.41,7.39,6.27,12.04Z"/>
      <path class="cls-3" d="m423.96,111.83c.22-8.21,9.62-3.41,12.04-8.5-2.07-2.06-4.53-3.88-4.51-7.36,2.24,2.09,1.87,5.65,4.43,7.43,2.2-.06,4.41-.11,6.61-.17,3.82-9.23,7.48-7.87,11.06.15,2.27.05,4.54.1,6.81.14,3.76-9.59,7.52-8.62,11.29,0,2.13-.01,4.26-.03,6.39-.04,2.93-1.85,1.74-6.29,4.97-7.95.84,2.76,1.57,5.57,3.64,7.74l3.95-.32c2.4-2.58,2.5-6.41,4.68-9.46,4.23,2.87,2.47,7.3,3.74,10.68,2.05.85,4.1,1.7,6.15,2.55.04-2.97-.34-6.03.2-8.92,2.29-12.41-3.14-17.23-15.13-15.97-18.17.06-36.34.12-54.51.18-15.34,1.1-18.56,9.21-11.81,29.81Z"/>
      <path class="cls-2" d="m874.42,475.8c-2.11,11.03-11.13,7.85-18.13,8.8-3.27,14.25,11.39,5.81,14.76,11.67,9.26-1.54,18.55-2.93,27.76-4.72,2.7-.53,6.53-.72,6.95-4.45.5-4.41-3.33-6.03-6.57-6.76-8.19-1.85-16.51-3.07-24.78-4.54Z"/>
      <path class="cls-2" d="m810.28,563.96c-14.47-2.57-28.77-2.64-44.5-.58,10.95,9.45,30.61,9.8,44.5.58Z"/>
      <path class="cls-2" d="m706.04,438.98c12.73-1.46,23.93,1.68,33.24,11.61-.94-5.76-6.72-8.65-6.42-14.3-2.92-1.08-5.85-2.16-8.77-3.23-4.51,6.58-13.28.17-18.06,5.93Z"/>
      <path class="cls-2" d="m297.97,448.02c-37.61,1.49-75.15,3.41-110.24,19.27,4.41,7.01,11.71,3.97,17.75,4.89,41.29,6.24,84.14,6.74,123.29,21.27,48.37,17.95,96.94,15.46,146.39,12.53,23.37-1.39,46.86-.76,70.29-.98,8.48-.08,16.97.11,25.12-2.81.33-7.96-6.63-9.21-11.52-11.38-24.02-10.68-47.63-22.18-70.99-34.18-8.3-4.26-17.04-4.07-25.78-4.84-8.69.94-17.37,1.89-26.06,2.83-25.98,6.16-52.49-.76-78.57,3.13-12.98-2.49-24.17-11.82-38.27-9.97-7.19-5.12-14.31-3.7-21.41.24Z"/>
      <path class="cls-3" d="m462.27,451.79c37.97,12.78,72.9,32.09,108.3,50.4,21.08,7.54,42.21,5.58,63.35.34-2.9-7.77-10.37-7.24-16.36-8.11-11.06-1.61-17.52-7.47-22.19-17.4-7.63-16.22-15.79-32.19-22.77-48.73-2.52-5.97-5.54-11.73-10.63-16.05-12.19-8.45-27.03-4.11-40.21-8.21-4.71-1.47-7.64,3.86-10.87,6.83-12.8,11.78-25.63,23.53-38.3,35.44-3.02,2.84-6.2,4.95-10.32,5.49Z"/>
      <path class="cls-3" d="m561.97,412.24c9.87,26.66,22.92,51.84,35.52,77.24,3.44,6.94,9.53,5.59,14.95,7.47,7.07,2.45,15.08.95,21.48,5.58,17.21.85,34.44,1.99,51.25-3.31-28.81-25.27-55.4-53.14-87.33-74.76-11.48-5.47-22.3-12.88-35.87-12.22Z"/>
      <path class="cls-3" d="m597.84,424.46c28.08,26.13,54.62,54.05,87.33,74.76,15.08-1.06,30.88,3.61,44.9-5.72-42.73-5.72-78.87-21.78-98.94-63.05-11.04-2.27-21.59-7.32-33.28-5.99Z"/>
      <path class="cls-3" d="m829.17,505.26c-3.25-5.02-7.33-9.21-12.42-12.39-10.63,4.81-20.62,10.7-29.72,18.03-.02,7.29,15.16,21.31,22.79,21.05,11.03-.38,22.28-15.89,19.35-26.69Z"/>
      <path class="cls-2" d="m196.05,533.58c9.8-7.46,19.57-1.64,28.6-6.21-9.62-1.69-18.06-1.84-26.31.09-2.46.58-5.58,3.39-6.18,5.75-.87,3.43,2.84,4.65,5.73,5.42,7.21,1.9,14.39,4.92,21.7,5.3,32.24,1.69,64.6-1.25,96.87,2.31-38.71-9.97-79.46.27-120.43-12.65Z"/>
      <path class="cls-2" d="m900.54,541.73c-45.8-1.5-91.73,1.92-137.41-3.78-1.95.29-4.28.02-5.76,1.01-1.8,1.21-.02,2.49,1.23,2.91,2.78.94,5.66,2.26,8.5,2.26,42.71.08,85.42,0,128.13-.18,1.77,0,3.53-1.45,5.3-2.22Z"/>
      <path class="cls-2" d="m169.47,466.56c-8.09,7.98-9.52,14.11,2.53,15.23,25.02,2.32,50.1,4.06,76.66,6.15-5.27-7.78-11.57-6.37-17.2-6.54-18.31-.54-36.61.11-54.88-2.79-7.94-1.26-13.27-1.64-7.11-12.06Z"/>
      <path class="cls-2" d="m496.4,562.76c-35.02.23-70.08,1.51-104.93-3.59,24.59,8.87,77.04,10.62,104.93,3.59Z"/>
      <path class="cls-2" d="m674.66,520.68c25.72-1.87,52.71,3.59,76.92-10.61-25.08,7.72-51.19,6.94-76.92,10.61Z"/>
      <path class="cls-2" d="m540.47,543.8c20.17-3.43,39.92-9.53,60.49,1.96-6.81-13.43-38.89-14.08-60.49-1.96Z"/>
      <path class="cls-2" d="m400.51,533.47c-23.49.16-46.72-2.66-69.83-6.72,22.63,9.31,46.06,9.88,69.83,6.72Z"/>
      <path class="cls-2" d="m750.96,535.3c-4.12-.88-8.27-1.71-11.06-5.9,2.82-4.57,10.09-3.25,11.9-8.89-2.46.03-5.69-.93-7.25.28-4.08,3.15-14.85.7-11.79,8.87,2.09,5.59,9.6,11.93,18.2,5.64Z"/>
      <path class="cls-2" d="m717.94,572.66c-11.5-1.76-22.97-2.66-34.23,1.64,11.64,5.14,22.82-1.12,34.23-1.64Z"/>
      <path class="cls-2" d="m205.2,501.58h45.22c0-.53.01-1.06.02-1.59h-45.09c-.05.53-.1,1.06-.15,1.59Z"/>
      <path class="cls-3" d="m357.65,457.75c26.26.68,52.94,12.02,78.57-3.13-.38-.32-.96-.56-1.12-.97-12.02-31.52-11.7-30.82-42.91-16.9-12.62,5.63-24.37,11.78-34.54,21Z"/>
      <path class="cls-3" d="m297.97,448.02c7.14-.08,14.27-.16,21.41-.24.54-12.64,6.85-23.65,10.08-35.54,4.51-16.58.82-29.89-10.19-35.57-8.23,23.45-10.75,48.59-21.29,71.35Z"/>
      <path class="cls-3" d="m454.32,153.63c-1.75,7.66,3.08,7.57,8.59,7.84,6.59.33,8.61-2.11,8.56-8.59-.04-6.17-1.63-8.81-8.26-9.2-7.98-.47-9.42,3.53-8.9,9.95Z"/>
      <path class="cls-3" d="m447.84,295.28c8.97,4.28,17.95,4.37,26.95.12.02-2.98-.1-5.97.1-8.94.6-9.02.76-15.92-12.4-16.11-12.97-.19-15.36,5.39-14.43,16,.26,2.95-.13,5.95-.22,8.93Z"/>
      <path class="cls-3" d="m464.27,58.37c-9.82-1.99-11.77,3.14-11.97,9.87-.2,6.76,2.73,9.97,9.94,9.04,6.17-.8,12.84.9,12.8-9.48-.03-9.62-4.91-10.56-10.78-9.43Z"/>
      <path class="cls-2" d="m499.07,104.18c.85-2.13,2.43-4.27,2.42-6.4-.03-4.47,1.85-11.12-5.18-11.45-7.34-.34-5.49,6.3-5.76,10.83-.11,1.92.06,3.87.1,5.8,2.81.41,5.62.82,8.42,1.22Z"/>
      <path class="cls-2" d="m453.59,103.38c.18-1.99.54-3.98.49-5.96-.11-4.29,1.19-9.49-5.93-9.6-7.31-.12-5.83,5.14-5.92,9.42-.04,1.99.19,3.99.3,5.98,3.69.05,7.37.1,11.06.16Z"/>
      <path class="cls-2" d="m471.69,103.52c.19-2.45.54-4.91.52-7.35-.04-3.83.75-8.15-5.34-8.48-6.48-.35-7.26,3.48-6.92,8.47.17,2.45.3,4.91.45,7.37,3.77,0,7.53,0,11.29,0Z"/>
      <path class="cls-2" d="m486.7,103.27c-1.08-5.65,4.19-15.92-3.63-16.04-9.71-.14-4.26,10.28-4.98,16.24,2.87-.07,5.74-.14,8.61-.21Z"/>
      <path class="cls-2" d="m435.92,103.4c.11-1.49.56-3.05.27-4.47-.88-4.39,3.2-10.72-3.97-12.66-5.29-1.43-5.14,2.88-5.25,6.49-.19,6.32-.4,12.52,9.03,10.57,0,0-.08.07-.08.07Z"/>
    </g>
  </g>
</svg>