<?xml version="1.0" encoding="UTF-8"?>
<svg id="Calque_2" data-name="Calque 2" xmlns="http://www.w3.org/2000/svg" width="39.2" height="39.25" viewBox="0 0 39.2 39.25">
  <defs>
    <style>
      .cls-1 {
        fill: #fff;
      }

      .cls-1, .cls-2 {
        stroke-width: 0px;
      }

      .cls-2 {
        fill: #2561ff;
      }
    </style>
  </defs>
  <g id="Label">
    <g>
      <path class="cls-2" d="m39.18,19.72c.49,9.42-7.98,20.12-20.64,19.51C9.78,38.8.1,31.64,0,19.65-.09,8.85,8.83-.08,19.62,0c12.58.1,20.07,10.68,19.56,19.72ZM19.67,2.66c-9.37,0-17.01,7.62-17.02,16.96,0,9.35,7.63,17.02,16.96,17.04,9.28.02,17.03-7.7,17.04-16.98.01-9.32-7.67-17.01-16.98-17.02Z"/>
      <path class="cls-1" d="m19.67,2.66c9.32,0,17,7.7,16.98,17.02-.01,9.28-7.76,17-17.04,16.98-9.33-.02-16.96-7.7-16.96-17.04,0-9.34,7.65-16.96,17.02-16.96ZM4.22,19.58c0,8.57,6.88,15.5,15.4,15.5,8.48,0,15.41-6.91,15.45-15.38.04-8.46-6.89-15.46-15.34-15.47-8.6-.02-15.51,6.82-15.52,15.36Z"/>
      <path class="cls-2" d="m4.22,19.58c0-8.54,6.92-15.37,15.52-15.36,8.45.02,15.38,7.01,15.34,15.47-.04,8.48-6.97,15.38-15.45,15.38-8.52,0-15.41-6.93-15.4-15.5Zm18.34-2.04c2.28-.48,4.42-.91,6.55-1.41.93-.22,1.32-.98,1.1-1.83-.2-.77-.94-1.2-1.82-1.03-.64.12-1.26.29-1.89.43-3.37.73-6.75,1.24-10.2.63-1.79-.32-3.57-.7-5.36-1.05-.92-.18-1.65.23-1.89,1.05-.23.8.22,1.52,1.14,1.81.18.06.36.1.54.14,1.99.41,3.97.82,6.04,1.25-.21,4.01-.23,8.02-1.89,11.8-.47,1.08-.18,1.9.69,2.25.87.35,1.68-.04,2.05-1.16.55-1.67.99-3.37,1.51-5.04.08-.27.33-.49.51-.74.17.24.4.45.49.72.55,1.73,1,3.5,1.62,5.2.17.46.75.96,1.22,1.06,1.25.27,2.03-.96,1.46-2.27-1.65-3.78-1.77-7.78-1.86-11.82Zm-2.88-3.48c1.57-.01,2.89-1.34,2.88-2.89-.01-1.55-1.35-2.89-2.91-2.9-1.59-.01-2.92,1.36-2.9,2.97.02,1.6,1.31,2.83,2.93,2.82Z"/>
      <path class="cls-1" d="m22.56,17.54c.09,4.03.2,8.04,1.86,11.82.57,1.31-.2,2.55-1.46,2.27-.47-.1-1.05-.61-1.22-1.06-.62-1.71-1.08-3.47-1.62-5.2-.08-.26-.32-.48-.49-.72-.17.24-.42.47-.51.74-.52,1.68-.96,3.38-1.51,5.04-.37,1.12-1.17,1.51-2.05,1.16-.87-.35-1.16-1.17-.69-2.25,1.66-3.78,1.69-7.79,1.89-11.8-2.07-.43-4.06-.84-6.04-1.25-.18-.04-.36-.08-.54-.14-.92-.29-1.37-1.01-1.14-1.81.24-.82.97-1.23,1.89-1.05,1.79.35,3.56.74,5.36,1.05,3.45.61,6.83.1,10.2-.63.63-.14,1.26-.31,1.89-.43.87-.17,1.61.26,1.82,1.03.22.85-.17,1.61-1.1,1.83-2.13.5-4.27.92-6.55,1.41Z"/>
      <path class="cls-1" d="m19.68,14.07c-1.62.01-2.9-1.22-2.93-2.82-.03-1.62,1.31-2.99,2.9-2.97,1.56.01,2.9,1.35,2.91,2.9.01,1.56-1.31,2.88-2.88,2.89Z"/>
    </g>
  </g>
</svg>