<?xml version="1.0" encoding="UTF-8"?>
<svg id="Calque_2" data-name="Calque 2" xmlns="http://www.w3.org/2000/svg" width="832.15" height="466" xmlns:xlink="http://www.w3.org/1999/xlink" viewBox="0 0 832.15 466">
  <defs>
    <style>
      .cls-1 {
        fill: #66c1bf;
      }

      .cls-1, .cls-2, .cls-3, .cls-4, .cls-5 {
        stroke-width: 0px;
      }

      .cls-2 {
        fill: none;
      }

      .cls-3 {
        fill: #fff;
      }

      .cls-6 {
        clip-path: url(#clippath);
      }

      .cls-4 {
        fill: #c97595;
      }

      .cls-5 {
        fill: #335572;
      }
    </style>
    <clipPath id="clippath">
      <rect class="cls-2" y="0" width="832.15" height="466" rx="25" ry="25"/>
    </clipPath>
  </defs>
  <g id="Calque_1-2" data-name="Calque 1">
    <g class="cls-6">
      <g>
        <g>
          <path class="cls-1" d="m621.46,152.4c.89-.8,1.79-1.59,2.71-2.36.63-.53,1.32-1.07,2.14-1.15,1.41-.15,2.63,1.15,2.92,2.54.29,1.38-.1,2.81-.47,4.17-5.37,19.92-6.26,40.9-12.55,60.54-.6,1.88-1.27,3.78-2.46,5.36-4.02,5.32-12.82,5.94-18.9,5.55-4.32-.28-8.62-.94-12.82-1.98-2.47-.61-5-1.39-6.89-3.09-3.13-2.8-3.5-6.38-1.1-9.58,2.99-3.98,5.79-8.13,8.72-12.16,5.97-8.21,12.04-16.34,18.21-24.39,6.32-8.25,12.81-16.49,20.5-23.45Z"/>
          <path class="cls-1" d="m809.56,272.87c-.66,1.46-1.19.6-2.35.2-2.13-.73-4.31-1.37-6.46-2.04-4.14-1.3-8.28-2.59-12.42-3.86-8.29-2.54-16.6-5.02-24.93-7.43-16.66-4.82-33.39-9.37-50.2-13.65-.34-.08-.67-.17-1.01-.26-1.78-.45-3.64-.91-5.44-.53-2.13.44-3.85,1.95-5.7,3.09-6.71,4.13-15.19,3.37-23.04,2.79-1.48-.11-2.96-.2-4.43-.29-15.1-.85-30.07-.42-45.14.58-17.08,1.13-34.21,1.16-51.32.82-5.93-.12-11.85-.29-17.78-.47-6.76-.21-13.29.41-19.98-.44-7.03-.89-13.97-2.41-20.72-4.53-2.89-.91-6.18-1.9-8.82-.42-2.33,1.3-3.33,4.08-4.38,6.54-1.14,2.67-2.59,5.26-4.67,7.28-2.08,2.02-4.87,3.44-7.77,3.42-4.25-.03-8.07-3.22-9.6-7.18-1.53-3.96-1.02-8.49.58-12.42,1.2-2.93,2.96-5.59,4.91-8.09.66-.86,1.35-1.69,2.05-2.52,9.37-11.11,24.35-17.36,38.08-21.5,15.03-4.52,30.74-6.28,46.41-7.17,4.47-.26,8.19-.05,12.28.74,1.02.19,2.06.42,3.14.69,5.66,1.41,11.32,2.82,16.98,4.22,7.47,1.75,14.9,3.7,22.35,5.56,7.16,1.78,13.35,2.77,19.23,7.38,1.05.82,2.15,1.62,3.43,1.99.99.29,2.02.31,3.06.28.28,0,.56-.02.83-.03,12.01-.44,24.09,1.16,35.57,4.69,3.09.95,6.33,2.18,8.46,4.54.3.34.59.7.84,1.09.34.52.65,1.1,1.18,1.45.46.29,1.02.37,1.56.44,3.22.41,6.45.2,9.63.46,3.78.31,7.78,1.89,11.45,2.82,7.85,1.99,15.7,3.97,23.56,5.96,2.88.73,5.76,1.46,8.58,2.42,4.07,1.39,7.82,3.54,11.86,4.98,3.37,1.2,6.73,1.49,10.12,2.92,8.85,3.74,17.7,7.47,26.54,11.2,1.08.46,2.21.95,2.95,1.86.46.57.88,1.66.55,2.4Z"/>
          <path class="cls-3" d="m692.55,125.58c-2.47,5.51-6.57,9.66-10.49,14.15-2.67,3.06-5.14,6.29-7.6,9.51-3.95,5.17-7.92,10.38-10.77,16.23-5.98,12.28-6.59,26.4-7.08,40.05-.22,6.15-.44,12.29-.67,18.43-.02.56-.04,1.13-.05,1.69-.09,2.96-.07,5.93.58,8.81,1.14,5.07,5.19,9.81,9.66,12.38,2.5,1.44,5.05,2.6,7.45,4.05-15.1-.85-30.07-.42-45.14.58-17.08,1.13-34.21,1.16-51.32.82-5.93-.12-11.85-.29-17.78-.47-6.76-.21-13.29.41-19.98-.44-7.03-.89-13.97-2.41-20.72-4.53-2.89-.91-6.18-1.9-8.82-.42-2.33,1.3-3.33,4.08-4.38,6.54-1.14,2.67-2.59,5.26-4.67,7.28-2.08,2.02-4.87,3.44-7.77,3.42-4.25-.03-8.07-3.22-9.6-7.18-1.53-3.96-1.02-8.49.58-12.42,1.2-2.93,2.96-5.59,4.91-8.09,2.89-2.33,6.21-4.13,9.76-5.24-.58,2.35-1.03,5.18.66,6.91,1.48,1.51,3.94,1.43,5.98.89,2.37-.63,4.61-1.73,6.56-3.21,1.23-.94,2.36-2.05,3.75-2.76,3.62-1.85,7.94-.59,11.99-.2,3.5.33,7.03-.03,10.51-.52,12.16-1.72,24.28-5.13,34.65-11.73,5.66-3.6,9.85-9.44,14.6-14.22l.37-.37c5.54-5.57,11.08-11.14,16.61-16.71,11.48-11.55,21.84-24,32.38-36.4,7.48-8.8,15.09-17.72,24.65-24.22,7.83-5.32,16.85-8.9,26.21-10.37,2.08-.33,5.71-.6,6.74,1.89.75,1.81-1.01,4.26-1.74,5.87Z"/>
        </g>
        <g>
          <path class="cls-1" d="m0,227.24v238.76s98.57,0,98.57,0c7.41-2.75,14.91-5.3,22.14-8.49,9.77-4.3,19.06-9.8,27.11-16.8,12.33-10.72,21.36-24.89,26.74-40.26,1.97-5.62,3.53-11.44,4.56-17.33,3.5-19.93,1-40.68-11.84-57.46-6.09-7.97-14.15-14.15-21.36-21.13-7.15-6.93-10.23-14.07-15.04-22.34-3.72-6.4-11.88-8.28-16.47-14.34-2.93-3.86-4.81-8.4-6.67-12.88-3.23-7.84-5.59-18.18-11.96-24.15-7.01-6.57-19.2-10.63-27.65-15.36-9.9-5.53-20.96-5.98-32.02-4.51C22.79,212.74,8.47,217.38,0,227.24Z"/>
          <g>
            <g>
              <path class="cls-3" d="m431.65,378.04c1.37-3.96,3.41-7.53,5.46-11.28,1.31-2.4,2.77-4.77,3.41-7.43,1.5-6.2-1.57-13.08.93-18.95.63-1.47,2.22-2.98,3.63-2.21,1.03.56,1.17,1.96,1.19,3.14.05,4.36-.28,8.66-.31,13.02,0,.34.01.73.26.97.55.52,1.38-.22,1.76-.88,1.7-2.93,3.39-5.85,5.09-8.78,1.59-2.74,3.2-5.53,3.94-8.61,1.17-4.86.46-10.86,4.37-13.97,2.38-1.9,5.82-2.03,8.17-3.97,1.6-1.33,2.47-3.31,3.51-5.12,1.04-1.8,2.49-3.6,4.53-4.02,2.43-.5,4.37,1.78,4.39,4.07.02,2.65-2.28,4.31-4.35,5.6-4.27,2.67-8.2,5.9-11.66,9.56-1.44,1.52-2.89,3.56-2.18,5.53.87,2.43,4.4,2.66,6.63,1.37,2.23-1.3,3.75-3.54,5.85-5.03,2.13-1.51,6.7-2.2,7.14,1.26.39,3.07-3.36,7.04-5.8,8.28-2.86,1.45-6.15,1.74-9.33,2.2-3.18.46-6.48,1.18-8.91,3.29-4.88,4.23-4.22,11.86-6.5,17.9-1.72,4.56-5.23,8.27-9.24,11.05-4,2.78-8.52,4.72-13,6.63.27-1.25.62-2.44,1.02-3.61Z"/>
              <path class="cls-3" d="m377,373.68c-2.17-3.59-3.62-7.43-5.2-11.4-1.01-2.54-1.91-5.18-3.55-7.37-3.27-4.38-9.09-7.79-13.44-11.04-3.81-2.85-7.84-5.38-11.95-7.78-3.49-2.04-8.08-1.81-11.18-4.36-.9-.74-1.6-1.69-2.51-2.42-1.41-1.12-3.21-1.61-4.92-2.17-3.03-.99-6.05-2.34-8.22-4.67s-3.35-5.81-2.22-8.79c1.54.98,3.41,1.44,5.23,1.26.82-.08,1.65-.28,2.45-.09,1.59.37,2.44,2.05,3.19,3.49,2.16,4.15,5.54,8.04,10.1,9.12,2.08.49,4.88-.12,5.25-2.22.16-.89-.19-1.79-.63-2.58-1.27-2.3-3.35-4.13-5.78-5.11-1.24-.49-2.58-.78-3.67-1.56-1.79-1.27-2.5-3.54-3.1-5.65-.57-1.98-1.1-4.23-.08-6.02.84-1.47,2.54-2.23,4.19-2.6,2.25-.51,5.17-.12,6.02,2.02.31.78.27,1.64.48,2.45.33,1.28,1.23,2.31,2.08,3.32,4.67,5.51,8.01,10.9,10.59,17.56,3.4,8.78,10.73,14.57,17.72,20.45.26.22.57.46.91.41.75-.09.71-1.2.45-1.92-1.17-3.17-2.34-6.35-3.51-9.52-1.1-2.97-2.22-5.99-4.11-8.53-3-4.01-8.07-7.28-7.97-12.28.06-3.04,2.15-5.78,2.16-8.82,0-2.08-.97-4.02-1.7-5.97-.72-1.95-1.18-4.21-.2-6.05,1.17-2.19,4.16-2.24,5.93-.79,2.06,1.68,1.86,4.51,1.54,6.92-.67,5-.7,10.08-.08,15.08.25,2.08.9,4.5,2.87,5.21,2.42.88,4.86-1.69,5.29-4.23.42-2.54-.34-5.15-.14-7.72.2-2.6,2.59-6.56,5.53-4.69,2.61,1.66,3.28,7.08,2.67,9.74-.71,3.13-2.59,5.85-4.26,8.58-1.68,2.74-3.23,5.75-3.16,8.96.14,6.46,6.44,10.82,9.63,16.43,2.41,4.24,3.03,9.31,2.61,14.16-.42,4.86-1.8,9.57-3.19,14.24-.79-1.01-1.49-2.04-2.12-3.09Z"/>
              <path class="cls-3" d="m404.87,373.82c-1.98-3.7-3.21-7.61-4.57-11.67-.87-2.59-1.63-5.27-3.14-7.55-3.53-5.31-10.67-7.72-13.28-13.54-.66-1.46-.68-3.65.84-4.17,1.11-.38,2.24.47,3.11,1.26,3.24,2.92,6.17,6.09,9.35,9.07.25.24.55.49.89.46.76-.05.77-1.16.55-1.89-1-3.23-1.99-6.47-2.99-9.7-.93-3.03-1.89-6.1-3.64-8.74-2.77-4.16-7.66-7.7-7.29-12.7.22-3.04,2.47-5.65,2.63-8.69.11-2.08-.76-4.06-1.37-6.05-.62-1.99-.95-4.27.12-6.05,1.28-2.12,4.27-2.01,5.97-.46,1.96,1.79,1.62,4.61,1.16,7-.94,4.95-1.24,10.02-.9,15.05.14,2.09.65,4.54,2.58,5.36,2.37,1.01,4.95-1.42,5.51-3.94.56-2.52-.06-5.16.28-7.71.34-2.59,2.94-6.41,5.78-4.39,2.52,1.8,2.89,7.25,2.14,9.87-.88,3.09-2.9,5.7-4.72,8.34-1.82,2.64-3.53,5.56-3.64,8.77-.21,6.45,5.85,11.15,8.73,16.93,2.18,4.36,2.52,9.46,1.84,14.28-.68,4.83-2.32,9.46-3.96,14.05-.73-1.05-1.37-2.11-1.95-3.2Z"/>
              <path class="cls-3" d="m425,410.78c1.68-3.85,3.98-7.24,6.32-10.82,1.5-2.29,3.13-4.55,3.98-7.15,1.98-6.06-.56-13.16,2.39-18.82.74-1.42,2.45-2.8,3.79-1.92.99.64,1.02,2.05.94,3.22-.29,4.35-.95,8.62-1.32,12.96-.03.34-.04.73.19.98.51.56,1.39-.11,1.82-.74,1.92-2.79,3.84-5.57,5.75-8.36,1.8-2.61,3.61-5.26,4.59-8.28,1.55-4.76,1.3-10.79,5.44-13.59,2.52-1.71,5.96-1.57,8.45-3.32,1.7-1.2,2.72-3.11,3.9-4.83,1.18-1.72,2.76-3.4,4.83-3.66,2.46-.31,4.22,2.11,4.06,4.39-.18,2.65-2.61,4.12-4.77,5.25-4.47,2.34-8.63,5.24-12.37,8.63-1.55,1.4-3.16,3.33-2.61,5.35.68,2.49,4.18,3,6.51,1.88,2.32-1.12,4.01-3.24,6.23-4.56,2.24-1.34,6.85-1.67,7.02,1.81.15,3.1-3.9,6.76-6.42,7.8-2.97,1.23-6.27,1.26-9.47,1.47-3.2.21-6.56.68-9.14,2.59-5.19,3.84-5.12,11.5-7.87,17.35-2.07,4.41-5.86,7.84-10.06,10.3-4.21,2.46-8.86,4.05-13.48,5.6.37-1.22.81-2.39,1.3-3.52Z"/>
              <path class="cls-3" d="m419.26,376.62c-1.08-3.14-2.11-6.31-2.21-9.7-.11-3.79.38-7.59.13-11.38-.29-4.4-1.59-8.74-3.78-12.57-1.12-1.96-2.47-3.8-3.34-5.89-.86-2.09-1.19-4.54-.21-6.57.55-1.15,1.83-2.18,3.02-1.72.48.18.85.58,1.18.97,2.92,3.48,4.34,7.97,5.31,12.41.23,1.05.46,2.16,1.18,2.98.71.81,2.07,1.17,2.87.44.38-.35.56-.86.72-1.34.89-2.63,1.78-5.47,1-8.14-.78-2.69-3.12-4.65-4.22-7.22-1.58-3.68.17-6.66.11-10.3-.05-3.04-2.37-5.78-3.24-8.6-.98-3.18-.41-6.79,1.51-9.51,1.46-2.07,3.72-3.8,4.07-6.32.21-1.51-.32-3.16.39-4.5.97-1.83,3.89-1.85,5.32-.35,1.43,1.5,1.57,3.87.95,5.85-.62,1.98-1.86,3.7-2.93,5.47s-2.01,3.75-1.91,5.83c.13,2.96,2.32,5.47,2.72,8.4.33,2.44-1.72,7.73,2.1,8.36,1.82.3,3.61-.98,4.47-2.61s.99-3.53,1.06-5.38c.08-2.24.29-4.86,2.19-6.05,1.43-.9,3.43-.65,4.73-1.72,1.43-1.17,1.6-3.58,3.27-4.37,4.39-2.05,4.58,7.01,2.83,9.16-1.37,1.69-3.53,2.61-4.94,4.26-.53.62-.97,1.43-.81,2.23.16.83.93,1.44,1.75,1.68,5.04,1.48,5.75-6.99,10.37-5.21,1.37.53,2.29,2.04,2.13,3.5-.24,2.19-2.96,4.43-4.39,5.98-2,2.15-4.47,3.69-7.45,4-2,.21-4.11-.1-5.97.68-3.39,1.42-4.4,5.64-4.97,9.26-.23,1.47-.46,2.94-.69,4.4-.06.35-.11.72,0,1.06.18.59.76.95,1.24,1.35,1.68,1.4,2.3,3.78,2.1,5.96-.2,2.18-1.08,4.24-1.96,6.24-1.21,2.76-2.68,5.26-4.02,7.95-1.51,2.4-3.15,4.91-4.8,7.27-1.7,2.43-4.68,4.37-5.68,7.21-.37-1.16-.78-2.32-1.19-3.48Z"/>
            </g>
            <path class="cls-1" d="m483.45,448.7c-5,4.84-9.35,9.97-14.59,13.38h-189.02c-1.02-.79-2.01-1.62-2.96-2.5-12.53-11.62-16.49-29.58-19.33-46.42-3.04-17.98-5.44-36.98,1.03-54.03,10.54-27.79,34.34-24.57,57.8-29.59,9.79-2.1,19.74-3.28,29.68-4.46,18.81-2.23,39.35-4.1,55.29,6.13,8.77,5.62,15.76,14.72,25.94,16.92,9.43,2.03,19.71-2.42,28.71,1.06,9.77,3.78,12.61,13.63,17.64,21.61,6.65,10.57,15.64,18.82,20.49,30.68,4.78,11.69,5.51,25.77-1.21,36.46-2.55,4.05-6.03,7.43-9.47,10.76Z"/>
          </g>
          <path class="cls-1" d="m140.9,313.25c-.1-.15-.2-.31-.27-.47-.49-1.1.07-2.35.14-3.55.23-3.75-3.58-4.87-6.55-4.67-2.44.17-4.97.03-7.2-.98-3.99-1.8-6.87-7.54-2.55-10.65,1.73-1.25,4.03-1.51,6.13-1.14,5.22.93,8.82,6.81,13.18,9.57,1.17.74,2.45,1.37,3.83,1.5,3.07.29,5.97-3.03,5.8-6.05-.13-2.2-1.82-4.03-3.76-5.07-1.94-1.04-4.14-1.45-6.25-2.07-2.11-.62-4.26-1.52-5.63-3.25-1.37-1.72-1.68-4.45-.17-6.05.33-.35.73-.63.97-1.04.56-.91.17-2.1-.31-3.05-1.83-3.63-4.88-5.61-7.8-8.2-2.82-2.5-5.03-5.69-6.34-9.22-.83-2.23-1.31-4.69-.7-6.99s2.51-4.37,4.88-4.6c7.82-.74,9.96,12.82,11.53,17.95,1.59,5.2,5.7,13.6,12.25,11.16,1.51-.56,3.09-1.36,3.77-2.81.67-1.42.3-3.16-.53-4.49-.83-1.33-2.06-2.36-3.25-3.39-1.56-1.36-3.07-2.78-4.52-4.26-.9-.91-1.8-1.88-2.27-3.07-.75-1.89-.32-4.05-.77-6.03-.44-1.95-1.68-3.59-2.65-5.33-1.65-2.97-2.54-6.35-2.56-9.74-.02-3.3,2.21-6.39,5.36-7.4,3.6-1.16,6.36,2.2,6.84,5.51.39,2.73-.29,5.49-.5,8.25-.26,3.46.23,6.97,1.44,10.22.92,2.46,2.3,4.84,4.45,6.36,2.32,1.64,4.89,1.7,7.48.79,1.27-.44,2.62-1.03,3.27-2.21.76-1.39.28-3.12-.31-4.6-.73-1.82-1.61-3.58-2.62-5.26-.97-1.6-2.07-3.14-2.72-4.89-.66-1.75-.82-3.8.09-5.43.73-1.31,2.03-2.19,3.34-2.92.89-.5,1.86-.98,2.87-.89.82.07,1.57.51,2.2,1.04,3.12,2.66,3.42,7.47,2.23,11.39-.44,1.44-1.05,2.86-1.18,4.36-.12,1.42.2,2.83.34,4.25.4,4.14-.83,8.41-3.38,11.7-.72.93-1.55,1.79-2.05,2.86-.59,1.26-.68,2.69-.71,4.08-.07,3.5.21,7.14,1.94,10.18,2,3.52,7.16,6.39,10.89,4.32.9-.5,1.87-1.07,2.23-2.04.19-.51.19-1.07.18-1.62-.08-3.51-.46-7.02-1.13-10.47-.54-2.8-1.27-5.58-1.49-8.42-.45-5.8,1.32-11.75,4.88-16.36,2.12-2.75,5.31-5.16,8.74-4.68,2.66.38,4.86,2.53,5.72,5.08.86,2.54.5,5.39-.55,7.86-1.05,2.47-2.73,4.62-4.55,6.59-1.09,1.18-2.25,2.33-3.09,3.7-.6.98-1.03,2.06-1.26,3.18-.27,1.31-.34,3.37,1.38,3.66.83.14,1.67-.19,2.43-.55,3.82-1.81,7.17-4.61,9.64-8.04.65-.9,1.24-1.85,1.6-2.9.54-1.56.54-3.26.97-4.86.43-1.6,1.48-3.22,3.11-3.52,1.99-.37,3.77,1.44,4.48,3.33.99,2.66.65,5.7-.5,8.29s-3.05,4.8-5.15,6.71c-1.65,1.5-3.5,2.91-4.52,4.9-.74,1.44-.98,3.13-.68,4.72.25,1.34.87,2.63.78,3.99-.16,2.26-2.2,3.88-4.13,5.09-1.92,1.21-4.07,2.52-4.7,4.7-.74,2.58,1.21,5.41,3.77,6.23,2.36.76,4.82-.43,7.02-1.28,2.56-.99,4.92-2.48,6.91-4.37,1.19-1.13,2.25-2.42,2.89-3.93,1.27-2.98.74-6.39.19-9.59-.35-2.03-.7-4.06-1.05-6.09-.42-2.43-.84-4.89-.69-7.36.15-2.46.94-4.97,2.65-6.75,2.47-2.58,7.08-2.1,9.3.67,1.49,1.87,1.86,4.49,1.25,6.8-.51,1.94-1.65,3.67-2.17,5.61-.52,1.94-.2,4.36,1.53,5.38.9.53,2.02.57,3.05.41,1.84-.3,3.53-1.18,5.21-1.99,1.68-.81,3.45-1.58,5.32-1.6,1.87-.03,3.86.86,4.62,2.57.73,1.63.16,3.6-.95,4.99-1.11,1.39-2.68,2.33-4.22,3.23-3.29,1.94-6.57,3.87-9.86,5.81-1.21.71-2.44,1.44-3.32,2.53-.88,1.09-1.35,2.63-.81,3.92.71,1.69,2.76,2.33,4.59,2.46,5.45.38,11.28-2.8,14.02-7.48,1.43-2.45,2.17-5.35,4.11-7.41,1.67-1.78,4.07-2.74,6.48-3.18,2.46-.46,5.06-.42,7.38.51,2.32.94,4.31,2.87,4.93,5.29.59,2.28-.05,4.68-.68,6.95-.62,2.27-1.23,4.69-.58,6.95.65,2.26,3.07,4.19,5.3,3.44,1.59-.53,2.53-2.19,2.94-3.81.42-1.62.46-3.33.99-4.92.17-.52.41-1.04.8-1.43.72-.71,1.84-.85,2.84-.71,3.87.54,6.5,4.69,6.35,8.59-.23,6.08-4.93,7.6-7.48,12.07-2.37,4.15-2.41,8.92-4.05,13.66-3.59,10.37-11.39,19.21-20.61,25-13.1,8.22-28.92,11.06-44.39,11.57-10.44.35-21.1-.32-30.84-4.09-9.74-3.77-18.51-10.99-22.26-20.74-2.37-6.16-3.54-11.43-7.82-16.57-2.56-3.07-7.57-5.15-5.39-10.15.63-1.45,1.79-2.98,1.15-4.42-.13-.29-.32-.54-.49-.8Z"/>
          <g>
            <path class="cls-3" d="m147.1,453.85c-1.71-.32-3.36-.79-4.9-1.44-3.33-1.4-6.17-3.76-8.93-6.09-3.64-3.06-7.34-6.24-9.68-10.37-2.63-4.64-2.21-9.51-3.8-14.33-1.24-3.76-3.39-6.83-4.18-10.94-1.73-9-.87-18.66,1.15-27.55,1.02-4.49,2.51-9.15,1.35-13.61-.7-2.69-2.31-5.03-3.63-7.48-2.3-4.23-3.82-9.07-3.22-13.84.59-4.78,3.64-9.43,8.2-10.97,2.1-.71,4.47-.78,6.3-2.02,3.59-2.42,3.5-8.06,6.8-10.88,4.51-3.85,12.2-.15,17.05-3.56,2.35-1.65,3.43-4.6,5.49-6.59,3.33-3.2,7.98-3.08,12.24-3.68,4.53-.64,5.6-1.99,9.03-4.39,8.16-5.72,17.74,1.83,26.18-1.78,3.1-1.32,4.51-4.41,8.47-4.48,7.55-.13,12.09,11.22,19.54,9.97,3.6-.6,5.96-4.02,9.06-5.95,3.85-2.4,8.86-2.41,13.13-.86,4.27,1.55,7.89,4.49,11.09,7.71,2.98,3,6.21,6.55,10.44,6.59,1.75.02,3.45-.59,5.19-.81,3.91-.49,8.03,1.15,10.52,4.21,1.49,1.82,2.58,4.22,4.79,5.03,3.02,1.11,6.04-1.37,9.08-2.44,4.19-1.48,9.01-.14,12.52,2.59,3.51,2.72,5.9,6.66,7.73,10.7.83,1.83,1.66,3.82,3.33,4.94,1.44.96,3.25,1.11,4.97,1.26,4.54.4,9.16,1.06,13.2,3.18,4.03,2.11,7.43,5.93,7.93,10.46.26,2.36-.26,4.76.09,7.1.83,5.56,6.1,9.2,9.19,13.89,1.14,1.73,2.34,3.82,3.19,5.7.93,2.07.72,4.47,1.21,6.65.56,2.51,2.04,4.77,2.46,7.31.87,5.22-2.75,9.96-5.16,14.67-2.84,5.52-4.39,12.04-9.17,15.99-3.37,2.78-7.87,3.81-12.23,4.06-4.36.25-8.74-.21-13.11.02-8.74.46-16.66,4.03-25.03,5.94-7.89,1.79-16.5,6.08-23.22,10.5-10.39,6.82-20.19,12.92-32.88,14.84-19.98,3.02-37.69-6.91-56.93-9.43-8.15-1.07-16.96-1.11-25.09-.15-6.09.72-13.37,1.54-19.78.33Z"/>
            <g>
              <path class="cls-1" d="m205.62,366.19c.51-.72,1.83-1.36,2.72-1.24,3,.41,5.7,1.72,7.65,4.08.32.39.28.78-.06,1.18-2.92,3.39-7.1.38-9.62-1.93-.24-.22-.29-.47-.21-.73-.73-.16-.97-.67-.48-1.35Z"/>
              <path class="cls-4" d="m174.09,420.58c.51-.72,1.83-1.36,2.72-1.24,3,.41,5.7,1.72,7.65,4.08.32.39.28.78-.06,1.18-2.92,3.39-7.1.38-9.62-1.93-.24-.22-.29-.47-.21-.73-.73-.16-.97-.67-.48-1.35Z"/>
              <path class="cls-4" d="m188.83,373.36c.07-.09.16-.19.26-.28.09-.12.18-.23.28-.31.72-.63,1.83-1.07,2.79-.85,2.31.53,4.64,1.4,6.24,3.21,1.13,1.28-1.89,2.45-2.78,2.42-2.12-.07-4.2-.68-5.97-1.87-.88-.59-1.61-1.31-.82-2.33Z"/>
              <path class="cls-4" d="m217.26,384.05c.61-.3,1.32-.46,1.92-.28,1.56.47,3.41,1.14,4.67,2.22,1.68,1.43-.22,3.07-1.66,3.63-3.08,1.21-6.45-.86-8.12-3.41-.63-.96,1.84-2.44,3.19-2.17Z"/>
              <path class="cls-4" d="m249.78,416.56c.61-.3,1.32-.46,1.92-.28,1.56.47,3.41,1.14,4.67,2.22,1.68,1.43-.22,3.07-1.66,3.63-3.08,1.21-6.45-.86-8.12-3.41-.63-.96,1.84-2.44,3.19-2.17Z"/>
              <g>
                <path class="cls-1" d="m183.88,315.02c.68-1.24,2.22-1.98,3.57-2.12.6-.06,1.21.01,1.79.18.48.14,1.14.58,1.64.53.6-.05,1.36.08,1.36.68.77.28,1.49.71,1.67,1.49.27,1.17-.92,2.12-1.84,2.58-1.25.63-2.53.76-3.89.53-1.67-.29-5.61-1.5-4.31-3.86Z"/>
                <path class="cls-1" d="m197.42,348.64c0-.07.02-.13.05-.21.28-.83,1.66-1.48,2.46-1.55,3.33-.27,6.4.91,8.4,3.64.65.88-1.58,1.9-1.99,2.05-3.44,1.26-7.33.4-9.61-2.53-.32-.41.06-.96.69-1.4Z"/>
                <path class="cls-1" d="m172.15,340.27c.18-.09.36-.19.54-.28.12-.06.28-.13.46-.19.66-.39,1.46-.57,2.2-.43,1.35.26,2.84.61,3.93,1.51,1.37,1.13,1.69,2.73.04,3.79-2.94,1.89-6.72-.16-8.64-2.55-.55-.68,1.13-1.68,1.47-1.85Z"/>
                <path class="cls-1" d="m183.57,328.63c.41-.32,1.75-.94,2.58-.78.07,0,.14,0,.21,0,.97.11,1.93.28,2.85.61.81.29,1.9.67,2.54,1.27.77.71.27,1.63-.39,2.22-.84.74-2.1,1.19-3.22,1.15-1.7-.07-3.52-.95-4.76-2.1-.88-.81-.8-1.6.18-2.36Z"/>
                <path class="cls-1" d="m161.07,329.16c.14-.49.8-.96,1.52-1.24.5-.32,1.09-.53,1.54-.56,1.59-.1,3.1.09,4.55.79.56.28,1.38.65,1.68,1.23.46.9-.39,1.83-1.09,2.3-1.67,1.13-3.64.91-5.46.28-1.3-.45-3.24-1.12-2.74-2.81Z"/>
                <path class="cls-4" d="m169.37,362.07c.61-.62,1.67-1.1,2.51-1.02,1.48.15,2.93.63,4.07,1.63,1.1.97,1.81,2.17.51,3.33-2.65,2.36-6.5.12-8.21-2.26-.37-.52.26-1.22,1.12-1.69Z"/>
                <path class="cls-1" d="m183.68,357.72c.08-.05.2-.12.34-.19.05-.06.1-.11.16-.16.68-.6,1.86-1.11,2.78-.85,1.65.48,6.88,2.28,4.42,4.73-2.55,2.54-6.55.59-8.48-1.72-.58-.69.19-1.43.79-1.81Z"/>
                <path class="cls-1" d="m159.1,350.34c-.28-.26-.3-.68.04-1.12.57-.73,1.77-1.32,2.71-1.24,1.48.12,2.94.6,4.08,1.57.43.36.86.8,1.01,1.36.24.9-.42,1.66-1.12,2.14-.84.57-1.96.93-2.98.67-.66-.17-1.25-.61-1.82-.96-.61-.37-1.59-.76-1.91-1.46-.15-.33-.13-.66-.01-.97Z"/>
                <path class="cls-1" d="m208.47,307.19c.04-.11.1-.22.19-.34.52-.71,1.8-1.35,2.71-1.24,1.59.2,3.1.58,4.55,1.27.51.24,1.35.51,1.62,1.06.33.67-.27,1.37-.74,1.76-2.54,2.15-6.59.76-9.04-.84-.61-.4-.1-1.12.72-1.67Z"/>
                <path class="cls-1" d="m161.56,316.26c.04-.11.1-.22.19-.34.53-.71,1.8-1.35,2.71-1.24,1.59.2,3.1.58,4.55,1.27.51.24,1.35.51,1.62,1.06.33.67-.27,1.36-.74,1.76-2.54,2.15-6.59.77-9.04-.84-.61-.4-.1-1.12.72-1.67Z"/>
                <path class="cls-1" d="m201.18,323.6c-.67-.17-.88-.68-.41-1.33.51-.71,1.82-1.36,2.71-1.24,2.13.29,4.2.77,6.19,1.58,1.6.65,3.72,1.74,1.97,3.58-2.87,3.03-7.99,1.02-10.5-1.41-.36-.35-.28-.77.03-1.17Z"/>
                <path class="cls-1" d="m209.93,338.1c.2-.03.39-.06.58-.06,2.15,0,4.35.79,5.83,2.39.77.83,1.13,1.73.34,2.71-.9,1.12-2.51,1.54-3.89,1.5-2.02-.06-4.96-.78-6.19-2.54-1.39-1.99,1.31-3.92,3.33-4Z"/>
                <path class="cls-4" d="m117.75,401.16c.41-.32,1.75-.94,2.58-.78.07,0,.14,0,.21,0,.97.11,1.93.28,2.85.61.81.29,1.89.67,2.54,1.27.77.71.27,1.63-.39,2.22-.84.74-2.1,1.19-3.22,1.15-1.7-.07-3.52-.95-4.76-2.1-.88-.81-.8-1.6.18-2.36Z"/>
                <path class="cls-4" d="m142.13,414.17c.2-.03.39-.06.58-.06,2.15,0,4.35.79,5.83,2.39.77.83,1.13,1.73.34,2.71-.9,1.12-2.51,1.54-3.89,1.5-2.02-.06-4.96-.78-6.19-2.54-1.39-1.99,1.31-3.92,3.33-4Z"/>
                <path class="cls-1" d="m224.02,318.7c.51-.73,1.81-1.34,2.71-1.24,1.94.21,3.89.53,5.66,1.39,1.21.59,3.58,2.11,3.08,3.73-.63,2.03-3.56,2.03-5.2,1.67-1.88-.42-3.6-1.41-4.94-2.79-.37-.39-.25-.86.12-1.28-.26-.04-.53-.07-.8-.1-.86-.09-1.13-.67-.63-1.38Z"/>
                <path class="cls-1" d="m222.5,334.54c-.17-.4.23-1.04.55-1.33.71-.65,1.82-1.05,2.78-.85,1.84.38,9.27,2.63,5.98,5.35-2.77,2.28-7.28.37-9.45-1.87-.38-.39-.24-.87.14-1.31Z"/>
                <path class="cls-1" d="m225.29,355.28c.12-.25.31-.49.47-.64.7-.64,1.84-1.07,2.79-.85,2.46.57,6.66,1.7,6.97,4.7.13,1.24-2.17,1.86-3.02,1.9-3.06.13-6.09-.96-8.3-3.1-.63-.61.1-1.48,1.08-2.01Z"/>
                <path class="cls-4" d="m154.34,400.61c.12-.25.31-.49.47-.64.7-.64,1.84-1.07,2.79-.85,2.46.57,6.66,1.7,6.97,4.7.13,1.24-2.17,1.86-3.02,1.9-3.06.13-6.09-.96-8.3-3.1-.63-.61.1-1.48,1.08-2.01Z"/>
                <path class="cls-4" d="m211.89,402.98c.12-.25.31-.49.47-.64.7-.64,1.84-1.07,2.79-.85,2.46.57,6.66,1.7,6.97,4.7.13,1.24-2.17,1.86-3.02,1.9-3.06.13-6.09-.96-8.3-3.1-.63-.61.1-1.48,1.08-2.01Z"/>
                <path class="cls-1" d="m248.7,305.96c.42-.15.85-.23,1.24-.21,2.25.1,5.1.9,6.59,2.75.85,1.06-.03,2.16-.99,2.78-1.2.77-2.64.99-4.04.91-1.9-.11-5.16-1-5.93-3.02-.58-1.55,1.44-3.08,3.14-3.2Z"/>
                <path class="cls-1" d="m246.44,327.13c-.1-.02-.19-.04-.29-.07-.97-.2-.35-1.26.08-1.65.71-.65,1.82-1.05,2.78-.85,1.69.35,3.3.93,4.84,1.72.6.31,1.4.63,1.79,1.2.52.75.1,1.51-.48,2.08-2.42,2.35-7.07,1-9-1.38-.24-.3-.08-.69.28-1.06Z"/>
                <path class="cls-1" d="m268.16,322.84c.58-.77,1.75-1.24,2.69-1.22,2.87.07,5.43,1.41,7.08,3.76.6.86-1.53,1.94-1.99,2.05-3.23.79-6.77.17-8.97-2.49-.59-.71.21-1.59,1.2-2.1Z"/>
                <path class="cls-1" d="m243.16,343.49c.02-.17.1-.36.24-.56.53-.75,1.79-1.31,2.71-1.24,2.06.16,4.04.75,5.76,1.92,1.64,1.1,2.37,2.93.54,4.33-2.92,2.24-8.76.52-10.22-2.82-.25-.56.26-1.19.98-1.64Z"/>
                <path class="cls-4" d="m228.26,371.07c.54-.76,1.79-1.3,2.72-1.24,2.94.17,5.7,1.38,7.66,3.61.87.99-1.02,2.1-1.81,2.29-3.24.75-6.67-.14-8.35-3.21-.03-.06-.05-.12-.07-.18-.46-.23-.53-.73-.15-1.27Z"/>
                <path class="cls-4" d="m233.42,388.79c-.03-.24.04-.51.23-.77.57-.8,1.77-1.24,2.72-1.24,3.29,0,6.3,1.66,7.95,4.52.73,1.26-2.23,2.17-2.97,2.19-3.07.09-6.07-1.05-8.22-3.25-.43-.44-.21-.98.28-1.45Z"/>
                <path class="cls-4" d="m231.6,402.2s.08-.09.12-.13c.7-.65,1.84-1.06,2.79-.85,1.47.32,2.89.97,4.06,1.92.87.71,2.5,2.16,2.27,3.39-.18.94-1.23,1.49-2.05,1.77-1.64.54-2.81-.27-4.16-1.16-1.37-.9-2.61-1.96-3.76-3.13-.54-.55-.05-1.28.73-1.81Z"/>
                <path class="cls-4" d="m258.54,406.3c-.78-.29-.23-1.22.2-1.62.69-.64,1.85-1.08,2.79-.85,2.12.52,4.16,1.25,6.11,2.22.72.36,1.63.69,1.8,1.57.15.76-.33,1.44-.87,1.93-3.21,2.95-7.82.21-10.01-2.6-.15-.2-.14-.43-.03-.66Z"/>
                <path class="cls-1" d="m254.64,388.21c-.24-.4.19-1.07.52-1.38.7-.65,1.84-1.06,2.79-.85,3.02.67,5.54,2.36,7.39,4.82.75.99-1.94,2.11-2.51,2.17-3.34.34-6.53-.95-8.32-3.86-.17-.28-.1-.59.12-.9Z"/>
                <path class="cls-1" d="m247.18,362.67c.12-.24.29-.46.44-.59.71-.66,1.83-1.04,2.79-.85,2.05.4,9.31,3.52,6.22,6.37-3.2,2.96-8.19-.87-10.13-3.52-.31-.42.06-.97.68-1.41Z"/>
                <path class="cls-4" d="m192.78,408c.12-.24.29-.46.44-.59.71-.66,1.83-1.04,2.79-.85,2.05.4,9.31,3.52,6.22,6.37-3.2,2.96-8.19-.87-10.13-3.52-.31-.42.06-.97.68-1.41Z"/>
                <path class="cls-1" d="m246.49,376.88c.62-.58,1.65-1.04,2.44-.94,2.36.3,4.39,1.5,5.53,3.64.28.53-.43,1.18-.77,1.44-.63.47-1.41.76-2.19.76-2.46-.02-4.68-1.18-6.04-3.23-.35-.52.23-1.2,1.04-1.66Z"/>
                <path class="cls-1" d="m271.5,379.5c.67-.63,1.87-1.1,2.79-.85,1.61.43,3.15,1.02,4.64,1.76,1.4.7,2.58,1.42,2.86,3.04.2,1.18-2.23,1.92-3.02,1.9-2.8-.08-5.29-1.4-6.83-3.75-.07-.1-.1-.21-.1-.32-.14-.04-.28-.08-.41-.12-.95-.26-.38-1.23.08-1.66Z"/>
                <path class="cls-1" d="m268.28,339.15c.6-.27,1.28-.4,1.86-.25,2.14.56,9.6,3.14,5.42,6.16-3.55,2.56-7.99-.69-9.97-3.72-.56-.85,1.31-2.11,2.69-2.2Z"/>
                <path class="cls-1" d="m270.28,359.91c-.94-.22-.34-1.25.09-1.65.7-.65,1.84-1.06,2.79-.85,2.1.46,4.11,1.42,5.72,2.87,1.16,1.04,2.89,2.61,1.52,4.1-3.23,3.52-8.71-.21-10.3-3.53-.15-.31-.06-.64.18-.95Z"/>
                <path class="cls-4" d="m216.87,422.78c-.94-.22-.34-1.25.09-1.65.7-.65,1.84-1.06,2.79-.85,2.1.46,4.11,1.42,5.72,2.87,1.16,1.04,2.89,2.61,1.52,4.1-3.23,3.52-8.71-.21-10.3-3.53-.15-.31-.06-.64.18-.95Z"/>
                <path class="cls-4" d="m129.3,376.39c-.24-.4.19-1.07.52-1.38.7-.65,1.84-1.06,2.79-.85,3.02.67,5.54,2.36,7.39,4.82.75.99-1.94,2.11-2.51,2.17-3.34.34-6.53-.94-8.32-3.86-.17-.28-.1-.59.12-.9Z"/>
                <path class="cls-1" d="m124.98,354.39c.12-.24.29-.46.44-.59.72-.66,1.83-1.04,2.79-.85,2.05.4,9.31,3.52,6.22,6.37-3.2,2.96-8.19-.87-10.13-3.52-.31-.42.06-.97.68-1.41Z"/>
                <path class="cls-4" d="m147.16,365.05c.62-.58,1.65-1.04,2.44-.94,2.36.3,4.39,1.5,5.53,3.64.28.53-.43,1.18-.77,1.44-.63.47-1.41.76-2.19.76-2.46-.02-4.68-1.18-6.04-3.23-.35-.52.23-1.2,1.04-1.66Z"/>
                <path class="cls-1" d="m139.06,329.04c.67-.63,1.87-1.1,2.79-.85,1.61.43,3.15,1.02,4.64,1.76,1.4.7,2.58,1.42,2.86,3.04.2,1.18-2.23,1.92-3.02,1.9-2.8-.08-5.29-1.4-6.83-3.75-.07-.1-.1-.21-.1-.32-.14-.04-.28-.08-.41-.12-.95-.26-.38-1.23.08-1.66Z"/>
                <path class="cls-1" d="m140.21,350.45c-.94-.22-.34-1.25.09-1.65.7-.65,1.84-1.06,2.79-.85,2.1.46,4.11,1.42,5.72,2.87,1.16,1.04,2.89,2.61,1.52,4.1-3.23,3.52-8.71-.21-10.3-3.53-.15-.31-.06-.64.18-.95Z"/>
                <path class="cls-1" d="m289.84,333.43c.11-.26.3-.5.49-.68.65-.6,1.89-1.13,2.79-.85,2.2.69,9.49,3.6,5.42,6.49-3.25,2.31-7.51-.88-9.48-3.48-.33-.43.1-1.02.78-1.47Z"/>
                <path class="cls-1" d="m311.72,334.57c-.1-.03-.21-.06-.31-.09-.95-.25-.38-1.24.08-1.66.68-.63,1.86-1.09,2.79-.85,2.32.6,4.67,1.8,6.27,3.62,1.92,2.2-1.4,4.08-3.44,4.04-1.76-.04-5.15-1.37-5.86-3.13-.28-.68-.03-1.37.47-1.93Z"/>
                <path class="cls-1" d="m291.15,354.07c-.34-.25-.38-.68-.03-1.18.52-.73,1.81-1.34,2.72-1.24,1.83.19,3.59.81,4.99,2.04,1.11.97,2.81,2.8,1.67,4.28-2.87,3.71-7.76-.22-9.74-2.73-.26-.34-.05-.77.39-1.17Z"/>
                <path class="cls-4" d="m150.53,383.69c.02-.17.1-.36.24-.56.53-.75,1.79-1.31,2.71-1.24,2.06.16,4.04.75,5.76,1.92,1.64,1.1,2.37,2.93.54,4.33-2.92,2.24-8.76.52-10.22-2.82-.25-.56.26-1.19.98-1.64Z"/>
                <path class="cls-4" d="m172.1,375.42c.6-.27,1.28-.4,1.86-.25,2.14.56,9.6,3.14,5.42,6.16-3.56,2.56-7.99-.69-9.97-3.72-.56-.85,1.31-2.11,2.69-2.2Z"/>
                <path class="cls-4" d="m174.1,391.83c-.94-.22-.34-1.25.09-1.65.7-.65,1.84-1.06,2.79-.85,2.1.46,4.11,1.42,5.72,2.87,1.16,1.04,2.89,2.61,1.52,4.1-3.23,3.52-8.71-.21-10.3-3.53-.15-.31-.06-.64.18-.95Z"/>
                <path class="cls-4" d="m194.97,390.33c-.34-.25-.38-.68-.03-1.18.52-.74,1.81-1.34,2.72-1.24,1.83.19,3.59.81,4.99,2.04,1.11.97,2.81,2.8,1.67,4.28-2.87,3.71-7.76-.22-9.74-2.73-.26-.34-.05-.77.39-1.17Z"/>
                <path class="cls-1" d="m312.39,352.55c.02-.21.12-.43.29-.63-.48-.37,0-1.14.39-1.51.67-.63,1.87-1.1,2.79-.85,2.37.64,11.63,4.61,7.29,7.68-2,1.42-4.43.77-6.5-.12-1.92-.83-4.46-2.14-4.26-4.58Z"/>
                <path class="cls-1" d="m288.34,375.44c.15-.29.33-.53.52-.74-.24-.09-.42-.16-.51-.19-1.81-.62,1.57-2.95,2.87-2.51,1.88.65,3.69,1.47,5.4,2.48,1.17.69,2.58,1.82,1.43,3.23-2.69,3.3-7.14.59-9.56-1.43-.25-.21-.3-.56-.15-.84Z"/>
                <path class="cls-1" d="m309.19,370.69c-.42-.36.09-1.18.43-1.5.72-.67,1.82-1.03,2.79-.85,1.69.31,3.31,1.07,4.58,2.24,1.03.95,2.6,2.55,1.44,3.93-2.71,3.21-7.61.16-9.67-2.23-.43-.5-.14-1.1.42-1.59Z"/>
                <path class="cls-1" d="m281.01,398.88c-.42-.36.08-1.18.43-1.5.72-.67,1.82-1.03,2.79-.85,1.69.31,3.31,1.07,4.58,2.24,1.03.95,2.6,2.55,1.44,3.93-2.71,3.22-7.61.16-9.67-2.23-.43-.5-.14-1.1.42-1.59Z"/>
                <path class="cls-1" d="m335.63,353.9c.11-.23.26-.43.43-.62-.18-.4.18-.97.54-1.3.64-.59,1.9-1.14,2.79-.85,2.04.67,3.79,1.86,5.08,3.58.47.63,1.06,1.36.77,2.19-.38,1.1-1.87,1.76-2.93,1.9-1.93.26-4.15-1.33-5.54-2.53-.69-.59-1.59-1.36-1.14-2.36Z"/>
                <path class="cls-1" d="m332.14,369.23c-1.72-.64,1.62-2.93,2.91-2.49,2.16.74,9.02,3.5,5.99,6.65-3.06,3.18-7.58.03-9.3-2.95-.22-.38-.01-.82.4-1.21Z"/>
                <path class="cls-1" d="m325.07,383.27c-.87-.3-.36-1.2.11-1.64.65-.61,1.89-1.13,2.79-.85,1.98.61,9.95,4.41,6.09,6.94-3.22,2.11-7.67-.47-9.14-3.54-.14-.29-.07-.61.14-.91Z"/>
                <path class="cls-1" d="m303.39,387.14c.63-.1,1.4.1,1.36.74.3-.04.6-.04.87.05,1.26.39,3.31,1.14,3.97,2.39,1.04,1.97-2.51,3.32-3.95,2.92-.86-.24-1.68-.79-2.47-1.21-.76-.39-1.71-.73-2.34-1.31-1.79-1.64,1.14-3.37,2.55-3.59Z"/>
                <path class="cls-1" d="m348.81,382.96c-.06-.13-.11-.27-.15-.4-.49-1.47,3.4-3.11,3.85-1.76.05.15.11.28.17.42,1.63.41,3.01,1.41,3.7,3.04.27.63-.53,1.3-.98,1.59-.69.44-1.56.71-2.38.54-1.7-.36-3.17-1.45-3.97-2.96-.15-.12-.22-.29-.23-.47Z"/>
              </g>
            </g>
          </g>
          <path class="cls-3" d="m.43,236.95c-.16.45-.22.94-.26,1.41-.96,10.08,2.28,17.86,6.64,26.62.34.68.68,1.36,1.01,2.05,1.33,2.72,2.59,5.47,3.79,8.25.34.76.67,1.53.99,2.3.59,1.4,1.17,2.81,1.73,4.22.45,1.13.89,2.25,1.32,3.39.3.8.61,1.59.93,2.39.28.69.55,1.37.84,2.05,1.69,4.14,3.47,8.28,4.9,12.51.26.77.5,1.55.74,2.33,1.14,3.8,1.93,7.7,2.04,11.75.05,1.73-.02,3.47-.15,5.2-.05.73-.12,1.45-.2,2.18-1.19,11.52-.48,22.62-.44,34.25-.72.82-2.1.73-2.98.08s-1.36-1.69-1.77-2.71c-5.28-13.23-2.7-28.11-3.69-42.32-.27-3.92-.89-7.99-3.11-11.23-.53-.78-1.2-1.53-2.09-1.84-1.33-.46-2.84.21-3.75,1.27-.91,1.07-1.34,2.46-1.67,3.82-2.31,9.39-1.3,19.28.52,28.78s4.45,18.86,5.38,28.49c.65,6.69.47,13.46,1.64,20.08.63,3.61,1.7,7.23,3.88,10.18,2.81,3.81,6.07,4.56,10.43,5,4.79.49,9.13,1.63,14.05.9,3.14-.46,6.07-1.87,9.21-1.96,3.57-.11,6.3,1.58,9.57-1,1.98-1.57,3.03-4.06,3.5-6.54,1.47-7.8-1.98-15.35-1.33-23.09.57-6.79,3.83-13.38,9.09-17.75,4.37-3.63,9.8-5.69,14.68-8.59,9.27-5.51,13.48-14.66,21.39-21.22.16-.13.31-.26.47-.4.92-.8,1.77-1.72,2.35-2.76.28-.49.49-1.01.62-1.56,1.14-4.82-2.7-5.08-5.85-3.75-.93.39-1.8.92-2.46,1.51-.16.15-.32.3-.48.45-1.84,1.77-3.62,4.08-6.08,3.73-2.57-.38-3.69-3.53-3.57-6.13.03-.69.11-1.36.23-2.03.13-.78.33-1.55.56-2.31.92-3.03,2.5-5.9,3.99-8.73.14-.26.27-.52.41-.78.23-.45.46-.9.68-1.36,1.21-2.51,2.25-5.18,2.59-7.87.13-.95.17-1.9.09-2.85-.05-.73-.17-1.46-.36-2.19-.64-2.45-2.98-4.98-5.34-4.08-.9.34-1.57,1.11-2.16,1.87l-.02.03c-.68.86-1.33,1.74-1.94,2.65-1.19,1.76-2.23,3.62-3.01,5.58-.24.6-.46,1.2-.64,1.81-.59,1.95-.9,3.94-1.04,5.96-.2,2.79-.09,5.63,0,8.47.02.87.05,1.73.07,2.6.07,3.85-.08,7.67-1.26,11.31-.51,1.58-1.17,2.89-1.95,4.04-.52.78-1.1,1.49-1.72,2.17-5.57,6.09-10.31,11.81-17.01,16.52-5.43,3.81-9.61,9.37-11.77,15.64-.49,1.43-1.21,3.18-2.72,3.3-1.75.15-2.71-2.04-2.7-3.79.03-2.97,1.28-5.77,2.59-8.43,5.86-11.94,12.5-22.51,13.59-36.12.32-4.04.36-8.11.28-12.16-.06-3.14-.92-5.69.46-8.64,1.29-2.75,3.41-5.1,5.84-7.02.92-.73,1.88-1.4,2.87-2.01.2-.12.41-.24.61-.37,2.3-1.35,4.47-2.94,6.45-4.72.33-.3.65-.6.97-.91.52-.5,1.02-1.04,1.49-1.61,1.01-1.24,1.87-2.64,2.32-4.08.46-1.47.48-2.98-.19-4.4-1.25-2.64-4.51-3.61-7.43-3.03-.79.15-1.56.42-2.25.8-1.57.86-2.85,2.09-3.93,3.52-.58.77-1.11,1.59-1.6,2.44-.48.84-.92,1.7-1.34,2.56-1.04,2.15-2.05,4.38-3.37,6.35-.51.77-1.08,1.5-1.71,2.17-.26.28-.54.56-.84.82-1.23,1.1-3.44,1.79-4.3.39-.3-.49-.32-1.09-.33-1.66,0-.11,0-.22,0-.34-.02-.76-.08-1.5-.15-2.24-.21-2.34-.49-4.59,0-7,.31-1.47.75-2.89,1.27-4.3.28-.77.59-1.54.91-2.3.47-1.15.97-2.29,1.46-3.42.82-1.87,1.6-3.83,2.2-5.82.29-.96.54-1.93.71-2.9.08-.43.15-.87.2-1.3.3-2.37.18-4.73-.65-6.99-.61-1.66-1.68-3.28-3.33-3.94-2.02-.8-4.41.08-5.9,1.66-.4.42-.75.88-1.05,1.37-.44.72-.8,1.5-1.09,2.31-.25.69-.45,1.41-.63,2.12-1.25,5.02-1.44,10.14-1.44,15.27v.59c0,.77,0,1.53.01,2.3.07,6.92.11,13.87.88,20.76.61,5.51,2.94,10.8,3.13,16.24.44,12.84-3.53,25.99-10.67,36.63-.91,1.35-2.04,2.78-3.65,3.03-1.98.31-3.82-1.42-4.36-3.35-.61-2.18-.22-4.86-.48-7.12-.38-3.33-.45-6.64-.32-9.99.21-5.16,2.09-10.35,1.83-15.56-.04-.73-.11-1.46-.25-2.22-.04-.19-.08-.38-.12-.57-.92-4.21-3.3-7.58-4.79-11.58-.34-.92-.6-1.86-.78-2.82-.14-.71-.23-1.42-.29-2.14-.28-3.39.25-6.87,1.17-10.25.21-.78.45-1.55.69-2.31.16-.5.33-.99.5-1.49.3-.85.61-1.7.94-2.55.58-1.54,1.19-3.08,1.77-4.62.28-.73.55-1.45.81-2.17,1.07-2.98,1.97-6,2.38-9.13.09-.71.16-1.42.2-2.14.05-.75.06-1.51.04-2.27-.05-2.8-.5-5.59-1.34-8.27-.15-.49-.37-1.1-.64-1.76-.26-.63-.58-1.32-.94-1.99-1.19-2.23-2.9-4.36-4.95-4.26-3.24.15-4.47,4.47-4.67,7.19-.02.16-.02.32-.03.46-.02.56-.02,1.12,0,1.68.09,3.23.74,6.42,1.38,9.62.14.71.28,1.42.42,2.12.44,2.33.81,4.67.9,7.04.02.56.03,1.12.02,1.67-.01.72-.06,1.45-.12,2.17-.21,2.22-.67,4.43-1.38,6.56-.47,1.42-1.27,2.98-2.72,3.29-1.73.38-3.22-1.22-4.24-2.68-1.58-2.26-3.03-4.6-4.36-7.01-.38-.69-.75-1.38-1.1-2.08-1.18-2.29-2.25-4.63-3.2-7.02-.29-.73-.58-1.47-.84-2.2-.94-2.58-1.75-5.22-2.42-7.89-.12-.48-.27-1.06-.45-1.7-.21-.74-.47-1.56-.77-2.38-.67-1.81-1.13-4.53-3.01-5.49-1.1-.56-2.62-.35-3.34.66-.14.19-.24.41-.32.63Z"/>
          <g>
            <path class="cls-3" d="m585.68,312.49c2.88,0,5.83.14,8.52,1.18,3.45,1.34,4.76,4.51,2.92,7.81-1.08,1.94-2.6,3.98-2.05,6.13.88,3.38,6.19,4.07,6.95,7.48.6,2.71-2.09,4.92-4.49,6.31-8.47,4.89-17.57,8.72-26.99,11.36-2.84.8-5.74,1.49-8.69,1.59-1.59.05-3.25-.08-4.65-.83-2.95-1.57-3.96-5.23-4.68-8.5-.98-4.46-1.42-9.68-3.07-13.93-1.05-2.7-3.98-5.41-1.04-8.1,5.89-5.41,15.33-8.03,23-9.35,4.71-.81,9.5-1.16,14.28-1.15Z"/>
            <path class="cls-1" d="m543.02,352.8c3.69,1.21,7.47,2.2,11.35,2.48,5.25.37,10.42-1.32,15.38-2.94,9.51-3.11,18.32-8.38,25.48-15.37,2.59-2.53,5.21-5.4,8.76-6.1,3.37-.66,6.75.83,10.16,1.12.07,0,.13.01.2.01,1.43.09,3-.13,3.89-1.23.78-.96.82-2.32.81-3.56l-.05-12.48c0-.62,0-1.26-.25-1.84-.69-1.66-2.07-1.62-3.47-1.05-1.3.53-2.62,1.52-3.41,2.03-3.54,2.33-7.22,4.43-11.01,6.3-1.4.69-2.87,1.36-4.43,1.49-3.06.24-5.82-1.61-8.6-2.88-6.52-2.97-14-2.91-21.11-2.09-5.45.62-10.94,1.69-15.76,4.31-4.82,2.62-8.9,7-10.08,12.35-.59,2.66-.42,5.39-1.3,7.99-.43,1.28-1.04,2.52-1.57,3.78-.51,1.24-.94,2.5-1.02,3.86-.21,3.44,3.5,3,6.01,3.82Z"/>
            <path class="cls-3" d="m614.36,332c1.43.09,3-.13,3.89-1.23.78-.96.82-2.32.81-3.56l-.05-12.48c0-.62,0-1.26-.25-1.84-.69-1.66-2.07-1.62-3.47-1.05-.27,1.1-.17,2.29-.02,3.43.11.81.23,1.7-.21,2.39-.29.45-.79.74-1.08,1.2-.83,1.37.69,2.97.86,4.56.12,1.16-.49,2.25-.71,3.4-.19.97-.1,1.96,0,2.94.07.75.14,1.49.21,2.24Z"/>
            <path class="cls-5" d="m554.8,351.33c1.55-3.05,1.4-6.58.58-9.81-.97-3.82-2.91-7.26-4.48-10.84-.98-2.23-1.81-4.53-2.18-6.95-.09-.56,1.37-.97,1.45-.48,1.21,7.91,7.31,14.34,7.29,22.55,0,1.91-.41,3.79-1.28,5.5-.22.44-1.69.66-1.38.04Z"/>
            <path class="cls-5" d="m568.37,346.26c.27-7.37-2.38-14.43-5.48-20.99-.9-1.9-1.84-3.78-2.79-5.65-.23-.45,1.19-.98,1.45-.48,3.34,6.59,6.75,13.37,7.91,20.75.32,2.02.45,4.07.38,6.11-.02.5-1.49.87-1.46.26Z"/>
            <path class="cls-5" d="m576.25,343.43c-.59-7.64-2.63-15.13-6-22.01-.22-.45,1.2-.99,1.45-.48,3.37,6.88,5.42,14.37,6,22.01.04.57-1.41.95-1.45.48Z"/>
            <path class="cls-5" d="m588.67,338.73c-.53-6.6-2.51-13.04-5.78-18.81-.24-.42,1.17-.98,1.45-.48,3.27,5.76,5.25,12.2,5.78,18.81.05.57-1.41.95-1.45.48Z"/>
            <path class="cls-5" d="m595.07,323.19c1.59,2.4,2.74,5.04,3.37,7.85.12.54-1.34.98-1.45.48-.61-2.73-1.71-5.34-3.25-7.67-.34-.52,1.06-1.07,1.33-.66Z"/>
            <path class="cls-5" d="m543.14,339.14c.01-.1.04-.19.07-.29.06-.52.27-1.01.68-1.39.57-.52,1.42-.85,2.2-.7.64.12,1.07.58,1.34,1.15.26.55.39,1.22.31,1.83-.04.29-.14.56-.28.8-.05.1-.1.19-.17.28-.5.66-1.34,1.05-2.18.98-.62-.06-1.1-.45-1.42-.96-.13-.2-.23-.43-.32-.66-.19-.31-.27-.68-.23-1.04Z"/>
          </g>
          <g>
            <path class="cls-3" d="m370.31,386.34c3.6-.36,7.27.06,10.68,1.27,2.84,1.02,5.57,2.58,8.58,2.76,3.66.22,7.09-1.62,10.58-2.74,7.53-2.41,16.09-1.35,22.8,2.82,4.08,2.53,7.45,6.2,9.72,10.43,1.8,3.38,1.65,9.21,5.87,10.23,5.14,1.24,9.68-4.17,10.51-9.39.86-5.46.37-12.83,5.63-14.53,3.48-1.13,7.06,1.42,10.72,1.6,5.12.26,9.39-4.24,11.1-9.08.89-2.52,1.3-5.19,2.28-7.67,3.49-8.79,14.9-13.41,23.52-9.53,4.61,2.07,9.27,6.24,13.98,4.41,3.4-1.32,5-5.28,8.06-7.27,2.88-1.87,6.58-1.73,10.01-1.51,5.22.32,10.93.86,14.62,4.56,3.81,3.82,6.01,11.01,11.36,10.39,3.26-.38,5.18-3.69,7.57-5.95,5.24-4.95,18.38-5.36,24.59-1.77,7.11,4.12,9.65,13.24,16.97,17.21,8.24,4.46,20.01.75,26.62,7.4,4.38,4.41,4.35,11.38,4.59,17.59.18,4.88,1.2,9.14,3.82,13.26,2.28,3.58,4.81,4.12,5.35,9.08.86,7.93-4.9,9.6-8.01,15.23-3.49,6.32-1.76,14.3-2.94,20.88H253.64c1.11-11.89,5.65-23.23,10.13-34.34,2.89-7.17,6.86-15.29,14.41-16.94,5.57-1.22,11.92,1.52,16.83-1.38,4.77-2.82,5.75-9.52,10.67-11.87,9.02-4.31,18.6,10.97,26.11-.68,1.86-2.88,2.96-6.45,5.78-8.4,5.03-3.47,11.98.21,17.96-1.02,2.69-.55,5.06-2.09,7.58-3.18,2.28-.99,4.72-1.61,7.2-1.87Z"/>
            <path class="cls-1" d="m624.07,441.64c-3.65,4.27-2.91,10.6-2.47,16.2.21,2.67.28,5.41.15,8.16h-357.28c3.19-6.63,9.17-11.88,16.17-14.14,1.23-.4,2.52-.73,3.51-1.55,3.24-2.72.91-8.08,2.15-12.13,1.62-5.32,8.55-6.58,14.09-6.21,5.55.37,11.95,1.12,15.86-2.83,3.55-3.58,3.57-9.86,7.6-12.89,5.21-3.93,12.6.31,19.09-.39,5.11-.56,9.41-4.29,12.15-8.64,1.37-2.19,2.46-4.58,4.22-6.47,3.92-4.2,11.05-4.87,15.68-1.47,3.87,2.84,5.99,7.98,10.48,9.69,6.25,2.37,12.34-3.18,18.74-5.32.28-.09.56-.18.85-.26,7.34-2.08,15.89,1.74,19.24,8.59,1.44,2.94,2.79,6.92,6.06,7.01,1.13.03,2.2-.48,3.31-.74,10.91-2.49,10.47,11.7,16.79,15.91,2.88,1.92,7.63,1.25,9.71-1.62,2.31-3.2-.05-8.11,2.96-11.05,2.56-2.5,6.99-.92,10.27-2.33,3.32-1.42,4.62-5.53,4.45-9.14-.17-3.6-1.39-7.11-1.43-10.72-.04-3.61,1.6-7.67,5.05-8.73,1.86-.57,3.86-.15,5.81-.15,8.15.04,14.49-6.87,22.11-9.76,10.37-3.94,23.28.77,28.68,10.45,1.55,2.78,2.81,6.15,5.77,7.32,5.11,2.03,10.22-4.18,15.68-3.59,3.65.39,6.19,3.62,8.96,6.03,6.02,5.24,9.5.73,15.02-2.08.36-.18.72-.36,1.09-.53,7.52-3.55,16.5-3.83,24.23-.76,3.33,1.32,6.73,3.66,7.36,7.18.53,2.96-1.03,6.05-.25,8.95.94,3.53,4.79,5.26,7.74,7.42,5.22,3.82,8.22,11.79,4.18,16.84-1.11,1.39-2.63,2.41-3.79,3.76Z"/>
            <path class="cls-5" d="m287.5,466c.1-.13.2-.26.31-.38,2.25-2.49,5.77-1.33,8.71-2.09,3.81-.98,5.58-2.96,7.7-5.95,1.98-2.78,2.4-3.58,5.75-4.82,5.3-1.97,4.21-2.26,4.95-7.64.4-2.91,3.63-4.69,6.56-4.71,2.94-.03,5.72,1.19,8.56,1.97,2.83.78,6.09,1.07,8.51-.59,3.57-2.45,3.66-7.84,6.64-10.98,3.41-3.58,9.29-3.01,13.93-1.3,3.38,1.25,7.28,2.92,10.36,1.05,1.11-.68,1.92-1.74,2.88-2.63,4-3.71,10.83-3.82,14.95-.24,2.09,1.81,3.58,4.45,6.15,5.46,3.04,1.19,6.06-.28,9.09-1.89,1.45-.77,2.9-1.58,4.35-2.14,5.38-2.08,11.96-.55,15.87,3.69,2.02,2.19,3.51,5.12,6.29,6.21,4.53,1.78,8.87-.89,13.06,2.61,2.98,2.49,4.95,6.27,7.88,8.87,3.25,2.89,8.52,2.88,12.07.38,3.56-2.49,5.36-7.06,5.04-11.39-.07-.97-.23-2.03.28-2.86.43-.71,1.25-1.09,2.04-1.38,4.42-1.61,9.54-1.79,13.18-4.77,3.22-2.63,4.55-6.85,6.25-10.64,1.7-3.79,4.44-7.72,8.55-8.33,4.2-.62,8.31,2.48,12.49,1.76,2.88-.5,5.15-2.71,7.86-3.83,5.75-2.39,12.23.44,17.7,3.41,5.47,2.96,11.57,6.23,17.59,4.66,2.37-.62,4.5-1.95,6.85-2.67,4.17-1.27,8.92-.4,12.37,2.27,3.85,2.98,6.44,8.16,11.25,8.93,2.83.46,5.61-.81,8.35-1.68,4.43-1.41,9.31-1.79,13.7-.25,4.25,1.49,7.39,4.87,9.32,8.85,1.95,4.01-.05,7.3,1.05,11.42.94,3.53,4.79,5.26,7.74,7.42,4.39,3.21,7.21,9.34,5.6,14.22h-341.77Z"/>
          </g>
          <g>
            <path class="cls-5" d="m0,387.71v78.29s322.03,0,322.03,0c-.63-2.79-2.27-5.36-4.62-7-1.52-1.07-3.29-1.76-4.73-2.94-1.44-1.17-2.55-3.07-2.01-4.85.35-1.15,1.3-2,2.1-2.9,4.41-4.89,5.05-13.56,1.82-19.21-4.14-7.23-8.91-3.65-14.66-.86-2.55,1.24-5.84,1.04-8.01-.78-2.17-1.82-2.89-5.29-1.34-7.67,1.36-2.07,4.04-3.04,5.21-5.23.63-1.17.73-2.56.62-3.88-.33-3.83-3.02-7.79-6.85-8.11-2.48-.2-4.86,1.12-7.35,1.1-.58,0-1.2-.09-1.65-.46-1.55-1.25.2-3.57,1.51-5.07,4.3-4.94,2.67-13.75-3.12-16.82-11.81-6.28-15.09,9-21.57,14.24-2.64,2.14-6.79,2.11-9.41-.05-3.74-3.07-3.58-9.02-1.5-13.4.68-1.44,1.54-2.81,1.96-4.35,2.5-9.16-13.74-17.3-20.24-11.06-1.96,1.88-3,4.52-4.74,6.6-1.75,2.08-4.85,3.56-7.14,2.1-.82-.52-1.39-1.34-2.03-2.07-4.99-5.62-15.34-4.88-19.47,1.41-2.43,3.69-3.18,8.99-7.21,10.82-2.9,1.31-6.29-.03-8.46-2.44-.69-.76-1.25-1.62-1.65-2.55-1.65-3.85-1.09-8.26-.32-12.38.6-3.2,1.3-6.61.05-9.62-2.08-5-8.4-5.04-12.93-5.62-5.64-.72-11.04.36-14.15,5.65-1.14,1.94-2.08,4.52-4.3,4.88-1.57.24-3.05-.81-4.63-.95-2.35-.21-4.4,1.61-5.74,3.54-1.35,1.94-2.37,4.19-4.23,5.64-.63.49-1.38.89-2.18.93-1.83.1-3.24-1.58-4.11-3.19-.87-1.62-1.67-3.47-3.33-4.25-1.33-.62-2.89-.37-4.3.05-.77.24-1.65.52-2.36.11-1-.58-.86-2.04-.67-3.18.33-1.92.45-3.86.36-5.79-.08-1.57-.3-3.18-1.08-4.53-2.15-3.74-6.98-2.94-10.63-2.23-4.66.9-9.04,3.31-12.2,6.85-1.18,1.32-2.21,2.81-2.71,4.5-2.05,7.01,4.64,12.51,4.43,19.35-.08,2.4-1.08,4.9-3.12,6.15-2.05,1.26-5.17.77-6.26-1.36-.55-1.08-.54-2.33-.6-3.54-.08-1.74-.37-3.54-1.38-4.95-1.02-1.41-2.92-2.31-4.55-1.68-2.76,1.07-2.87,5.37-5.5,6.74-2.32,1.21-5.23-.75-6.15-3.2s-.5-5.16-.42-7.77c.13-3.72-.88-8.08-4.28-9.57-3.1-1.36-6.88.5-8.7,3.36-1.81,2.85-2.09,6.41-2.05,9.8.03,2.14.16,4.33-.46,6.38s-2.17,3.98-4.29,4.34c-2.7.45-5.21-1.87-6.1-4.47-.89-2.59-.62-5.42-.64-8.16-.02-2.74-.45-5.7-2.36-7.67-2.29-2.35-3.91-.8-6.32-.71-3,.11-3.87-.71-6.99-1.56-1.15-.32-2.4-.09-3.51.37-2.45,1.01-4.41,3.17-5.16,5.72-1.07,3.56.14,7.34.6,11.03.44,3.56.12,7.32-1.6,10.47-.54.98-1.24,1.91-2.21,2.46-1.31.73-2.94.67-4.34.13-1.39-.54-2.58-1.51-3.67-2.52-.83-.77-1.63-1.59-2.44-2.4Z"/>
            <g>
              <path class="cls-1" d="m148.05,350.89c-4.22.83-8.33,2.04-12.01,4.19-3.63,2.12-6.43,6.37-6.87,10.24-.35,3.04.6,6.12,2.6,8.42,1.34,1.54,3.19,2.71,4.41,4.32,1.43,1.9,2.31,4.41,2.89,6.67.19.75.35,1.55.08,2.31-.16.46-.47.87-.74,1.29-1.48,2.33-1.76,5.19-.97,7.67.83,2.6,2.21,4.2,4.87,5.16,2.52.91,5.35.9,8.08.73,4.91-.31,9.82-1.13,14.6-2.43.83-.23,1.68-.48,2.39-.96,1.83-1.25,2.14-4.01,2.76-5.83.83-2.46,1.54-4.71,1.55-7.3.03-9.16-6.54-17.14-6.49-26.3.02-2.53.84-5.36-.17-7.76-1.37-3.27-6.16-2.08-9.22-1.66-2.58.35-5.2.72-7.78,1.23Z"/>
              <path class="cls-3" d="m126.06,398.99c.46.83,1.02,1.71,1.98,1.98.54.15,1.13.08,1.67-.13.38-.15.73-.37,1.04-.62.04-.03.07-.06.1-.09,2.77-2.45,2.3-7.18,4.28-10.19.64-.98,1.59-1.89,2.78-2.1,1.88-.34,1.92,1.02,2.63,2,.97,1.35,2.74,2.61,4.06,3.68,4.71,3.82,10.94,6.01,17.38,6.12,1.72.03,3.38-.13,5.01-.39,5.99-.37,12.34-2.02,17.61-4.49,5.94-2.78,11.3-7.54,13.27-13.52.64-1.94,1.36-3.2,2.75-4.79.76-.88,2.76-2.75,1.61-3.86-.98-.96-3.08-1-4.29-1.67-1.24-.69-2.34-1.59-3.31-2.58-4-4.11-5.85-9.44-9.26-13.92-2.76-3.63-7.36-5.4-12.18-5.77-4.28-.33-8.64.38-12.89,1.36-3.06.71-6.14,1.58-8.91,3.07-3.55,1.92-6.42,4.78-9.22,7.59-2.45,2.45-3.91,4.76-5.34,7.75-1,2.1-1.16,4.34-1.18,6.55,0,1.6.04,3.46-2.07,4.12-.89.28-1.83.17-2.72-.02-1.51-.32-2.95-.85-4.27-1.58-2.24-1.23-4.05-3-6.07-4.52,0,0-.02-.02-.03-.03-.04-.03-.07-.05-.11-.08-.48-.35-1.09-.65-1.66-.41-.7.3-.8,1.16-.76,1.85.48,8.48,4.02,17.38,8.08,24.72Z"/>
              <path class="cls-1" d="m177.91,368.72c1.07-1.8,2.52-3.42,4.62-4.12,2.64-.89,6.14.57,7.39,2.68.52.88.76,1.88.95,2.88.64,3.42.76,6.95.36,10.47-.23,1.98-.66,4.04-1.91,5.72-.77,1.03-3.55,1.36-4.63.84-.69-.34-1.18-.92-1.66-1.48-1.61-1.9-3.27-3.97-5.11-5.69-.79-.74-1.68-1.44-2.14-2.4-.86-1.76-.1-3.89.66-5.78.4-1.01.88-2.09,1.49-3.1Z"/>
              <path class="cls-1" d="m126.06,398.99c.46.83,1.02,1.71,1.98,1.98.54.15,1.13.08,1.67-.13.38-.15.73-.37,1.04-.62.04-.03.07-.06.1-.09-.31-1.47-1.22-3.01-1.77-3.88-.58-.92-1.31-1.74-1.85-2.69-.52-.92-.85-1.93-1.17-2.93-1.69-5.29-3.98-10.67-5.05-16.1-.09-.45-.3-1.08-.62-1.68-.48-.35-1.09-.65-1.66-.41-.7.3-.8,1.16-.76,1.85.48,8.48,4.02,17.38,8.08,24.72Z"/>
              <path class="cls-5" d="m155.32,388.54c-.46-1.48-.66-3.01-.4-4.58.09-.57.25-1.15.24-1.72-.01-1.89-1.64-3.32-2.37-5.05-.75-1.77-.54-3.81-1.14-5.63-.3-.91-.8-1.76-.97-2.71-.13-.74-.06-1.51.01-2.28.12-1.23.24-2.46.36-3.69.16-1.63.33-3.3,1.07-4.83-.07,2.52-.11,4.93.43,7.38.52,2.38,1.25,4.76,2.05,7.05,1.37,4.65,1.73,9.49,2.51,14.27.44,2.69,1.05,5.36,2.09,7.88.08.2-.51.4-.63.22-1.24-1.92-2.56-4.05-3.26-6.32Z"/>
              <path class="cls-5" d="m145.48,381.67s-.02-.07-.04-.11c-.33-.97-.82-1.89-.96-2.9-.08-.58-.04-1.17-.07-1.75-.12-2.42-1.47-4.48-1.81-6.87-.26-1.86-.14-3.77.7-5.57,0-.02,0-.04,0-.05.04-.48.55-.12.62,0,.14.23.11,1.18.17,1.52.23,1.44.38,2.68,1.05,4.01.67,1.34,1.5,2.63,1.81,4.1.34,1.59.04,3.29.33,4.89.28,1.54,1.09,2.94,1.37,4.48.39,2.18-.3,4.53.38,6.64.19.59.49,1.22.22,1.82-.18-.12-.36-.26-.53-.4-1.38-1.17-1.98-2.94-2.3-4.69-.31-1.7-.4-3.46-.94-5.1Z"/>
              <path class="cls-5" d="m139.21,376.5c.14-.97.39-1.95.65-2.9.38,1.02.76,2.03,1.15,3.05.31.83.62,1.66.78,2.53.23,1.31.11,2.69.52,3.96.37,1.12.74,2.23,1.2,3.33.08.19-.48.38-.6.25-.91-1.03-1.68-2.16-2.12-3.43-.49-1.38-1.27-2.69-1.55-4.13-.17-.87-.15-1.76-.02-2.65Z"/>
              <path class="cls-5" d="m162.05,388.83c-.15-.77-.28-1.54-.37-2.32-.42-3.42-.26-6.92-1-10.29-.23-1.03-.53-2.04-.67-3.09-.12-.9-.11-1.83-.17-2.74-.2-2.68-1.07-5.23-1.98-7.74-.29-.8-.59-1.61-.67-2.47-.06-.64,0-1.28.07-1.93.15-1.51.3-3.04.83-4.5,1.36,3.17,1.52,6.54,1.94,9.93.17,1.4.36,2.79.65,4.16.28,1.34.69,2.65,1.13,3.95.86,2.58,1.76,5.13,1.89,7.89.16,3.18.52,6.3.73,9.47.14,2.13-.25,4.34.25,6.41.21.87.56,1.82.07,2.63-1.43-2.96-2.06-6.19-2.7-9.38Z"/>
              <path class="cls-5" d="m168.31,364.59c.06-1.28.2-2.55.34-3.75.1-.82.2-1.65.16-2.46-.08-1.47-.62-2.88-.54-4.36.07-1.4.73-2.79,1.79-3.84.45,1.29.02,2.74.2,4.1.1.75.38,1.45.57,2.18.32,1.26.34,2.59.08,3.9-.24,1.2.04,2.37.03,3.59-.01,1.54-.52,3.12-.23,4.64.27,1.44,1.07,2.92.45,4.43-.06.15-.47.37-.6.21-2.02-2.36-2.38-5.52-2.24-8.63Z"/>
              <path class="cls-5" d="m171.23,385.71c-.08-.36-.12-.73-.16-1.09-.15-1.37-.31-2.75-.45-4.12-.11-1.09-.22-2.21.14-3.29,1.97,2.12,2.24,5.19,3.28,7.85.56,1.44,1.37,2.77,1.88,4.23.57,1.63.67,3.37,1.11,5.02.05.2-.47.37-.6.25-.99-.87-1.86-1.97-2.42-3.13-.56-1.14-.83-2.35-1.58-3.43-.32-.46-.68-.9-.92-1.41-.13-.28-.22-.58-.28-.88Z"/>
              <path class="cls-5" d="m185.12,371.64c-.14-.94-.02-2.03.66-2.61,1.33-1.14,3.08.02,3.62,1.15.33.68.42,1.46.37,2.22-.03.43-.11.87-.38,1.23-.4.51-1.14.73-1.8.66-.96-.1-1.76-.74-2.15-1.54-.14-.3-.26-.68-.32-1.11Z"/>
              <path class="cls-3" d="m185.98,370.68c0-.09,0-.19.06-.28.09-.13.22-.23.38-.28.01,0,.02,0,.03-.01,0,0,0,0,.01,0,.09-.04.24-.09.35-.06.02,0,.03,0,.05,0,.22,0,.4.12.5.29.09.16.12.37.13.56.02.21,0,.41-.17.59-.2.21-.54.33-.82.27-.21-.05-.31-.26-.4-.43-.1-.19-.17-.41-.12-.63Z"/>
              <path class="cls-5" d="m196.56,373.39c.68.35,1.47.56,2.27.54.42-.01.75-.06,1.15-.16,0,0,.01,0,.02,0,0,0,.01,0,.02,0,.05-.01.09-.03.14-.05.1-.03.2-.07.3-.11.02,0,.04-.02.05-.02.05-.02.09-.04.13-.06.11-.05.22-.11.33-.17.2-.11.65-.24.84-.07.2.19-.16.42-.31.51-1.8,1.02-4.17,1.19-5.93.28-.52-.27.62-.86.98-.67Z"/>
              <path class="cls-5" d="m125.25,378.98c1.62.84,3.44,1.35,5.33,1.47.14,0,.16.11.07.2-.1.11-.3.16-.44.15-1.93-.13-3.8-.64-5.45-1.5-.26-.14.31-.43.49-.33Z"/>
              <path class="cls-5" d="m126.52,385.1c.01-.13.25-.21.35-.24,1.38-.38,2.75-.77,4.13-1.15.1-.03.29-.03.28.1-.01.13-.25.21-.35.24-1.38.38-2.75.77-4.13,1.15-.1.03-.29.03-.28-.1Z"/>
              <path class="cls-5" d="m127.59,388.1c1.72-.55,3.44-1.09,5.16-1.64.09-.03.32-.08.36.04.04.12-.17.23-.26.25-1.72.55-3.44,1.09-5.16,1.64-.09.03-.32.09-.36-.03-.04-.12.17-.23.26-.25Z"/>
              <path class="cls-5" d="m130.18,392.31c.6-1.3,1.59-2.44,2.82-3.29.11-.08.32-.15.45-.1.13.06.05.17-.04.24-1.17.8-2.07,1.89-2.64,3.11-.08.18-.71.31-.59.04Z"/>
            </g>
            <path class="cls-1" d="m275.62,459.28c.04.24.09.48.15.72.1.43.21.85.35,1.27.45,1.41,1.08,2.77,1.82,4.06.13.22.26.45.4.67h25.79c.02-.22.04-.45.05-.67.08-1.32.03-2.69-.06-4.06-.14-2.13-.35-4.23-.24-6.05h0c0-.17.02-.34.04-.5.27-2.68.8-5.36.58-8.05-.22-2.68-1.36-5.47-3.67-6.86-1.81-1.08-4.1-1.15-6.11-.53-1.73.54-3.37,1.64-4.15,3.28-.44.93-.58,1.96-.76,2.97-.31,1.76-.75,3.53-1.7,5.05-.95,1.51-2.47,2.75-4.23,2.99-.28.04-.58.05-.87.05-1.95-.02-4-.8-5.66.17-1.77,1.03-2.05,3.48-1.7,5.5Zm-258.52-9c.22,3.41-1.15,6.95-3.91,8.92-1.28.91-2.78,1.47-4.3,1.84-.39.1-.8.19-1.21.22-.25.02-.5.03-.75,0-.12,0-.23-.03-.35-.05-1.27-.28-2.19-1.35-3.02-2.35-1.12-1.35-2.31-2.71-3.56-3.98v11.12s261.27,0,261.27,0c.18-.22.36-.44.53-.67.94-1.24,1.76-2.59,2.42-4.06,1.21-2.68,1.92-5.75,1.99-9.28,0-.08,0-.16,0-.24.02-1.28.03-2.54.16-3.72.19-1.77.61-3.38,1.64-4.66,1.59-1.97,3.69-3.54,5.91-5.18,1.58-1.18,3.22-2.4,4.68-3.79.93-.89,1.87-1.88,2.5-3.17,1.05-2.16.94-4.55.68-6.6-.28-2.29-.83-5.22-2.59-7.6-.91-1.24-2.09-2.19-3.37-2.78-1.51-.7-3.17-.9-4.7-.5-2.25.59-3.8,2.24-5.16,3.7-.32.35-.64.69-.97,1.02-1.21,1.21-3.03,2.21-4.15,1.53-.57-.35-.99-1.15-1.45-2l-.15-.28c-.98-1.84-2.05-3.29-3.24-4.38-.81-.75-1.67-1.33-2.59-1.75-2.84-1.29-6.92-.85-8.84,2.1-1.29,1.99-1.35,4.58-.19,7.91.69,1.97,1.57,3.86,2.42,5.69,1.02,2.2,2,4.28,2.66,6.49,2.07,6.87-1.35,13.42-5.8,16.32-4.28,2.8-15.18,2.14-14.78-4.98.07-1.27.55-2.48.86-3.72,1.42-5.7-.84-11.63-3.4-16.91-.32-.66-.64-1.32-.94-1.99-.52-1.19-.95-2.4-1.08-3.68-.01-.08-.02-.15-.02-.23-.27-3.55,1.88-6.85,4.42-9.35,2.03-1.99,4.37-3.69,6.38-5.69.5-.5.99-1.02,1.44-1.56.62-.76,1.18-1.58,1.66-2.46,1.76-3.19,2.42-6.98,1.29-10.41-.04-.13-.09-.25-.13-.37-1.26-3.39-3.88-5.27-6.9-5.9-2.91-.6-6.18-.02-8.96,1.53-5.59,3.11-6.76,7.86-7.9,12.46-.04.14-.07.28-.1.41-.39,1.55-.79,3.13-1.38,4.65l-.38.97v.03c-2.5,6.4-5.07,13.03-7.18,19.87-.8,2.61-1.71,5.57-3.57,7.59-2.3,2.49-5.18.39-6.41-2.16-2.09-4.32-.71-9.45.84-14,.59-1.73,1.21-3.46,1.84-5.18.47-1.29.96-2.57,1.46-3.85,1.5-3.85,3.11-7.65,4.82-11.41.93-2.05,1.92-4.15,2.04-6.4.12-2.25-.85-4.72-2.89-5.68-.87-.41-1.87-.51-2.83-.42-1.79.16-3.38.93-4.75,2.06-1.37,1.14-2.52,2.63-3.41,4.25-.41.74-.76,1.5-1.06,2.26-1.28,3.26-3.33,20.33-9.48,16.87-1.29-.73-2.16-2-3.21-3.04-1.66-1.66-3.86-2.76-6.18-3.11-2.91-.44-6.16.46-7.88,2.83-1.97,2.71-1.48,6.56.03,9.56,1.24,2.46,3.04,5.01,4.85,7.09,1.52,1.75,3.23,2.96,3.8,5.39.94,4.01-.82,8.63-3.22,11.78-2.78,3.65-6.52,6.03-10.27,6.52-4.11.54-8.33-1.41-10.04-4.64-.94-1.77-1.3-4.03-1.15-7.11.51-10.32,3.42-19.22,7.95-30.25.09-.23.2-.51.31-.84.07-.22.15-.46.22-.71.12-.39.24-.83.36-1.3.12-.45.23-.93.34-1.45.14-.64.27-1.32.39-2.03.7-4.13.98-9.24-.49-12.87h0c-.38-.96-.89-1.81-1.54-2.51-.32-.34-.69-.67-1.14-.97-.47-.31-1.03-.58-1.68-.77-1.34-.39-3.09-.42-5.32.3-.1.03-.19.07-.29.1-.37.13-.71.29-1.04.47-.84.45-1.55,1.04-2.17,1.71-2.15,2.36-3.06,5.87-3.15,8.96,0,.04,0,.08,0,.11-.01.55-.02,1.15-.02,1.77-.02,2.26-.05,4.97-.5,7.38-.38,2.05-1.06,3.87-2.3,5-1.08.99-2.57,1.38-4.55,1.21-2.68-.24-5.24-2.17-8.05-6.09-.29-.41-.58-.82-.86-1.23-2.12-3.01-4.3-6.13-7.77-7.84-1.56-.78-3.41-1.08-5.19-.9-1.11.11-2.2.41-3.17.89-1.99.97-3.29,2.61-3.68,4.59-.44,2.24.28,4.65,2.15,7.16,1.65,2.22,3.69,4.03,5.73,5.74h0c.35.3.7.59,1.05.88,2.13,1.76,4.13,3.42,5.77,5.43,2.59,3.18,3.78,7.55,4.09,11.85.15,2.1.1,4.19-.1,6.11-.06.6-.33,1.38-.94,1.35-.21,0-.39-.12-.58-.23-.3-.18-.61-.34-.93-.49-2.89-1.39-6.33-1.62-9.37-.59-.97.33-1.92.79-2.65,1.53-1.43,1.47-1.69,3.68-2.17,5.68-.48,2-1.56,4.2-3.58,4.6-.58.11-1.23.04-1.67-.35-.64-.57-.61-1.56-.65-2.41-.09-2.01-1.06-4.14-2.79-5.06-.24-.13-.5-.23-.78-.31-1.29-.36-2.85-.13-3.79-1.08-.39-.39-.59-.93-.73-1.47-.23-.86-.31-1.77-.3-2.74h0c.04-4.22,1.81-9.24.42-13.02h0c-.31-.86-.78-1.64-1.47-2.35-.35-.36-.76-.7-1.23-1.01-.22-.15-.46-.28-.7-.39-.41-.19-.84-.33-1.28-.42-.25-.05-.5-.09-.76-.11-1.3-.11-2.68.18-3.97.86-2.26,1.19-3.7,3.32-3.73,5.54v.1c0,.64.08,1.25.16,1.81.11.78.21,1.45.04,1.95-.06.16-.22.67-1.15.8-.42.06-.87.02-1.31-.09-.69-.18-1.33-.55-1.73-1.04-.03-.04-.06-.08-.09-.12-.25-.35-.45-.73-.61-1.14-.46-1.15-.6-2.49-.65-3.91h0c-.02-.52-.03-1.04-.04-1.56,0-.38-.01-.74-.02-1.12,0-.25-.02-.49-.03-.74-.12-2.74-.51-5.44-1.15-8.08-.61-2.48-1.43-4.89-2.48-7.22,0,0,0,0,0,0-.63-1.42-1.35-2.81-2.15-4.16,0-.02-.02-.03-.02-.04-.34-.56-.68-1.12-1.04-1.66-2.09-3.18-4.49-5.1-6.97-5.59-.86-.17-1.72-.18-2.58,0-2.47.49-4.11,2.23-5.11,4.43-.71,1.56-1.1,3.35-1.23,5.09-.03.34-.05.68-.05,1.02-.04,1.77.02,3.54.17,5.3.12,1.47.29,2.93.49,4.38,0,.02.01.04.01.07,0,.05.02.11.02.16,0,.04.01.07.01.11h0c.14.99.3,1.97.45,2.94,0,0,0,.02,0,.03.15.94.31,1.87.47,2.79.84,5.04,1.65,9.84,1.58,14.66h0c0,.8-.04,1.61-.11,2.41-.06.83-.24,1.83-.59,2.66h0c-.51,1.17-1.39,1.98-2.85,1.36-1.07-.45-1.68-1.21-3.01-1.39-.63-.08-1.25-.06-1.86.03-1.16.16-2.28.57-3.42.97-1.04.37-2.09.72-3.19.87-.47.06-.95.09-1.44.06-.89-.05-1.77-.19-2.63-.42-2.51-.68-4.81-2.14-6.33-4.26-2.54-3.53-2.89-8.11-3.78-12.36-1.06-5.04-3-9.89-5.7-14.26-1.12-1.82-2.41-3.59-4.19-4.76-1.79-1.17-4.15-1.64-6.07-.71-1.75.83-2.85,2.68-3.22,4.58-.36,1.9-.09,3.87.32,5.77.48,2.29,1.12,4.77.1,6.87-1.28,2.62-4.78,3.49-7.58,2.68-.36-.11-.71-.23-1.06-.38v18.17c7.24,1.69,15.3,4.12,16.93,12.45.09.45.15.9.17,1.35h0Z"/>
            <g>
              <path class="cls-1" d="m57.56,398.11c-3.62.71-7.14,1.75-10.3,3.59-3.12,1.82-5.51,5.46-5.89,8.78-.3,2.61.52,5.24,2.23,7.22,1.15,1.32,2.74,2.32,3.78,3.71,1.23,1.63,1.98,3.78,2.48,5.72.17.64.3,1.33.07,1.98-.14.39-.4.75-.63,1.11-1.27,2-1.51,4.45-.83,6.58.71,2.23,1.9,3.61,4.18,4.43,2.16.78,4.59.77,6.93.62,4.21-.27,8.42-.97,12.52-2.08.71-.19,1.44-.41,2.05-.82,1.57-1.07,1.84-3.44,2.36-5,.71-2.11,1.32-4.04,1.33-6.26.03-7.85-5.61-14.69-5.56-22.55.01-2.17.72-4.6-.14-6.65-1.17-2.8-5.28-1.79-7.91-1.43-2.21.3-4.46.62-6.67,1.05Z"/>
              <path class="cls-3" d="m38.7,439.36c.39.71.87,1.47,1.7,1.7.46.13.97.07,1.43-.11.32-.13.63-.31.89-.53.03-.03.06-.05.09-.08,2.37-2.1,1.97-6.15,3.67-8.74.55-.84,1.36-1.62,2.38-1.8,1.62-.29,1.65.88,2.25,1.72.84,1.16,2.35,2.24,3.48,3.15,4.04,3.27,9.38,5.15,14.9,5.25,1.47.03,2.9-.11,4.3-.34,5.13-.31,10.58-1.73,15.1-3.85,5.09-2.39,9.69-6.47,11.38-11.59.55-1.66,1.17-2.74,2.36-4.11.66-.75,2.37-2.35,1.38-3.31-.84-.82-2.64-.85-3.67-1.44-1.07-.59-2.01-1.37-2.84-2.22-3.43-3.53-5.02-8.1-7.94-11.94-2.37-3.12-6.31-4.63-10.44-4.95-3.67-.28-7.41.33-11.06,1.17-2.63.61-5.26,1.35-7.64,2.64-3.05,1.65-5.51,4.1-7.91,6.51-2.1,2.1-3.35,4.08-4.58,6.65-.86,1.8-1,3.72-1.01,5.61,0,1.38.04,2.97-1.78,3.54-.76.24-1.57.14-2.33-.02-1.3-.27-2.53-.73-3.66-1.35-1.92-1.06-3.48-2.57-5.21-3.88,0,0-.02-.02-.03-.02-.03-.02-.06-.04-.09-.07-.41-.3-.94-.56-1.43-.35-.6.26-.68.99-.65,1.58.41,7.27,3.45,14.9,6.93,21.19Z"/>
              <path class="cls-1" d="m83.16,413.4c.91-1.55,2.16-2.93,3.96-3.53,2.26-.76,5.27.49,6.34,2.29.45.75.65,1.61.81,2.47.55,2.93.66,5.96.31,8.98-.2,1.7-.56,3.46-1.64,4.9-.66.88-3.05,1.17-3.97.72-.59-.29-1.02-.78-1.42-1.27-1.38-1.63-2.81-3.4-4.39-4.88-.68-.64-1.44-1.24-1.84-2.06-.74-1.51-.08-3.34.57-4.96.35-.87.76-1.79,1.27-2.66Z"/>
              <path class="cls-1" d="m38.7,439.36c.39.71.87,1.47,1.7,1.7.46.13.97.07,1.43-.11.32-.13.63-.31.89-.53.03-.03.06-.05.09-.08-.27-1.26-1.05-2.58-1.52-3.33-.5-.79-1.12-1.5-1.58-2.31-.45-.79-.73-1.66-1-2.52-1.45-4.54-3.41-9.15-4.33-13.8-.07-.38-.26-.93-.53-1.44-.41-.3-.94-.56-1.43-.35-.6.26-.68.99-.65,1.58.41,7.27,3.45,14.9,6.93,21.19Z"/>
              <path class="cls-5" d="m63.79,430.4c-.39-1.27-.56-2.58-.34-3.93.08-.49.21-.99.21-1.48-.01-1.62-1.4-2.85-2.03-4.33-.64-1.51-.46-3.27-.98-4.83-.26-.78-.69-1.51-.84-2.32-.12-.64-.05-1.3.01-1.95.1-1.05.21-2.11.31-3.16.14-1.4.28-2.83.92-4.14-.06,2.16-.09,4.23.37,6.33.44,2.04,1.07,4.08,1.76,6.05,1.18,3.98,1.48,8.14,2.15,12.24.38,2.31.9,4.6,1.79,6.76.07.17-.44.34-.54.19-1.06-1.65-2.19-3.48-2.79-5.42Z"/>
              <path class="cls-5" d="m55.35,424.51s-.02-.06-.03-.1c-.28-.83-.71-1.62-.82-2.49-.07-.5-.03-1-.06-1.5-.11-2.08-1.26-3.84-1.55-5.89-.23-1.59-.12-3.24.6-4.78,0-.02,0-.03,0-.05.03-.41.47-.11.53,0,.12.2.1,1.01.14,1.3.2,1.24.33,2.3.9,3.44.58,1.15,1.29,2.26,1.55,3.51.29,1.37.03,2.82.28,4.19.24,1.32.94,2.52,1.18,3.85.34,1.87-.26,3.89.32,5.69.16.51.42,1.05.19,1.56-.16-.11-.31-.22-.45-.34-1.18-1.01-1.7-2.52-1.97-4.02-.27-1.46-.35-2.97-.81-4.38Z"/>
              <path class="cls-5" d="m49.97,420.07c.12-.83.34-1.67.56-2.49.33.87.66,1.75.98,2.62.27.71.53,1.42.67,2.17.2,1.12.09,2.31.45,3.39.31.96.63,1.91,1.03,2.85.07.16-.42.33-.52.22-.78-.88-1.44-1.85-1.82-2.94-.42-1.19-1.09-2.3-1.33-3.55-.15-.75-.13-1.51-.02-2.28Z"/>
              <path class="cls-5" d="m69.56,430.65c-.13-.66-.24-1.32-.32-1.99-.36-2.93-.22-5.94-.86-8.82-.19-.88-.46-1.75-.58-2.65-.1-.78-.09-1.56-.15-2.35-.17-2.3-.92-4.49-1.69-6.64-.25-.69-.5-1.38-.57-2.12-.05-.55,0-1.1.06-1.65.13-1.3.26-2.61.71-3.86,1.17,2.72,1.31,5.61,1.66,8.52.15,1.2.31,2.39.56,3.57.24,1.15.59,2.27.97,3.39.74,2.21,1.51,4.4,1.62,6.76.13,2.73.45,5.4.63,8.12.12,1.83-.21,3.72.21,5.49.18.74.48,1.56.06,2.25-1.22-2.54-1.77-5.31-2.31-8.04Z"/>
              <path class="cls-5" d="m74.93,409.86c.05-1.1.17-2.19.3-3.22.09-.7.17-1.41.13-2.11-.07-1.26-.53-2.47-.46-3.74.06-1.2.62-2.4,1.54-3.3.39,1.1.01,2.35.17,3.52.09.64.33,1.24.49,1.87.28,1.08.29,2.22.07,3.34-.21,1.03.03,2.04.02,3.08-.01,1.32-.45,2.68-.2,3.98.23,1.24.92,2.5.39,3.8-.05.13-.4.32-.52.18-1.73-2.02-2.04-4.74-1.92-7.4Z"/>
              <path class="cls-5" d="m77.43,427.97c-.06-.31-.1-.62-.14-.94-.13-1.18-.27-2.35-.39-3.53-.1-.93-.18-1.9.12-2.82,1.69,1.82,1.92,4.45,2.82,6.73.48,1.23,1.18,2.38,1.61,3.63.49,1.39.57,2.89.95,4.3.05.18-.4.32-.52.22-.85-.75-1.59-1.69-2.08-2.68-.48-.98-.71-2.02-1.35-2.94-.27-.4-.59-.77-.79-1.21-.11-.24-.19-.5-.24-.75Z"/>
              <path class="cls-5" d="m89.35,415.91c-.12-.8-.01-1.74.57-2.24,1.14-.98,2.64.02,3.11.99.28.58.36,1.25.32,1.9-.02.37-.09.75-.33,1.06-.34.44-.98.62-1.54.56-.82-.09-1.51-.63-1.84-1.32-.12-.25-.22-.59-.28-.95Z"/>
              <path class="cls-3" d="m90.08,415.09c0-.08,0-.16.05-.24.07-.11.19-.19.32-.24,0,0,.02,0,.03,0,0,0,0,0,.01,0,.08-.04.21-.08.3-.05.01,0,.03,0,.04,0,.19,0,.34.1.42.25.08.14.1.32.11.48.02.18,0,.36-.15.5-.17.18-.46.28-.7.23-.18-.04-.27-.23-.34-.37-.09-.16-.14-.35-.11-.54Z"/>
              <path class="cls-5" d="m99.15,417.41c.59.3,1.26.48,1.95.46.36,0,.64-.05.99-.14,0,0,.01,0,.02,0,0,0,.01,0,.02,0,.04-.01.08-.03.12-.04.09-.03.17-.06.26-.1.01,0,.04-.02.04-.02.04-.02.08-.04.11-.05.1-.05.19-.1.28-.15.17-.1.56-.21.72-.06.17.16-.14.36-.27.44-1.54.87-3.58,1.02-5.09.24-.45-.23.53-.73.84-.57Z"/>
              <path class="cls-5" d="m38,422.2c1.39.72,2.95,1.16,4.57,1.26.12,0,.13.1.06.18-.09.09-.26.14-.38.13-1.66-.11-3.26-.55-4.67-1.29-.22-.12.27-.37.42-.29Z"/>
              <path class="cls-5" d="m39.1,427.45c0-.11.21-.18.3-.2,1.18-.33,2.36-.66,3.54-.99.08-.02.25-.02.24.09,0,.11-.21.18-.3.2-1.18.33-2.36.66-3.54.99-.08.02-.25.02-.24-.09Z"/>
              <path class="cls-5" d="m40.01,430.03c1.47-.47,2.95-.94,4.42-1.4.08-.03.28-.07.31.03.03.1-.15.19-.22.22-1.47.47-2.95.94-4.42,1.4-.08.03-.28.07-.31-.03-.03-.1.15-.19.22-.22Z"/>
              <path class="cls-5" d="m42.23,433.64c.51-1.12,1.36-2.1,2.42-2.82.1-.07.27-.13.38-.08.11.05.04.15-.04.2-1,.69-1.78,1.62-2.26,2.67-.07.16-.61.27-.51.04Z"/>
            </g>
          </g>
        </g>
        <g>
          <path class="cls-3" d="m120.81,125.15c-.7-.41-1.4-.84-2.1-1.28-3.63-2.31-7.68-3.79-11.97-4.21-5.1-.5-4.76,3.76-2.64,7.31,1.78,2.98,3.56,5.96,5.33,8.95-21.86-3.81-41.88-14.9-63.64-19.31-1.63-.33-3.33-.62-4.96-.26-6.63,1.48-.5,6.7,2.16,8.68,4.03,3.01,8.44,5.46,12.86,7.84,16.33,8.83,33.46,17.12,51.91,19.14,8.87.97,27.49.03,25.29-13.3-.49-2.97-2.16-5.64-4.24-7.81-2.41-2.51-5.18-4.08-8.01-5.76Z"/>
          <path class="cls-1" d="m385.49,154.08c.02.32.04.63.07.95.09,1.17.25,2.47,1.15,3.23,1.23,1.04,3.11.52,4.52-.24,5.23-2.81,8.71-7.96,11.98-12.91,3.05-4.63,6.11-9.26,8.79-14.12,1.6-2.9,7.38-11.42,4.91-14.72-.55-.74-1.5-1.04-2.4-1.22-5.14-1.08-10.56.12-15.31,2.36-4.91,2.31-11.8,5.24-12.68,11.26-1.2,8.31-1.58,16.99-1.03,25.42Z"/>
          <path class="cls-3" d="m479.06,109.63c-.08.8-.27,1.58-.72,2.02-.67.65-2.73,1.04-3.6,1.24-2.46.58-5.02.21-7.53-.04-3.58-.36-7.18-.48-10.77-.39-4.99.13-9.96.69-14.91,1.24-10.55,1.18-20.54,5.07-30.45,8.75-10.35,3.84-20.93,7.1-31.65,9.74-5.38,1.33-10.84,2.26-16.23,3.51-2.64.61-5.66,1.96-8.37,1.96-.25,0-.54-.02-.84-.09-14.91,1.59-29.84,3.19-44.76,4.78-1.76.19-3.52.38-5.29.57-3.67.39-7.34.79-11.03.86-4.46.1-9.17-.89-13.52-.1-4.84.87-9.79,1.29-14.7,1.84-10.38,1.16-20.77,2.25-31.19,3.04-18.46,1.38-36.92,2.67-55.4,4-17.21,1.24-34.57,2.47-51.65.02-1.13-.16-2.28-.34-3.38-.63-1.28-.32-2.52-.76-3.64-1.44-2.1-1.28-3.76-3.56-3.62-6.01.11-1.83,1.19-3.48,2.5-4.77,3.52-3.45,8.57-4.7,13.34-5.95,29.27-7.67,57.68-19.83,84.4-33.71,5.49-2.85,11.27-5.13,17-7.48,15.03-6.05,29.4-12.73,43.38-20.92,3.26-1.91,6.27-2.48,4.75-6.65-1-2.72-3.02-5.03-4.75-7.32-2.49-3.29-5.33-6.31-8.09-9.37-.45-.5-.92-1.03-1.09-1.68-1.52-5.75,13.66-5.94,16.6-5.79,9.6.53,18.16,2.39,26.09,8.08,1.51,1.08,2.97,2.19,4.28,3.48,1.96,1.94,4.49,5.49,7.5,5.81,1.56.17,3.69-.87,5.21-1.22,2.06-.47,4.14-.88,6.23-1.24,8.05-1.38,16.22-1.95,24.35-2.52,15.42-1.08,30.92.8,46.36,2.2,3.39.31,6.78.62,10.13,1.21,5.26.93,10.38,2.53,15.37,4.4,4.07,1.53,8.07,3.25,11.8,5.48,7.18,4.29,13.19,10.48,17.37,17.72.85,1.48,1.74,2.94,2.61,4.34.61.99.48,2.19.85,3.26.51,1.53,2.17,1.73,3.46,2.27,1.76.74,3.45,1.65,5.06,2.66,3.61,2.26,7.33,4.99,8.3,9.27.1.47.18.96.22,1.47.04.54.08,1.32,0,2.08Z"/>
          <path class="cls-1" d="m479.06,109.63c-.08.8-.27,1.58-.72,2.02-.67.65-2.73,1.04-3.6,1.24-2.46.58-5.02.21-7.53-.04-3.58-.36-7.18-.48-10.77-.39-4.99.13-9.96.69-14.91,1.24-10.55,1.18-20.54,5.07-30.45,8.75-10.35,3.84-20.93,7.1-31.65,9.74-5.38,1.33-10.84,2.26-16.23,3.51-2.64.61-5.66,1.96-8.37,1.96-.25,0-.54-.02-.84-.09-14.91,1.59-29.84,3.19-44.76,4.78-1.76.19-3.52.38-5.29.57-3.67.39-7.34.79-11.03.86-4.46.1-9.17-.89-13.52-.1-4.84.87-9.79,1.29-14.7,1.84-10.38,1.16-20.77,2.25-31.19,3.04-18.46,1.38-36.92,2.67-55.4,4-17.21,1.24-34.57,2.47-51.65.02-1.13-.16-2.28-.34-3.38-.63.96-1.33,2.29-2.43,3.85-3.16,5.8-2.72,12.08-4.22,18.37-5.41,34.06-6.49,69.36-4.52,103.3-11.63,16.25-3.41,32.63-5.71,48.62-10.7,5.8-1.8,11.68-2.17,17.64-3.54,14.5-3.31,28.84-6.83,43.44-9.75l40.54-8.1c25.4-5.08,49.7-2.68,74.54,4.25,1.82.5,3.77,1.2,5.48,2.15.1.47.18.96.22,1.47.04.54.08,1.32,0,2.08Z"/>
          <path class="cls-1" d="m416.28,92.53c-.86-.65-2.34-.06-3.3.02-1.62.13-3.3.09-4.94.22-2.65.2-5.31-.05-7.96.07-5.06.21-9.96,1.73-14.87,3-7.68,1.98-15.52,3.38-23.41,4.18-8.7.88-17.72,1.08-25.64,4.78-5.1,2.38-.06,5.23,2.24,7.43.38.36.77.74.96,1.23.45,1.18-.41,2.43-1.21,3.41-6.45,7.93-12.11,16.51-16.87,25.56-2.22,4.22-7.49,13.73-1.48,17.14,4.27,2.43,10.21-1.84,13.49-4.33,9.59-7.28,19.03-14.75,28.32-22.41,6.89-5.68,13.33-11.69,20.24-17.27,1.89-1.53,3.82-3.02,5.8-4.47,2.92-2.14,5.85-4.28,9.04-6,2.5-1.35,5.13-2.42,7.71-3.6,3.71-1.69,7.31-3.6,10.91-5.51.52-.28,1.07-.57,1.39-1.07.48-.74.29-1.84-.41-2.37Z"/>
          <path class="cls-5" d="m428.62,88.77c-.79-1.27-2.42-1.58-3.8-1.61-1.06-.03-2.59.02-3.19,1.08-.36.63-.09,1.37.35,1.87.16.18.34.33.53.48.39.37.86.64,1.36.83.57.21,1.16.33,1.77.39.69.07,1.47.11,2.13-.15,1.16-.45,1.49-1.87.86-2.89Z"/>
          <path class="cls-5" d="m462.93,95.66c-1.56-.5-3.16-.81-4.8-.92-.16-.01-.47.02-.54.2-.07.19.21.25.34.26,1.49.11,2.97.38,4.39.84.2.06.45.07.63-.05.14-.09.16-.26-.03-.32Z"/>
        </g>
      </g>
    </g>
  </g>
</svg>