<?xml version="1.0" encoding="UTF-8"?>
<svg id="Calque_2" data-name="Calque 2" xmlns="http://www.w3.org/2000/svg" width="255.54" height="154.5" viewBox="0 0 255.54 154.5">
  <defs>
    <style>
      .cls-1 {
        fill: #345273;
        stroke-width: 0px;
      }
    </style>
  </defs>
  <g id="Label">
    <g>
      <path class="cls-1" d="m129.34,154.5c-44.69-.78-79.69-18.62-108.6-49.24-7.28-7.71-13.46-16.49-19.86-24.99-.97-1.29-1.21-4.33-.36-5.59C25.41,37.83,57.74,11.01,102.49,2.54c44.79-8.47,83.98,4.6,118.36,33.57,12.95,10.91,23.8,23.72,33.31,37.7,1.45,2.13,2.05,3.79.38,6.23-23.99,34.97-54.78,60.62-96.85,70.85-4.2,1.02-8.48,1.8-12.77,2.31-5.78.68-11.61.98-15.57,1.3Zm-1.87-25.96c28.27.03,51.31-22.75,51.54-50.96.23-28.34-22.86-51.72-51.21-51.84-28.47-.12-51.6,22.79-51.73,51.26-.14,28.42,22.89,51.51,51.4,51.54Z"/>
      <path class="cls-1" d="m127.55,46.4c17.05-.02,30.87,13.78,30.85,30.81-.02,17.06-13.81,30.76-30.92,30.74-17.13-.03-30.84-13.72-30.86-30.81-.02-16.96,13.82-30.71,30.94-30.74Z"/>
    </g>
  </g>
</svg>