<?xml version="1.0" encoding="UTF-8"?>
<svg id="Calque_2" data-name="Calque 2" xmlns="http://www.w3.org/2000/svg" width="263.67" height="147.26" viewBox="0 0 263.67 147.26">
  <defs>
    <style>
      .cls-1 {
        fill: #66c1bf;
      }

      .cls-1, .cls-2, .cls-3 {
        stroke-width: 0px;
      }

      .cls-2 {
        fill: #fff;
      }

      .cls-4 {
        fill: none;
        stroke: #335472;
        stroke-linecap: round;
        stroke-linejoin: round;
        stroke-width: 4px;
      }

      .cls-3 {
        fill: #335472;
      }
    </style>
  </defs>
  <g id="Label">
    <g id="Groupe_33" data-name="Groupe 33">
      <path id="Tracé_61" data-name="Tracé 61" class="cls-1" d="m129.78,81.06c17.24,35.86,89.22,37.9,107.47,4.1,18.25-33.81,3.29-75.04-49.55-84.13-52.84-9.09-75.15,44.17-57.92,80.04"/>
      <path id="Tracé_62" data-name="Tracé 62" class="cls-3" d="m30.51,119.04c17.24,35.86,89.22,37.9,107.47,4.1,18.25-33.81,3.29-75.04-49.56-84.13C35.58,29.91,13.27,83.18,30.51,119.04"/>
      <path id="Tracé_63" data-name="Tracé 63" class="cls-3" d="m39.67,105.95C22.82,119.31,1.17,110.8.05,114.56c-1.23,4.14,21.44,22.86,47.42,7.01"/>
      <path id="Tracé_64" data-name="Tracé 64" class="cls-1" d="m226.14,42.23c21.49.36,33.51-19.56,36.68-17.25,3.49,2.54-3.13,31.18-33.39,34.39"/>
      <path id="Tracé_65" data-name="Tracé 65" class="cls-2" d="m81.45,127.87c-1.66,1.37-3.75,2.11-5.9,2.09-2,0-3.94-.62-5.57-1.77-1.53-.87-2.5-2.47-2.57-4.23.11-1.86,1.03-3.59,2.52-4.72,1.62-1.48,3.75-2.29,5.95-2.26,2.12-.13,4.23.44,6,1.61,1.47,1.16,2.27,2.97,2.14,4.83-.12,1.8-1.07,3.44-2.57,4.45m-8.68-19.56c-2.14-1.79-3.3-4.5-3.11-7.29.03-2.59.96-5.09,2.63-7.08,2.22-2.62,4.84-4.86,7.77-6.64l14.69-9.66c1.02-.67,1.92-1.51,2.68-2.47.62-.95.92-2.08.86-3.22,0-.86-.59-1.61-1.77-2.25-1.24-.66-2.62-.99-4.02-.96-1.91-.09-3.83.21-5.63.86-1.37.6-2.66,1.4-3.81,2.36-.76.66-1.58,1.24-2.47,1.71-.91.4-1.9.58-2.9.54-1.85,0-3.62-.8-4.83-2.2-1.26-1.23-1.99-2.9-2.04-4.66,0-1.36,1.04-2.7,3.11-4.02,2.49-1.49,5.21-2.58,8.04-3.22,3.3-.82,6.68-1.24,10.08-1.23,5.1-.16,10.16.95,14.74,3.22,4.04,2.14,6.06,5,6.06,8.58-.11,2.92-1.27,5.7-3.27,7.83-2.41,2.78-5.21,5.2-8.3,7.18l-11.9,7.93c-4.65,3.15-6.97,5.51-6.97,7.08-.03.95.47,1.84,1.29,2.31,1.59.69,3.31,1,5.04.91.29,0,.43.22.43.64-.13.88-.53,1.7-1.13,2.36-.85,1.09-1.91,2-3.11,2.67-1.31.78-2.81,1.19-4.34,1.18-2.82.11-5.58-.76-7.83-2.47"/>
      <path id="Tracé_66" data-name="Tracé 66" class="cls-4" d="m156.65,38.66c18.72-.93,37.56-1.33,56.38-1.2"/>
      <path id="Tracé_67" data-name="Tracé 67" class="cls-4" d="m156.65,56.38c18.72-.93,37.56-1.33,56.38-1.2"/>
      <path id="Tracé_68" data-name="Tracé 68" class="cls-4" d="m156.65,74.1c18.72-.93,37.56-1.33,56.38-1.2"/>
    </g>
  </g>
</svg>