<?xml version="1.0" encoding="UTF-8"?>
<svg id="Calque_2" data-name="Calque 2" xmlns="http://www.w3.org/2000/svg" width="424.86" height="495.93" xmlns:xlink="http://www.w3.org/1999/xlink" viewBox="0 0 424.86 495.93">
  <defs>
    <style>
      .cls-1 {
        fill: #66c1bf;
      }

      .cls-1, .cls-2, .cls-3, .cls-4 {
        stroke-width: 0px;
      }

      .cls-2 {
        fill: none;
      }

      .cls-3 {
        fill: #fff;
      }

      .cls-5 {
        clip-path: url(#clippath);
      }

      .cls-4 {
        fill: #335472;
      }
    </style>
    <clipPath id="clippath">
      <rect class="cls-2" y="0" width="424.86" height="495.93"/>
    </clipPath>
  </defs>
  <g id="Label">
    <g id="Groupe_29" data-name="Groupe 29">
      <g class="cls-5">
        <g id="Groupe_28" data-name="Groupe 28">
          <g id="Tracé_46" data-name="Tracé 46">
            <path class="cls-3" d="m130.11,208.43c-6.93-47.95-66.57-129.84-69.18-145.86C56.72,36.72,95.82-4.18,128.29,4.84c17.19,4.78,51.59,29.74,63.47,33.79,10.49,3.57,14.29,13.16-9.95,14.99-5.51.47-11.04.52-16.56.16,0,0,47.68,73.13,13.23,150.77l-48.36,3.88Z"/>
          </g>
          <g id="Tracé_47" data-name="Tracé 47">
            <path class="cls-4" d="m130.11,213.43c-2.46,0-4.59-1.81-4.94-4.28-4.29-29.66-29.88-73.54-48.56-105.59-12.82-22-19.57-33.77-20.61-40.18-2.35-14.42,6.48-33.01,22.48-47.35C94.6,1.59,113.72-4.4,129.63.02c10.5,2.92,26.3,12.46,40.23,20.88,9.74,5.88,18.94,11.44,23.51,13,7.77,2.65,12.16,7.67,11.47,13.11-.84,6.63-8.47,10.53-22.66,11.6-2.7.23-5.43.36-8.17.4,4.3,8.11,10.77,21.99,15.6,39.73,7.16,26.32,11.83,66.39-6.56,107.84-.74,1.67-2.34,2.81-4.17,2.96l-48.36,3.88c-.14.01-.27.02-.4.02ZM118.82,8.58c-10.83,0-22.89,5.24-33.66,14.89-13.11,11.75-21.04,27.5-19.29,38.3.79,4.87,9.82,20.36,19.38,36.75,18.18,31.18,42.76,73.34,49.01,104.56l40.82-3.28c30.7-73.3-13.56-142.6-14.02-143.3-1.03-1.59-1.08-3.62-.13-5.25s2.75-2.59,4.64-2.47c5.25.34,10.57.29,15.81-.16,8.38-.63,11.82-2.14,13.07-2.92-.71-.66-2.11-1.6-4.31-2.35-5.59-1.9-14.8-7.47-25.46-13.9-13.39-8.09-28.56-17.25-37.74-19.8-2.6-.72-5.33-1.08-8.14-1.08Z"/>
          </g>
          <g id="Tracé_48" data-name="Tracé 48">
            <path class="cls-4" d="m146.56,47.06c-1.42,0-2.82-.6-3.81-1.76l-3.02-3.55c-1.79-2.1-1.53-5.26.57-7.05,2.1-1.79,5.26-1.53,7.05.57l3.02,3.55c1.79,2.1,1.53,5.26-.57,7.05-.94.8-2.09,1.19-3.23,1.19Z"/>
          </g>
          <g id="Tracé_49" data-name="Tracé 49">
            <path class="cls-1" d="m83.85,445.22c-8.55-47.04-93.44-182.95-56.67-221.16,34.19-35.54,264.41-50.37,315.88,8.2,59.48,67.69-2.62,138.84-2.62,138.84l-256.59,74.13Z"/>
          </g>
          <g id="Tracé_50" data-name="Tracé 50">
            <path class="cls-3" d="m286.6,148.84c-12.84-26.24-29.04-50.71-48.18-72.78-1.38-1.78-3.06-3.3-4.96-4.51-1.47-.76-3.04-1.29-4.67-1.57-19.84-4.1-41.77,8.12-48.73,27.15-.61,1.68-1.1,3.63-.19,5.17,1.89,3.2,6.8,1.15,9.7-1.18,5.92-4.77,11.82-9.55,17.71-14.35-4.45,6.43-8.7,13.2-10.59,20.79-1.89,7.59-1.07,16.22,3.85,22.31,11.17-7.94,16.92-21.28,22.14-33.94-6.44,13.06-10.96,26.98-13.4,41.34-.24,1.43-.43,3.02.4,4.2,1.57,2.24,5.07,1.18,7.37-.3,8.58-5.56,15.03-13.85,18.32-23.53-11.97,21.21-2.9,44.04,5.6,66.86"/>
          </g>
          <g id="Tracé_51" data-name="Tracé 51">
            <path class="cls-4" d="m240.97,189.48c-2.03,0-3.94-1.24-4.69-3.26l-.69-1.84c-5.24-14.05-10.59-28.39-10.99-42.61-1.54,1.28-3.15,2.48-4.84,3.57-5.47,3.53-11.3,3.1-14.19-1.03-2.07-2.95-1.51-6.3-1.23-7.9.21-1.22.43-2.44.67-3.66-.52.4-1.04.8-1.58,1.18-2.15,1.53-5.12,1.12-6.79-.93-5.48-6.78-7.28-16.74-4.81-26.66.07-.29.15-.57.22-.86-1.93,1.42-6.3,4.11-10.82,3.3-2.42-.44-4.44-1.84-5.69-3.95-2.26-3.81-.71-8.04-.2-9.43,7.79-21.29,32.16-34.88,54.36-30.34,2.1.38,4.13,1.06,6.03,2.05.13.07.25.14.38.22,2.36,1.49,4.43,3.36,6.15,5.55,19.38,22.36,35.8,47.18,48.81,73.76,1.21,2.48.19,5.48-2.29,6.69-2.48,1.21-5.48.19-6.69-2.29-12.65-25.84-28.62-49.97-47.47-71.7-.06-.07-.12-.14-.17-.21-.99-1.27-2.16-2.35-3.51-3.23-.96-.48-1.99-.81-3.04-.99-.05,0-.1-.02-.15-.03-17.33-3.58-36.35,6.84-42.77,23.3.45-.25.94-.57,1.43-.96,5.91-4.76,11.81-9.54,17.69-14.33,1.93-1.57,4.72-1.49,6.55.2,1.83,1.69,2.14,4.47.72,6.51-3.84,5.56-8.09,12.09-9.85,19.16-1.19,4.8-1.03,9.52.37,13.41,4.48-4.47,7.93-10.14,10.78-15.93,1.65-4.25,3.49-8.43,5.51-12.53,1.19-2.42,4.09-3.45,6.54-2.34,2.46,1.11,3.59,3.97,2.56,6.46-1.64,3.96-3.4,8.25-5.49,12.53-3.3,8.58-5.77,17.47-7.4,26.54,5.33-3.47,9.77-8.19,12.94-13.67.94-2.7,2.15-5.39,3.66-8.07,1.27-2.25,4.04-3.16,6.4-2.11,2.36,1.05,3.52,3.73,2.69,6.17-.94,2.77-2.13,5.45-3.53,8.01-5.41,16.66,1.32,34.7,8.39,53.65l.69,1.85c.96,2.59-.35,5.47-2.94,6.43-.57.21-1.17.32-1.74.32Z"/>
          </g>
          <g id="Tracé_52" data-name="Tracé 52">
            <path class="cls-1" d="m214.44,157.92l73.23-24.12s156.76,174.89,112.2,217.1c-44.56,42.21-112.17,15.08-124.06-13.57-11.88-28.65-61.37-179.41-61.37-179.41"/>
          </g>
          <g id="Tracé_53" data-name="Tracé 53">
            <path class="cls-4" d="m344.43,377.7c-6.54,0-13.21-.7-19.9-2.13-25.1-5.34-46.52-19.94-53.32-36.33-11.82-28.49-59.48-173.61-61.5-179.77-.86-2.62.57-5.45,3.19-6.31,2.62-.86,5.45.57,6.31,3.19.49,1.51,49.56,150.91,61.24,179.06,5.51,13.27,24.49,25.77,46.17,30.38,15.34,3.26,44.8,5.19,69.83-18.52,2-1.9,5.17-1.81,7.07.19,1.9,2,1.81,5.17-.19,7.07-15.98,15.14-36.74,23.17-58.89,23.17Z"/>
          </g>
          <g id="Tracé_54" data-name="Tracé 54">
            <path class="cls-3" d="m294.71,370.45l42.6-42.08c6.27-6.19,12.83-12.58,20.65-15.73,1.43,13.74-6.1,29.54-18.23,38.28,10.61,1.59,22.23-3.85,32.07-10.85,9.84-7,18.68-15.66,28.77-22.18,3.87,7.77.43,18.79-5.86,26.62s-14.89,13.21-23.26,18.37l49.84-22.71c-.96,11.63-9.81,22.66-20.02,29.26-10.21,6.61-21.7,9.63-32.92,12.54,14.53-4.25,29.19-8.53,43.75-9.55-.16,5.6-5.77,10.19-10.93,12.87-11.3,5.87-23.49,8.08-35.41,9.79-25.4,3.65-50.71,5.43-75.99,7.22"/>
          </g>
          <g id="Tracé_55" data-name="Tracé 55">
            <path class="cls-4" d="m289.77,407.31c-2.6,0-4.8-2.01-4.98-4.65-.19-2.75,1.88-5.15,4.64-5.34,24.77-1.75,50.39-3.55,75.63-7.18,11.16-1.6,22.97-3.64,33.82-9.28,1.35-.7,2.58-1.47,3.65-2.26-5.91.97-11.85,2.36-17.78,3.93-5.16,1.71-10.29,3.04-15.13,4.29-2.65.69-5.35-.88-6.07-3.51-.73-2.63.79-5.36,3.42-6.13,4.97-1.45,9.99-2.92,15.06-4.27,5.74-1.92,11.35-4.3,16.55-7.67,6.57-4.25,11.83-10.01,14.89-15.99l-39.92,18.19c-2.4,1.09-5.24.13-6.48-2.2-1.24-2.33-.46-5.22,1.79-6.61,7.93-4.9,16.14-9.96,21.99-17.25,3.78-4.71,6.03-10.25,6.34-14.98-3.2,2.41-6.34,4.99-9.6,7.67-4.12,3.39-8.39,6.9-12.85,10.07-13.15,9.35-25.17,13.3-35.71,11.72-2.01-.3-3.64-1.79-4.12-3.77-.48-1.98.29-4.05,1.94-5.24,8.24-5.94,14.19-15.82,15.85-25.51-4.25,3.07-8.2,6.98-11.84,10.57l-42.6,42.08c-1.96,1.94-5.13,1.92-7.07-.04-1.94-1.96-1.92-5.13.04-7.07l42.6-42.08c6.28-6.2,13.39-13.22,22.3-16.81,1.46-.59,3.1-.45,4.45.36s2.23,2.2,2.39,3.76c1.13,10.85-2.64,22.77-9.67,32.28,5.78-1.99,11.29-5.32,15.64-8.41,4.18-2.97,8.3-6.36,12.29-9.64,5.29-4.35,10.76-8.85,16.67-12.66,1.2-.77,2.66-1,4.04-.62,1.37.38,2.52,1.32,3.15,2.6,4.36,8.78,1.55,19.75-3.68,28.1l17.85-8.13c1.62-.74,3.5-.56,4.95.46,1.45,1.02,2.25,2.73,2.11,4.5-.88,10.69-7.15,20.07-14.38,26.84,1.34-.05,2.68.45,3.66,1.39,1.02.98,1.58,2.34,1.54,3.75-.19,6.51-5.15,12.76-13.62,17.17-12.24,6.36-25.52,8.65-37.01,10.3-25.6,3.68-51.4,5.49-76.35,7.25-.12,0-.24.01-.36.01Z"/>
          </g>
          <g id="Tracé_56" data-name="Tracé 56">
            <path class="cls-1" d="m27.17,224.05c-54.47,40.71-11.75,273.91,98.02,268.21,92.57-4.81,196.24-85.57,196.24-85.57l-29.46-51.28s-152.32,28.59-172.48,27.09-37.02-96.42-37.02-96.42"/>
          </g>
          <g id="Tracé_57" data-name="Tracé 57">
            <path class="cls-4" d="m121.28,497.36c-43.8,0-81.9-36.2-104.99-100.1C4.23,363.88-2.21,325.83-1.36,292.87c.91-35.34,9.98-61.2,25.54-72.83,2.21-1.65,5.35-1.2,7,1.01,1.65,2.21,1.2,5.35-1.01,7-27.01,20.19-29.1,97.67-4.47,165.81,10.28,28.45,39.9,93.5,95.48,93.5,1.24,0,2.49-.03,3.75-.1,80.58-4.19,171.28-68.13,189.96-81.92l-25.49-44.37c-22.77,4.24-143.81,26.57-168.34,26.57-.74,0-1.39-.02-1.95-.06-6.91-.52-17.59-6.51-30.51-52.41-6.72-23.88-11.02-47.89-11.06-48.13-.48-2.72,1.33-5.31,4.05-5.8,2.72-.48,5.31,1.33,5.8,4.05.04.24,4.26,23.82,10.85,47.23,12.16,43.16,20.68,45.01,21.61,45.08,16.02,1.19,129-19.1,171.19-27.01,2.09-.39,4.2.58,5.26,2.42l29.46,51.28c1.24,2.16.7,4.9-1.26,6.44-.26.2-26.66,20.67-64.05,41.41-34.67,19.23-86.23,42.68-135,45.21-1.39.07-2.78.11-4.16.11Z"/>
          </g>
          <g id="Tracé_58" data-name="Tracé 58">
            <path class="cls-4" d="m191.71,108.8c-21.76,0-43.12-11.21-55.1-29.57-1.51-2.31-.86-5.41,1.45-6.92,2.31-1.51,5.41-.86,6.92,1.45,11.34,17.37,33.6,27.45,54.14,24.51,2.73-.39,5.27,1.51,5.66,4.24s-1.51,5.27-4.24,5.66c-2.93.42-5.89.63-8.83.63Z"/>
          </g>
          <g id="Tracé_59" data-name="Tracé 59">
            <path class="cls-4" d="m124.84,5.33c3.85,14.16,1.92,40.16-16.56,59.71-6.11-2.41-10.26-12.77-18.99-5.53-8.73,7.25-3.06,28.47,5.49,33.75,8.55,5.29,13.33-2.19,15.22-6.53,3.21,12.42,7.71,33.68,7.1,46.49-.18,3.82-39.62,8.02-50.29,7.01-.19-23.29-11.75-55.79-10.96-79.07.21-10.36,4.45-20.23,11.82-27.5,8.38-8.17,23.85-31.58,57.17-28.34"/>
          </g>
        </g>
      </g>
    </g>
  </g>
</svg>