<?xml version="1.0" encoding="UTF-8"?>
<svg id="Calque_2" data-name="Calque 2" xmlns="http://www.w3.org/2000/svg" width="160.8" height="120.85" viewBox="0 0 160.8 120.85">
  <defs>
    <style>
      .cls-1 {
        fill: #fff;
      }

      .cls-1, .cls-2 {
        stroke-width: 0px;
      }

      .cls-2 {
        fill: #335472;
      }
    </style>
  </defs>
  <g id="Label">
    <g>
      <path id="Tracé_62" data-name="Tracé 62" class="cls-2" d="m33.74,89.64c19.06,39.65,98.66,41.92,118.85,4.53,20.19-37.39,3.64-82.98-54.8-93.03C39.35-8.92,14.68,49.99,33.74,89.64"/>
      <path id="Tracé_63" data-name="Tracé 63" class="cls-2" d="m43.86,75.17C25.23,89.93,1.29,80.52.05,84.69c-1.36,4.58,23.71,25.28,52.44,7.75"/>
      <path id="Tracé_65" data-name="Tracé 65" class="cls-1" d="m90.08,99.41c-1.83,1.52-4.14,2.34-6.52,2.31-2.21,0-4.36-.68-6.16-1.96-1.69-.96-2.76-2.73-2.84-4.67.12-2.06,1.14-3.97,2.78-5.22,1.8-1.64,4.15-2.53,6.58-2.5,2.35-.14,4.68.48,6.64,1.78,1.63,1.28,2.51,3.28,2.37,5.34-.13,1.99-1.18,3.81-2.84,4.92m-9.6-21.64c-2.37-1.98-3.65-4.98-3.44-8.06.03-2.87,1.06-5.63,2.9-7.82,2.45-2.89,5.35-5.37,8.6-7.35l16.24-10.68c1.13-.75,2.13-1.67,2.97-2.73.68-1.06,1.01-2.3.95-3.56,0-.95-.65-1.78-1.95-2.49-1.37-.73-2.9-1.09-4.45-1.07-2.12-.09-4.23.23-6.22.95-1.52.67-2.94,1.54-4.21,2.61-.84.73-1.75,1.37-2.73,1.89-1.01.44-2.1.64-3.2.59-2.05,0-4-.88-5.34-2.43-1.39-1.36-2.2-3.21-2.25-5.16,0-1.5,1.15-2.98,3.44-4.45,2.76-1.65,5.76-2.85,8.89-3.56,3.65-.91,7.39-1.37,11.15-1.36,5.64-.17,11.24,1.05,16.3,3.56,4.47,2.37,6.7,5.53,6.7,9.48-.12,3.23-1.4,6.31-3.62,8.66-2.67,3.07-5.76,5.75-9.18,7.94l-13.16,8.77c-5.14,3.48-7.71,6.09-7.71,7.82-.03,1.05.52,2.03,1.43,2.55,1.75.76,3.66,1.1,5.57,1,.32,0,.47.24.47.71-.15.97-.58,1.88-1.25,2.61-.94,1.2-2.11,2.21-3.44,2.96-1.45.87-3.11,1.32-4.8,1.3-3.11.12-6.17-.84-8.66-2.73"/>
    </g>
  </g>
</svg>