<?xml version="1.0" encoding="UTF-8"?>
<svg id="Calque_2" data-name="Calque 2" xmlns="http://www.w3.org/2000/svg" width="114.11" height="76.89" viewBox="0 0 114.11 76.89">
  <defs>
    <style>
      .cls-1 {
        fill: #707070;
      }

      .cls-1, .cls-2, .cls-3, .cls-4 {
        stroke-width: 0px;
      }

      .cls-2 {
        fill: #66c1bf;
      }

      .cls-3 {
        fill: #fff;
      }

      .cls-4 {
        fill: #335472;
      }
    </style>
  </defs>
  <g id="Calque_1-2" data-name="Calque 1">
    <g id="Groupe_40" data-name="Groupe 40">
      <g id="Tracé_74" data-name="Tracé 74">
        <path class="cls-3" d="m24.86,1.95c9.16-4.94,13.69,6.18,20.44,17.17-1.74.64-3.67.52-5.31-.36.14,6.31-1.07,12.59-1.34,16.38l-10.08.67C23.27,27.59,15.15,7.19,24.86,1.95"/>
        <path class="cls-1" d="m28.18,36.57l-.23-.36c-4.55-7.06-9.99-20.71-7.87-28.93.71-2.75,2.2-4.76,4.43-5.96h0c8.49-4.57,13.21,3.5,18.67,12.84.88,1.5,1.78,3.04,2.73,4.58l.46.75-.83.31c-1.56.58-3.27.6-4.83.07,0,3.98-.49,7.89-.89,11.08-.2,1.64-.38,3.06-.46,4.25l-.04.63-11.14.74Zm.88-35.07c-1.2,0-2.47.34-3.87,1.09h0c-1.86,1-3.11,2.7-3.72,5.05-1.95,7.58,3.22,20.67,7.46,27.43l9.03-.6c.1-1.08.25-2.31.42-3.69.43-3.45.96-7.74.86-11.99l-.03-1.24,1.09.58c1.19.63,2.55.82,3.86.56-.77-1.28-1.52-2.55-2.25-3.8-4.28-7.32-7.83-13.39-12.87-13.39Z"/>
      </g>
      <g id="Tracé_75" data-name="Tracé 75">
        <path class="cls-4" d="m28.56,36.54c-.25,0-.48-.12-.61-.33-4.55-7.06-9.99-20.71-7.87-28.93.71-2.75,2.2-4.76,4.43-5.96h0c8.49-4.57,13.21,3.5,18.67,12.84.88,1.5,1.78,3.04,2.73,4.58.11.18.14.41.07.62-.07.2-.23.37-.43.44-1.56.58-3.27.6-4.83.07,0,3.98-.49,7.89-.89,11.08-.2,1.64-.38,3.06-.46,4.25-.03.36-.31.65-.67.67l-10.08.67s-.03,0-.05,0Zm.51-35.04c-1.2,0-2.47.34-3.87,1.09h0c-1.86,1-3.11,2.7-3.72,5.05-1.95,7.58,3.22,20.67,7.46,27.43l9.03-.6c.1-1.08.25-2.31.42-3.69.43-3.45.96-7.74.86-11.99,0-.26.13-.5.34-.63.22-.13.49-.14.72-.02,1.19.63,2.55.82,3.86.56-.77-1.28-1.52-2.55-2.25-3.8-4.28-7.32-7.83-13.39-12.87-13.39Zm-4.21.46h0,0Z"/>
      </g>
      <g id="Tracé_76" data-name="Tracé 76">
        <path class="cls-4" d="m33.16,2.38c-3.46.97-6.44,1.76-7.61,3.91s-.23,6.12-.4,8.54c-.38-1.25-2.6-2.06-3.09-.43-1.09,3.64,3.26,5.14,3.82,4.01.45,1.69-.74,4.76-3.07,5.52-1.14-3.19-4.66-13.81-1.19-18.84s9.74-5.95,11.53-2.71"/>
      </g>
      <g id="Tracé_77" data-name="Tracé 77">
        <path class="cls-4" d="m34.33,11.27c-.27,0-.53-.15-.65-.41-.33-.7-.54-1.44-.63-2.21-.05-.4.24-.76.64-.8.39-.05.76.24.8.64.07.61.24,1.2.5,1.75.17.36.02.79-.35.96-.1.05-.21.07-.31.07Z"/>
      </g>
      <g id="Tracé_78" data-name="Tracé 78">
        <path class="cls-4" d="m39.16,22.58c-.08,0-.17-.02-.26-.05-2.35-.88-4.15-2.75-4.95-5.13-.13-.38.08-.79.45-.92.38-.13.79.07.92.45.66,1.96,2.15,3.51,4.09,4.24.37.14.56.56.42.93-.11.29-.39.47-.68.47Z"/>
      </g>
      <g id="Tracé_79" data-name="Tracé 79">
        <path class="cls-2" d="m97.93,18.54c-4.59,6.89-13.78,20.84-14.76,20.72-.5-.06-15.8-12.19-25.42-12.38-6.17-.13-38.45,5.54-46.59,13.36C4.82,46.33.89,70.09,0,76.45c6.08,1.18,65.61-.35,65.9-.71.28-.34.99-13.07.33-25.74,3.04,1.85,9.13,8.71,22.81,6.19,8.2-1.51,16.94-22.4,17.15-29.92l-8.26-7.74Z"/>
      </g>
      <g id="Tracé_80" data-name="Tracé 80">
        <path class="cls-3" d="m98.74,3.27c.81-.46,1.73-.97,2.8-.04,1.02,1.67,1.73,3.5,2.11,5.41l-.42,2.31c2.09-1.15,4.81-2.26,6.7-.81.68.6,1.2,1.35,1.52,2.2,1.28,2.88,1.94,6,1.94,9.15.04.74-.08,1.47-.35,2.16-.3.59-.74,1.1-1.27,1.5-3.07,2.34-7.31,2.37-10.41.08-2.53-1.96-3.59-5.31-3.05-8.4.68-3.91,1.17-7.44.62-11.46-.13-.92-.18-2.08-.18-2.08"/>
        <path class="cls-1" d="m106.5,27.63c-1.97,0-3.93-.61-5.59-1.83-2.64-2.05-3.94-5.62-3.33-9.11.64-3.63,1.16-7.23.61-11.24-.13-.94-.18-2.1-.19-2.15l.72-.03-.36-.63c.81-.46,2.18-1.22,3.63.04l.08.07.06.1c1.06,1.74,1.8,3.64,2.2,5.64l.03.14-.19,1.01c1.96-.89,4.32-1.49,6.16-.08l.04.03c.76.67,1.35,1.52,1.71,2.47,1.32,2.98,1.99,6.14,1.99,9.4.04.83-.1,1.67-.4,2.44l-.03.06c-.35.69-.86,1.29-1.48,1.75-1.67,1.27-3.67,1.91-5.68,1.91Zm-7.01-23.94c.03.41.08,1.04.15,1.57.57,4.22.03,7.94-.62,11.69-.52,2.97.57,5.99,2.78,7.71,2.81,2.08,6.73,2.05,9.52-.08.44-.33.8-.75,1.05-1.22.22-.58.32-1.2.29-1.82v-.04c0-3.07-.63-6.05-1.88-8.85l-.02-.04c-.27-.72-.72-1.38-1.3-1.89-1.23-.93-3.1-.65-5.89.88l-1.34.73.67-3.67c-.36-1.75-1.01-3.41-1.93-4.94-.49-.38-.87-.33-1.49-.02Z"/>
      </g>
      <g id="Tracé_81" data-name="Tracé 81">
        <path class="cls-4" d="m106.5,27.63c-1.97,0-3.93-.61-5.59-1.83-2.64-2.05-3.94-5.62-3.33-9.11.64-3.63,1.16-7.23.61-11.24-.13-.94-.19-2.1-.19-2.15-.01-.27.13-.53.37-.67.81-.46,2.18-1.22,3.63.04.06.05.1.11.14.17,1.06,1.74,1.8,3.64,2.2,5.64.02.09.02.18,0,.27l-.16.87c1.96-.89,4.32-1.49,6.16-.08.01,0,.02.02.04.03.76.67,1.35,1.52,1.71,2.47,1.32,2.98,1.99,6.14,1.99,9.4.04.83-.1,1.67-.4,2.44,0,.02-.02.04-.03.06-.35.69-.86,1.29-1.48,1.75-1.67,1.27-3.67,1.91-5.68,1.91Zm-7.02-23.94c.03.41.08,1.03.15,1.57.58,4.22.03,7.94-.62,11.69-.52,2.97.57,5.99,2.78,7.71,2.81,2.08,6.73,2.05,9.52-.08.44-.33.8-.75,1.05-1.22.22-.58.32-1.2.29-1.82,0-.01,0-.03,0-.04,0-3.07-.63-6.05-1.87-8.85,0-.01-.01-.03-.02-.04-.27-.72-.72-1.38-1.3-1.89-1.23-.93-3.1-.65-5.89.88-.24.13-.55.12-.77-.05s-.34-.44-.29-.72l.4-2.17c-.36-1.75-1.01-3.41-1.93-4.94-.49-.38-.87-.33-1.49-.02Z"/>
      </g>
      <g id="Tracé_82" data-name="Tracé 82">
        <path class="cls-4" d="m107.5,26.44c-.16,0-.31,0-.47-.01-.02,0-.03,0-.04,0-.72,0-1.43-.24-2-.69-.02-.01-.03-.03-.05-.04-1.17-1.09-.75-2.91.13-4.13l.02-.03c-.87-.04-1.75-.22-2.58-.55-.22-.09-.39-.27-.44-.51-.14-.58,0-1.18.38-1.64.2-.3.42-.59.65-.87-.49-.06-.93-.29-1.26-.64,0-.01-.02-.02-.03-.03-.66-.81-.79-1.95-.33-2.89.4-.78.97-1.45,1.66-1.96,1.47-1.2,3.12-2.14,4.9-2.81.37-.14.79.05.93.42.14.37-.05.79-.42.93-1.64.62-3.15,1.49-4.51,2.59-.01,0-.02.02-.03.02-.52.37-.94.87-1.23,1.44-.2.42-.15.94.15,1.32.1.11.25.17.39.17.48-.01.95-.07,1.42-.16,1.11-.87,2.4-1.51,3.78-1.89.33-.09.67.06.83.36.16.3.09.67-.17.89-1.1.95-2.4,1.62-3.79,1.97-.67.56-1.27,1.22-1.76,1.97-.02.03-.04.05-.06.08-.02.02-.03.04-.04.06.99.3,2.03.37,3.03.2,1.03-.82,2.24-1.38,3.56-1.63.32-.06.65.11.79.4.14.3.06.65-.19.86-1.04.86-2.25,1.44-3.52,1.71-.35.31-.67.67-.96,1.05-.52.73-.79,1.74-.33,2.2.32.24.71.36,1.12.36.02,0,.04,0,.06,0,1.28.07,2.58-.18,3.74-.73.36-.17.79-.01.96.35.17.36.01.79-.35.96-1.23.57-2.58.87-3.93.87Z"/>
      </g>
    </g>
  </g>
</svg>